G04 #@! TF.FileFunction,Soldermask,Bot*
%FSLAX46Y46*%
G04 Gerber Fmt 4.6, Leading zero omitted, Abs format (unit mm)*
G04 Created by KiCad (PCBNEW 4.0.7-e2-6376~61~ubuntu18.04.1) date Wed Mar 18 18:40:07 2020*
%MOMM*%
%LPD*%
G01*
G04 APERTURE LIST*
%ADD10C,0.100000*%
%ADD11C,1.900000*%
%ADD12C,3.600000*%
%ADD13C,1.924000*%
G04 APERTURE END LIST*
D10*
D11*
X134086600Y-75971400D03*
D12*
X129006600Y-68351400D03*
X129006600Y-78511400D03*
D11*
X134086600Y-73431400D03*
X134086600Y-98018600D03*
D12*
X129006600Y-90398600D03*
X129006600Y-100558600D03*
D11*
X134086600Y-95478600D03*
X134112000Y-120015000D03*
D12*
X129032000Y-112395000D03*
X129032000Y-122555000D03*
D11*
X134112000Y-117475000D03*
X134112000Y-142113000D03*
D12*
X129032000Y-134493000D03*
X129032000Y-144653000D03*
D11*
X134112000Y-139573000D03*
D13*
X212547200Y-67183000D03*
X212547200Y-69723000D03*
X212547200Y-72263000D03*
X212547200Y-74803000D03*
X212547200Y-77343000D03*
X212547200Y-79883000D03*
X212547200Y-82423000D03*
X212547200Y-84963000D03*
X212547200Y-87503000D03*
X212547200Y-90043000D03*
X212547200Y-92583000D03*
X212547200Y-95123000D03*
X212547200Y-97663000D03*
X212547200Y-100203000D03*
X212547200Y-102743000D03*
X212547200Y-105283000D03*
X212547200Y-107823000D03*
X212547200Y-110363000D03*
X212547200Y-112903000D03*
X212547200Y-115443000D03*
X212547200Y-117983000D03*
X212547200Y-120523000D03*
X212547200Y-123063000D03*
X212547200Y-125603000D03*
X212547200Y-128143000D03*
X212547200Y-130683000D03*
X212547200Y-133223000D03*
X212547200Y-135763000D03*
X212547200Y-138303000D03*
X212547200Y-140843000D03*
X212547200Y-143383000D03*
X212547200Y-145923000D03*
X215087200Y-67183000D03*
X215087200Y-69723000D03*
X215087200Y-72263000D03*
X215087200Y-74803000D03*
X215087200Y-77343000D03*
X215087200Y-79883000D03*
X215087200Y-82423000D03*
X215087200Y-84963000D03*
X215087200Y-87503000D03*
X215087200Y-90043000D03*
X215087200Y-92583000D03*
X215087200Y-95123000D03*
X215087200Y-97663000D03*
X215087200Y-100203000D03*
X215087200Y-102743000D03*
X215087200Y-105283000D03*
X215087200Y-107823000D03*
X215087200Y-110363000D03*
X215087200Y-112903000D03*
X215087200Y-115443000D03*
X215087200Y-117983000D03*
X215087200Y-120523000D03*
X215087200Y-123063000D03*
X215087200Y-125603000D03*
X215087200Y-128143000D03*
X215087200Y-130683000D03*
X215087200Y-133223000D03*
X215087200Y-135763000D03*
X215087200Y-138303000D03*
X215087200Y-140843000D03*
X215087200Y-143383000D03*
X215087200Y-145923000D03*
X193967100Y-134112000D03*
X191427100Y-134112000D03*
X188887100Y-134112000D03*
X186347100Y-134112000D03*
X183807100Y-134112000D03*
X181267100Y-134112000D03*
X178727100Y-134112000D03*
X176187100Y-134112000D03*
X173647100Y-134112000D03*
X171107100Y-134112000D03*
X168567100Y-134112000D03*
X166027100Y-134112000D03*
X163487100Y-134112000D03*
X160947100Y-134112000D03*
X158407100Y-134112000D03*
X158407100Y-149352000D03*
X160947100Y-149352000D03*
X163487100Y-149352000D03*
X166027100Y-149352000D03*
X168567100Y-149352000D03*
X171107100Y-149352000D03*
X173647100Y-149352000D03*
X176187100Y-149352000D03*
X178727100Y-149352000D03*
X181267100Y-149352000D03*
X183807100Y-149352000D03*
X186347100Y-149352000D03*
X188887100Y-149352000D03*
X191427100Y-149352000D03*
X193967100Y-149352000D03*
M02*
