%TF.GenerationSoftware,KiCad,Pcbnew,5.1.9-73d0e3b20d~88~ubuntu20.04.1*%
%TF.CreationDate,2021-05-09T07:33:53+02:00*%
%TF.ProjectId,bkm-129x-simple,626b6d2d-3132-4397-982d-73696d706c65,rev?*%
%TF.SameCoordinates,Original*%
%TF.FileFunction,Soldermask,Top*%
%TF.FilePolarity,Negative*%
%FSLAX46Y46*%
G04 Gerber Fmt 4.6, Leading zero omitted, Abs format (unit mm)*
G04 Created by KiCad (PCBNEW 5.1.9-73d0e3b20d~88~ubuntu20.04.1) date 2021-05-09 07:33:53*
%MOMM*%
%LPD*%
G01*
G04 APERTURE LIST*
%ADD10R,1.500000X0.450000*%
%ADD11R,1.500000X1.250000*%
%ADD12R,1.250000X1.500000*%
%ADD13R,1.600000X3.500000*%
%ADD14C,1.500000*%
%ADD15C,3.200000*%
%ADD16C,1.524000*%
%ADD17R,1.800000X0.800000*%
%ADD18R,1.500000X1.300000*%
%ADD19R,1.300000X1.500000*%
%ADD20R,1.450000X0.450000*%
%ADD21R,1.560000X0.650000*%
%ADD22R,3.500000X1.600000*%
G04 APERTURE END LIST*
D10*
%TO.C,U1*%
X190820000Y-109755000D03*
X190820000Y-109105000D03*
X190820000Y-108455000D03*
X190820000Y-107805000D03*
X190820000Y-107155000D03*
X190820000Y-106505000D03*
X190820000Y-105855000D03*
X190820000Y-105205000D03*
X184920000Y-105205000D03*
X184920000Y-105855000D03*
X184920000Y-106505000D03*
X184920000Y-107155000D03*
X184920000Y-107805000D03*
X184920000Y-108455000D03*
X184920000Y-109105000D03*
X184920000Y-109755000D03*
%TD*%
D11*
%TO.C,C1*%
X150792500Y-101219000D03*
X148292500Y-101219000D03*
%TD*%
%TO.C,C2*%
X150792500Y-104711500D03*
X148292500Y-104711500D03*
%TD*%
%TO.C,C3*%
X150792500Y-108204000D03*
X148292500Y-108204000D03*
%TD*%
%TO.C,C4*%
X150792500Y-111696500D03*
X148292500Y-111696500D03*
%TD*%
%TO.C,C5*%
X160571500Y-111696500D03*
X158071500Y-111696500D03*
%TD*%
D12*
%TO.C,C6*%
X180721000Y-98532000D03*
X180721000Y-96032000D03*
%TD*%
D13*
%TO.C,C7*%
X185356500Y-99982000D03*
X185356500Y-94582000D03*
%TD*%
%TO.C,C8*%
X192722500Y-94582000D03*
X192722500Y-99982000D03*
%TD*%
D12*
%TO.C,C9*%
X197421500Y-98532000D03*
X197421500Y-96032000D03*
%TD*%
D14*
%TO.C,J1*%
X134086600Y-75971400D03*
D15*
X129006600Y-68351400D03*
X129006600Y-78511400D03*
D14*
X134086600Y-73431400D03*
%TD*%
%TO.C,J2*%
X134086600Y-98018600D03*
D15*
X129006600Y-90398600D03*
X129006600Y-100558600D03*
D14*
X134086600Y-95478600D03*
%TD*%
%TO.C,J3*%
X134112000Y-120015000D03*
D15*
X129032000Y-112395000D03*
X129032000Y-122555000D03*
D14*
X134112000Y-117475000D03*
%TD*%
%TO.C,J4*%
X134112000Y-142113000D03*
D15*
X129032000Y-134493000D03*
X129032000Y-144653000D03*
D14*
X134112000Y-139573000D03*
%TD*%
D16*
%TO.C,J5*%
X212547200Y-67183000D03*
X212547200Y-69723000D03*
X212547200Y-72263000D03*
X212547200Y-74803000D03*
X212547200Y-77343000D03*
X212547200Y-79883000D03*
X212547200Y-82423000D03*
X212547200Y-84963000D03*
X212547200Y-87503000D03*
X212547200Y-90043000D03*
X212547200Y-92583000D03*
X212547200Y-95123000D03*
X212547200Y-97663000D03*
X212547200Y-100203000D03*
X212547200Y-102743000D03*
X212547200Y-105283000D03*
X212547200Y-107823000D03*
X212547200Y-110363000D03*
X212547200Y-112903000D03*
X212547200Y-115443000D03*
X212547200Y-117983000D03*
X212547200Y-120523000D03*
X212547200Y-123063000D03*
X212547200Y-125603000D03*
X212547200Y-128143000D03*
X212547200Y-130683000D03*
X212547200Y-133223000D03*
X212547200Y-135763000D03*
X212547200Y-138303000D03*
X212547200Y-140843000D03*
X212547200Y-143383000D03*
X212547200Y-145923000D03*
X215087200Y-67183000D03*
X215087200Y-69723000D03*
X215087200Y-72263000D03*
X215087200Y-74803000D03*
X215087200Y-77343000D03*
X215087200Y-79883000D03*
X215087200Y-82423000D03*
X215087200Y-84963000D03*
X215087200Y-87503000D03*
X215087200Y-90043000D03*
X215087200Y-92583000D03*
X215087200Y-95123000D03*
X215087200Y-97663000D03*
X215087200Y-100203000D03*
X215087200Y-102743000D03*
X215087200Y-105283000D03*
X215087200Y-107823000D03*
X215087200Y-110363000D03*
X215087200Y-112903000D03*
X215087200Y-115443000D03*
X215087200Y-117983000D03*
X215087200Y-120523000D03*
X215087200Y-123063000D03*
X215087200Y-125603000D03*
X215087200Y-128143000D03*
X215087200Y-130683000D03*
X215087200Y-133223000D03*
X215087200Y-135763000D03*
X215087200Y-138303000D03*
X215087200Y-140843000D03*
X215087200Y-143383000D03*
X215087200Y-145923000D03*
%TD*%
D17*
%TO.C,Q1*%
X204824600Y-146365000D03*
X204824600Y-144465000D03*
X201524600Y-145415000D03*
%TD*%
D18*
%TO.C,R1*%
X186120000Y-114420000D03*
X183420000Y-114420000D03*
%TD*%
D19*
%TO.C,R2*%
X150799800Y-94789000D03*
X150799800Y-97489000D03*
%TD*%
%TO.C,R3*%
X153060400Y-94789000D03*
X153060400Y-97489000D03*
%TD*%
%TO.C,R4*%
X155321000Y-94789000D03*
X155321000Y-97489000D03*
%TD*%
%TO.C,R5*%
X157581600Y-94789000D03*
X157581600Y-97489000D03*
%TD*%
D18*
%TO.C,R6*%
X169447200Y-103047800D03*
X166747200Y-103047800D03*
%TD*%
%TO.C,R7*%
X169447200Y-105308400D03*
X166747200Y-105308400D03*
%TD*%
%TO.C,R8*%
X169447200Y-107569000D03*
X166747200Y-107569000D03*
%TD*%
%TO.C,R9*%
X169447200Y-109829600D03*
X166747200Y-109829600D03*
%TD*%
%TO.C,R10*%
X146066500Y-111696500D03*
X143366500Y-111696500D03*
%TD*%
%TO.C,R11*%
X146066500Y-108204000D03*
X143366500Y-108204000D03*
%TD*%
%TO.C,R12*%
X146066500Y-104711500D03*
X143366500Y-104711500D03*
%TD*%
%TO.C,R13*%
X146066500Y-101219000D03*
X143366500Y-101219000D03*
%TD*%
D19*
%TO.C,R14*%
X146888200Y-116048800D03*
X146888200Y-118748800D03*
%TD*%
%TO.C,R15*%
X149148800Y-116048800D03*
X149148800Y-118748800D03*
%TD*%
%TO.C,R16*%
X151409400Y-116048800D03*
X151409400Y-118748800D03*
%TD*%
%TO.C,R17*%
X153670000Y-116048800D03*
X153670000Y-118748800D03*
%TD*%
D18*
%TO.C,R18*%
X183440000Y-112090000D03*
X186140000Y-112090000D03*
%TD*%
%TO.C,R20*%
X192528200Y-123698000D03*
X195228200Y-123698000D03*
%TD*%
%TO.C,R21*%
X187143400Y-123698000D03*
X189843400Y-123698000D03*
%TD*%
%TO.C,R22*%
X204524600Y-142049500D03*
X201824600Y-142049500D03*
%TD*%
%TO.C,R23*%
X170735000Y-123190000D03*
X173435000Y-123190000D03*
%TD*%
%TO.C,R24*%
X187168800Y-130759200D03*
X189868800Y-130759200D03*
%TD*%
%TO.C,R25*%
X192528200Y-128397000D03*
X195228200Y-128397000D03*
%TD*%
%TO.C,R26*%
X187143400Y-128397000D03*
X189843400Y-128397000D03*
%TD*%
%TO.C,R27*%
X192528200Y-126060200D03*
X195228200Y-126060200D03*
%TD*%
%TO.C,R28*%
X187143400Y-126060200D03*
X189843400Y-126060200D03*
%TD*%
D16*
%TO.C,U3*%
X193967100Y-134112000D03*
X191427100Y-134112000D03*
X188887100Y-134112000D03*
X186347100Y-134112000D03*
X183807100Y-134112000D03*
X181267100Y-134112000D03*
X178727100Y-134112000D03*
X176187100Y-134112000D03*
X173647100Y-134112000D03*
X171107100Y-134112000D03*
X168567100Y-134112000D03*
X166027100Y-134112000D03*
X163487100Y-134112000D03*
X160947100Y-134112000D03*
X158407100Y-134112000D03*
X158407100Y-149352000D03*
X160947100Y-149352000D03*
X163487100Y-149352000D03*
X166027100Y-149352000D03*
X168567100Y-149352000D03*
X171107100Y-149352000D03*
X173647100Y-149352000D03*
X176187100Y-149352000D03*
X178727100Y-149352000D03*
X181267100Y-149352000D03*
X183807100Y-149352000D03*
X186347100Y-149352000D03*
X188887100Y-149352000D03*
X191427100Y-149352000D03*
X193967100Y-149352000D03*
%TD*%
D20*
%TO.C,U2*%
X156371500Y-105492000D03*
X156371500Y-106142000D03*
X156371500Y-106792000D03*
X156371500Y-107442000D03*
X156371500Y-108092000D03*
X156371500Y-108742000D03*
X156371500Y-109392000D03*
X162271500Y-109392000D03*
X162271500Y-108742000D03*
X162271500Y-108092000D03*
X162271500Y-107442000D03*
X162271500Y-106792000D03*
X162271500Y-106142000D03*
X162271500Y-105492000D03*
%TD*%
%TO.C,U4*%
X169109600Y-125431000D03*
X169109600Y-126081000D03*
X169109600Y-126731000D03*
X169109600Y-127381000D03*
X169109600Y-128031000D03*
X169109600Y-128681000D03*
X169109600Y-129331000D03*
X175009600Y-129331000D03*
X175009600Y-128681000D03*
X175009600Y-128031000D03*
X175009600Y-127381000D03*
X175009600Y-126731000D03*
X175009600Y-126081000D03*
X175009600Y-125431000D03*
%TD*%
D11*
%TO.C,C10*%
X161259200Y-100406200D03*
X163759200Y-100406200D03*
%TD*%
%TO.C,C11*%
X163759200Y-94157800D03*
X161259200Y-94157800D03*
%TD*%
D21*
%TO.C,U5*%
X163986200Y-98232000D03*
X163986200Y-97282000D03*
X163986200Y-96332000D03*
X161286200Y-96332000D03*
X161286200Y-98232000D03*
%TD*%
D11*
%TO.C,C12*%
X203677200Y-117652800D03*
X206177200Y-117652800D03*
%TD*%
D22*
%TO.C,C13*%
X202227200Y-122301000D03*
X207627200Y-122301000D03*
%TD*%
D18*
%TO.C,R19*%
X170735000Y-120904000D03*
X173435000Y-120904000D03*
%TD*%
%TO.C,R29*%
X173750000Y-103050000D03*
X176450000Y-103050000D03*
%TD*%
%TO.C,R30*%
X173770000Y-105310000D03*
X176470000Y-105310000D03*
%TD*%
%TO.C,R31*%
X173760000Y-107570000D03*
X176460000Y-107570000D03*
%TD*%
M02*
