M48
;DRILL file {KiCad 4.0.7-e2-6376~61~ubuntu18.04.1} date Wed Mar 18 18:40:12 2020
;FORMAT={-:-/ absolute / inch / decimal}
FMAT,2
INCH,TZ
T1C0.016
T2C0.030
T3C0.035
T4C0.079
%
G90
G05
M72
T1
X5.783Y-4.509
X5.872Y-4.508
X5.937Y-4.03
X5.961Y-4.509
X5.98Y-4.219
X5.984Y-4.083
X6.006Y-4.334
X6.026Y-3.899
X6.114Y-3.899
X6.203Y-3.898
X6.206Y-4.256
X6.224Y-5.344
X6.438Y-4.281
X6.516Y-3.831
X6.63Y-4.865
X6.659Y-5.1225
X6.714Y-4.964
X6.714Y-5.076
X6.787Y-5.148
X6.839Y-5.015
X6.897Y-4.343
X6.911Y-4.205
X6.951Y-4.548
X6.971Y-4.319
X7.005Y-4.346
X7.02Y-4.1025
X7.0325Y-4.205
X7.1525Y-4.1025
X7.1525Y-4.2825
X7.265Y-4.1625
X7.265Y-4.205
X7.2975Y-4.03
X7.308Y-4.963
X7.309Y-4.87
X7.5875Y-4.035
X7.751Y-5.055
X7.752Y-4.963
X7.753Y-4.871
X7.7735Y-5.4425
X7.825Y-3.878
X7.913Y-5.071
X8.028Y-5.242
T2
X6.2365Y-5.28
X6.2365Y-5.88
X6.3365Y-5.28
X6.3365Y-5.88
X6.4365Y-5.28
X6.4365Y-5.88
X6.5365Y-5.28
X6.5365Y-5.88
X6.6365Y-5.28
X6.6365Y-5.88
X6.7365Y-5.28
X6.7365Y-5.88
X6.8365Y-5.28
X6.8365Y-5.88
X6.9365Y-5.28
X6.9365Y-5.88
X7.0365Y-5.28
X7.0365Y-5.88
X7.1365Y-5.28
X7.1365Y-5.88
X7.2365Y-5.28
X7.2365Y-5.88
X7.3365Y-5.28
X7.3365Y-5.88
X7.4365Y-5.28
X7.4365Y-5.88
X7.5365Y-5.28
X7.5365Y-5.88
X7.6365Y-5.28
X7.6365Y-5.88
X8.368Y-2.645
X8.368Y-2.745
X8.368Y-2.845
X8.368Y-2.945
X8.368Y-3.045
X8.368Y-3.145
X8.368Y-3.245
X8.368Y-3.345
X8.368Y-3.445
X8.368Y-3.545
X8.368Y-3.645
X8.368Y-3.745
X8.368Y-3.845
X8.368Y-3.945
X8.368Y-4.045
X8.368Y-4.145
X8.368Y-4.245
X8.368Y-4.345
X8.368Y-4.445
X8.368Y-4.545
X8.368Y-4.645
X8.368Y-4.745
X8.368Y-4.845
X8.368Y-4.945
X8.368Y-5.045
X8.368Y-5.145
X8.368Y-5.245
X8.368Y-5.345
X8.368Y-5.445
X8.368Y-5.545
X8.368Y-5.645
X8.368Y-5.745
X8.468Y-2.645
X8.468Y-2.745
X8.468Y-2.845
X8.468Y-2.945
X8.468Y-3.045
X8.468Y-3.145
X8.468Y-3.245
X8.468Y-3.345
X8.468Y-3.445
X8.468Y-3.545
X8.468Y-3.645
X8.468Y-3.745
X8.468Y-3.845
X8.468Y-3.945
X8.468Y-4.045
X8.468Y-4.145
X8.468Y-4.245
X8.468Y-4.345
X8.468Y-4.445
X8.468Y-4.545
X8.468Y-4.645
X8.468Y-4.745
X8.468Y-4.845
X8.468Y-4.945
X8.468Y-5.045
X8.468Y-5.145
X8.468Y-5.245
X8.468Y-5.345
X8.468Y-5.445
X8.468Y-5.545
X8.468Y-5.645
X8.468Y-5.745
T3
X5.279Y-2.891
X5.279Y-2.991
X5.279Y-3.759
X5.279Y-3.859
X5.28Y-4.625
X5.28Y-4.725
X5.28Y-5.495
X5.28Y-5.595
T4
X5.079Y-2.691
X5.079Y-3.091
X5.079Y-3.559
X5.079Y-3.959
X5.08Y-4.425
X5.08Y-4.825
X5.08Y-5.295
X5.08Y-5.695
T0
M30
