%TF.GenerationSoftware,KiCad,Pcbnew,5.1.9-73d0e3b20d~88~ubuntu20.04.1*%
%TF.CreationDate,2021-05-09T07:33:52+02:00*%
%TF.ProjectId,bkm-129x-simple,626b6d2d-3132-4397-982d-73696d706c65,rev?*%
%TF.SameCoordinates,Original*%
%TF.FileFunction,Legend,Top*%
%TF.FilePolarity,Positive*%
%FSLAX46Y46*%
G04 Gerber Fmt 4.6, Leading zero omitted, Abs format (unit mm)*
G04 Created by KiCad (PCBNEW 5.1.9-73d0e3b20d~88~ubuntu20.04.1) date 2021-05-09 07:33:52*
%MOMM*%
%LPD*%
G01*
G04 APERTURE LIST*
%ADD10C,0.300000*%
%ADD11C,0.250000*%
%ADD12C,0.200000*%
%ADD13C,0.150000*%
%ADD14C,0.120000*%
%ADD15C,0.500000*%
G04 APERTURE END LIST*
D10*
X137264285Y-132513571D02*
X138264285Y-132513571D01*
X137621428Y-134013571D01*
X139550000Y-132513571D02*
X138835714Y-132513571D01*
X138764285Y-133227857D01*
X138835714Y-133156428D01*
X138978571Y-133085000D01*
X139335714Y-133085000D01*
X139478571Y-133156428D01*
X139550000Y-133227857D01*
X139621428Y-133370714D01*
X139621428Y-133727857D01*
X139550000Y-133870714D01*
X139478571Y-133942142D01*
X139335714Y-134013571D01*
X138978571Y-134013571D01*
X138835714Y-133942142D01*
X138764285Y-133870714D01*
X141692857Y-132513571D02*
X141978571Y-132513571D01*
X142121428Y-132585000D01*
X142264285Y-132727857D01*
X142335714Y-133013571D01*
X142335714Y-133513571D01*
X142264285Y-133799285D01*
X142121428Y-133942142D01*
X141978571Y-134013571D01*
X141692857Y-134013571D01*
X141550000Y-133942142D01*
X141407142Y-133799285D01*
X141335714Y-133513571D01*
X141335714Y-133013571D01*
X141407142Y-132727857D01*
X141550000Y-132585000D01*
X141692857Y-132513571D01*
X142978571Y-134013571D02*
X142978571Y-132513571D01*
X143621428Y-134013571D02*
X143621428Y-133227857D01*
X143550000Y-133085000D01*
X143407142Y-133013571D01*
X143192857Y-133013571D01*
X143050000Y-133085000D01*
X142978571Y-133156428D01*
X144335714Y-134013571D02*
X144335714Y-133013571D01*
X144335714Y-133156428D02*
X144407142Y-133085000D01*
X144550000Y-133013571D01*
X144764285Y-133013571D01*
X144907142Y-133085000D01*
X144978571Y-133227857D01*
X144978571Y-134013571D01*
X144978571Y-133227857D02*
X145050000Y-133085000D01*
X145192857Y-133013571D01*
X145407142Y-133013571D01*
X145550000Y-133085000D01*
X145621428Y-133227857D01*
X145621428Y-134013571D01*
X147407142Y-133942142D02*
X147621428Y-134013571D01*
X147978571Y-134013571D01*
X148121428Y-133942142D01*
X148192857Y-133870714D01*
X148264285Y-133727857D01*
X148264285Y-133585000D01*
X148192857Y-133442142D01*
X148121428Y-133370714D01*
X147978571Y-133299285D01*
X147692857Y-133227857D01*
X147550000Y-133156428D01*
X147478571Y-133085000D01*
X147407142Y-132942142D01*
X147407142Y-132799285D01*
X147478571Y-132656428D01*
X147550000Y-132585000D01*
X147692857Y-132513571D01*
X148050000Y-132513571D01*
X148264285Y-132585000D01*
X148764285Y-133013571D02*
X149121428Y-134013571D01*
X149478571Y-133013571D02*
X149121428Y-134013571D01*
X148978571Y-134370714D01*
X148907142Y-134442142D01*
X148764285Y-134513571D01*
X150050000Y-133013571D02*
X150050000Y-134013571D01*
X150050000Y-133156428D02*
X150121428Y-133085000D01*
X150264285Y-133013571D01*
X150478571Y-133013571D01*
X150621428Y-133085000D01*
X150692857Y-133227857D01*
X150692857Y-134013571D01*
X152050000Y-133942142D02*
X151907142Y-134013571D01*
X151621428Y-134013571D01*
X151478571Y-133942142D01*
X151407142Y-133870714D01*
X151335714Y-133727857D01*
X151335714Y-133299285D01*
X151407142Y-133156428D01*
X151478571Y-133085000D01*
X151621428Y-133013571D01*
X151907142Y-133013571D01*
X152050000Y-133085000D01*
X152692857Y-133870714D02*
X152764285Y-133942142D01*
X152692857Y-134013571D01*
X152621428Y-133942142D01*
X152692857Y-133870714D01*
X152692857Y-134013571D01*
X152692857Y-133442142D02*
X152621428Y-132585000D01*
X152692857Y-132513571D01*
X152764285Y-132585000D01*
X152692857Y-133442142D01*
X152692857Y-132513571D01*
X138550000Y-136563571D02*
X138550000Y-135063571D01*
X139050000Y-136135000D01*
X139550000Y-135063571D01*
X139550000Y-136563571D01*
X140907142Y-136563571D02*
X140907142Y-135777857D01*
X140835714Y-135635000D01*
X140692857Y-135563571D01*
X140407142Y-135563571D01*
X140264285Y-135635000D01*
X140907142Y-136492142D02*
X140764285Y-136563571D01*
X140407142Y-136563571D01*
X140264285Y-136492142D01*
X140192857Y-136349285D01*
X140192857Y-136206428D01*
X140264285Y-136063571D01*
X140407142Y-135992142D01*
X140764285Y-135992142D01*
X140907142Y-135920714D01*
X141478571Y-136563571D02*
X142264285Y-135563571D01*
X141478571Y-135563571D02*
X142264285Y-136563571D01*
X142835714Y-136420714D02*
X142907142Y-136492142D01*
X142835714Y-136563571D01*
X142764285Y-136492142D01*
X142835714Y-136420714D01*
X142835714Y-136563571D01*
X145478571Y-136563571D02*
X144621428Y-136563571D01*
X145050000Y-136563571D02*
X145050000Y-135063571D01*
X144907142Y-135277857D01*
X144764285Y-135420714D01*
X144621428Y-135492142D01*
X146121428Y-136420714D02*
X146192857Y-136492142D01*
X146121428Y-136563571D01*
X146050000Y-136492142D01*
X146121428Y-136420714D01*
X146121428Y-136563571D01*
X147121428Y-135063571D02*
X147264285Y-135063571D01*
X147407142Y-135135000D01*
X147478571Y-135206428D01*
X147550000Y-135349285D01*
X147621428Y-135635000D01*
X147621428Y-135992142D01*
X147550000Y-136277857D01*
X147478571Y-136420714D01*
X147407142Y-136492142D01*
X147264285Y-136563571D01*
X147121428Y-136563571D01*
X146978571Y-136492142D01*
X146907142Y-136420714D01*
X146835714Y-136277857D01*
X146764285Y-135992142D01*
X146764285Y-135635000D01*
X146835714Y-135349285D01*
X146907142Y-135206428D01*
X146978571Y-135135000D01*
X147121428Y-135063571D01*
X148050000Y-135063571D02*
X148550000Y-136563571D01*
X149050000Y-135063571D01*
X149550000Y-135563571D02*
X149550000Y-137063571D01*
X149550000Y-135635000D02*
X149692857Y-135563571D01*
X149978571Y-135563571D01*
X150121428Y-135635000D01*
X150192857Y-135706428D01*
X150264285Y-135849285D01*
X150264285Y-136277857D01*
X150192857Y-136420714D01*
X150121428Y-136492142D01*
X149978571Y-136563571D01*
X149692857Y-136563571D01*
X149550000Y-136492142D01*
X150907142Y-135563571D02*
X150907142Y-137063571D01*
X150907142Y-135635000D02*
X151050000Y-135563571D01*
X151335714Y-135563571D01*
X151478571Y-135635000D01*
X151550000Y-135706428D01*
X151621428Y-135849285D01*
X151621428Y-136277857D01*
X151550000Y-136420714D01*
X151478571Y-136492142D01*
X151335714Y-136563571D01*
X151050000Y-136563571D01*
X150907142Y-136492142D01*
X142033928Y-149649571D02*
X141533928Y-148935285D01*
X141176785Y-149649571D02*
X141176785Y-148149571D01*
X141748214Y-148149571D01*
X141891071Y-148221000D01*
X141962500Y-148292428D01*
X142033928Y-148435285D01*
X142033928Y-148649571D01*
X141962500Y-148792428D01*
X141891071Y-148863857D01*
X141748214Y-148935285D01*
X141176785Y-148935285D01*
X143248214Y-149578142D02*
X143105357Y-149649571D01*
X142819642Y-149649571D01*
X142676785Y-149578142D01*
X142605357Y-149435285D01*
X142605357Y-148863857D01*
X142676785Y-148721000D01*
X142819642Y-148649571D01*
X143105357Y-148649571D01*
X143248214Y-148721000D01*
X143319642Y-148863857D01*
X143319642Y-149006714D01*
X142605357Y-149149571D01*
X143819642Y-148649571D02*
X144176785Y-149649571D01*
X144533928Y-148649571D01*
X145105357Y-149506714D02*
X145176785Y-149578142D01*
X145105357Y-149649571D01*
X145033928Y-149578142D01*
X145105357Y-149506714D01*
X145105357Y-149649571D01*
X146962500Y-149649571D02*
X146962500Y-148149571D01*
X147319642Y-148149571D01*
X147533928Y-148221000D01*
X147676785Y-148363857D01*
X147748214Y-148506714D01*
X147819642Y-148792428D01*
X147819642Y-149006714D01*
X147748214Y-149292428D01*
X147676785Y-149435285D01*
X147533928Y-149578142D01*
X147319642Y-149649571D01*
X146962500Y-149649571D01*
X126297857Y-148943142D02*
X126512142Y-149014571D01*
X126869285Y-149014571D01*
X127012142Y-148943142D01*
X127083571Y-148871714D01*
X127155000Y-148728857D01*
X127155000Y-148586000D01*
X127083571Y-148443142D01*
X127012142Y-148371714D01*
X126869285Y-148300285D01*
X126583571Y-148228857D01*
X126440714Y-148157428D01*
X126369285Y-148086000D01*
X126297857Y-147943142D01*
X126297857Y-147800285D01*
X126369285Y-147657428D01*
X126440714Y-147586000D01*
X126583571Y-147514571D01*
X126940714Y-147514571D01*
X127155000Y-147586000D01*
X128083571Y-148300285D02*
X128083571Y-149014571D01*
X127583571Y-147514571D02*
X128083571Y-148300285D01*
X128583571Y-147514571D01*
X129083571Y-149014571D02*
X129083571Y-147514571D01*
X129940714Y-149014571D01*
X129940714Y-147514571D01*
X131512142Y-148871714D02*
X131440714Y-148943142D01*
X131226428Y-149014571D01*
X131083571Y-149014571D01*
X130869285Y-148943142D01*
X130726428Y-148800285D01*
X130655000Y-148657428D01*
X130583571Y-148371714D01*
X130583571Y-148157428D01*
X130655000Y-147871714D01*
X130726428Y-147728857D01*
X130869285Y-147586000D01*
X131083571Y-147514571D01*
X131226428Y-147514571D01*
X131440714Y-147586000D01*
X131512142Y-147657428D01*
X126389142Y-127018171D02*
X125889142Y-126303885D01*
X125532000Y-127018171D02*
X125532000Y-125518171D01*
X126103428Y-125518171D01*
X126246285Y-125589600D01*
X126317714Y-125661028D01*
X126389142Y-125803885D01*
X126389142Y-126018171D01*
X126317714Y-126161028D01*
X126246285Y-126232457D01*
X126103428Y-126303885D01*
X125532000Y-126303885D01*
X127032000Y-126446742D02*
X128174857Y-126446742D01*
X129174857Y-126303885D02*
X129174857Y-127018171D01*
X128674857Y-125518171D02*
X129174857Y-126303885D01*
X129674857Y-125518171D01*
X131246285Y-125446742D02*
X129960571Y-127375314D01*
X132603428Y-127018171D02*
X132103428Y-126303885D01*
X131746285Y-127018171D02*
X131746285Y-125518171D01*
X132317714Y-125518171D01*
X132460571Y-125589600D01*
X132532000Y-125661028D01*
X132603428Y-125803885D01*
X132603428Y-126018171D01*
X132532000Y-126161028D01*
X132460571Y-126232457D01*
X132317714Y-126303885D01*
X131746285Y-126303885D01*
X126082800Y-104388457D02*
X126297085Y-104459885D01*
X126368514Y-104531314D01*
X126439942Y-104674171D01*
X126439942Y-104888457D01*
X126368514Y-105031314D01*
X126297085Y-105102742D01*
X126154228Y-105174171D01*
X125582800Y-105174171D01*
X125582800Y-103674171D01*
X126082800Y-103674171D01*
X126225657Y-103745600D01*
X126297085Y-103817028D01*
X126368514Y-103959885D01*
X126368514Y-104102742D01*
X126297085Y-104245600D01*
X126225657Y-104317028D01*
X126082800Y-104388457D01*
X125582800Y-104388457D01*
X127082800Y-104602742D02*
X128225657Y-104602742D01*
X129225657Y-104459885D02*
X129225657Y-105174171D01*
X128725657Y-103674171D02*
X129225657Y-104459885D01*
X129725657Y-103674171D01*
X131297085Y-103602742D02*
X130011371Y-105531314D01*
X132297085Y-104388457D02*
X132511371Y-104459885D01*
X132582800Y-104531314D01*
X132654228Y-104674171D01*
X132654228Y-104888457D01*
X132582800Y-105031314D01*
X132511371Y-105102742D01*
X132368514Y-105174171D01*
X131797085Y-105174171D01*
X131797085Y-103674171D01*
X132297085Y-103674171D01*
X132439942Y-103745600D01*
X132511371Y-103817028D01*
X132582800Y-103959885D01*
X132582800Y-104102742D01*
X132511371Y-104245600D01*
X132439942Y-104317028D01*
X132297085Y-104388457D01*
X131797085Y-104388457D01*
X127521685Y-82285685D02*
X127521685Y-82999971D01*
X127021685Y-81499971D02*
X127521685Y-82285685D01*
X128021685Y-81499971D01*
X129593114Y-81428542D02*
X128307400Y-83357114D01*
X130878828Y-81571400D02*
X130735971Y-81499971D01*
X130521685Y-81499971D01*
X130307400Y-81571400D01*
X130164542Y-81714257D01*
X130093114Y-81857114D01*
X130021685Y-82142828D01*
X130021685Y-82357114D01*
X130093114Y-82642828D01*
X130164542Y-82785685D01*
X130307400Y-82928542D01*
X130521685Y-82999971D01*
X130664542Y-82999971D01*
X130878828Y-82928542D01*
X130950257Y-82857114D01*
X130950257Y-82357114D01*
X130664542Y-82357114D01*
D11*
X162276280Y-66914685D02*
X162214376Y-66976590D01*
X162028661Y-67038495D01*
X161904852Y-67038495D01*
X161719138Y-66976590D01*
X161595328Y-66852780D01*
X161533423Y-66728971D01*
X161471519Y-66481352D01*
X161471519Y-66295638D01*
X161533423Y-66048019D01*
X161595328Y-65924209D01*
X161719138Y-65800400D01*
X161904852Y-65738495D01*
X162028661Y-65738495D01*
X162214376Y-65800400D01*
X162276280Y-65862304D01*
X162709614Y-65738495D02*
X163576280Y-65738495D01*
X163019138Y-67038495D01*
X164133423Y-66976590D02*
X164133423Y-67038495D01*
X164071519Y-67162304D01*
X164009614Y-67224209D01*
X164876280Y-66295638D02*
X164752471Y-66233733D01*
X164690566Y-66171828D01*
X164628661Y-66048019D01*
X164628661Y-65986114D01*
X164690566Y-65862304D01*
X164752471Y-65800400D01*
X164876280Y-65738495D01*
X165123900Y-65738495D01*
X165247709Y-65800400D01*
X165309614Y-65862304D01*
X165371519Y-65986114D01*
X165371519Y-66048019D01*
X165309614Y-66171828D01*
X165247709Y-66233733D01*
X165123900Y-66295638D01*
X164876280Y-66295638D01*
X164752471Y-66357542D01*
X164690566Y-66419447D01*
X164628661Y-66543257D01*
X164628661Y-66790876D01*
X164690566Y-66914685D01*
X164752471Y-66976590D01*
X164876280Y-67038495D01*
X165123900Y-67038495D01*
X165247709Y-66976590D01*
X165309614Y-66914685D01*
X165371519Y-66790876D01*
X165371519Y-66543257D01*
X165309614Y-66419447D01*
X165247709Y-66357542D01*
X165123900Y-66295638D01*
X165990566Y-66976590D02*
X165990566Y-67038495D01*
X165928661Y-67162304D01*
X165866757Y-67224209D01*
X167228661Y-67038495D02*
X166485804Y-67038495D01*
X166857233Y-67038495D02*
X166857233Y-65738495D01*
X166733423Y-65924209D01*
X166609614Y-66048019D01*
X166485804Y-66109923D01*
X167661995Y-65738495D02*
X168466757Y-65738495D01*
X168033423Y-66233733D01*
X168219138Y-66233733D01*
X168342947Y-66295638D01*
X168404852Y-66357542D01*
X168466757Y-66481352D01*
X168466757Y-66790876D01*
X168404852Y-66914685D01*
X168342947Y-66976590D01*
X168219138Y-67038495D01*
X167847709Y-67038495D01*
X167723900Y-66976590D01*
X167661995Y-66914685D01*
X170014376Y-66543257D02*
X171004852Y-66543257D01*
X173295328Y-67038495D02*
X172552471Y-67038495D01*
X172923900Y-67038495D02*
X172923900Y-65738495D01*
X172800090Y-65924209D01*
X172676280Y-66048019D01*
X172552471Y-66109923D01*
X174100090Y-65738495D02*
X174223900Y-65738495D01*
X174347709Y-65800400D01*
X174409614Y-65862304D01*
X174471519Y-65986114D01*
X174533423Y-66233733D01*
X174533423Y-66543257D01*
X174471519Y-66790876D01*
X174409614Y-66914685D01*
X174347709Y-66976590D01*
X174223900Y-67038495D01*
X174100090Y-67038495D01*
X173976280Y-66976590D01*
X173914376Y-66914685D01*
X173852471Y-66790876D01*
X173790566Y-66543257D01*
X173790566Y-66233733D01*
X173852471Y-65986114D01*
X173914376Y-65862304D01*
X173976280Y-65800400D01*
X174100090Y-65738495D01*
X175338185Y-65738495D02*
X175461995Y-65738495D01*
X175585804Y-65800400D01*
X175647709Y-65862304D01*
X175709614Y-65986114D01*
X175771519Y-66233733D01*
X175771519Y-66543257D01*
X175709614Y-66790876D01*
X175647709Y-66914685D01*
X175585804Y-66976590D01*
X175461995Y-67038495D01*
X175338185Y-67038495D01*
X175214376Y-66976590D01*
X175152471Y-66914685D01*
X175090566Y-66790876D01*
X175028661Y-66543257D01*
X175028661Y-66233733D01*
X175090566Y-65986114D01*
X175152471Y-65862304D01*
X175214376Y-65800400D01*
X175338185Y-65738495D01*
X176885804Y-66171828D02*
X176885804Y-67038495D01*
X176328661Y-66171828D02*
X176328661Y-66852780D01*
X176390566Y-66976590D01*
X176514376Y-67038495D01*
X176700090Y-67038495D01*
X176823900Y-66976590D01*
X176885804Y-66914685D01*
X177938185Y-66357542D02*
X177504852Y-66357542D01*
X177504852Y-67038495D02*
X177504852Y-65738495D01*
X178123900Y-65738495D01*
X179547709Y-65676590D02*
X178433423Y-67348019D01*
X180661995Y-67038495D02*
X179919138Y-67038495D01*
X180290566Y-67038495D02*
X180290566Y-65738495D01*
X180166757Y-65924209D01*
X180042947Y-66048019D01*
X179919138Y-66109923D01*
X181776280Y-65738495D02*
X181528661Y-65738495D01*
X181404852Y-65800400D01*
X181342947Y-65862304D01*
X181219138Y-66048019D01*
X181157233Y-66295638D01*
X181157233Y-66790876D01*
X181219138Y-66914685D01*
X181281042Y-66976590D01*
X181404852Y-67038495D01*
X181652471Y-67038495D01*
X181776280Y-66976590D01*
X181838185Y-66914685D01*
X181900090Y-66790876D01*
X181900090Y-66481352D01*
X181838185Y-66357542D01*
X181776280Y-66295638D01*
X181652471Y-66233733D01*
X181404852Y-66233733D01*
X181281042Y-66295638D01*
X181219138Y-66357542D01*
X181157233Y-66481352D01*
X182271519Y-65738495D02*
X182704852Y-67038495D01*
X183138185Y-65738495D01*
X162090566Y-67938495D02*
X161842947Y-67938495D01*
X161719138Y-68000400D01*
X161657233Y-68062304D01*
X161533423Y-68248019D01*
X161471519Y-68495638D01*
X161471519Y-68990876D01*
X161533423Y-69114685D01*
X161595328Y-69176590D01*
X161719138Y-69238495D01*
X161966757Y-69238495D01*
X162090566Y-69176590D01*
X162152471Y-69114685D01*
X162214376Y-68990876D01*
X162214376Y-68681352D01*
X162152471Y-68557542D01*
X162090566Y-68495638D01*
X161966757Y-68433733D01*
X161719138Y-68433733D01*
X161595328Y-68495638D01*
X161533423Y-68557542D01*
X161471519Y-68681352D01*
X162833423Y-69176590D02*
X162833423Y-69238495D01*
X162771519Y-69362304D01*
X162709614Y-69424209D01*
X163266757Y-67938495D02*
X164071519Y-67938495D01*
X163638185Y-68433733D01*
X163823900Y-68433733D01*
X163947709Y-68495638D01*
X164009614Y-68557542D01*
X164071519Y-68681352D01*
X164071519Y-68990876D01*
X164009614Y-69114685D01*
X163947709Y-69176590D01*
X163823900Y-69238495D01*
X163452471Y-69238495D01*
X163328661Y-69176590D01*
X163266757Y-69114685D01*
X164504852Y-69238495D02*
X165185804Y-68371828D01*
X164504852Y-68371828D02*
X165185804Y-69238495D01*
X166300090Y-67938495D02*
X165681042Y-67938495D01*
X165619138Y-68557542D01*
X165681042Y-68495638D01*
X165804852Y-68433733D01*
X166114376Y-68433733D01*
X166238185Y-68495638D01*
X166300090Y-68557542D01*
X166361995Y-68681352D01*
X166361995Y-68990876D01*
X166300090Y-69114685D01*
X166238185Y-69176590D01*
X166114376Y-69238495D01*
X165804852Y-69238495D01*
X165681042Y-69176590D01*
X165619138Y-69114685D01*
X166981042Y-69176590D02*
X166981042Y-69238495D01*
X166919138Y-69362304D01*
X166857233Y-69424209D01*
X167414376Y-67938495D02*
X168219138Y-67938495D01*
X167785804Y-68433733D01*
X167971519Y-68433733D01*
X168095328Y-68495638D01*
X168157233Y-68557542D01*
X168219138Y-68681352D01*
X168219138Y-68990876D01*
X168157233Y-69114685D01*
X168095328Y-69176590D01*
X167971519Y-69238495D01*
X167600090Y-69238495D01*
X167476280Y-69176590D01*
X167414376Y-69114685D01*
X169766757Y-68557542D02*
X170200090Y-68557542D01*
X170385804Y-69238495D02*
X169766757Y-69238495D01*
X169766757Y-67938495D01*
X170385804Y-67938495D01*
X170942947Y-68743257D02*
X171933423Y-68743257D01*
X173109614Y-69176590D02*
X172985804Y-69238495D01*
X172738185Y-69238495D01*
X172614376Y-69176590D01*
X172552471Y-69114685D01*
X172490566Y-68990876D01*
X172490566Y-68619447D01*
X172552471Y-68495638D01*
X172614376Y-68433733D01*
X172738185Y-68371828D01*
X172985804Y-68371828D01*
X173109614Y-68433733D01*
X174223900Y-69238495D02*
X174223900Y-68557542D01*
X174161995Y-68433733D01*
X174038185Y-68371828D01*
X173790566Y-68371828D01*
X173666757Y-68433733D01*
X174223900Y-69176590D02*
X174100090Y-69238495D01*
X173790566Y-69238495D01*
X173666757Y-69176590D01*
X173604852Y-69052780D01*
X173604852Y-68928971D01*
X173666757Y-68805161D01*
X173790566Y-68743257D01*
X174100090Y-68743257D01*
X174223900Y-68681352D01*
X174842947Y-68371828D02*
X174842947Y-69671828D01*
X174842947Y-68433733D02*
X174966757Y-68371828D01*
X175214376Y-68371828D01*
X175338185Y-68433733D01*
X175400090Y-68495638D01*
X175461995Y-68619447D01*
X175461995Y-68990876D01*
X175400090Y-69114685D01*
X175338185Y-69176590D01*
X175214376Y-69238495D01*
X174966757Y-69238495D01*
X174842947Y-69176590D01*
X175957233Y-69176590D02*
X176081042Y-69238495D01*
X176328661Y-69238495D01*
X176452471Y-69176590D01*
X176514376Y-69052780D01*
X176514376Y-68990876D01*
X176452471Y-68867066D01*
X176328661Y-68805161D01*
X176142947Y-68805161D01*
X176019138Y-68743257D01*
X175957233Y-68619447D01*
X175957233Y-68557542D01*
X176019138Y-68433733D01*
X176142947Y-68371828D01*
X176328661Y-68371828D01*
X176452471Y-68433733D01*
X162276280Y-73514685D02*
X162214376Y-73576590D01*
X162028661Y-73638495D01*
X161904852Y-73638495D01*
X161719138Y-73576590D01*
X161595328Y-73452780D01*
X161533423Y-73328971D01*
X161471519Y-73081352D01*
X161471519Y-72895638D01*
X161533423Y-72648019D01*
X161595328Y-72524209D01*
X161719138Y-72400400D01*
X161904852Y-72338495D01*
X162028661Y-72338495D01*
X162214376Y-72400400D01*
X162276280Y-72462304D01*
X163514376Y-73638495D02*
X162771519Y-73638495D01*
X163142947Y-73638495D02*
X163142947Y-72338495D01*
X163019138Y-72524209D01*
X162895328Y-72648019D01*
X162771519Y-72709923D01*
X164319138Y-72338495D02*
X164442947Y-72338495D01*
X164566757Y-72400400D01*
X164628661Y-72462304D01*
X164690566Y-72586114D01*
X164752471Y-72833733D01*
X164752471Y-73143257D01*
X164690566Y-73390876D01*
X164628661Y-73514685D01*
X164566757Y-73576590D01*
X164442947Y-73638495D01*
X164319138Y-73638495D01*
X164195328Y-73576590D01*
X164133423Y-73514685D01*
X164071519Y-73390876D01*
X164009614Y-73143257D01*
X164009614Y-72833733D01*
X164071519Y-72586114D01*
X164133423Y-72462304D01*
X164195328Y-72400400D01*
X164319138Y-72338495D01*
X166300090Y-73143257D02*
X167290566Y-73143257D01*
X168838185Y-72462304D02*
X168900090Y-72400400D01*
X169023900Y-72338495D01*
X169333423Y-72338495D01*
X169457233Y-72400400D01*
X169519138Y-72462304D01*
X169581042Y-72586114D01*
X169581042Y-72709923D01*
X169519138Y-72895638D01*
X168776280Y-73638495D01*
X169581042Y-73638495D01*
X170138185Y-73514685D02*
X170200090Y-73576590D01*
X170138185Y-73638495D01*
X170076280Y-73576590D01*
X170138185Y-73514685D01*
X170138185Y-73638495D01*
X170695328Y-72462304D02*
X170757233Y-72400400D01*
X170881042Y-72338495D01*
X171190566Y-72338495D01*
X171314376Y-72400400D01*
X171376280Y-72462304D01*
X171438185Y-72586114D01*
X171438185Y-72709923D01*
X171376280Y-72895638D01*
X170633423Y-73638495D01*
X171438185Y-73638495D01*
X172552471Y-72771828D02*
X172552471Y-73638495D01*
X171995328Y-72771828D02*
X171995328Y-73452780D01*
X172057233Y-73576590D01*
X172181042Y-73638495D01*
X172366757Y-73638495D01*
X172490566Y-73576590D01*
X172552471Y-73514685D01*
X173604852Y-72957542D02*
X173171519Y-72957542D01*
X173171519Y-73638495D02*
X173171519Y-72338495D01*
X173790566Y-72338495D01*
X162276280Y-75714685D02*
X162214376Y-75776590D01*
X162028661Y-75838495D01*
X161904852Y-75838495D01*
X161719138Y-75776590D01*
X161595328Y-75652780D01*
X161533423Y-75528971D01*
X161471519Y-75281352D01*
X161471519Y-75095638D01*
X161533423Y-74848019D01*
X161595328Y-74724209D01*
X161719138Y-74600400D01*
X161904852Y-74538495D01*
X162028661Y-74538495D01*
X162214376Y-74600400D01*
X162276280Y-74662304D01*
X163514376Y-75838495D02*
X162771519Y-75838495D01*
X163142947Y-75838495D02*
X163142947Y-74538495D01*
X163019138Y-74724209D01*
X162895328Y-74848019D01*
X162771519Y-74909923D01*
X164752471Y-75838495D02*
X164009614Y-75838495D01*
X164381042Y-75838495D02*
X164381042Y-74538495D01*
X164257233Y-74724209D01*
X164133423Y-74848019D01*
X164009614Y-74909923D01*
X166300090Y-75343257D02*
X167290566Y-75343257D01*
X169581042Y-75838495D02*
X168838185Y-75838495D01*
X169209614Y-75838495D02*
X169209614Y-74538495D01*
X169085804Y-74724209D01*
X168961995Y-74848019D01*
X168838185Y-74909923D01*
X170138185Y-75714685D02*
X170200090Y-75776590D01*
X170138185Y-75838495D01*
X170076280Y-75776590D01*
X170138185Y-75714685D01*
X170138185Y-75838495D01*
X171004852Y-74538495D02*
X171128661Y-74538495D01*
X171252471Y-74600400D01*
X171314376Y-74662304D01*
X171376280Y-74786114D01*
X171438185Y-75033733D01*
X171438185Y-75343257D01*
X171376280Y-75590876D01*
X171314376Y-75714685D01*
X171252471Y-75776590D01*
X171128661Y-75838495D01*
X171004852Y-75838495D01*
X170881042Y-75776590D01*
X170819138Y-75714685D01*
X170757233Y-75590876D01*
X170695328Y-75343257D01*
X170695328Y-75033733D01*
X170757233Y-74786114D01*
X170819138Y-74662304D01*
X170881042Y-74600400D01*
X171004852Y-74538495D01*
X172552471Y-74971828D02*
X172552471Y-75838495D01*
X171995328Y-74971828D02*
X171995328Y-75652780D01*
X172057233Y-75776590D01*
X172181042Y-75838495D01*
X172366757Y-75838495D01*
X172490566Y-75776590D01*
X172552471Y-75714685D01*
X173604852Y-75157542D02*
X173171519Y-75157542D01*
X173171519Y-75838495D02*
X173171519Y-74538495D01*
X173790566Y-74538495D01*
X162276280Y-78038495D02*
X161842947Y-77419447D01*
X161533423Y-78038495D02*
X161533423Y-76738495D01*
X162028661Y-76738495D01*
X162152471Y-76800400D01*
X162214376Y-76862304D01*
X162276280Y-76986114D01*
X162276280Y-77171828D01*
X162214376Y-77295638D01*
X162152471Y-77357542D01*
X162028661Y-77419447D01*
X161533423Y-77419447D01*
X163328661Y-77976590D02*
X163204852Y-78038495D01*
X162957233Y-78038495D01*
X162833423Y-77976590D01*
X162771519Y-77852780D01*
X162771519Y-77357542D01*
X162833423Y-77233733D01*
X162957233Y-77171828D01*
X163204852Y-77171828D01*
X163328661Y-77233733D01*
X163390566Y-77357542D01*
X163390566Y-77481352D01*
X162771519Y-77605161D01*
X163885804Y-77976590D02*
X164009614Y-78038495D01*
X164257233Y-78038495D01*
X164381042Y-77976590D01*
X164442947Y-77852780D01*
X164442947Y-77790876D01*
X164381042Y-77667066D01*
X164257233Y-77605161D01*
X164071519Y-77605161D01*
X163947709Y-77543257D01*
X163885804Y-77419447D01*
X163885804Y-77357542D01*
X163947709Y-77233733D01*
X164071519Y-77171828D01*
X164257233Y-77171828D01*
X164381042Y-77233733D01*
X164814376Y-77171828D02*
X165309614Y-77171828D01*
X165000090Y-76738495D02*
X165000090Y-77852780D01*
X165061995Y-77976590D01*
X165185804Y-78038495D01*
X165309614Y-78038495D01*
X166733423Y-77543257D02*
X167723900Y-77543257D01*
X169581042Y-76738495D02*
X169704852Y-76738495D01*
X169828661Y-76800400D01*
X169890566Y-76862304D01*
X169952471Y-76986114D01*
X170014376Y-77233733D01*
X170014376Y-77543257D01*
X169952471Y-77790876D01*
X169890566Y-77914685D01*
X169828661Y-77976590D01*
X169704852Y-78038495D01*
X169581042Y-78038495D01*
X169457233Y-77976590D01*
X169395328Y-77914685D01*
X169333423Y-77790876D01*
X169271519Y-77543257D01*
X169271519Y-77233733D01*
X169333423Y-76986114D01*
X169395328Y-76862304D01*
X169457233Y-76800400D01*
X169581042Y-76738495D01*
X170571519Y-77914685D02*
X170633423Y-77976590D01*
X170571519Y-78038495D01*
X170509614Y-77976590D01*
X170571519Y-77914685D01*
X170571519Y-78038495D01*
X171871519Y-78038495D02*
X171128661Y-78038495D01*
X171500090Y-78038495D02*
X171500090Y-76738495D01*
X171376280Y-76924209D01*
X171252471Y-77048019D01*
X171128661Y-77109923D01*
X172985804Y-77171828D02*
X172985804Y-78038495D01*
X172428661Y-77171828D02*
X172428661Y-77852780D01*
X172490566Y-77976590D01*
X172614376Y-78038495D01*
X172800090Y-78038495D01*
X172923900Y-77976590D01*
X172985804Y-77914685D01*
X174038185Y-77357542D02*
X173604852Y-77357542D01*
X173604852Y-78038495D02*
X173604852Y-76738495D01*
X174223900Y-76738495D01*
X161781042Y-78938495D02*
X161904852Y-78938495D01*
X162028661Y-79000400D01*
X162090566Y-79062304D01*
X162152471Y-79186114D01*
X162214376Y-79433733D01*
X162214376Y-79743257D01*
X162152471Y-79990876D01*
X162090566Y-80114685D01*
X162028661Y-80176590D01*
X161904852Y-80238495D01*
X161781042Y-80238495D01*
X161657233Y-80176590D01*
X161595328Y-80114685D01*
X161533423Y-79990876D01*
X161471519Y-79743257D01*
X161471519Y-79433733D01*
X161533423Y-79186114D01*
X161595328Y-79062304D01*
X161657233Y-79000400D01*
X161781042Y-78938495D01*
X162957233Y-79495638D02*
X162833423Y-79433733D01*
X162771519Y-79371828D01*
X162709614Y-79248019D01*
X162709614Y-79186114D01*
X162771519Y-79062304D01*
X162833423Y-79000400D01*
X162957233Y-78938495D01*
X163204852Y-78938495D01*
X163328661Y-79000400D01*
X163390566Y-79062304D01*
X163452471Y-79186114D01*
X163452471Y-79248019D01*
X163390566Y-79371828D01*
X163328661Y-79433733D01*
X163204852Y-79495638D01*
X162957233Y-79495638D01*
X162833423Y-79557542D01*
X162771519Y-79619447D01*
X162709614Y-79743257D01*
X162709614Y-79990876D01*
X162771519Y-80114685D01*
X162833423Y-80176590D01*
X162957233Y-80238495D01*
X163204852Y-80238495D01*
X163328661Y-80176590D01*
X163390566Y-80114685D01*
X163452471Y-79990876D01*
X163452471Y-79743257D01*
X163390566Y-79619447D01*
X163328661Y-79557542D01*
X163204852Y-79495638D01*
X164257233Y-78938495D02*
X164381042Y-78938495D01*
X164504852Y-79000400D01*
X164566757Y-79062304D01*
X164628661Y-79186114D01*
X164690566Y-79433733D01*
X164690566Y-79743257D01*
X164628661Y-79990876D01*
X164566757Y-80114685D01*
X164504852Y-80176590D01*
X164381042Y-80238495D01*
X164257233Y-80238495D01*
X164133423Y-80176590D01*
X164071519Y-80114685D01*
X164009614Y-79990876D01*
X163947709Y-79743257D01*
X163947709Y-79433733D01*
X164009614Y-79186114D01*
X164071519Y-79062304D01*
X164133423Y-79000400D01*
X164257233Y-78938495D01*
X165866757Y-78938495D02*
X165247709Y-78938495D01*
X165185804Y-79557542D01*
X165247709Y-79495638D01*
X165371519Y-79433733D01*
X165681042Y-79433733D01*
X165804852Y-79495638D01*
X165866757Y-79557542D01*
X165928661Y-79681352D01*
X165928661Y-79990876D01*
X165866757Y-80114685D01*
X165804852Y-80176590D01*
X165681042Y-80238495D01*
X165371519Y-80238495D01*
X165247709Y-80176590D01*
X165185804Y-80114685D01*
X167414376Y-80176590D02*
X167538185Y-80238495D01*
X167785804Y-80238495D01*
X167909614Y-80176590D01*
X167971519Y-80052780D01*
X167971519Y-79990876D01*
X167909614Y-79867066D01*
X167785804Y-79805161D01*
X167600090Y-79805161D01*
X167476280Y-79743257D01*
X167414376Y-79619447D01*
X167414376Y-79557542D01*
X167476280Y-79433733D01*
X167600090Y-79371828D01*
X167785804Y-79371828D01*
X167909614Y-79433733D01*
X168528661Y-80238495D02*
X168528661Y-79371828D01*
X168528661Y-78938495D02*
X168466757Y-79000400D01*
X168528661Y-79062304D01*
X168590566Y-79000400D01*
X168528661Y-78938495D01*
X168528661Y-79062304D01*
X169023900Y-79371828D02*
X169704852Y-79371828D01*
X169023900Y-80238495D01*
X169704852Y-80238495D01*
X170695328Y-80176590D02*
X170571519Y-80238495D01*
X170323900Y-80238495D01*
X170200090Y-80176590D01*
X170138185Y-80052780D01*
X170138185Y-79557542D01*
X170200090Y-79433733D01*
X170323900Y-79371828D01*
X170571519Y-79371828D01*
X170695328Y-79433733D01*
X170757233Y-79557542D01*
X170757233Y-79681352D01*
X170138185Y-79805161D01*
X186825380Y-66992595D02*
X186392047Y-66373547D01*
X186082523Y-66992595D02*
X186082523Y-65692595D01*
X186577761Y-65692595D01*
X186701571Y-65754500D01*
X186763476Y-65816404D01*
X186825380Y-65940214D01*
X186825380Y-66125928D01*
X186763476Y-66249738D01*
X186701571Y-66311642D01*
X186577761Y-66373547D01*
X186082523Y-66373547D01*
X188063476Y-66992595D02*
X187320619Y-66992595D01*
X187692047Y-66992595D02*
X187692047Y-65692595D01*
X187568238Y-65878309D01*
X187444428Y-66002119D01*
X187320619Y-66064023D01*
X188682523Y-66930690D02*
X188682523Y-66992595D01*
X188620619Y-67116404D01*
X188558714Y-67178309D01*
X189920619Y-66992595D02*
X189177761Y-66992595D01*
X189549190Y-66992595D02*
X189549190Y-65692595D01*
X189425380Y-65878309D01*
X189301571Y-66002119D01*
X189177761Y-66064023D01*
X190663476Y-66249738D02*
X190539666Y-66187833D01*
X190477761Y-66125928D01*
X190415857Y-66002119D01*
X190415857Y-65940214D01*
X190477761Y-65816404D01*
X190539666Y-65754500D01*
X190663476Y-65692595D01*
X190911095Y-65692595D01*
X191034904Y-65754500D01*
X191096809Y-65816404D01*
X191158714Y-65940214D01*
X191158714Y-66002119D01*
X191096809Y-66125928D01*
X191034904Y-66187833D01*
X190911095Y-66249738D01*
X190663476Y-66249738D01*
X190539666Y-66311642D01*
X190477761Y-66373547D01*
X190415857Y-66497357D01*
X190415857Y-66744976D01*
X190477761Y-66868785D01*
X190539666Y-66930690D01*
X190663476Y-66992595D01*
X190911095Y-66992595D01*
X191034904Y-66930690D01*
X191096809Y-66868785D01*
X191158714Y-66744976D01*
X191158714Y-66497357D01*
X191096809Y-66373547D01*
X191034904Y-66311642D01*
X190911095Y-66249738D01*
X192706333Y-66497357D02*
X193696809Y-66497357D01*
X195987285Y-66992595D02*
X195244428Y-66992595D01*
X195615857Y-66992595D02*
X195615857Y-65692595D01*
X195492047Y-65878309D01*
X195368238Y-66002119D01*
X195244428Y-66064023D01*
X196792047Y-65692595D02*
X196915857Y-65692595D01*
X197039666Y-65754500D01*
X197101571Y-65816404D01*
X197163476Y-65940214D01*
X197225380Y-66187833D01*
X197225380Y-66497357D01*
X197163476Y-66744976D01*
X197101571Y-66868785D01*
X197039666Y-66930690D01*
X196915857Y-66992595D01*
X196792047Y-66992595D01*
X196668238Y-66930690D01*
X196606333Y-66868785D01*
X196544428Y-66744976D01*
X196482523Y-66497357D01*
X196482523Y-66187833D01*
X196544428Y-65940214D01*
X196606333Y-65816404D01*
X196668238Y-65754500D01*
X196792047Y-65692595D01*
X197782523Y-66992595D02*
X197782523Y-65692595D01*
X198525380Y-66992595D02*
X197968238Y-66249738D01*
X198525380Y-65692595D02*
X197782523Y-66435452D01*
X186825380Y-69192595D02*
X186392047Y-68573547D01*
X186082523Y-69192595D02*
X186082523Y-67892595D01*
X186577761Y-67892595D01*
X186701571Y-67954500D01*
X186763476Y-68016404D01*
X186825380Y-68140214D01*
X186825380Y-68325928D01*
X186763476Y-68449738D01*
X186701571Y-68511642D01*
X186577761Y-68573547D01*
X186082523Y-68573547D01*
X187939666Y-67892595D02*
X187692047Y-67892595D01*
X187568238Y-67954500D01*
X187506333Y-68016404D01*
X187382523Y-68202119D01*
X187320619Y-68449738D01*
X187320619Y-68944976D01*
X187382523Y-69068785D01*
X187444428Y-69130690D01*
X187568238Y-69192595D01*
X187815857Y-69192595D01*
X187939666Y-69130690D01*
X188001571Y-69068785D01*
X188063476Y-68944976D01*
X188063476Y-68635452D01*
X188001571Y-68511642D01*
X187939666Y-68449738D01*
X187815857Y-68387833D01*
X187568238Y-68387833D01*
X187444428Y-68449738D01*
X187382523Y-68511642D01*
X187320619Y-68635452D01*
X188682523Y-69130690D02*
X188682523Y-69192595D01*
X188620619Y-69316404D01*
X188558714Y-69378309D01*
X189115857Y-67892595D02*
X189982523Y-67892595D01*
X189425380Y-69192595D01*
X190539666Y-69130690D02*
X190539666Y-69192595D01*
X190477761Y-69316404D01*
X190415857Y-69378309D01*
X191282523Y-68449738D02*
X191158714Y-68387833D01*
X191096809Y-68325928D01*
X191034904Y-68202119D01*
X191034904Y-68140214D01*
X191096809Y-68016404D01*
X191158714Y-67954500D01*
X191282523Y-67892595D01*
X191530142Y-67892595D01*
X191653952Y-67954500D01*
X191715857Y-68016404D01*
X191777761Y-68140214D01*
X191777761Y-68202119D01*
X191715857Y-68325928D01*
X191653952Y-68387833D01*
X191530142Y-68449738D01*
X191282523Y-68449738D01*
X191158714Y-68511642D01*
X191096809Y-68573547D01*
X191034904Y-68697357D01*
X191034904Y-68944976D01*
X191096809Y-69068785D01*
X191158714Y-69130690D01*
X191282523Y-69192595D01*
X191530142Y-69192595D01*
X191653952Y-69130690D01*
X191715857Y-69068785D01*
X191777761Y-68944976D01*
X191777761Y-68697357D01*
X191715857Y-68573547D01*
X191653952Y-68511642D01*
X191530142Y-68449738D01*
X192396809Y-69130690D02*
X192396809Y-69192595D01*
X192334904Y-69316404D01*
X192273000Y-69378309D01*
X192892047Y-68016404D02*
X192953952Y-67954500D01*
X193077761Y-67892595D01*
X193387285Y-67892595D01*
X193511095Y-67954500D01*
X193573000Y-68016404D01*
X193634904Y-68140214D01*
X193634904Y-68264023D01*
X193573000Y-68449738D01*
X192830142Y-69192595D01*
X193634904Y-69192595D01*
X194253952Y-69192595D02*
X194501571Y-69192595D01*
X194625380Y-69130690D01*
X194687285Y-69068785D01*
X194811095Y-68883071D01*
X194873000Y-68635452D01*
X194873000Y-68140214D01*
X194811095Y-68016404D01*
X194749190Y-67954500D01*
X194625380Y-67892595D01*
X194377761Y-67892595D01*
X194253952Y-67954500D01*
X194192047Y-68016404D01*
X194130142Y-68140214D01*
X194130142Y-68449738D01*
X194192047Y-68573547D01*
X194253952Y-68635452D01*
X194377761Y-68697357D01*
X194625380Y-68697357D01*
X194749190Y-68635452D01*
X194811095Y-68573547D01*
X194873000Y-68449738D01*
X195492047Y-69130690D02*
X195492047Y-69192595D01*
X195430142Y-69316404D01*
X195368238Y-69378309D01*
X195925380Y-67892595D02*
X196730142Y-67892595D01*
X196296809Y-68387833D01*
X196482523Y-68387833D01*
X196606333Y-68449738D01*
X196668238Y-68511642D01*
X196730142Y-68635452D01*
X196730142Y-68944976D01*
X196668238Y-69068785D01*
X196606333Y-69130690D01*
X196482523Y-69192595D01*
X196111095Y-69192595D01*
X195987285Y-69130690D01*
X195925380Y-69068785D01*
X197534904Y-67892595D02*
X197658714Y-67892595D01*
X197782523Y-67954500D01*
X197844428Y-68016404D01*
X197906333Y-68140214D01*
X197968238Y-68387833D01*
X197968238Y-68697357D01*
X197906333Y-68944976D01*
X197844428Y-69068785D01*
X197782523Y-69130690D01*
X197658714Y-69192595D01*
X197534904Y-69192595D01*
X197411095Y-69130690D01*
X197349190Y-69068785D01*
X197287285Y-68944976D01*
X197225380Y-68697357D01*
X197225380Y-68387833D01*
X197287285Y-68140214D01*
X197349190Y-68016404D01*
X197411095Y-67954500D01*
X197534904Y-67892595D01*
X198587285Y-69130690D02*
X198587285Y-69192595D01*
X198525380Y-69316404D01*
X198463476Y-69378309D01*
X199020619Y-67892595D02*
X199825380Y-67892595D01*
X199392047Y-68387833D01*
X199577761Y-68387833D01*
X199701571Y-68449738D01*
X199763476Y-68511642D01*
X199825380Y-68635452D01*
X199825380Y-68944976D01*
X199763476Y-69068785D01*
X199701571Y-69130690D01*
X199577761Y-69192595D01*
X199206333Y-69192595D01*
X199082523Y-69130690D01*
X199020619Y-69068785D01*
X201063476Y-69192595D02*
X200320619Y-69192595D01*
X200692047Y-69192595D02*
X200692047Y-67892595D01*
X200568238Y-68078309D01*
X200444428Y-68202119D01*
X200320619Y-68264023D01*
X202611095Y-68697357D02*
X203601571Y-68697357D01*
X205892047Y-69192595D02*
X205149190Y-69192595D01*
X205520619Y-69192595D02*
X205520619Y-67892595D01*
X205396809Y-68078309D01*
X205273000Y-68202119D01*
X205149190Y-68264023D01*
X207068238Y-67892595D02*
X206449190Y-67892595D01*
X206387285Y-68511642D01*
X206449190Y-68449738D01*
X206573000Y-68387833D01*
X206882523Y-68387833D01*
X207006333Y-68449738D01*
X207068238Y-68511642D01*
X207130142Y-68635452D01*
X207130142Y-68944976D01*
X207068238Y-69068785D01*
X207006333Y-69130690D01*
X206882523Y-69192595D01*
X206573000Y-69192595D01*
X206449190Y-69130690D01*
X206387285Y-69068785D01*
X207934904Y-67892595D02*
X208058714Y-67892595D01*
X208182523Y-67954500D01*
X208244428Y-68016404D01*
X208306333Y-68140214D01*
X208368238Y-68387833D01*
X208368238Y-68697357D01*
X208306333Y-68944976D01*
X208244428Y-69068785D01*
X208182523Y-69130690D01*
X208058714Y-69192595D01*
X207934904Y-69192595D01*
X207811095Y-69130690D01*
X207749190Y-69068785D01*
X207687285Y-68944976D01*
X207625380Y-68697357D01*
X207625380Y-68387833D01*
X207687285Y-68140214D01*
X207749190Y-68016404D01*
X207811095Y-67954500D01*
X207934904Y-67892595D01*
X209668238Y-69192595D02*
X209234904Y-68573547D01*
X208925380Y-69192595D02*
X208925380Y-67892595D01*
X209420619Y-67892595D01*
X209544428Y-67954500D01*
X209606333Y-68016404D01*
X209668238Y-68140214D01*
X209668238Y-68325928D01*
X209606333Y-68449738D01*
X209544428Y-68511642D01*
X209420619Y-68573547D01*
X208925380Y-68573547D01*
X186825380Y-71392595D02*
X186392047Y-70773547D01*
X186082523Y-71392595D02*
X186082523Y-70092595D01*
X186577761Y-70092595D01*
X186701571Y-70154500D01*
X186763476Y-70216404D01*
X186825380Y-70340214D01*
X186825380Y-70525928D01*
X186763476Y-70649738D01*
X186701571Y-70711642D01*
X186577761Y-70773547D01*
X186082523Y-70773547D01*
X187444428Y-71392595D02*
X187692047Y-71392595D01*
X187815857Y-71330690D01*
X187877761Y-71268785D01*
X188001571Y-71083071D01*
X188063476Y-70835452D01*
X188063476Y-70340214D01*
X188001571Y-70216404D01*
X187939666Y-70154500D01*
X187815857Y-70092595D01*
X187568238Y-70092595D01*
X187444428Y-70154500D01*
X187382523Y-70216404D01*
X187320619Y-70340214D01*
X187320619Y-70649738D01*
X187382523Y-70773547D01*
X187444428Y-70835452D01*
X187568238Y-70897357D01*
X187815857Y-70897357D01*
X187939666Y-70835452D01*
X188001571Y-70773547D01*
X188063476Y-70649738D01*
X189611095Y-70897357D02*
X190601571Y-70897357D01*
X192458714Y-70092595D02*
X192582523Y-70092595D01*
X192706333Y-70154500D01*
X192768238Y-70216404D01*
X192830142Y-70340214D01*
X192892047Y-70587833D01*
X192892047Y-70897357D01*
X192830142Y-71144976D01*
X192768238Y-71268785D01*
X192706333Y-71330690D01*
X192582523Y-71392595D01*
X192458714Y-71392595D01*
X192334904Y-71330690D01*
X192273000Y-71268785D01*
X192211095Y-71144976D01*
X192149190Y-70897357D01*
X192149190Y-70587833D01*
X192211095Y-70340214D01*
X192273000Y-70216404D01*
X192334904Y-70154500D01*
X192458714Y-70092595D01*
X194192047Y-71392595D02*
X193758714Y-70773547D01*
X193449190Y-71392595D02*
X193449190Y-70092595D01*
X193944428Y-70092595D01*
X194068238Y-70154500D01*
X194130142Y-70216404D01*
X194192047Y-70340214D01*
X194192047Y-70525928D01*
X194130142Y-70649738D01*
X194068238Y-70711642D01*
X193944428Y-70773547D01*
X193449190Y-70773547D01*
X196111095Y-71887833D02*
X196049190Y-71825928D01*
X195925380Y-71640214D01*
X195863476Y-71516404D01*
X195801571Y-71330690D01*
X195739666Y-71021166D01*
X195739666Y-70773547D01*
X195801571Y-70464023D01*
X195863476Y-70278309D01*
X195925380Y-70154500D01*
X196049190Y-69968785D01*
X196111095Y-69906880D01*
X196792047Y-71392595D02*
X196668238Y-71330690D01*
X196606333Y-71268785D01*
X196544428Y-71144976D01*
X196544428Y-70773547D01*
X196606333Y-70649738D01*
X196668238Y-70587833D01*
X196792047Y-70525928D01*
X196977761Y-70525928D01*
X197101571Y-70587833D01*
X197163476Y-70649738D01*
X197225380Y-70773547D01*
X197225380Y-71144976D01*
X197163476Y-71268785D01*
X197101571Y-71330690D01*
X196977761Y-71392595D01*
X196792047Y-71392595D01*
X197782523Y-71392595D02*
X197782523Y-70525928D01*
X197782523Y-70773547D02*
X197844428Y-70649738D01*
X197906333Y-70587833D01*
X198030142Y-70525928D01*
X198153952Y-70525928D01*
X199577761Y-70525928D02*
X199577761Y-71640214D01*
X199515857Y-71764023D01*
X199392047Y-71825928D01*
X199330142Y-71825928D01*
X199577761Y-70092595D02*
X199515857Y-70154500D01*
X199577761Y-70216404D01*
X199639666Y-70154500D01*
X199577761Y-70092595D01*
X199577761Y-70216404D01*
X200753952Y-70525928D02*
X200753952Y-71392595D01*
X200196809Y-70525928D02*
X200196809Y-71206880D01*
X200258714Y-71330690D01*
X200382523Y-71392595D01*
X200568238Y-71392595D01*
X200692047Y-71330690D01*
X200753952Y-71268785D01*
X201373000Y-71392595D02*
X201373000Y-70525928D01*
X201373000Y-70649738D02*
X201434904Y-70587833D01*
X201558714Y-70525928D01*
X201744428Y-70525928D01*
X201868238Y-70587833D01*
X201930142Y-70711642D01*
X201930142Y-71392595D01*
X201930142Y-70711642D02*
X201992047Y-70587833D01*
X202115857Y-70525928D01*
X202301571Y-70525928D01*
X202425380Y-70587833D01*
X202487285Y-70711642D01*
X202487285Y-71392595D01*
X203106333Y-70525928D02*
X203106333Y-71825928D01*
X203106333Y-70587833D02*
X203230142Y-70525928D01*
X203477761Y-70525928D01*
X203601571Y-70587833D01*
X203663476Y-70649738D01*
X203725380Y-70773547D01*
X203725380Y-71144976D01*
X203663476Y-71268785D01*
X203601571Y-71330690D01*
X203477761Y-71392595D01*
X203230142Y-71392595D01*
X203106333Y-71330690D01*
X204777761Y-71330690D02*
X204653952Y-71392595D01*
X204406333Y-71392595D01*
X204282523Y-71330690D01*
X204220619Y-71206880D01*
X204220619Y-70711642D01*
X204282523Y-70587833D01*
X204406333Y-70525928D01*
X204653952Y-70525928D01*
X204777761Y-70587833D01*
X204839666Y-70711642D01*
X204839666Y-70835452D01*
X204220619Y-70959261D01*
X205396809Y-71392595D02*
X205396809Y-70525928D01*
X205396809Y-70773547D02*
X205458714Y-70649738D01*
X205520619Y-70587833D01*
X205644428Y-70525928D01*
X205768238Y-70525928D01*
X206077761Y-71887833D02*
X206139666Y-71825928D01*
X206263476Y-71640214D01*
X206325380Y-71516404D01*
X206387285Y-71330690D01*
X206449190Y-71021166D01*
X206449190Y-70773547D01*
X206387285Y-70464023D01*
X206325380Y-70278309D01*
X206263476Y-70154500D01*
X206139666Y-69968785D01*
X206077761Y-69906880D01*
X186825380Y-73592595D02*
X186392047Y-72973547D01*
X186082523Y-73592595D02*
X186082523Y-72292595D01*
X186577761Y-72292595D01*
X186701571Y-72354500D01*
X186763476Y-72416404D01*
X186825380Y-72540214D01*
X186825380Y-72725928D01*
X186763476Y-72849738D01*
X186701571Y-72911642D01*
X186577761Y-72973547D01*
X186082523Y-72973547D01*
X188063476Y-73592595D02*
X187320619Y-73592595D01*
X187692047Y-73592595D02*
X187692047Y-72292595D01*
X187568238Y-72478309D01*
X187444428Y-72602119D01*
X187320619Y-72664023D01*
X188868238Y-72292595D02*
X188992047Y-72292595D01*
X189115857Y-72354500D01*
X189177761Y-72416404D01*
X189239666Y-72540214D01*
X189301571Y-72787833D01*
X189301571Y-73097357D01*
X189239666Y-73344976D01*
X189177761Y-73468785D01*
X189115857Y-73530690D01*
X188992047Y-73592595D01*
X188868238Y-73592595D01*
X188744428Y-73530690D01*
X188682523Y-73468785D01*
X188620619Y-73344976D01*
X188558714Y-73097357D01*
X188558714Y-72787833D01*
X188620619Y-72540214D01*
X188682523Y-72416404D01*
X188744428Y-72354500D01*
X188868238Y-72292595D01*
X189920619Y-73530690D02*
X189920619Y-73592595D01*
X189858714Y-73716404D01*
X189796809Y-73778309D01*
X191158714Y-73592595D02*
X190415857Y-73592595D01*
X190787285Y-73592595D02*
X190787285Y-72292595D01*
X190663476Y-72478309D01*
X190539666Y-72602119D01*
X190415857Y-72664023D01*
X192396809Y-73592595D02*
X191653952Y-73592595D01*
X192025380Y-73592595D02*
X192025380Y-72292595D01*
X191901571Y-72478309D01*
X191777761Y-72602119D01*
X191653952Y-72664023D01*
X193015857Y-73530690D02*
X193015857Y-73592595D01*
X192953952Y-73716404D01*
X192892047Y-73778309D01*
X194253952Y-73592595D02*
X193511095Y-73592595D01*
X193882523Y-73592595D02*
X193882523Y-72292595D01*
X193758714Y-72478309D01*
X193634904Y-72602119D01*
X193511095Y-72664023D01*
X194749190Y-72416404D02*
X194811095Y-72354500D01*
X194934904Y-72292595D01*
X195244428Y-72292595D01*
X195368238Y-72354500D01*
X195430142Y-72416404D01*
X195492047Y-72540214D01*
X195492047Y-72664023D01*
X195430142Y-72849738D01*
X194687285Y-73592595D01*
X195492047Y-73592595D01*
X196111095Y-73530690D02*
X196111095Y-73592595D01*
X196049190Y-73716404D01*
X195987285Y-73778309D01*
X197349190Y-73592595D02*
X196606333Y-73592595D01*
X196977761Y-73592595D02*
X196977761Y-72292595D01*
X196853952Y-72478309D01*
X196730142Y-72602119D01*
X196606333Y-72664023D01*
X197782523Y-72292595D02*
X198587285Y-72292595D01*
X198153952Y-72787833D01*
X198339666Y-72787833D01*
X198463476Y-72849738D01*
X198525380Y-72911642D01*
X198587285Y-73035452D01*
X198587285Y-73344976D01*
X198525380Y-73468785D01*
X198463476Y-73530690D01*
X198339666Y-73592595D01*
X197968238Y-73592595D01*
X197844428Y-73530690D01*
X197782523Y-73468785D01*
X200134904Y-73097357D02*
X201125380Y-73097357D01*
X202611095Y-72292595D02*
X203477761Y-72292595D01*
X202920619Y-73592595D01*
X204592047Y-72292595D02*
X203973000Y-72292595D01*
X203911095Y-72911642D01*
X203973000Y-72849738D01*
X204096809Y-72787833D01*
X204406333Y-72787833D01*
X204530142Y-72849738D01*
X204592047Y-72911642D01*
X204653952Y-73035452D01*
X204653952Y-73344976D01*
X204592047Y-73468785D01*
X204530142Y-73530690D01*
X204406333Y-73592595D01*
X204096809Y-73592595D01*
X203973000Y-73530690D01*
X203911095Y-73468785D01*
X205953952Y-73592595D02*
X205520619Y-72973547D01*
X205211095Y-73592595D02*
X205211095Y-72292595D01*
X205706333Y-72292595D01*
X205830142Y-72354500D01*
X205892047Y-72416404D01*
X205953952Y-72540214D01*
X205953952Y-72725928D01*
X205892047Y-72849738D01*
X205830142Y-72911642D01*
X205706333Y-72973547D01*
X205211095Y-72973547D01*
X186825380Y-75792595D02*
X186392047Y-75173547D01*
X186082523Y-75792595D02*
X186082523Y-74492595D01*
X186577761Y-74492595D01*
X186701571Y-74554500D01*
X186763476Y-74616404D01*
X186825380Y-74740214D01*
X186825380Y-74925928D01*
X186763476Y-75049738D01*
X186701571Y-75111642D01*
X186577761Y-75173547D01*
X186082523Y-75173547D01*
X188063476Y-75792595D02*
X187320619Y-75792595D01*
X187692047Y-75792595D02*
X187692047Y-74492595D01*
X187568238Y-74678309D01*
X187444428Y-74802119D01*
X187320619Y-74864023D01*
X188682523Y-75792595D02*
X188930142Y-75792595D01*
X189053952Y-75730690D01*
X189115857Y-75668785D01*
X189239666Y-75483071D01*
X189301571Y-75235452D01*
X189301571Y-74740214D01*
X189239666Y-74616404D01*
X189177761Y-74554500D01*
X189053952Y-74492595D01*
X188806333Y-74492595D01*
X188682523Y-74554500D01*
X188620619Y-74616404D01*
X188558714Y-74740214D01*
X188558714Y-75049738D01*
X188620619Y-75173547D01*
X188682523Y-75235452D01*
X188806333Y-75297357D01*
X189053952Y-75297357D01*
X189177761Y-75235452D01*
X189239666Y-75173547D01*
X189301571Y-75049738D01*
X189920619Y-75730690D02*
X189920619Y-75792595D01*
X189858714Y-75916404D01*
X189796809Y-75978309D01*
X190415857Y-74616404D02*
X190477761Y-74554500D01*
X190601571Y-74492595D01*
X190911095Y-74492595D01*
X191034904Y-74554500D01*
X191096809Y-74616404D01*
X191158714Y-74740214D01*
X191158714Y-74864023D01*
X191096809Y-75049738D01*
X190353952Y-75792595D01*
X191158714Y-75792595D01*
X191592047Y-74492595D02*
X192396809Y-74492595D01*
X191963476Y-74987833D01*
X192149190Y-74987833D01*
X192273000Y-75049738D01*
X192334904Y-75111642D01*
X192396809Y-75235452D01*
X192396809Y-75544976D01*
X192334904Y-75668785D01*
X192273000Y-75730690D01*
X192149190Y-75792595D01*
X191777761Y-75792595D01*
X191653952Y-75730690D01*
X191592047Y-75668785D01*
X193944428Y-75297357D02*
X194934904Y-75297357D01*
X197101571Y-74925928D02*
X197101571Y-75792595D01*
X196792047Y-74430690D02*
X196482523Y-75359261D01*
X197287285Y-75359261D01*
X197782523Y-75792595D02*
X197782523Y-74492595D01*
X198525380Y-75792595D02*
X197968238Y-75049738D01*
X198525380Y-74492595D02*
X197782523Y-75235452D01*
X198958714Y-74492595D02*
X199825380Y-74492595D01*
X199268238Y-75792595D01*
X186825380Y-77992595D02*
X186392047Y-77373547D01*
X186082523Y-77992595D02*
X186082523Y-76692595D01*
X186577761Y-76692595D01*
X186701571Y-76754500D01*
X186763476Y-76816404D01*
X186825380Y-76940214D01*
X186825380Y-77125928D01*
X186763476Y-77249738D01*
X186701571Y-77311642D01*
X186577761Y-77373547D01*
X186082523Y-77373547D01*
X187320619Y-76816404D02*
X187382523Y-76754500D01*
X187506333Y-76692595D01*
X187815857Y-76692595D01*
X187939666Y-76754500D01*
X188001571Y-76816404D01*
X188063476Y-76940214D01*
X188063476Y-77064023D01*
X188001571Y-77249738D01*
X187258714Y-77992595D01*
X188063476Y-77992595D01*
X188868238Y-76692595D02*
X188992047Y-76692595D01*
X189115857Y-76754500D01*
X189177761Y-76816404D01*
X189239666Y-76940214D01*
X189301571Y-77187833D01*
X189301571Y-77497357D01*
X189239666Y-77744976D01*
X189177761Y-77868785D01*
X189115857Y-77930690D01*
X188992047Y-77992595D01*
X188868238Y-77992595D01*
X188744428Y-77930690D01*
X188682523Y-77868785D01*
X188620619Y-77744976D01*
X188558714Y-77497357D01*
X188558714Y-77187833D01*
X188620619Y-76940214D01*
X188682523Y-76816404D01*
X188744428Y-76754500D01*
X188868238Y-76692595D01*
X189920619Y-77930690D02*
X189920619Y-77992595D01*
X189858714Y-78116404D01*
X189796809Y-78178309D01*
X190415857Y-76816404D02*
X190477761Y-76754500D01*
X190601571Y-76692595D01*
X190911095Y-76692595D01*
X191034904Y-76754500D01*
X191096809Y-76816404D01*
X191158714Y-76940214D01*
X191158714Y-77064023D01*
X191096809Y-77249738D01*
X190353952Y-77992595D01*
X191158714Y-77992595D01*
X191653952Y-76816404D02*
X191715857Y-76754500D01*
X191839666Y-76692595D01*
X192149190Y-76692595D01*
X192273000Y-76754500D01*
X192334904Y-76816404D01*
X192396809Y-76940214D01*
X192396809Y-77064023D01*
X192334904Y-77249738D01*
X191592047Y-77992595D01*
X192396809Y-77992595D01*
X193015857Y-77930690D02*
X193015857Y-77992595D01*
X192953952Y-78116404D01*
X192892047Y-78178309D01*
X193511095Y-76816404D02*
X193573000Y-76754500D01*
X193696809Y-76692595D01*
X194006333Y-76692595D01*
X194130142Y-76754500D01*
X194192047Y-76816404D01*
X194253952Y-76940214D01*
X194253952Y-77064023D01*
X194192047Y-77249738D01*
X193449190Y-77992595D01*
X194253952Y-77992595D01*
X195430142Y-76692595D02*
X194811095Y-76692595D01*
X194749190Y-77311642D01*
X194811095Y-77249738D01*
X194934904Y-77187833D01*
X195244428Y-77187833D01*
X195368238Y-77249738D01*
X195430142Y-77311642D01*
X195492047Y-77435452D01*
X195492047Y-77744976D01*
X195430142Y-77868785D01*
X195368238Y-77930690D01*
X195244428Y-77992595D01*
X194934904Y-77992595D01*
X194811095Y-77930690D01*
X194749190Y-77868785D01*
X196111095Y-77930690D02*
X196111095Y-77992595D01*
X196049190Y-78116404D01*
X195987285Y-78178309D01*
X196606333Y-76816404D02*
X196668238Y-76754500D01*
X196792047Y-76692595D01*
X197101571Y-76692595D01*
X197225380Y-76754500D01*
X197287285Y-76816404D01*
X197349190Y-76940214D01*
X197349190Y-77064023D01*
X197287285Y-77249738D01*
X196544428Y-77992595D01*
X197349190Y-77992595D01*
X197782523Y-76692595D02*
X198649190Y-76692595D01*
X198092047Y-77992595D01*
X200134904Y-77497357D02*
X201125380Y-77497357D01*
X203415857Y-77992595D02*
X202673000Y-77992595D01*
X203044428Y-77992595D02*
X203044428Y-76692595D01*
X202920619Y-76878309D01*
X202796809Y-77002119D01*
X202673000Y-77064023D01*
X204220619Y-76692595D02*
X204344428Y-76692595D01*
X204468238Y-76754500D01*
X204530142Y-76816404D01*
X204592047Y-76940214D01*
X204653952Y-77187833D01*
X204653952Y-77497357D01*
X204592047Y-77744976D01*
X204530142Y-77868785D01*
X204468238Y-77930690D01*
X204344428Y-77992595D01*
X204220619Y-77992595D01*
X204096809Y-77930690D01*
X204034904Y-77868785D01*
X203973000Y-77744976D01*
X203911095Y-77497357D01*
X203911095Y-77187833D01*
X203973000Y-76940214D01*
X204034904Y-76816404D01*
X204096809Y-76754500D01*
X204220619Y-76692595D01*
X205458714Y-76692595D02*
X205582523Y-76692595D01*
X205706333Y-76754500D01*
X205768238Y-76816404D01*
X205830142Y-76940214D01*
X205892047Y-77187833D01*
X205892047Y-77497357D01*
X205830142Y-77744976D01*
X205768238Y-77868785D01*
X205706333Y-77930690D01*
X205582523Y-77992595D01*
X205458714Y-77992595D01*
X205334904Y-77930690D01*
X205273000Y-77868785D01*
X205211095Y-77744976D01*
X205149190Y-77497357D01*
X205149190Y-77187833D01*
X205211095Y-76940214D01*
X205273000Y-76816404D01*
X205334904Y-76754500D01*
X205458714Y-76692595D01*
X206449190Y-77992595D02*
X206449190Y-76692595D01*
X207192047Y-77992595D02*
X206634904Y-77249738D01*
X207192047Y-76692595D02*
X206449190Y-77435452D01*
X186825380Y-80192595D02*
X186392047Y-79573547D01*
X186082523Y-80192595D02*
X186082523Y-78892595D01*
X186577761Y-78892595D01*
X186701571Y-78954500D01*
X186763476Y-79016404D01*
X186825380Y-79140214D01*
X186825380Y-79325928D01*
X186763476Y-79449738D01*
X186701571Y-79511642D01*
X186577761Y-79573547D01*
X186082523Y-79573547D01*
X187320619Y-79016404D02*
X187382523Y-78954500D01*
X187506333Y-78892595D01*
X187815857Y-78892595D01*
X187939666Y-78954500D01*
X188001571Y-79016404D01*
X188063476Y-79140214D01*
X188063476Y-79264023D01*
X188001571Y-79449738D01*
X187258714Y-80192595D01*
X188063476Y-80192595D01*
X189301571Y-80192595D02*
X188558714Y-80192595D01*
X188930142Y-80192595D02*
X188930142Y-78892595D01*
X188806333Y-79078309D01*
X188682523Y-79202119D01*
X188558714Y-79264023D01*
X189920619Y-80130690D02*
X189920619Y-80192595D01*
X189858714Y-80316404D01*
X189796809Y-80378309D01*
X190415857Y-79016404D02*
X190477761Y-78954500D01*
X190601571Y-78892595D01*
X190911095Y-78892595D01*
X191034904Y-78954500D01*
X191096809Y-79016404D01*
X191158714Y-79140214D01*
X191158714Y-79264023D01*
X191096809Y-79449738D01*
X190353952Y-80192595D01*
X191158714Y-80192595D01*
X192273000Y-79325928D02*
X192273000Y-80192595D01*
X191963476Y-78830690D02*
X191653952Y-79759261D01*
X192458714Y-79759261D01*
X193015857Y-80130690D02*
X193015857Y-80192595D01*
X192953952Y-80316404D01*
X192892047Y-80378309D01*
X193511095Y-79016404D02*
X193573000Y-78954500D01*
X193696809Y-78892595D01*
X194006333Y-78892595D01*
X194130142Y-78954500D01*
X194192047Y-79016404D01*
X194253952Y-79140214D01*
X194253952Y-79264023D01*
X194192047Y-79449738D01*
X193449190Y-80192595D01*
X194253952Y-80192595D01*
X195368238Y-78892595D02*
X195120619Y-78892595D01*
X194996809Y-78954500D01*
X194934904Y-79016404D01*
X194811095Y-79202119D01*
X194749190Y-79449738D01*
X194749190Y-79944976D01*
X194811095Y-80068785D01*
X194873000Y-80130690D01*
X194996809Y-80192595D01*
X195244428Y-80192595D01*
X195368238Y-80130690D01*
X195430142Y-80068785D01*
X195492047Y-79944976D01*
X195492047Y-79635452D01*
X195430142Y-79511642D01*
X195368238Y-79449738D01*
X195244428Y-79387833D01*
X194996809Y-79387833D01*
X194873000Y-79449738D01*
X194811095Y-79511642D01*
X194749190Y-79635452D01*
X196111095Y-80130690D02*
X196111095Y-80192595D01*
X196049190Y-80316404D01*
X195987285Y-80378309D01*
X196606333Y-79016404D02*
X196668238Y-78954500D01*
X196792047Y-78892595D01*
X197101571Y-78892595D01*
X197225380Y-78954500D01*
X197287285Y-79016404D01*
X197349190Y-79140214D01*
X197349190Y-79264023D01*
X197287285Y-79449738D01*
X196544428Y-80192595D01*
X197349190Y-80192595D01*
X198092047Y-79449738D02*
X197968238Y-79387833D01*
X197906333Y-79325928D01*
X197844428Y-79202119D01*
X197844428Y-79140214D01*
X197906333Y-79016404D01*
X197968238Y-78954500D01*
X198092047Y-78892595D01*
X198339666Y-78892595D01*
X198463476Y-78954500D01*
X198525380Y-79016404D01*
X198587285Y-79140214D01*
X198587285Y-79202119D01*
X198525380Y-79325928D01*
X198463476Y-79387833D01*
X198339666Y-79449738D01*
X198092047Y-79449738D01*
X197968238Y-79511642D01*
X197906333Y-79573547D01*
X197844428Y-79697357D01*
X197844428Y-79944976D01*
X197906333Y-80068785D01*
X197968238Y-80130690D01*
X198092047Y-80192595D01*
X198339666Y-80192595D01*
X198463476Y-80130690D01*
X198525380Y-80068785D01*
X198587285Y-79944976D01*
X198587285Y-79697357D01*
X198525380Y-79573547D01*
X198463476Y-79511642D01*
X198339666Y-79449738D01*
X200134904Y-79697357D02*
X201125380Y-79697357D01*
X203415857Y-80192595D02*
X202673000Y-80192595D01*
X203044428Y-80192595D02*
X203044428Y-78892595D01*
X202920619Y-79078309D01*
X202796809Y-79202119D01*
X202673000Y-79264023D01*
X204220619Y-78892595D02*
X204344428Y-78892595D01*
X204468238Y-78954500D01*
X204530142Y-79016404D01*
X204592047Y-79140214D01*
X204653952Y-79387833D01*
X204653952Y-79697357D01*
X204592047Y-79944976D01*
X204530142Y-80068785D01*
X204468238Y-80130690D01*
X204344428Y-80192595D01*
X204220619Y-80192595D01*
X204096809Y-80130690D01*
X204034904Y-80068785D01*
X203973000Y-79944976D01*
X203911095Y-79697357D01*
X203911095Y-79387833D01*
X203973000Y-79140214D01*
X204034904Y-79016404D01*
X204096809Y-78954500D01*
X204220619Y-78892595D01*
X205458714Y-78892595D02*
X205582523Y-78892595D01*
X205706333Y-78954500D01*
X205768238Y-79016404D01*
X205830142Y-79140214D01*
X205892047Y-79387833D01*
X205892047Y-79697357D01*
X205830142Y-79944976D01*
X205768238Y-80068785D01*
X205706333Y-80130690D01*
X205582523Y-80192595D01*
X205458714Y-80192595D01*
X205334904Y-80130690D01*
X205273000Y-80068785D01*
X205211095Y-79944976D01*
X205149190Y-79697357D01*
X205149190Y-79387833D01*
X205211095Y-79140214D01*
X205273000Y-79016404D01*
X205334904Y-78954500D01*
X205458714Y-78892595D01*
X207192047Y-80192595D02*
X206758714Y-79573547D01*
X206449190Y-80192595D02*
X206449190Y-78892595D01*
X206944428Y-78892595D01*
X207068238Y-78954500D01*
X207130142Y-79016404D01*
X207192047Y-79140214D01*
X207192047Y-79325928D01*
X207130142Y-79449738D01*
X207068238Y-79511642D01*
X206944428Y-79573547D01*
X206449190Y-79573547D01*
X186020619Y-82021166D02*
X186639666Y-82021166D01*
X185896809Y-82392595D02*
X186330142Y-81092595D01*
X186763476Y-82392595D01*
X187382523Y-82392595D02*
X187258714Y-82330690D01*
X187196809Y-82206880D01*
X187196809Y-81092595D01*
X188063476Y-82392595D02*
X187939666Y-82330690D01*
X187877761Y-82206880D01*
X187877761Y-81092595D01*
X189796809Y-81092595D02*
X189920619Y-81092595D01*
X190044428Y-81154500D01*
X190106333Y-81216404D01*
X190168238Y-81340214D01*
X190230142Y-81587833D01*
X190230142Y-81897357D01*
X190168238Y-82144976D01*
X190106333Y-82268785D01*
X190044428Y-82330690D01*
X189920619Y-82392595D01*
X189796809Y-82392595D01*
X189673000Y-82330690D01*
X189611095Y-82268785D01*
X189549190Y-82144976D01*
X189487285Y-81897357D01*
X189487285Y-81587833D01*
X189549190Y-81340214D01*
X189611095Y-81216404D01*
X189673000Y-81154500D01*
X189796809Y-81092595D01*
X190973000Y-81649738D02*
X190849190Y-81587833D01*
X190787285Y-81525928D01*
X190725380Y-81402119D01*
X190725380Y-81340214D01*
X190787285Y-81216404D01*
X190849190Y-81154500D01*
X190973000Y-81092595D01*
X191220619Y-81092595D01*
X191344428Y-81154500D01*
X191406333Y-81216404D01*
X191468238Y-81340214D01*
X191468238Y-81402119D01*
X191406333Y-81525928D01*
X191344428Y-81587833D01*
X191220619Y-81649738D01*
X190973000Y-81649738D01*
X190849190Y-81711642D01*
X190787285Y-81773547D01*
X190725380Y-81897357D01*
X190725380Y-82144976D01*
X190787285Y-82268785D01*
X190849190Y-82330690D01*
X190973000Y-82392595D01*
X191220619Y-82392595D01*
X191344428Y-82330690D01*
X191406333Y-82268785D01*
X191468238Y-82144976D01*
X191468238Y-81897357D01*
X191406333Y-81773547D01*
X191344428Y-81711642D01*
X191220619Y-81649738D01*
X192273000Y-81092595D02*
X192396809Y-81092595D01*
X192520619Y-81154500D01*
X192582523Y-81216404D01*
X192644428Y-81340214D01*
X192706333Y-81587833D01*
X192706333Y-81897357D01*
X192644428Y-82144976D01*
X192582523Y-82268785D01*
X192520619Y-82330690D01*
X192396809Y-82392595D01*
X192273000Y-82392595D01*
X192149190Y-82330690D01*
X192087285Y-82268785D01*
X192025380Y-82144976D01*
X191963476Y-81897357D01*
X191963476Y-81587833D01*
X192025380Y-81340214D01*
X192087285Y-81216404D01*
X192149190Y-81154500D01*
X192273000Y-81092595D01*
X193882523Y-81092595D02*
X193263476Y-81092595D01*
X193201571Y-81711642D01*
X193263476Y-81649738D01*
X193387285Y-81587833D01*
X193696809Y-81587833D01*
X193820619Y-81649738D01*
X193882523Y-81711642D01*
X193944428Y-81835452D01*
X193944428Y-82144976D01*
X193882523Y-82268785D01*
X193820619Y-82330690D01*
X193696809Y-82392595D01*
X193387285Y-82392595D01*
X193263476Y-82330690D01*
X193201571Y-82268785D01*
X195430142Y-82330690D02*
X195553952Y-82392595D01*
X195801571Y-82392595D01*
X195925380Y-82330690D01*
X195987285Y-82206880D01*
X195987285Y-82144976D01*
X195925380Y-82021166D01*
X195801571Y-81959261D01*
X195615857Y-81959261D01*
X195492047Y-81897357D01*
X195430142Y-81773547D01*
X195430142Y-81711642D01*
X195492047Y-81587833D01*
X195615857Y-81525928D01*
X195801571Y-81525928D01*
X195925380Y-81587833D01*
X196544428Y-82392595D02*
X196544428Y-81525928D01*
X196544428Y-81092595D02*
X196482523Y-81154500D01*
X196544428Y-81216404D01*
X196606333Y-81154500D01*
X196544428Y-81092595D01*
X196544428Y-81216404D01*
X197039666Y-81525928D02*
X197720619Y-81525928D01*
X197039666Y-82392595D01*
X197720619Y-82392595D01*
X198711095Y-82330690D02*
X198587285Y-82392595D01*
X198339666Y-82392595D01*
X198215857Y-82330690D01*
X198153952Y-82206880D01*
X198153952Y-81711642D01*
X198215857Y-81587833D01*
X198339666Y-81525928D01*
X198587285Y-81525928D01*
X198711095Y-81587833D01*
X198773000Y-81711642D01*
X198773000Y-81835452D01*
X198153952Y-81959261D01*
X137098623Y-65992495D02*
X137098623Y-67044876D01*
X137160528Y-67168685D01*
X137222433Y-67230590D01*
X137346242Y-67292495D01*
X137593861Y-67292495D01*
X137717671Y-67230590D01*
X137779576Y-67168685D01*
X137841480Y-67044876D01*
X137841480Y-65992495D01*
X139141480Y-67292495D02*
X138398623Y-67292495D01*
X138770052Y-67292495D02*
X138770052Y-65992495D01*
X138646242Y-66178209D01*
X138522433Y-66302019D01*
X138398623Y-66363923D01*
X140689100Y-66797257D02*
X141679576Y-66797257D01*
X143227195Y-66921066D02*
X143846242Y-66921066D01*
X143103385Y-67292495D02*
X143536719Y-65992495D01*
X143970052Y-67292495D01*
X144403385Y-67292495D02*
X144403385Y-65992495D01*
X144712909Y-65992495D01*
X144898623Y-66054400D01*
X145022433Y-66178209D01*
X145084338Y-66302019D01*
X145146242Y-66549638D01*
X145146242Y-66735352D01*
X145084338Y-66982971D01*
X145022433Y-67106780D01*
X144898623Y-67230590D01*
X144712909Y-67292495D01*
X144403385Y-67292495D01*
X146384338Y-66054400D02*
X146260528Y-65992495D01*
X146074814Y-65992495D01*
X145889100Y-66054400D01*
X145765290Y-66178209D01*
X145703385Y-66302019D01*
X145641480Y-66549638D01*
X145641480Y-66735352D01*
X145703385Y-66982971D01*
X145765290Y-67106780D01*
X145889100Y-67230590D01*
X146074814Y-67292495D01*
X146198623Y-67292495D01*
X146384338Y-67230590D01*
X146446242Y-67168685D01*
X146446242Y-66735352D01*
X146198623Y-66735352D01*
X147684338Y-67292495D02*
X146941480Y-67292495D01*
X147312909Y-67292495D02*
X147312909Y-65992495D01*
X147189100Y-66178209D01*
X147065290Y-66302019D01*
X146941480Y-66363923D01*
X148798623Y-65992495D02*
X148551004Y-65992495D01*
X148427195Y-66054400D01*
X148365290Y-66116304D01*
X148241480Y-66302019D01*
X148179576Y-66549638D01*
X148179576Y-67044876D01*
X148241480Y-67168685D01*
X148303385Y-67230590D01*
X148427195Y-67292495D01*
X148674814Y-67292495D01*
X148798623Y-67230590D01*
X148860528Y-67168685D01*
X148922433Y-67044876D01*
X148922433Y-66735352D01*
X148860528Y-66611542D01*
X148798623Y-66549638D01*
X148674814Y-66487733D01*
X148427195Y-66487733D01*
X148303385Y-66549638D01*
X148241480Y-66611542D01*
X148179576Y-66735352D01*
X150160528Y-67292495D02*
X149417671Y-67292495D01*
X149789100Y-67292495D02*
X149789100Y-65992495D01*
X149665290Y-66178209D01*
X149541480Y-66302019D01*
X149417671Y-66363923D01*
X151398623Y-67292495D02*
X150655766Y-67292495D01*
X151027195Y-67292495D02*
X151027195Y-65992495D01*
X150903385Y-66178209D01*
X150779576Y-66302019D01*
X150655766Y-66363923D01*
X137098623Y-68192495D02*
X137098623Y-69244876D01*
X137160528Y-69368685D01*
X137222433Y-69430590D01*
X137346242Y-69492495D01*
X137593861Y-69492495D01*
X137717671Y-69430590D01*
X137779576Y-69368685D01*
X137841480Y-69244876D01*
X137841480Y-68192495D01*
X138398623Y-68316304D02*
X138460528Y-68254400D01*
X138584338Y-68192495D01*
X138893861Y-68192495D01*
X139017671Y-68254400D01*
X139079576Y-68316304D01*
X139141480Y-68440114D01*
X139141480Y-68563923D01*
X139079576Y-68749638D01*
X138336719Y-69492495D01*
X139141480Y-69492495D01*
X140689100Y-68997257D02*
X141679576Y-68997257D01*
X143103385Y-68192495D02*
X143846242Y-68192495D01*
X143474814Y-69492495D02*
X143474814Y-68192495D01*
X144279576Y-69492495D02*
X144279576Y-68192495D01*
X144279576Y-68811542D02*
X145022433Y-68811542D01*
X145022433Y-69492495D02*
X145022433Y-68192495D01*
X145579576Y-69430590D02*
X145765290Y-69492495D01*
X146074814Y-69492495D01*
X146198623Y-69430590D01*
X146260528Y-69368685D01*
X146322433Y-69244876D01*
X146322433Y-69121066D01*
X146260528Y-68997257D01*
X146198623Y-68935352D01*
X146074814Y-68873447D01*
X145827195Y-68811542D01*
X145703385Y-68749638D01*
X145641480Y-68687733D01*
X145579576Y-68563923D01*
X145579576Y-68440114D01*
X145641480Y-68316304D01*
X145703385Y-68254400D01*
X145827195Y-68192495D01*
X146136719Y-68192495D01*
X146322433Y-68254400D01*
X146755766Y-68192495D02*
X147622433Y-68192495D01*
X147065290Y-69492495D01*
X147993861Y-68192495D02*
X148798623Y-68192495D01*
X148365290Y-68687733D01*
X148551004Y-68687733D01*
X148674814Y-68749638D01*
X148736719Y-68811542D01*
X148798623Y-68935352D01*
X148798623Y-69244876D01*
X148736719Y-69368685D01*
X148674814Y-69430590D01*
X148551004Y-69492495D01*
X148179576Y-69492495D01*
X148055766Y-69430590D01*
X147993861Y-69368685D01*
X149231957Y-68192495D02*
X150098623Y-68192495D01*
X149541480Y-69492495D01*
X151151004Y-68625828D02*
X151151004Y-69492495D01*
X150841480Y-68130590D02*
X150531957Y-69059161D01*
X151336719Y-69059161D01*
X137098623Y-70392495D02*
X137098623Y-71444876D01*
X137160528Y-71568685D01*
X137222433Y-71630590D01*
X137346242Y-71692495D01*
X137593861Y-71692495D01*
X137717671Y-71630590D01*
X137779576Y-71568685D01*
X137841480Y-71444876D01*
X137841480Y-70392495D01*
X138336719Y-70392495D02*
X139141480Y-70392495D01*
X138708147Y-70887733D01*
X138893861Y-70887733D01*
X139017671Y-70949638D01*
X139079576Y-71011542D01*
X139141480Y-71135352D01*
X139141480Y-71444876D01*
X139079576Y-71568685D01*
X139017671Y-71630590D01*
X138893861Y-71692495D01*
X138522433Y-71692495D01*
X138398623Y-71630590D01*
X138336719Y-71568685D01*
X140689100Y-71197257D02*
X141679576Y-71197257D01*
X143227195Y-71321066D02*
X143846242Y-71321066D01*
X143103385Y-71692495D02*
X143536719Y-70392495D01*
X143970052Y-71692495D01*
X144403385Y-71692495D02*
X144403385Y-70825828D01*
X144403385Y-71073447D02*
X144465290Y-70949638D01*
X144527195Y-70887733D01*
X144651004Y-70825828D01*
X144774814Y-70825828D01*
X145765290Y-71692495D02*
X145765290Y-70392495D01*
X145765290Y-71630590D02*
X145641480Y-71692495D01*
X145393861Y-71692495D01*
X145270052Y-71630590D01*
X145208147Y-71568685D01*
X145146242Y-71444876D01*
X145146242Y-71073447D01*
X145208147Y-70949638D01*
X145270052Y-70887733D01*
X145393861Y-70825828D01*
X145641480Y-70825828D01*
X145765290Y-70887733D01*
X146941480Y-70825828D02*
X146941480Y-71692495D01*
X146384338Y-70825828D02*
X146384338Y-71506780D01*
X146446242Y-71630590D01*
X146570052Y-71692495D01*
X146755766Y-71692495D01*
X146879576Y-71630590D01*
X146941480Y-71568685D01*
X147560528Y-71692495D02*
X147560528Y-70825828D01*
X147560528Y-70392495D02*
X147498623Y-70454400D01*
X147560528Y-70516304D01*
X147622433Y-70454400D01*
X147560528Y-70392495D01*
X147560528Y-70516304D01*
X148179576Y-70825828D02*
X148179576Y-71692495D01*
X148179576Y-70949638D02*
X148241480Y-70887733D01*
X148365290Y-70825828D01*
X148551004Y-70825828D01*
X148674814Y-70887733D01*
X148736719Y-71011542D01*
X148736719Y-71692495D01*
X149541480Y-71692495D02*
X149417671Y-71630590D01*
X149355766Y-71568685D01*
X149293861Y-71444876D01*
X149293861Y-71073447D01*
X149355766Y-70949638D01*
X149417671Y-70887733D01*
X149541480Y-70825828D01*
X149727195Y-70825828D01*
X149851004Y-70887733D01*
X149912909Y-70949638D01*
X149974814Y-71073447D01*
X149974814Y-71444876D01*
X149912909Y-71568685D01*
X149851004Y-71630590D01*
X149727195Y-71692495D01*
X149541480Y-71692495D01*
X151522433Y-71692495D02*
X151522433Y-70392495D01*
X152265290Y-71692495D01*
X152265290Y-70392495D01*
X153441480Y-71692495D02*
X153441480Y-71011542D01*
X153379576Y-70887733D01*
X153255766Y-70825828D01*
X153008147Y-70825828D01*
X152884338Y-70887733D01*
X153441480Y-71630590D02*
X153317671Y-71692495D01*
X153008147Y-71692495D01*
X152884338Y-71630590D01*
X152822433Y-71506780D01*
X152822433Y-71382971D01*
X152884338Y-71259161D01*
X153008147Y-71197257D01*
X153317671Y-71197257D01*
X153441480Y-71135352D01*
X154060528Y-70825828D02*
X154060528Y-71692495D01*
X154060528Y-70949638D02*
X154122433Y-70887733D01*
X154246242Y-70825828D01*
X154431957Y-70825828D01*
X154555766Y-70887733D01*
X154617671Y-71011542D01*
X154617671Y-71692495D01*
X155422433Y-71692495D02*
X155298623Y-71630590D01*
X155236719Y-71568685D01*
X155174814Y-71444876D01*
X155174814Y-71073447D01*
X155236719Y-70949638D01*
X155298623Y-70887733D01*
X155422433Y-70825828D01*
X155608147Y-70825828D01*
X155731957Y-70887733D01*
X155793861Y-70949638D01*
X155855766Y-71073447D01*
X155855766Y-71444876D01*
X155793861Y-71568685D01*
X155731957Y-71630590D01*
X155608147Y-71692495D01*
X155422433Y-71692495D01*
X157279576Y-70825828D02*
X157589100Y-71692495D01*
X157898623Y-70825828D01*
X158270052Y-70392495D02*
X159074814Y-70392495D01*
X158641480Y-70887733D01*
X158827195Y-70887733D01*
X158951004Y-70949638D01*
X159012909Y-71011542D01*
X159074814Y-71135352D01*
X159074814Y-71444876D01*
X159012909Y-71568685D01*
X158951004Y-71630590D01*
X158827195Y-71692495D01*
X158455766Y-71692495D01*
X158331957Y-71630590D01*
X158270052Y-71568685D01*
X137098623Y-72592495D02*
X137098623Y-73644876D01*
X137160528Y-73768685D01*
X137222433Y-73830590D01*
X137346242Y-73892495D01*
X137593861Y-73892495D01*
X137717671Y-73830590D01*
X137779576Y-73768685D01*
X137841480Y-73644876D01*
X137841480Y-72592495D01*
X139017671Y-73025828D02*
X139017671Y-73892495D01*
X138708147Y-72530590D02*
X138398623Y-73459161D01*
X139203385Y-73459161D01*
X140689100Y-73397257D02*
X141679576Y-73397257D01*
X143165290Y-72592495D02*
X144031957Y-72592495D01*
X143474814Y-73892495D01*
X145084338Y-73025828D02*
X145084338Y-73892495D01*
X144774814Y-72530590D02*
X144465290Y-73459161D01*
X145270052Y-73459161D01*
X145579576Y-72592495D02*
X146012909Y-73892495D01*
X146446242Y-72592495D01*
X146879576Y-73892495D02*
X146879576Y-72592495D01*
X146879576Y-73211542D02*
X147622433Y-73211542D01*
X147622433Y-73892495D02*
X147622433Y-72592495D01*
X148984338Y-73768685D02*
X148922433Y-73830590D01*
X148736719Y-73892495D01*
X148612909Y-73892495D01*
X148427195Y-73830590D01*
X148303385Y-73706780D01*
X148241480Y-73582971D01*
X148179576Y-73335352D01*
X148179576Y-73149638D01*
X148241480Y-72902019D01*
X148303385Y-72778209D01*
X148427195Y-72654400D01*
X148612909Y-72592495D01*
X148736719Y-72592495D01*
X148922433Y-72654400D01*
X148984338Y-72716304D01*
X150222433Y-73892495D02*
X149479576Y-73892495D01*
X149851004Y-73892495D02*
X149851004Y-72592495D01*
X149727195Y-72778209D01*
X149603385Y-72902019D01*
X149479576Y-72963923D01*
X150717671Y-72716304D02*
X150779576Y-72654400D01*
X150903385Y-72592495D01*
X151212909Y-72592495D01*
X151336719Y-72654400D01*
X151398623Y-72716304D01*
X151460528Y-72840114D01*
X151460528Y-72963923D01*
X151398623Y-73149638D01*
X150655766Y-73892495D01*
X151460528Y-73892495D01*
X152636719Y-72592495D02*
X152017671Y-72592495D01*
X151955766Y-73211542D01*
X152017671Y-73149638D01*
X152141480Y-73087733D01*
X152451004Y-73087733D01*
X152574814Y-73149638D01*
X152636719Y-73211542D01*
X152698623Y-73335352D01*
X152698623Y-73644876D01*
X152636719Y-73768685D01*
X152574814Y-73830590D01*
X152451004Y-73892495D01*
X152141480Y-73892495D01*
X152017671Y-73830590D01*
X151955766Y-73768685D01*
X137098623Y-74792495D02*
X137098623Y-75844876D01*
X137160528Y-75968685D01*
X137222433Y-76030590D01*
X137346242Y-76092495D01*
X137593861Y-76092495D01*
X137717671Y-76030590D01*
X137779576Y-75968685D01*
X137841480Y-75844876D01*
X137841480Y-74792495D01*
X139079576Y-74792495D02*
X138460528Y-74792495D01*
X138398623Y-75411542D01*
X138460528Y-75349638D01*
X138584338Y-75287733D01*
X138893861Y-75287733D01*
X139017671Y-75349638D01*
X139079576Y-75411542D01*
X139141480Y-75535352D01*
X139141480Y-75844876D01*
X139079576Y-75968685D01*
X139017671Y-76030590D01*
X138893861Y-76092495D01*
X138584338Y-76092495D01*
X138460528Y-76030590D01*
X138398623Y-75968685D01*
X140689100Y-75597257D02*
X141679576Y-75597257D01*
X143289100Y-76092495D02*
X143289100Y-74792495D01*
X143722433Y-75721066D01*
X144155766Y-74792495D01*
X144155766Y-76092495D01*
X144774814Y-76092495D02*
X144774814Y-74792495D01*
X146136719Y-75968685D02*
X146074814Y-76030590D01*
X145889100Y-76092495D01*
X145765290Y-76092495D01*
X145579576Y-76030590D01*
X145455766Y-75906780D01*
X145393861Y-75782971D01*
X145331957Y-75535352D01*
X145331957Y-75349638D01*
X145393861Y-75102019D01*
X145455766Y-74978209D01*
X145579576Y-74854400D01*
X145765290Y-74792495D01*
X145889100Y-74792495D01*
X146074814Y-74854400D01*
X146136719Y-74916304D01*
X146570052Y-74792495D02*
X147374814Y-74792495D01*
X146941480Y-75287733D01*
X147127195Y-75287733D01*
X147251004Y-75349638D01*
X147312909Y-75411542D01*
X147374814Y-75535352D01*
X147374814Y-75844876D01*
X147312909Y-75968685D01*
X147251004Y-76030590D01*
X147127195Y-76092495D01*
X146755766Y-76092495D01*
X146631957Y-76030590D01*
X146570052Y-75968685D01*
X148489100Y-75225828D02*
X148489100Y-76092495D01*
X148179576Y-74730590D02*
X147870052Y-75659161D01*
X148674814Y-75659161D01*
X149231957Y-76092495D02*
X149479576Y-76092495D01*
X149603385Y-76030590D01*
X149665290Y-75968685D01*
X149789100Y-75782971D01*
X149851004Y-75535352D01*
X149851004Y-75040114D01*
X149789100Y-74916304D01*
X149727195Y-74854400D01*
X149603385Y-74792495D01*
X149355766Y-74792495D01*
X149231957Y-74854400D01*
X149170052Y-74916304D01*
X149108147Y-75040114D01*
X149108147Y-75349638D01*
X149170052Y-75473447D01*
X149231957Y-75535352D01*
X149355766Y-75597257D01*
X149603385Y-75597257D01*
X149727195Y-75535352D01*
X149789100Y-75473447D01*
X149851004Y-75349638D01*
X150655766Y-74792495D02*
X150779576Y-74792495D01*
X150903385Y-74854400D01*
X150965290Y-74916304D01*
X151027195Y-75040114D01*
X151089100Y-75287733D01*
X151089100Y-75597257D01*
X151027195Y-75844876D01*
X150965290Y-75968685D01*
X150903385Y-76030590D01*
X150779576Y-76092495D01*
X150655766Y-76092495D01*
X150531957Y-76030590D01*
X150470052Y-75968685D01*
X150408147Y-75844876D01*
X150346242Y-75597257D01*
X150346242Y-75287733D01*
X150408147Y-75040114D01*
X150470052Y-74916304D01*
X150531957Y-74854400D01*
X150655766Y-74792495D01*
X151646242Y-75597257D02*
X152636719Y-75597257D01*
X153131957Y-74792495D02*
X153936719Y-74792495D01*
X153503385Y-75287733D01*
X153689100Y-75287733D01*
X153812909Y-75349638D01*
X153874814Y-75411542D01*
X153936719Y-75535352D01*
X153936719Y-75844876D01*
X153874814Y-75968685D01*
X153812909Y-76030590D01*
X153689100Y-76092495D01*
X153317671Y-76092495D01*
X153193861Y-76030590D01*
X153131957Y-75968685D01*
X154493861Y-75968685D02*
X154555766Y-76030590D01*
X154493861Y-76092495D01*
X154431957Y-76030590D01*
X154493861Y-75968685D01*
X154493861Y-76092495D01*
X154989100Y-74792495D02*
X155793861Y-74792495D01*
X155360528Y-75287733D01*
X155546242Y-75287733D01*
X155670052Y-75349638D01*
X155731957Y-75411542D01*
X155793861Y-75535352D01*
X155793861Y-75844876D01*
X155731957Y-75968685D01*
X155670052Y-76030590D01*
X155546242Y-76092495D01*
X155174814Y-76092495D01*
X155051004Y-76030590D01*
X154989100Y-75968685D01*
X137965290Y-78416304D02*
X137841480Y-78354400D01*
X137717671Y-78230590D01*
X137531957Y-78044876D01*
X137408147Y-77982971D01*
X137284338Y-77982971D01*
X137346242Y-78292495D02*
X137222433Y-78230590D01*
X137098623Y-78106780D01*
X137036719Y-77859161D01*
X137036719Y-77425828D01*
X137098623Y-77178209D01*
X137222433Y-77054400D01*
X137346242Y-76992495D01*
X137593861Y-76992495D01*
X137717671Y-77054400D01*
X137841480Y-77178209D01*
X137903385Y-77425828D01*
X137903385Y-77859161D01*
X137841480Y-78106780D01*
X137717671Y-78230590D01*
X137593861Y-78292495D01*
X137346242Y-78292495D01*
X139141480Y-78292495D02*
X138398623Y-78292495D01*
X138770052Y-78292495D02*
X138770052Y-76992495D01*
X138646242Y-77178209D01*
X138522433Y-77302019D01*
X138398623Y-77363923D01*
X140689100Y-77797257D02*
X141679576Y-77797257D01*
X143289100Y-78292495D02*
X143289100Y-76992495D01*
X143598623Y-76992495D01*
X143784338Y-77054400D01*
X143908147Y-77178209D01*
X143970052Y-77302019D01*
X144031957Y-77549638D01*
X144031957Y-77735352D01*
X143970052Y-77982971D01*
X143908147Y-78106780D01*
X143784338Y-78230590D01*
X143598623Y-78292495D01*
X143289100Y-78292495D01*
X144403385Y-76992495D02*
X145146242Y-76992495D01*
X144774814Y-78292495D02*
X144774814Y-76992495D01*
X146322433Y-78168685D02*
X146260528Y-78230590D01*
X146074814Y-78292495D01*
X145951004Y-78292495D01*
X145765290Y-78230590D01*
X145641480Y-78106780D01*
X145579576Y-77982971D01*
X145517671Y-77735352D01*
X145517671Y-77549638D01*
X145579576Y-77302019D01*
X145641480Y-77178209D01*
X145765290Y-77054400D01*
X145951004Y-76992495D01*
X146074814Y-76992495D01*
X146260528Y-77054400D01*
X146322433Y-77116304D01*
X147560528Y-78292495D02*
X146817671Y-78292495D01*
X147189100Y-78292495D02*
X147189100Y-76992495D01*
X147065290Y-77178209D01*
X146941480Y-77302019D01*
X146817671Y-77363923D01*
X148674814Y-77425828D02*
X148674814Y-78292495D01*
X148365290Y-76930590D02*
X148055766Y-77859161D01*
X148860528Y-77859161D01*
X149912909Y-77425828D02*
X149912909Y-78292495D01*
X149603385Y-76930590D02*
X149293861Y-77859161D01*
X150098623Y-77859161D01*
X150593861Y-77611542D02*
X151027195Y-77611542D01*
X151212909Y-78292495D02*
X150593861Y-78292495D01*
X150593861Y-76992495D01*
X151212909Y-76992495D01*
X151770052Y-78292495D02*
X151770052Y-76992495D01*
X152512909Y-78292495D02*
X151955766Y-77549638D01*
X152512909Y-76992495D02*
X151770052Y-77735352D01*
X153008147Y-77921066D02*
X153627195Y-77921066D01*
X152884338Y-78292495D02*
X153317671Y-76992495D01*
X153751004Y-78292495D01*
X137098623Y-79192495D02*
X137098623Y-80244876D01*
X137160528Y-80368685D01*
X137222433Y-80430590D01*
X137346242Y-80492495D01*
X137593861Y-80492495D01*
X137717671Y-80430590D01*
X137779576Y-80368685D01*
X137841480Y-80244876D01*
X137841480Y-79192495D01*
X139141480Y-80492495D02*
X138398623Y-80492495D01*
X138770052Y-80492495D02*
X138770052Y-79192495D01*
X138646242Y-79378209D01*
X138522433Y-79502019D01*
X138398623Y-79563923D01*
X140627195Y-79130590D02*
X139512909Y-80802019D01*
X140998623Y-79316304D02*
X141060528Y-79254400D01*
X141184338Y-79192495D01*
X141493861Y-79192495D01*
X141617671Y-79254400D01*
X141679576Y-79316304D01*
X141741480Y-79440114D01*
X141741480Y-79563923D01*
X141679576Y-79749638D01*
X140936719Y-80492495D01*
X141741480Y-80492495D01*
X143227195Y-79130590D02*
X142112909Y-80802019D01*
X144217671Y-79625828D02*
X144217671Y-80492495D01*
X143908147Y-79130590D02*
X143598623Y-80059161D01*
X144403385Y-80059161D01*
X144898623Y-80368685D02*
X144960528Y-80430590D01*
X144898623Y-80492495D01*
X144836719Y-80430590D01*
X144898623Y-80368685D01*
X144898623Y-80492495D01*
X144898623Y-79687733D02*
X144960528Y-79749638D01*
X144898623Y-79811542D01*
X144836719Y-79749638D01*
X144898623Y-79687733D01*
X144898623Y-79811542D01*
X146322433Y-79192495D02*
X147065290Y-79192495D01*
X146693861Y-80492495D02*
X146693861Y-79192495D01*
X147436719Y-80430590D02*
X147622433Y-80492495D01*
X147931957Y-80492495D01*
X148055766Y-80430590D01*
X148117671Y-80368685D01*
X148179576Y-80244876D01*
X148179576Y-80121066D01*
X148117671Y-79997257D01*
X148055766Y-79935352D01*
X147931957Y-79873447D01*
X147684338Y-79811542D01*
X147560528Y-79749638D01*
X147498623Y-79687733D01*
X147436719Y-79563923D01*
X147436719Y-79440114D01*
X147498623Y-79316304D01*
X147560528Y-79254400D01*
X147684338Y-79192495D01*
X147993861Y-79192495D01*
X148179576Y-79254400D01*
X148674814Y-80430590D02*
X148860528Y-80492495D01*
X149170052Y-80492495D01*
X149293861Y-80430590D01*
X149355766Y-80368685D01*
X149417671Y-80244876D01*
X149417671Y-80121066D01*
X149355766Y-79997257D01*
X149293861Y-79935352D01*
X149170052Y-79873447D01*
X148922433Y-79811542D01*
X148798623Y-79749638D01*
X148736719Y-79687733D01*
X148674814Y-79563923D01*
X148674814Y-79440114D01*
X148736719Y-79316304D01*
X148798623Y-79254400D01*
X148922433Y-79192495D01*
X149231957Y-79192495D01*
X149417671Y-79254400D01*
X150222433Y-79192495D02*
X150470052Y-79192495D01*
X150593861Y-79254400D01*
X150717671Y-79378209D01*
X150779576Y-79625828D01*
X150779576Y-80059161D01*
X150717671Y-80306780D01*
X150593861Y-80430590D01*
X150470052Y-80492495D01*
X150222433Y-80492495D01*
X150098623Y-80430590D01*
X149974814Y-80306780D01*
X149912909Y-80059161D01*
X149912909Y-79625828D01*
X149974814Y-79378209D01*
X150098623Y-79254400D01*
X150222433Y-79192495D01*
X151336719Y-80492495D02*
X151336719Y-79192495D01*
X151831957Y-79192495D01*
X151955766Y-79254400D01*
X152017671Y-79316304D01*
X152079576Y-79440114D01*
X152079576Y-79625828D01*
X152017671Y-79749638D01*
X151955766Y-79811542D01*
X151831957Y-79873447D01*
X151336719Y-79873447D01*
X153317671Y-80492495D02*
X152574814Y-80492495D01*
X152946242Y-80492495D02*
X152946242Y-79192495D01*
X152822433Y-79378209D01*
X152698623Y-79502019D01*
X152574814Y-79563923D01*
X154431957Y-79625828D02*
X154431957Y-80492495D01*
X154122433Y-79130590D02*
X153812909Y-80059161D01*
X154617671Y-80059161D01*
D10*
X157402142Y-63646857D02*
X157616428Y-63718285D01*
X157687857Y-63789714D01*
X157759285Y-63932571D01*
X157759285Y-64146857D01*
X157687857Y-64289714D01*
X157616428Y-64361142D01*
X157473571Y-64432571D01*
X156902142Y-64432571D01*
X156902142Y-62932571D01*
X157402142Y-62932571D01*
X157545000Y-63004000D01*
X157616428Y-63075428D01*
X157687857Y-63218285D01*
X157687857Y-63361142D01*
X157616428Y-63504000D01*
X157545000Y-63575428D01*
X157402142Y-63646857D01*
X156902142Y-63646857D01*
X158402142Y-64432571D02*
X158402142Y-62932571D01*
X159259285Y-64432571D02*
X158616428Y-63575428D01*
X159259285Y-62932571D02*
X158402142Y-63789714D01*
X159902142Y-64432571D02*
X159902142Y-62932571D01*
X160402142Y-64004000D01*
X160902142Y-62932571D01*
X160902142Y-64432571D01*
X161616428Y-63861142D02*
X162759285Y-63861142D01*
X164259285Y-64432571D02*
X163402142Y-64432571D01*
X163830714Y-64432571D02*
X163830714Y-62932571D01*
X163687857Y-63146857D01*
X163545000Y-63289714D01*
X163402142Y-63361142D01*
X164830714Y-63075428D02*
X164902142Y-63004000D01*
X165045000Y-62932571D01*
X165402142Y-62932571D01*
X165545000Y-63004000D01*
X165616428Y-63075428D01*
X165687857Y-63218285D01*
X165687857Y-63361142D01*
X165616428Y-63575428D01*
X164759285Y-64432571D01*
X165687857Y-64432571D01*
X166402142Y-64432571D02*
X166687857Y-64432571D01*
X166830714Y-64361142D01*
X166902142Y-64289714D01*
X167045000Y-64075428D01*
X167116428Y-63789714D01*
X167116428Y-63218285D01*
X167045000Y-63075428D01*
X166973571Y-63004000D01*
X166830714Y-62932571D01*
X166545000Y-62932571D01*
X166402142Y-63004000D01*
X166330714Y-63075428D01*
X166259285Y-63218285D01*
X166259285Y-63575428D01*
X166330714Y-63718285D01*
X166402142Y-63789714D01*
X166545000Y-63861142D01*
X166830714Y-63861142D01*
X166973571Y-63789714D01*
X167045000Y-63718285D01*
X167116428Y-63575428D01*
X167616428Y-62932571D02*
X168616428Y-64432571D01*
X168616428Y-62932571D02*
X167616428Y-64432571D01*
X171187857Y-64289714D02*
X171116428Y-64361142D01*
X170902142Y-64432571D01*
X170759285Y-64432571D01*
X170545000Y-64361142D01*
X170402142Y-64218285D01*
X170330714Y-64075428D01*
X170259285Y-63789714D01*
X170259285Y-63575428D01*
X170330714Y-63289714D01*
X170402142Y-63146857D01*
X170545000Y-63004000D01*
X170759285Y-62932571D01*
X170902142Y-62932571D01*
X171116428Y-63004000D01*
X171187857Y-63075428D01*
X172045000Y-64432571D02*
X171902142Y-64361142D01*
X171830714Y-64289714D01*
X171759285Y-64146857D01*
X171759285Y-63718285D01*
X171830714Y-63575428D01*
X171902142Y-63504000D01*
X172045000Y-63432571D01*
X172259285Y-63432571D01*
X172402142Y-63504000D01*
X172473571Y-63575428D01*
X172545000Y-63718285D01*
X172545000Y-64146857D01*
X172473571Y-64289714D01*
X172402142Y-64361142D01*
X172259285Y-64432571D01*
X172045000Y-64432571D01*
X173187857Y-64432571D02*
X173187857Y-63432571D01*
X173187857Y-63575428D02*
X173259285Y-63504000D01*
X173402142Y-63432571D01*
X173616428Y-63432571D01*
X173759285Y-63504000D01*
X173830714Y-63646857D01*
X173830714Y-64432571D01*
X173830714Y-63646857D02*
X173902142Y-63504000D01*
X174045000Y-63432571D01*
X174259285Y-63432571D01*
X174402142Y-63504000D01*
X174473571Y-63646857D01*
X174473571Y-64432571D01*
X175187857Y-63432571D02*
X175187857Y-64932571D01*
X175187857Y-63504000D02*
X175330714Y-63432571D01*
X175616428Y-63432571D01*
X175759285Y-63504000D01*
X175830714Y-63575428D01*
X175902142Y-63718285D01*
X175902142Y-64146857D01*
X175830714Y-64289714D01*
X175759285Y-64361142D01*
X175616428Y-64432571D01*
X175330714Y-64432571D01*
X175187857Y-64361142D01*
X177187857Y-64432571D02*
X177187857Y-63646857D01*
X177116428Y-63504000D01*
X176973571Y-63432571D01*
X176687857Y-63432571D01*
X176545000Y-63504000D01*
X177187857Y-64361142D02*
X177045000Y-64432571D01*
X176687857Y-64432571D01*
X176545000Y-64361142D01*
X176473571Y-64218285D01*
X176473571Y-64075428D01*
X176545000Y-63932571D01*
X176687857Y-63861142D01*
X177045000Y-63861142D01*
X177187857Y-63789714D01*
X177687857Y-63432571D02*
X178259285Y-63432571D01*
X177902142Y-62932571D02*
X177902142Y-64218285D01*
X177973571Y-64361142D01*
X178116428Y-64432571D01*
X178259285Y-64432571D01*
X178759285Y-64432571D02*
X178759285Y-63432571D01*
X178759285Y-62932571D02*
X178687857Y-63004000D01*
X178759285Y-63075428D01*
X178830714Y-63004000D01*
X178759285Y-62932571D01*
X178759285Y-63075428D01*
X179473571Y-64432571D02*
X179473571Y-62932571D01*
X179473571Y-63504000D02*
X179616428Y-63432571D01*
X179902142Y-63432571D01*
X180045000Y-63504000D01*
X180116428Y-63575428D01*
X180187857Y-63718285D01*
X180187857Y-64146857D01*
X180116428Y-64289714D01*
X180045000Y-64361142D01*
X179902142Y-64432571D01*
X179616428Y-64432571D01*
X179473571Y-64361142D01*
X181045000Y-64432571D02*
X180902142Y-64361142D01*
X180830714Y-64218285D01*
X180830714Y-62932571D01*
X182187857Y-64361142D02*
X182045000Y-64432571D01*
X181759285Y-64432571D01*
X181616428Y-64361142D01*
X181545000Y-64218285D01*
X181545000Y-63646857D01*
X181616428Y-63504000D01*
X181759285Y-63432571D01*
X182045000Y-63432571D01*
X182187857Y-63504000D01*
X182259285Y-63646857D01*
X182259285Y-63789714D01*
X181545000Y-63932571D01*
D12*
X130429000Y-106489500D02*
X134493000Y-106489500D01*
D13*
%TO.C,U1*%
X190070000Y-104755000D02*
X185670000Y-104755000D01*
X191645000Y-110280000D02*
X185670000Y-110280000D01*
D14*
%TO.C,C1*%
X149042500Y-102069000D02*
X150042500Y-102069000D01*
X150042500Y-100369000D02*
X149042500Y-100369000D01*
%TO.C,C2*%
X149042500Y-105561500D02*
X150042500Y-105561500D01*
X150042500Y-103861500D02*
X149042500Y-103861500D01*
%TO.C,C3*%
X149042500Y-109054000D02*
X150042500Y-109054000D01*
X150042500Y-107354000D02*
X149042500Y-107354000D01*
%TO.C,C4*%
X149042500Y-112546500D02*
X150042500Y-112546500D01*
X150042500Y-110846500D02*
X149042500Y-110846500D01*
%TO.C,C5*%
X158821500Y-112546500D02*
X159821500Y-112546500D01*
X159821500Y-110846500D02*
X158821500Y-110846500D01*
%TO.C,C6*%
X179871000Y-96782000D02*
X179871000Y-97782000D01*
X181571000Y-97782000D02*
X181571000Y-96782000D01*
%TO.C,C7*%
X188656500Y-93982000D02*
X186476500Y-93982000D01*
X182056500Y-93982000D02*
X184236500Y-93982000D01*
X187896500Y-100582000D02*
X186476500Y-100582000D01*
X182816500Y-100582000D02*
X184236500Y-100582000D01*
X188656500Y-93982000D02*
X188656500Y-99822000D01*
X188656500Y-99822000D02*
X187896500Y-100582000D01*
X182816500Y-100582000D02*
X182056500Y-99822000D01*
X182056500Y-99822000D02*
X182056500Y-93982000D01*
%TO.C,C8*%
X189422500Y-100582000D02*
X191602500Y-100582000D01*
X196022500Y-100582000D02*
X193842500Y-100582000D01*
X190182500Y-93982000D02*
X191602500Y-93982000D01*
X195262500Y-93982000D02*
X193842500Y-93982000D01*
X189422500Y-100582000D02*
X189422500Y-94742000D01*
X189422500Y-94742000D02*
X190182500Y-93982000D01*
X195262500Y-93982000D02*
X196022500Y-94742000D01*
X196022500Y-94742000D02*
X196022500Y-100582000D01*
%TO.C,C9*%
X196571500Y-96782000D02*
X196571500Y-97782000D01*
X198271500Y-97782000D02*
X198271500Y-96782000D01*
D15*
%TO.C,J1*%
X103309020Y-73431400D02*
G75*
G03*
X103309020Y-73431400I-718420J0D01*
G01*
X100812600Y-73431400D02*
X100812600Y-78003400D01*
X100812600Y-78003400D02*
X112750600Y-78003400D01*
X100812600Y-73431400D02*
X100812600Y-68859400D01*
X100812600Y-68859400D02*
X112750600Y-68859400D01*
X119608600Y-79273400D02*
X121386600Y-67589400D01*
X118338600Y-79273400D02*
X120116600Y-67589400D01*
X117068600Y-79273400D02*
X118846600Y-67589400D01*
X115798600Y-79273400D02*
X117576600Y-67589400D01*
X114528600Y-79273400D02*
X116306600Y-67589400D01*
X113258600Y-79273400D02*
X115036600Y-67589400D01*
X121386600Y-79273400D02*
X112750600Y-79273400D01*
X112750600Y-79273400D02*
X112750600Y-67589400D01*
X112750600Y-67589400D02*
X121386600Y-67589400D01*
X135610600Y-80797400D02*
X135610600Y-66065400D01*
X135610600Y-66065400D02*
X121386600Y-66065400D01*
X121386600Y-66065400D02*
X121386600Y-80797400D01*
X121386600Y-80797400D02*
X135610600Y-80797400D01*
%TO.C,J2*%
X103309020Y-95478600D02*
G75*
G03*
X103309020Y-95478600I-718420J0D01*
G01*
X100812600Y-95478600D02*
X100812600Y-100050600D01*
X100812600Y-100050600D02*
X112750600Y-100050600D01*
X100812600Y-95478600D02*
X100812600Y-90906600D01*
X100812600Y-90906600D02*
X112750600Y-90906600D01*
X119608600Y-101320600D02*
X121386600Y-89636600D01*
X118338600Y-101320600D02*
X120116600Y-89636600D01*
X117068600Y-101320600D02*
X118846600Y-89636600D01*
X115798600Y-101320600D02*
X117576600Y-89636600D01*
X114528600Y-101320600D02*
X116306600Y-89636600D01*
X113258600Y-101320600D02*
X115036600Y-89636600D01*
X121386600Y-101320600D02*
X112750600Y-101320600D01*
X112750600Y-101320600D02*
X112750600Y-89636600D01*
X112750600Y-89636600D02*
X121386600Y-89636600D01*
X135610600Y-102844600D02*
X135610600Y-88112600D01*
X135610600Y-88112600D02*
X121386600Y-88112600D01*
X121386600Y-88112600D02*
X121386600Y-102844600D01*
X121386600Y-102844600D02*
X135610600Y-102844600D01*
%TO.C,J3*%
X103334420Y-117475000D02*
G75*
G03*
X103334420Y-117475000I-718420J0D01*
G01*
X100838000Y-117475000D02*
X100838000Y-122047000D01*
X100838000Y-122047000D02*
X112776000Y-122047000D01*
X100838000Y-117475000D02*
X100838000Y-112903000D01*
X100838000Y-112903000D02*
X112776000Y-112903000D01*
X119634000Y-123317000D02*
X121412000Y-111633000D01*
X118364000Y-123317000D02*
X120142000Y-111633000D01*
X117094000Y-123317000D02*
X118872000Y-111633000D01*
X115824000Y-123317000D02*
X117602000Y-111633000D01*
X114554000Y-123317000D02*
X116332000Y-111633000D01*
X113284000Y-123317000D02*
X115062000Y-111633000D01*
X121412000Y-123317000D02*
X112776000Y-123317000D01*
X112776000Y-123317000D02*
X112776000Y-111633000D01*
X112776000Y-111633000D02*
X121412000Y-111633000D01*
X135636000Y-124841000D02*
X135636000Y-110109000D01*
X135636000Y-110109000D02*
X121412000Y-110109000D01*
X121412000Y-110109000D02*
X121412000Y-124841000D01*
X121412000Y-124841000D02*
X135636000Y-124841000D01*
%TO.C,J4*%
X103334420Y-139573000D02*
G75*
G03*
X103334420Y-139573000I-718420J0D01*
G01*
X100838000Y-139573000D02*
X100838000Y-144145000D01*
X100838000Y-144145000D02*
X112776000Y-144145000D01*
X100838000Y-139573000D02*
X100838000Y-135001000D01*
X100838000Y-135001000D02*
X112776000Y-135001000D01*
X119634000Y-145415000D02*
X121412000Y-133731000D01*
X118364000Y-145415000D02*
X120142000Y-133731000D01*
X117094000Y-145415000D02*
X118872000Y-133731000D01*
X115824000Y-145415000D02*
X117602000Y-133731000D01*
X114554000Y-145415000D02*
X116332000Y-133731000D01*
X113284000Y-145415000D02*
X115062000Y-133731000D01*
X121412000Y-145415000D02*
X112776000Y-145415000D01*
X112776000Y-145415000D02*
X112776000Y-133731000D01*
X112776000Y-133731000D02*
X121412000Y-133731000D01*
X135636000Y-146939000D02*
X135636000Y-132207000D01*
X135636000Y-132207000D02*
X121412000Y-132207000D01*
X121412000Y-132207000D02*
X121412000Y-146939000D01*
X121412000Y-146939000D02*
X135636000Y-146939000D01*
%TO.C,J5*%
X226009200Y-104521000D02*
X222453200Y-104521000D01*
X222453200Y-104521000D02*
X222453200Y-108585000D01*
X222453200Y-108585000D02*
X226009200Y-108585000D01*
X216865200Y-151003000D02*
X226009200Y-151003000D01*
X226009200Y-151003000D02*
X226009200Y-62103000D01*
X226009200Y-62103000D02*
X216865200Y-62103000D01*
X216865200Y-62103000D02*
X216865200Y-151003000D01*
D14*
%TO.C,Q1*%
X204624600Y-147065000D02*
X202224600Y-147065000D01*
X202224600Y-147065000D02*
X202224600Y-146015000D01*
X204024600Y-143765000D02*
X202224600Y-143765000D01*
X202224600Y-143765000D02*
X202224600Y-144815000D01*
%TO.C,R1*%
X184170000Y-113540000D02*
X185370000Y-113540000D01*
X185370000Y-115300000D02*
X184170000Y-115300000D01*
%TO.C,R2*%
X149919800Y-96739000D02*
X149919800Y-95539000D01*
X151679800Y-95539000D02*
X151679800Y-96739000D01*
%TO.C,R3*%
X152180400Y-96739000D02*
X152180400Y-95539000D01*
X153940400Y-95539000D02*
X153940400Y-96739000D01*
%TO.C,R4*%
X154441000Y-96739000D02*
X154441000Y-95539000D01*
X156201000Y-95539000D02*
X156201000Y-96739000D01*
%TO.C,R5*%
X156701600Y-96739000D02*
X156701600Y-95539000D01*
X158461600Y-95539000D02*
X158461600Y-96739000D01*
%TO.C,R6*%
X167497200Y-102167800D02*
X168697200Y-102167800D01*
X168697200Y-103927800D02*
X167497200Y-103927800D01*
%TO.C,R7*%
X167497200Y-104428400D02*
X168697200Y-104428400D01*
X168697200Y-106188400D02*
X167497200Y-106188400D01*
%TO.C,R8*%
X167497200Y-106689000D02*
X168697200Y-106689000D01*
X168697200Y-108449000D02*
X167497200Y-108449000D01*
%TO.C,R9*%
X167497200Y-108949600D02*
X168697200Y-108949600D01*
X168697200Y-110709600D02*
X167497200Y-110709600D01*
%TO.C,R10*%
X144116500Y-110816500D02*
X145316500Y-110816500D01*
X145316500Y-112576500D02*
X144116500Y-112576500D01*
%TO.C,R11*%
X144116500Y-107324000D02*
X145316500Y-107324000D01*
X145316500Y-109084000D02*
X144116500Y-109084000D01*
%TO.C,R12*%
X144116500Y-103831500D02*
X145316500Y-103831500D01*
X145316500Y-105591500D02*
X144116500Y-105591500D01*
%TO.C,R13*%
X144116500Y-100339000D02*
X145316500Y-100339000D01*
X145316500Y-102099000D02*
X144116500Y-102099000D01*
%TO.C,R14*%
X146008200Y-117998800D02*
X146008200Y-116798800D01*
X147768200Y-116798800D02*
X147768200Y-117998800D01*
%TO.C,R15*%
X148268800Y-117998800D02*
X148268800Y-116798800D01*
X150028800Y-116798800D02*
X150028800Y-117998800D01*
%TO.C,R16*%
X150529400Y-117998800D02*
X150529400Y-116798800D01*
X152289400Y-116798800D02*
X152289400Y-117998800D01*
%TO.C,R17*%
X152790000Y-117998800D02*
X152790000Y-116798800D01*
X154550000Y-116798800D02*
X154550000Y-117998800D01*
%TO.C,R18*%
X185390000Y-112970000D02*
X184190000Y-112970000D01*
X184190000Y-111210000D02*
X185390000Y-111210000D01*
%TO.C,R20*%
X194478200Y-124578000D02*
X193278200Y-124578000D01*
X193278200Y-122818000D02*
X194478200Y-122818000D01*
%TO.C,R21*%
X189093400Y-124578000D02*
X187893400Y-124578000D01*
X187893400Y-122818000D02*
X189093400Y-122818000D01*
%TO.C,R22*%
X202574600Y-141169500D02*
X203774600Y-141169500D01*
X203774600Y-142929500D02*
X202574600Y-142929500D01*
%TO.C,R23*%
X172685000Y-124070000D02*
X171485000Y-124070000D01*
X171485000Y-122310000D02*
X172685000Y-122310000D01*
%TO.C,R24*%
X189118800Y-131639200D02*
X187918800Y-131639200D01*
X187918800Y-129879200D02*
X189118800Y-129879200D01*
%TO.C,R25*%
X194478200Y-129277000D02*
X193278200Y-129277000D01*
X193278200Y-127517000D02*
X194478200Y-127517000D01*
%TO.C,R26*%
X189093400Y-129277000D02*
X187893400Y-129277000D01*
X187893400Y-127517000D02*
X189093400Y-127517000D01*
%TO.C,R27*%
X194478200Y-126940200D02*
X193278200Y-126940200D01*
X193278200Y-125180200D02*
X194478200Y-125180200D01*
%TO.C,R28*%
X189093400Y-126940200D02*
X187893400Y-126940200D01*
X187893400Y-125180200D02*
X189093400Y-125180200D01*
D15*
%TO.C,U3*%
X158407100Y-144272000D02*
X154597100Y-144272000D01*
X154597100Y-144272000D02*
X154597100Y-143002000D01*
X154597100Y-143002000D02*
X158407100Y-143002000D01*
X158407100Y-143002000D02*
X158407100Y-144272000D01*
X158407100Y-139192000D02*
X154597100Y-139192000D01*
X154597100Y-139192000D02*
X154597100Y-140462000D01*
X154597100Y-140462000D02*
X158407100Y-140462000D01*
X158407100Y-140462000D02*
X158407100Y-139192000D01*
X154597100Y-132461000D02*
X154597100Y-137922000D01*
X154597100Y-151003000D02*
X154597100Y-145542000D01*
X153327100Y-137922000D02*
X153327100Y-145542000D01*
X153327100Y-145542000D02*
X159677100Y-145542000D01*
X159677100Y-145542000D02*
X159677100Y-137922000D01*
X159677100Y-137922000D02*
X153327100Y-137922000D01*
X197777100Y-151003000D02*
X154597100Y-151003000D01*
X154597100Y-132461000D02*
X197777100Y-132461000D01*
X197777100Y-132461000D02*
X197777100Y-151003000D01*
X197015100Y-137922000D02*
X191935100Y-137922000D01*
X191935100Y-137922000D02*
X191935100Y-145542000D01*
X191935100Y-145542000D02*
X197015100Y-145542000D01*
X197015100Y-145542000D02*
X197015100Y-137922000D01*
X193840100Y-144272000D02*
G75*
G03*
X193840100Y-144272000I-635000J0D01*
G01*
X193840100Y-141732000D02*
G75*
G03*
X193840100Y-141732000I-635000J0D01*
G01*
X193840100Y-139192000D02*
G75*
G03*
X193840100Y-139192000I-635000J0D01*
G01*
X196380100Y-139192000D02*
G75*
G03*
X196380100Y-139192000I-635000J0D01*
G01*
X196380100Y-144272000D02*
G75*
G03*
X196380100Y-144272000I-635000J0D01*
G01*
X196380100Y-141732000D02*
G75*
G03*
X196380100Y-141732000I-635000J0D01*
G01*
D13*
%TO.C,U2*%
X156996500Y-104817000D02*
X156996500Y-104942000D01*
X161646500Y-104817000D02*
X161646500Y-105042000D01*
X161646500Y-110067000D02*
X161646500Y-109842000D01*
X156996500Y-110067000D02*
X156996500Y-109842000D01*
X156996500Y-104817000D02*
X161646500Y-104817000D01*
X156996500Y-110067000D02*
X161646500Y-110067000D01*
X156996500Y-104942000D02*
X155646500Y-104942000D01*
%TO.C,U4*%
X169734600Y-124756000D02*
X169734600Y-124881000D01*
X174384600Y-124756000D02*
X174384600Y-124981000D01*
X174384600Y-130006000D02*
X174384600Y-129781000D01*
X169734600Y-130006000D02*
X169734600Y-129781000D01*
X169734600Y-124756000D02*
X174384600Y-124756000D01*
X169734600Y-130006000D02*
X174384600Y-130006000D01*
X169734600Y-124881000D02*
X168384600Y-124881000D01*
D14*
%TO.C,C10*%
X163009200Y-99556200D02*
X162009200Y-99556200D01*
X162009200Y-101256200D02*
X163009200Y-101256200D01*
%TO.C,C11*%
X162009200Y-95007800D02*
X163009200Y-95007800D01*
X163009200Y-93307800D02*
X162009200Y-93307800D01*
%TO.C,U5*%
X163536200Y-95672000D02*
X161736200Y-95672000D01*
X161736200Y-98892000D02*
X164186200Y-98892000D01*
%TO.C,C12*%
X205427200Y-116802800D02*
X204427200Y-116802800D01*
X204427200Y-118502800D02*
X205427200Y-118502800D01*
%TO.C,C13*%
X208227200Y-125601000D02*
X208227200Y-123421000D01*
X208227200Y-119001000D02*
X208227200Y-121181000D01*
X201627200Y-124841000D02*
X201627200Y-123421000D01*
X201627200Y-119761000D02*
X201627200Y-121181000D01*
X208227200Y-125601000D02*
X202387200Y-125601000D01*
X202387200Y-125601000D02*
X201627200Y-124841000D01*
X201627200Y-119761000D02*
X202387200Y-119001000D01*
X202387200Y-119001000D02*
X208227200Y-119001000D01*
%TO.C,R19*%
X172685000Y-121784000D02*
X171485000Y-121784000D01*
X171485000Y-120024000D02*
X172685000Y-120024000D01*
%TO.C,R29*%
X175700000Y-103930000D02*
X174500000Y-103930000D01*
X174500000Y-102170000D02*
X175700000Y-102170000D01*
%TO.C,R30*%
X175720000Y-106190000D02*
X174520000Y-106190000D01*
X174520000Y-104430000D02*
X175720000Y-104430000D01*
%TO.C,R31*%
X175710000Y-108450000D02*
X174510000Y-108450000D01*
X174510000Y-106690000D02*
X175710000Y-106690000D01*
%TO.C,U1*%
D13*
X192212380Y-108231904D02*
X193021904Y-108231904D01*
X193117142Y-108184285D01*
X193164761Y-108136666D01*
X193212380Y-108041428D01*
X193212380Y-107850952D01*
X193164761Y-107755714D01*
X193117142Y-107708095D01*
X193021904Y-107660476D01*
X192212380Y-107660476D01*
X193212380Y-106660476D02*
X193212380Y-107231904D01*
X193212380Y-106946190D02*
X192212380Y-106946190D01*
X192355238Y-107041428D01*
X192450476Y-107136666D01*
X192498095Y-107231904D01*
%TO.C,C1*%
X149363133Y-103328742D02*
X149315514Y-103376361D01*
X149172657Y-103423980D01*
X149077419Y-103423980D01*
X148934561Y-103376361D01*
X148839323Y-103281123D01*
X148791704Y-103185885D01*
X148744085Y-102995409D01*
X148744085Y-102852552D01*
X148791704Y-102662076D01*
X148839323Y-102566838D01*
X148934561Y-102471600D01*
X149077419Y-102423980D01*
X149172657Y-102423980D01*
X149315514Y-102471600D01*
X149363133Y-102519219D01*
X150315514Y-103423980D02*
X149744085Y-103423980D01*
X150029800Y-103423980D02*
X150029800Y-102423980D01*
X149934561Y-102566838D01*
X149839323Y-102662076D01*
X149744085Y-102709695D01*
%TO.C,C2*%
X149375833Y-106818642D02*
X149328214Y-106866261D01*
X149185357Y-106913880D01*
X149090119Y-106913880D01*
X148947261Y-106866261D01*
X148852023Y-106771023D01*
X148804404Y-106675785D01*
X148756785Y-106485309D01*
X148756785Y-106342452D01*
X148804404Y-106151976D01*
X148852023Y-106056738D01*
X148947261Y-105961500D01*
X149090119Y-105913880D01*
X149185357Y-105913880D01*
X149328214Y-105961500D01*
X149375833Y-106009119D01*
X149756785Y-106009119D02*
X149804404Y-105961500D01*
X149899642Y-105913880D01*
X150137738Y-105913880D01*
X150232976Y-105961500D01*
X150280595Y-106009119D01*
X150328214Y-106104357D01*
X150328214Y-106199595D01*
X150280595Y-106342452D01*
X149709166Y-106913880D01*
X150328214Y-106913880D01*
%TO.C,C3*%
X149375833Y-110311142D02*
X149328214Y-110358761D01*
X149185357Y-110406380D01*
X149090119Y-110406380D01*
X148947261Y-110358761D01*
X148852023Y-110263523D01*
X148804404Y-110168285D01*
X148756785Y-109977809D01*
X148756785Y-109834952D01*
X148804404Y-109644476D01*
X148852023Y-109549238D01*
X148947261Y-109454000D01*
X149090119Y-109406380D01*
X149185357Y-109406380D01*
X149328214Y-109454000D01*
X149375833Y-109501619D01*
X149709166Y-109406380D02*
X150328214Y-109406380D01*
X149994880Y-109787333D01*
X150137738Y-109787333D01*
X150232976Y-109834952D01*
X150280595Y-109882571D01*
X150328214Y-109977809D01*
X150328214Y-110215904D01*
X150280595Y-110311142D01*
X150232976Y-110358761D01*
X150137738Y-110406380D01*
X149852023Y-110406380D01*
X149756785Y-110358761D01*
X149709166Y-110311142D01*
%TO.C,C4*%
X149375833Y-113803642D02*
X149328214Y-113851261D01*
X149185357Y-113898880D01*
X149090119Y-113898880D01*
X148947261Y-113851261D01*
X148852023Y-113756023D01*
X148804404Y-113660785D01*
X148756785Y-113470309D01*
X148756785Y-113327452D01*
X148804404Y-113136976D01*
X148852023Y-113041738D01*
X148947261Y-112946500D01*
X149090119Y-112898880D01*
X149185357Y-112898880D01*
X149328214Y-112946500D01*
X149375833Y-112994119D01*
X150232976Y-113232214D02*
X150232976Y-113898880D01*
X149994880Y-112851261D02*
X149756785Y-113565547D01*
X150375833Y-113565547D01*
%TO.C,C5*%
X159154833Y-113803642D02*
X159107214Y-113851261D01*
X158964357Y-113898880D01*
X158869119Y-113898880D01*
X158726261Y-113851261D01*
X158631023Y-113756023D01*
X158583404Y-113660785D01*
X158535785Y-113470309D01*
X158535785Y-113327452D01*
X158583404Y-113136976D01*
X158631023Y-113041738D01*
X158726261Y-112946500D01*
X158869119Y-112898880D01*
X158964357Y-112898880D01*
X159107214Y-112946500D01*
X159154833Y-112994119D01*
X160059595Y-112898880D02*
X159583404Y-112898880D01*
X159535785Y-113375071D01*
X159583404Y-113327452D01*
X159678642Y-113279833D01*
X159916738Y-113279833D01*
X160011976Y-113327452D01*
X160059595Y-113375071D01*
X160107214Y-113470309D01*
X160107214Y-113708404D01*
X160059595Y-113803642D01*
X160011976Y-113851261D01*
X159916738Y-113898880D01*
X159678642Y-113898880D01*
X159583404Y-113851261D01*
X159535785Y-113803642D01*
%TO.C,C6*%
X179328142Y-97448666D02*
X179375761Y-97496285D01*
X179423380Y-97639142D01*
X179423380Y-97734380D01*
X179375761Y-97877238D01*
X179280523Y-97972476D01*
X179185285Y-98020095D01*
X178994809Y-98067714D01*
X178851952Y-98067714D01*
X178661476Y-98020095D01*
X178566238Y-97972476D01*
X178471000Y-97877238D01*
X178423380Y-97734380D01*
X178423380Y-97639142D01*
X178471000Y-97496285D01*
X178518619Y-97448666D01*
X178423380Y-96591523D02*
X178423380Y-96782000D01*
X178471000Y-96877238D01*
X178518619Y-96924857D01*
X178661476Y-97020095D01*
X178851952Y-97067714D01*
X179232904Y-97067714D01*
X179328142Y-97020095D01*
X179375761Y-96972476D01*
X179423380Y-96877238D01*
X179423380Y-96686761D01*
X179375761Y-96591523D01*
X179328142Y-96543904D01*
X179232904Y-96496285D01*
X178994809Y-96496285D01*
X178899571Y-96543904D01*
X178851952Y-96591523D01*
X178804333Y-96686761D01*
X178804333Y-96877238D01*
X178851952Y-96972476D01*
X178899571Y-97020095D01*
X178994809Y-97067714D01*
%TO.C,C7*%
X187729833Y-92241642D02*
X187682214Y-92289261D01*
X187539357Y-92336880D01*
X187444119Y-92336880D01*
X187301261Y-92289261D01*
X187206023Y-92194023D01*
X187158404Y-92098785D01*
X187110785Y-91908309D01*
X187110785Y-91765452D01*
X187158404Y-91574976D01*
X187206023Y-91479738D01*
X187301261Y-91384500D01*
X187444119Y-91336880D01*
X187539357Y-91336880D01*
X187682214Y-91384500D01*
X187729833Y-91432119D01*
X188063166Y-91336880D02*
X188729833Y-91336880D01*
X188301261Y-92336880D01*
X188437928Y-101942952D02*
X188437928Y-101181047D01*
X188818880Y-101562000D02*
X188056976Y-101562000D01*
%TO.C,C8*%
X195159333Y-92241642D02*
X195111714Y-92289261D01*
X194968857Y-92336880D01*
X194873619Y-92336880D01*
X194730761Y-92289261D01*
X194635523Y-92194023D01*
X194587904Y-92098785D01*
X194540285Y-91908309D01*
X194540285Y-91765452D01*
X194587904Y-91574976D01*
X194635523Y-91479738D01*
X194730761Y-91384500D01*
X194873619Y-91336880D01*
X194968857Y-91336880D01*
X195111714Y-91384500D01*
X195159333Y-91432119D01*
X195730761Y-91765452D02*
X195635523Y-91717833D01*
X195587904Y-91670214D01*
X195540285Y-91574976D01*
X195540285Y-91527357D01*
X195587904Y-91432119D01*
X195635523Y-91384500D01*
X195730761Y-91336880D01*
X195921238Y-91336880D01*
X196016476Y-91384500D01*
X196064095Y-91432119D01*
X196111714Y-91527357D01*
X196111714Y-91574976D01*
X196064095Y-91670214D01*
X196016476Y-91717833D01*
X195921238Y-91765452D01*
X195730761Y-91765452D01*
X195635523Y-91813071D01*
X195587904Y-91860690D01*
X195540285Y-91955928D01*
X195540285Y-92146404D01*
X195587904Y-92241642D01*
X195635523Y-92289261D01*
X195730761Y-92336880D01*
X195921238Y-92336880D01*
X196016476Y-92289261D01*
X196064095Y-92241642D01*
X196111714Y-92146404D01*
X196111714Y-91955928D01*
X196064095Y-91860690D01*
X196016476Y-91813071D01*
X195921238Y-91765452D01*
X189783928Y-93382952D02*
X189783928Y-92621047D01*
X190164880Y-93002000D02*
X189402976Y-93002000D01*
%TO.C,C9*%
X199429642Y-97448666D02*
X199477261Y-97496285D01*
X199524880Y-97639142D01*
X199524880Y-97734380D01*
X199477261Y-97877238D01*
X199382023Y-97972476D01*
X199286785Y-98020095D01*
X199096309Y-98067714D01*
X198953452Y-98067714D01*
X198762976Y-98020095D01*
X198667738Y-97972476D01*
X198572500Y-97877238D01*
X198524880Y-97734380D01*
X198524880Y-97639142D01*
X198572500Y-97496285D01*
X198620119Y-97448666D01*
X199524880Y-96972476D02*
X199524880Y-96782000D01*
X199477261Y-96686761D01*
X199429642Y-96639142D01*
X199286785Y-96543904D01*
X199096309Y-96496285D01*
X198715357Y-96496285D01*
X198620119Y-96543904D01*
X198572500Y-96591523D01*
X198524880Y-96686761D01*
X198524880Y-96877238D01*
X198572500Y-96972476D01*
X198620119Y-97020095D01*
X198715357Y-97067714D01*
X198953452Y-97067714D01*
X199048690Y-97020095D01*
X199096309Y-96972476D01*
X199143928Y-96877238D01*
X199143928Y-96686761D01*
X199096309Y-96591523D01*
X199048690Y-96543904D01*
X198953452Y-96496285D01*
%TO.C,J1*%
X134794666Y-64539880D02*
X134794666Y-65254166D01*
X134747047Y-65397023D01*
X134651809Y-65492261D01*
X134508952Y-65539880D01*
X134413714Y-65539880D01*
X135794666Y-65539880D02*
X135223238Y-65539880D01*
X135508952Y-65539880D02*
X135508952Y-64539880D01*
X135413714Y-64682738D01*
X135318476Y-64777976D01*
X135223238Y-64825595D01*
%TO.C,J2*%
X134794666Y-86574380D02*
X134794666Y-87288666D01*
X134747047Y-87431523D01*
X134651809Y-87526761D01*
X134508952Y-87574380D01*
X134413714Y-87574380D01*
X135223238Y-86669619D02*
X135270857Y-86622000D01*
X135366095Y-86574380D01*
X135604190Y-86574380D01*
X135699428Y-86622000D01*
X135747047Y-86669619D01*
X135794666Y-86764857D01*
X135794666Y-86860095D01*
X135747047Y-87002952D01*
X135175619Y-87574380D01*
X135794666Y-87574380D01*
%TO.C,J3*%
X134794666Y-108545380D02*
X134794666Y-109259666D01*
X134747047Y-109402523D01*
X134651809Y-109497761D01*
X134508952Y-109545380D01*
X134413714Y-109545380D01*
X135175619Y-108545380D02*
X135794666Y-108545380D01*
X135461333Y-108926333D01*
X135604190Y-108926333D01*
X135699428Y-108973952D01*
X135747047Y-109021571D01*
X135794666Y-109116809D01*
X135794666Y-109354904D01*
X135747047Y-109450142D01*
X135699428Y-109497761D01*
X135604190Y-109545380D01*
X135318476Y-109545380D01*
X135223238Y-109497761D01*
X135175619Y-109450142D01*
%TO.C,J4*%
X134858166Y-130643380D02*
X134858166Y-131357666D01*
X134810547Y-131500523D01*
X134715309Y-131595761D01*
X134572452Y-131643380D01*
X134477214Y-131643380D01*
X135762928Y-130976714D02*
X135762928Y-131643380D01*
X135524833Y-130595761D02*
X135286738Y-131310047D01*
X135905785Y-131310047D01*
%TO.C,J5*%
X213483866Y-64730380D02*
X213483866Y-65444666D01*
X213436247Y-65587523D01*
X213341009Y-65682761D01*
X213198152Y-65730380D01*
X213102914Y-65730380D01*
X214436247Y-64730380D02*
X213960057Y-64730380D01*
X213912438Y-65206571D01*
X213960057Y-65158952D01*
X214055295Y-65111333D01*
X214293390Y-65111333D01*
X214388628Y-65158952D01*
X214436247Y-65206571D01*
X214483866Y-65301809D01*
X214483866Y-65539904D01*
X214436247Y-65635142D01*
X214388628Y-65682761D01*
X214293390Y-65730380D01*
X214055295Y-65730380D01*
X213960057Y-65682761D01*
X213912438Y-65635142D01*
%TO.C,Q1*%
X203079361Y-148462619D02*
X202984123Y-148415000D01*
X202888885Y-148319761D01*
X202746028Y-148176904D01*
X202650790Y-148129285D01*
X202555552Y-148129285D01*
X202603171Y-148367380D02*
X202507933Y-148319761D01*
X202412695Y-148224523D01*
X202365076Y-148034047D01*
X202365076Y-147700714D01*
X202412695Y-147510238D01*
X202507933Y-147415000D01*
X202603171Y-147367380D01*
X202793647Y-147367380D01*
X202888885Y-147415000D01*
X202984123Y-147510238D01*
X203031742Y-147700714D01*
X203031742Y-148034047D01*
X202984123Y-148224523D01*
X202888885Y-148319761D01*
X202793647Y-148367380D01*
X202603171Y-148367380D01*
X203984123Y-148367380D02*
X203412695Y-148367380D01*
X203698409Y-148367380D02*
X203698409Y-147367380D01*
X203603171Y-147510238D01*
X203507933Y-147605476D01*
X203412695Y-147653095D01*
%TO.C,R1*%
X188006933Y-114872380D02*
X187673600Y-114396190D01*
X187435504Y-114872380D02*
X187435504Y-113872380D01*
X187816457Y-113872380D01*
X187911695Y-113920000D01*
X187959314Y-113967619D01*
X188006933Y-114062857D01*
X188006933Y-114205714D01*
X187959314Y-114300952D01*
X187911695Y-114348571D01*
X187816457Y-114396190D01*
X187435504Y-114396190D01*
X188959314Y-114872380D02*
X188387885Y-114872380D01*
X188673600Y-114872380D02*
X188673600Y-113872380D01*
X188578361Y-114015238D01*
X188483123Y-114110476D01*
X188387885Y-114158095D01*
%TO.C,R2*%
X151252180Y-92927466D02*
X150775990Y-93260800D01*
X151252180Y-93498895D02*
X150252180Y-93498895D01*
X150252180Y-93117942D01*
X150299800Y-93022704D01*
X150347419Y-92975085D01*
X150442657Y-92927466D01*
X150585514Y-92927466D01*
X150680752Y-92975085D01*
X150728371Y-93022704D01*
X150775990Y-93117942D01*
X150775990Y-93498895D01*
X150347419Y-92546514D02*
X150299800Y-92498895D01*
X150252180Y-92403657D01*
X150252180Y-92165561D01*
X150299800Y-92070323D01*
X150347419Y-92022704D01*
X150442657Y-91975085D01*
X150537895Y-91975085D01*
X150680752Y-92022704D01*
X151252180Y-92594133D01*
X151252180Y-91975085D01*
%TO.C,R3*%
X153512780Y-92927466D02*
X153036590Y-93260800D01*
X153512780Y-93498895D02*
X152512780Y-93498895D01*
X152512780Y-93117942D01*
X152560400Y-93022704D01*
X152608019Y-92975085D01*
X152703257Y-92927466D01*
X152846114Y-92927466D01*
X152941352Y-92975085D01*
X152988971Y-93022704D01*
X153036590Y-93117942D01*
X153036590Y-93498895D01*
X152512780Y-92594133D02*
X152512780Y-91975085D01*
X152893733Y-92308419D01*
X152893733Y-92165561D01*
X152941352Y-92070323D01*
X152988971Y-92022704D01*
X153084209Y-91975085D01*
X153322304Y-91975085D01*
X153417542Y-92022704D01*
X153465161Y-92070323D01*
X153512780Y-92165561D01*
X153512780Y-92451276D01*
X153465161Y-92546514D01*
X153417542Y-92594133D01*
%TO.C,R4*%
X155773380Y-92902066D02*
X155297190Y-93235400D01*
X155773380Y-93473495D02*
X154773380Y-93473495D01*
X154773380Y-93092542D01*
X154821000Y-92997304D01*
X154868619Y-92949685D01*
X154963857Y-92902066D01*
X155106714Y-92902066D01*
X155201952Y-92949685D01*
X155249571Y-92997304D01*
X155297190Y-93092542D01*
X155297190Y-93473495D01*
X155106714Y-92044923D02*
X155773380Y-92044923D01*
X154725761Y-92283019D02*
X155440047Y-92521114D01*
X155440047Y-91902066D01*
%TO.C,R5*%
X158033980Y-92876666D02*
X157557790Y-93210000D01*
X158033980Y-93448095D02*
X157033980Y-93448095D01*
X157033980Y-93067142D01*
X157081600Y-92971904D01*
X157129219Y-92924285D01*
X157224457Y-92876666D01*
X157367314Y-92876666D01*
X157462552Y-92924285D01*
X157510171Y-92971904D01*
X157557790Y-93067142D01*
X157557790Y-93448095D01*
X157033980Y-91971904D02*
X157033980Y-92448095D01*
X157510171Y-92495714D01*
X157462552Y-92448095D01*
X157414933Y-92352857D01*
X157414933Y-92114761D01*
X157462552Y-92019523D01*
X157510171Y-91971904D01*
X157605409Y-91924285D01*
X157843504Y-91924285D01*
X157938742Y-91971904D01*
X157986361Y-92019523D01*
X158033980Y-92114761D01*
X158033980Y-92352857D01*
X157986361Y-92448095D01*
X157938742Y-92495714D01*
%TO.C,R6*%
X171397633Y-103500180D02*
X171064300Y-103023990D01*
X170826204Y-103500180D02*
X170826204Y-102500180D01*
X171207157Y-102500180D01*
X171302395Y-102547800D01*
X171350014Y-102595419D01*
X171397633Y-102690657D01*
X171397633Y-102833514D01*
X171350014Y-102928752D01*
X171302395Y-102976371D01*
X171207157Y-103023990D01*
X170826204Y-103023990D01*
X172254776Y-102500180D02*
X172064300Y-102500180D01*
X171969061Y-102547800D01*
X171921442Y-102595419D01*
X171826204Y-102738276D01*
X171778585Y-102928752D01*
X171778585Y-103309704D01*
X171826204Y-103404942D01*
X171873823Y-103452561D01*
X171969061Y-103500180D01*
X172159538Y-103500180D01*
X172254776Y-103452561D01*
X172302395Y-103404942D01*
X172350014Y-103309704D01*
X172350014Y-103071609D01*
X172302395Y-102976371D01*
X172254776Y-102928752D01*
X172159538Y-102881133D01*
X171969061Y-102881133D01*
X171873823Y-102928752D01*
X171826204Y-102976371D01*
X171778585Y-103071609D01*
%TO.C,R7*%
X171384933Y-105760780D02*
X171051600Y-105284590D01*
X170813504Y-105760780D02*
X170813504Y-104760780D01*
X171194457Y-104760780D01*
X171289695Y-104808400D01*
X171337314Y-104856019D01*
X171384933Y-104951257D01*
X171384933Y-105094114D01*
X171337314Y-105189352D01*
X171289695Y-105236971D01*
X171194457Y-105284590D01*
X170813504Y-105284590D01*
X171718266Y-104760780D02*
X172384933Y-104760780D01*
X171956361Y-105760780D01*
%TO.C,R8*%
X171384933Y-107995980D02*
X171051600Y-107519790D01*
X170813504Y-107995980D02*
X170813504Y-106995980D01*
X171194457Y-106995980D01*
X171289695Y-107043600D01*
X171337314Y-107091219D01*
X171384933Y-107186457D01*
X171384933Y-107329314D01*
X171337314Y-107424552D01*
X171289695Y-107472171D01*
X171194457Y-107519790D01*
X170813504Y-107519790D01*
X171956361Y-107424552D02*
X171861123Y-107376933D01*
X171813504Y-107329314D01*
X171765885Y-107234076D01*
X171765885Y-107186457D01*
X171813504Y-107091219D01*
X171861123Y-107043600D01*
X171956361Y-106995980D01*
X172146838Y-106995980D01*
X172242076Y-107043600D01*
X172289695Y-107091219D01*
X172337314Y-107186457D01*
X172337314Y-107234076D01*
X172289695Y-107329314D01*
X172242076Y-107376933D01*
X172146838Y-107424552D01*
X171956361Y-107424552D01*
X171861123Y-107472171D01*
X171813504Y-107519790D01*
X171765885Y-107615028D01*
X171765885Y-107805504D01*
X171813504Y-107900742D01*
X171861123Y-107948361D01*
X171956361Y-107995980D01*
X172146838Y-107995980D01*
X172242076Y-107948361D01*
X172289695Y-107900742D01*
X172337314Y-107805504D01*
X172337314Y-107615028D01*
X172289695Y-107519790D01*
X172242076Y-107472171D01*
X172146838Y-107424552D01*
%TO.C,R9*%
X171359533Y-110281980D02*
X171026200Y-109805790D01*
X170788104Y-110281980D02*
X170788104Y-109281980D01*
X171169057Y-109281980D01*
X171264295Y-109329600D01*
X171311914Y-109377219D01*
X171359533Y-109472457D01*
X171359533Y-109615314D01*
X171311914Y-109710552D01*
X171264295Y-109758171D01*
X171169057Y-109805790D01*
X170788104Y-109805790D01*
X171835723Y-110281980D02*
X172026200Y-110281980D01*
X172121438Y-110234361D01*
X172169057Y-110186742D01*
X172264295Y-110043885D01*
X172311914Y-109853409D01*
X172311914Y-109472457D01*
X172264295Y-109377219D01*
X172216676Y-109329600D01*
X172121438Y-109281980D01*
X171930961Y-109281980D01*
X171835723Y-109329600D01*
X171788104Y-109377219D01*
X171740485Y-109472457D01*
X171740485Y-109710552D01*
X171788104Y-109805790D01*
X171835723Y-109853409D01*
X171930961Y-109901028D01*
X172121438Y-109901028D01*
X172216676Y-109853409D01*
X172264295Y-109805790D01*
X172311914Y-109710552D01*
%TO.C,R10*%
X144073642Y-113848880D02*
X143740309Y-113372690D01*
X143502214Y-113848880D02*
X143502214Y-112848880D01*
X143883166Y-112848880D01*
X143978404Y-112896500D01*
X144026023Y-112944119D01*
X144073642Y-113039357D01*
X144073642Y-113182214D01*
X144026023Y-113277452D01*
X143978404Y-113325071D01*
X143883166Y-113372690D01*
X143502214Y-113372690D01*
X145026023Y-113848880D02*
X144454595Y-113848880D01*
X144740309Y-113848880D02*
X144740309Y-112848880D01*
X144645071Y-112991738D01*
X144549833Y-113086976D01*
X144454595Y-113134595D01*
X145645071Y-112848880D02*
X145740309Y-112848880D01*
X145835547Y-112896500D01*
X145883166Y-112944119D01*
X145930785Y-113039357D01*
X145978404Y-113229833D01*
X145978404Y-113467928D01*
X145930785Y-113658404D01*
X145883166Y-113753642D01*
X145835547Y-113801261D01*
X145740309Y-113848880D01*
X145645071Y-113848880D01*
X145549833Y-113801261D01*
X145502214Y-113753642D01*
X145454595Y-113658404D01*
X145406976Y-113467928D01*
X145406976Y-113229833D01*
X145454595Y-113039357D01*
X145502214Y-112944119D01*
X145549833Y-112896500D01*
X145645071Y-112848880D01*
%TO.C,R11*%
X144073642Y-110356380D02*
X143740309Y-109880190D01*
X143502214Y-110356380D02*
X143502214Y-109356380D01*
X143883166Y-109356380D01*
X143978404Y-109404000D01*
X144026023Y-109451619D01*
X144073642Y-109546857D01*
X144073642Y-109689714D01*
X144026023Y-109784952D01*
X143978404Y-109832571D01*
X143883166Y-109880190D01*
X143502214Y-109880190D01*
X145026023Y-110356380D02*
X144454595Y-110356380D01*
X144740309Y-110356380D02*
X144740309Y-109356380D01*
X144645071Y-109499238D01*
X144549833Y-109594476D01*
X144454595Y-109642095D01*
X145978404Y-110356380D02*
X145406976Y-110356380D01*
X145692690Y-110356380D02*
X145692690Y-109356380D01*
X145597452Y-109499238D01*
X145502214Y-109594476D01*
X145406976Y-109642095D01*
%TO.C,R12*%
X144073642Y-106863880D02*
X143740309Y-106387690D01*
X143502214Y-106863880D02*
X143502214Y-105863880D01*
X143883166Y-105863880D01*
X143978404Y-105911500D01*
X144026023Y-105959119D01*
X144073642Y-106054357D01*
X144073642Y-106197214D01*
X144026023Y-106292452D01*
X143978404Y-106340071D01*
X143883166Y-106387690D01*
X143502214Y-106387690D01*
X145026023Y-106863880D02*
X144454595Y-106863880D01*
X144740309Y-106863880D02*
X144740309Y-105863880D01*
X144645071Y-106006738D01*
X144549833Y-106101976D01*
X144454595Y-106149595D01*
X145406976Y-105959119D02*
X145454595Y-105911500D01*
X145549833Y-105863880D01*
X145787928Y-105863880D01*
X145883166Y-105911500D01*
X145930785Y-105959119D01*
X145978404Y-106054357D01*
X145978404Y-106149595D01*
X145930785Y-106292452D01*
X145359357Y-106863880D01*
X145978404Y-106863880D01*
%TO.C,R13*%
X144073642Y-103371380D02*
X143740309Y-102895190D01*
X143502214Y-103371380D02*
X143502214Y-102371380D01*
X143883166Y-102371380D01*
X143978404Y-102419000D01*
X144026023Y-102466619D01*
X144073642Y-102561857D01*
X144073642Y-102704714D01*
X144026023Y-102799952D01*
X143978404Y-102847571D01*
X143883166Y-102895190D01*
X143502214Y-102895190D01*
X145026023Y-103371380D02*
X144454595Y-103371380D01*
X144740309Y-103371380D02*
X144740309Y-102371380D01*
X144645071Y-102514238D01*
X144549833Y-102609476D01*
X144454595Y-102657095D01*
X145359357Y-102371380D02*
X145978404Y-102371380D01*
X145645071Y-102752333D01*
X145787928Y-102752333D01*
X145883166Y-102799952D01*
X145930785Y-102847571D01*
X145978404Y-102942809D01*
X145978404Y-103180904D01*
X145930785Y-103276142D01*
X145883166Y-103323761D01*
X145787928Y-103371380D01*
X145502214Y-103371380D01*
X145406976Y-103323761D01*
X145359357Y-103276142D01*
%TO.C,R14*%
X147340580Y-121978657D02*
X146864390Y-122311990D01*
X147340580Y-122550085D02*
X146340580Y-122550085D01*
X146340580Y-122169133D01*
X146388200Y-122073895D01*
X146435819Y-122026276D01*
X146531057Y-121978657D01*
X146673914Y-121978657D01*
X146769152Y-122026276D01*
X146816771Y-122073895D01*
X146864390Y-122169133D01*
X146864390Y-122550085D01*
X147340580Y-121026276D02*
X147340580Y-121597704D01*
X147340580Y-121311990D02*
X146340580Y-121311990D01*
X146483438Y-121407228D01*
X146578676Y-121502466D01*
X146626295Y-121597704D01*
X146673914Y-120169133D02*
X147340580Y-120169133D01*
X146292961Y-120407228D02*
X147007247Y-120645323D01*
X147007247Y-120026276D01*
%TO.C,R15*%
X149601180Y-121978657D02*
X149124990Y-122311990D01*
X149601180Y-122550085D02*
X148601180Y-122550085D01*
X148601180Y-122169133D01*
X148648800Y-122073895D01*
X148696419Y-122026276D01*
X148791657Y-121978657D01*
X148934514Y-121978657D01*
X149029752Y-122026276D01*
X149077371Y-122073895D01*
X149124990Y-122169133D01*
X149124990Y-122550085D01*
X149601180Y-121026276D02*
X149601180Y-121597704D01*
X149601180Y-121311990D02*
X148601180Y-121311990D01*
X148744038Y-121407228D01*
X148839276Y-121502466D01*
X148886895Y-121597704D01*
X148601180Y-120121514D02*
X148601180Y-120597704D01*
X149077371Y-120645323D01*
X149029752Y-120597704D01*
X148982133Y-120502466D01*
X148982133Y-120264371D01*
X149029752Y-120169133D01*
X149077371Y-120121514D01*
X149172609Y-120073895D01*
X149410704Y-120073895D01*
X149505942Y-120121514D01*
X149553561Y-120169133D01*
X149601180Y-120264371D01*
X149601180Y-120502466D01*
X149553561Y-120597704D01*
X149505942Y-120645323D01*
%TO.C,R16*%
X151861780Y-121953257D02*
X151385590Y-122286590D01*
X151861780Y-122524685D02*
X150861780Y-122524685D01*
X150861780Y-122143733D01*
X150909400Y-122048495D01*
X150957019Y-122000876D01*
X151052257Y-121953257D01*
X151195114Y-121953257D01*
X151290352Y-122000876D01*
X151337971Y-122048495D01*
X151385590Y-122143733D01*
X151385590Y-122524685D01*
X151861780Y-121000876D02*
X151861780Y-121572304D01*
X151861780Y-121286590D02*
X150861780Y-121286590D01*
X151004638Y-121381828D01*
X151099876Y-121477066D01*
X151147495Y-121572304D01*
X150861780Y-120143733D02*
X150861780Y-120334209D01*
X150909400Y-120429447D01*
X150957019Y-120477066D01*
X151099876Y-120572304D01*
X151290352Y-120619923D01*
X151671304Y-120619923D01*
X151766542Y-120572304D01*
X151814161Y-120524685D01*
X151861780Y-120429447D01*
X151861780Y-120238971D01*
X151814161Y-120143733D01*
X151766542Y-120096114D01*
X151671304Y-120048495D01*
X151433209Y-120048495D01*
X151337971Y-120096114D01*
X151290352Y-120143733D01*
X151242733Y-120238971D01*
X151242733Y-120429447D01*
X151290352Y-120524685D01*
X151337971Y-120572304D01*
X151433209Y-120619923D01*
%TO.C,R17*%
X154147780Y-121978657D02*
X153671590Y-122311990D01*
X154147780Y-122550085D02*
X153147780Y-122550085D01*
X153147780Y-122169133D01*
X153195400Y-122073895D01*
X153243019Y-122026276D01*
X153338257Y-121978657D01*
X153481114Y-121978657D01*
X153576352Y-122026276D01*
X153623971Y-122073895D01*
X153671590Y-122169133D01*
X153671590Y-122550085D01*
X154147780Y-121026276D02*
X154147780Y-121597704D01*
X154147780Y-121311990D02*
X153147780Y-121311990D01*
X153290638Y-121407228D01*
X153385876Y-121502466D01*
X153433495Y-121597704D01*
X153147780Y-120692942D02*
X153147780Y-120026276D01*
X154147780Y-120454847D01*
%TO.C,R18*%
X188033342Y-112542380D02*
X187700009Y-112066190D01*
X187461914Y-112542380D02*
X187461914Y-111542380D01*
X187842866Y-111542380D01*
X187938104Y-111590000D01*
X187985723Y-111637619D01*
X188033342Y-111732857D01*
X188033342Y-111875714D01*
X187985723Y-111970952D01*
X187938104Y-112018571D01*
X187842866Y-112066190D01*
X187461914Y-112066190D01*
X188985723Y-112542380D02*
X188414295Y-112542380D01*
X188700009Y-112542380D02*
X188700009Y-111542380D01*
X188604771Y-111685238D01*
X188509533Y-111780476D01*
X188414295Y-111828095D01*
X189557152Y-111970952D02*
X189461914Y-111923333D01*
X189414295Y-111875714D01*
X189366676Y-111780476D01*
X189366676Y-111732857D01*
X189414295Y-111637619D01*
X189461914Y-111590000D01*
X189557152Y-111542380D01*
X189747628Y-111542380D01*
X189842866Y-111590000D01*
X189890485Y-111637619D01*
X189938104Y-111732857D01*
X189938104Y-111780476D01*
X189890485Y-111875714D01*
X189842866Y-111923333D01*
X189747628Y-111970952D01*
X189557152Y-111970952D01*
X189461914Y-112018571D01*
X189414295Y-112066190D01*
X189366676Y-112161428D01*
X189366676Y-112351904D01*
X189414295Y-112447142D01*
X189461914Y-112494761D01*
X189557152Y-112542380D01*
X189747628Y-112542380D01*
X189842866Y-112494761D01*
X189890485Y-112447142D01*
X189938104Y-112351904D01*
X189938104Y-112161428D01*
X189890485Y-112066190D01*
X189842866Y-112018571D01*
X189747628Y-111970952D01*
%TO.C,R20*%
X198010542Y-124150380D02*
X197677209Y-123674190D01*
X197439114Y-124150380D02*
X197439114Y-123150380D01*
X197820066Y-123150380D01*
X197915304Y-123198000D01*
X197962923Y-123245619D01*
X198010542Y-123340857D01*
X198010542Y-123483714D01*
X197962923Y-123578952D01*
X197915304Y-123626571D01*
X197820066Y-123674190D01*
X197439114Y-123674190D01*
X198391495Y-123245619D02*
X198439114Y-123198000D01*
X198534352Y-123150380D01*
X198772447Y-123150380D01*
X198867685Y-123198000D01*
X198915304Y-123245619D01*
X198962923Y-123340857D01*
X198962923Y-123436095D01*
X198915304Y-123578952D01*
X198343876Y-124150380D01*
X198962923Y-124150380D01*
X199581971Y-123150380D02*
X199677209Y-123150380D01*
X199772447Y-123198000D01*
X199820066Y-123245619D01*
X199867685Y-123340857D01*
X199915304Y-123531333D01*
X199915304Y-123769428D01*
X199867685Y-123959904D01*
X199820066Y-124055142D01*
X199772447Y-124102761D01*
X199677209Y-124150380D01*
X199581971Y-124150380D01*
X199486733Y-124102761D01*
X199439114Y-124055142D01*
X199391495Y-123959904D01*
X199343876Y-123769428D01*
X199343876Y-123531333D01*
X199391495Y-123340857D01*
X199439114Y-123245619D01*
X199486733Y-123198000D01*
X199581971Y-123150380D01*
%TO.C,R21*%
X183278542Y-124150380D02*
X182945209Y-123674190D01*
X182707114Y-124150380D02*
X182707114Y-123150380D01*
X183088066Y-123150380D01*
X183183304Y-123198000D01*
X183230923Y-123245619D01*
X183278542Y-123340857D01*
X183278542Y-123483714D01*
X183230923Y-123578952D01*
X183183304Y-123626571D01*
X183088066Y-123674190D01*
X182707114Y-123674190D01*
X183659495Y-123245619D02*
X183707114Y-123198000D01*
X183802352Y-123150380D01*
X184040447Y-123150380D01*
X184135685Y-123198000D01*
X184183304Y-123245619D01*
X184230923Y-123340857D01*
X184230923Y-123436095D01*
X184183304Y-123578952D01*
X183611876Y-124150380D01*
X184230923Y-124150380D01*
X185183304Y-124150380D02*
X184611876Y-124150380D01*
X184897590Y-124150380D02*
X184897590Y-123150380D01*
X184802352Y-123293238D01*
X184707114Y-123388476D01*
X184611876Y-123436095D01*
%TO.C,R22*%
X202531742Y-140787380D02*
X202198409Y-140311190D01*
X201960314Y-140787380D02*
X201960314Y-139787380D01*
X202341266Y-139787380D01*
X202436504Y-139835000D01*
X202484123Y-139882619D01*
X202531742Y-139977857D01*
X202531742Y-140120714D01*
X202484123Y-140215952D01*
X202436504Y-140263571D01*
X202341266Y-140311190D01*
X201960314Y-140311190D01*
X202912695Y-139882619D02*
X202960314Y-139835000D01*
X203055552Y-139787380D01*
X203293647Y-139787380D01*
X203388885Y-139835000D01*
X203436504Y-139882619D01*
X203484123Y-139977857D01*
X203484123Y-140073095D01*
X203436504Y-140215952D01*
X202865076Y-140787380D01*
X203484123Y-140787380D01*
X203865076Y-139882619D02*
X203912695Y-139835000D01*
X204007933Y-139787380D01*
X204246028Y-139787380D01*
X204341266Y-139835000D01*
X204388885Y-139882619D01*
X204436504Y-139977857D01*
X204436504Y-140073095D01*
X204388885Y-140215952D01*
X203817457Y-140787380D01*
X204436504Y-140787380D01*
%TO.C,R23*%
X175379142Y-123642380D02*
X175045809Y-123166190D01*
X174807714Y-123642380D02*
X174807714Y-122642380D01*
X175188666Y-122642380D01*
X175283904Y-122690000D01*
X175331523Y-122737619D01*
X175379142Y-122832857D01*
X175379142Y-122975714D01*
X175331523Y-123070952D01*
X175283904Y-123118571D01*
X175188666Y-123166190D01*
X174807714Y-123166190D01*
X175760095Y-122737619D02*
X175807714Y-122690000D01*
X175902952Y-122642380D01*
X176141047Y-122642380D01*
X176236285Y-122690000D01*
X176283904Y-122737619D01*
X176331523Y-122832857D01*
X176331523Y-122928095D01*
X176283904Y-123070952D01*
X175712476Y-123642380D01*
X176331523Y-123642380D01*
X176664857Y-122642380D02*
X177283904Y-122642380D01*
X176950571Y-123023333D01*
X177093428Y-123023333D01*
X177188666Y-123070952D01*
X177236285Y-123118571D01*
X177283904Y-123213809D01*
X177283904Y-123451904D01*
X177236285Y-123547142D01*
X177188666Y-123594761D01*
X177093428Y-123642380D01*
X176807714Y-123642380D01*
X176712476Y-123594761D01*
X176664857Y-123547142D01*
%TO.C,R24*%
X183227742Y-131211580D02*
X182894409Y-130735390D01*
X182656314Y-131211580D02*
X182656314Y-130211580D01*
X183037266Y-130211580D01*
X183132504Y-130259200D01*
X183180123Y-130306819D01*
X183227742Y-130402057D01*
X183227742Y-130544914D01*
X183180123Y-130640152D01*
X183132504Y-130687771D01*
X183037266Y-130735390D01*
X182656314Y-130735390D01*
X183608695Y-130306819D02*
X183656314Y-130259200D01*
X183751552Y-130211580D01*
X183989647Y-130211580D01*
X184084885Y-130259200D01*
X184132504Y-130306819D01*
X184180123Y-130402057D01*
X184180123Y-130497295D01*
X184132504Y-130640152D01*
X183561076Y-131211580D01*
X184180123Y-131211580D01*
X185037266Y-130544914D02*
X185037266Y-131211580D01*
X184799171Y-130163961D02*
X184561076Y-130878247D01*
X185180123Y-130878247D01*
%TO.C,R25*%
X197985142Y-128874780D02*
X197651809Y-128398590D01*
X197413714Y-128874780D02*
X197413714Y-127874780D01*
X197794666Y-127874780D01*
X197889904Y-127922400D01*
X197937523Y-127970019D01*
X197985142Y-128065257D01*
X197985142Y-128208114D01*
X197937523Y-128303352D01*
X197889904Y-128350971D01*
X197794666Y-128398590D01*
X197413714Y-128398590D01*
X198366095Y-127970019D02*
X198413714Y-127922400D01*
X198508952Y-127874780D01*
X198747047Y-127874780D01*
X198842285Y-127922400D01*
X198889904Y-127970019D01*
X198937523Y-128065257D01*
X198937523Y-128160495D01*
X198889904Y-128303352D01*
X198318476Y-128874780D01*
X198937523Y-128874780D01*
X199842285Y-127874780D02*
X199366095Y-127874780D01*
X199318476Y-128350971D01*
X199366095Y-128303352D01*
X199461333Y-128255733D01*
X199699428Y-128255733D01*
X199794666Y-128303352D01*
X199842285Y-128350971D01*
X199889904Y-128446209D01*
X199889904Y-128684304D01*
X199842285Y-128779542D01*
X199794666Y-128827161D01*
X199699428Y-128874780D01*
X199461333Y-128874780D01*
X199366095Y-128827161D01*
X199318476Y-128779542D01*
%TO.C,R26*%
X183253142Y-128849380D02*
X182919809Y-128373190D01*
X182681714Y-128849380D02*
X182681714Y-127849380D01*
X183062666Y-127849380D01*
X183157904Y-127897000D01*
X183205523Y-127944619D01*
X183253142Y-128039857D01*
X183253142Y-128182714D01*
X183205523Y-128277952D01*
X183157904Y-128325571D01*
X183062666Y-128373190D01*
X182681714Y-128373190D01*
X183634095Y-127944619D02*
X183681714Y-127897000D01*
X183776952Y-127849380D01*
X184015047Y-127849380D01*
X184110285Y-127897000D01*
X184157904Y-127944619D01*
X184205523Y-128039857D01*
X184205523Y-128135095D01*
X184157904Y-128277952D01*
X183586476Y-128849380D01*
X184205523Y-128849380D01*
X185062666Y-127849380D02*
X184872190Y-127849380D01*
X184776952Y-127897000D01*
X184729333Y-127944619D01*
X184634095Y-128087476D01*
X184586476Y-128277952D01*
X184586476Y-128658904D01*
X184634095Y-128754142D01*
X184681714Y-128801761D01*
X184776952Y-128849380D01*
X184967428Y-128849380D01*
X185062666Y-128801761D01*
X185110285Y-128754142D01*
X185157904Y-128658904D01*
X185157904Y-128420809D01*
X185110285Y-128325571D01*
X185062666Y-128277952D01*
X184967428Y-128230333D01*
X184776952Y-128230333D01*
X184681714Y-128277952D01*
X184634095Y-128325571D01*
X184586476Y-128420809D01*
%TO.C,R27*%
X197985142Y-126512580D02*
X197651809Y-126036390D01*
X197413714Y-126512580D02*
X197413714Y-125512580D01*
X197794666Y-125512580D01*
X197889904Y-125560200D01*
X197937523Y-125607819D01*
X197985142Y-125703057D01*
X197985142Y-125845914D01*
X197937523Y-125941152D01*
X197889904Y-125988771D01*
X197794666Y-126036390D01*
X197413714Y-126036390D01*
X198366095Y-125607819D02*
X198413714Y-125560200D01*
X198508952Y-125512580D01*
X198747047Y-125512580D01*
X198842285Y-125560200D01*
X198889904Y-125607819D01*
X198937523Y-125703057D01*
X198937523Y-125798295D01*
X198889904Y-125941152D01*
X198318476Y-126512580D01*
X198937523Y-126512580D01*
X199270857Y-125512580D02*
X199937523Y-125512580D01*
X199508952Y-126512580D01*
%TO.C,R28*%
X183278542Y-126512580D02*
X182945209Y-126036390D01*
X182707114Y-126512580D02*
X182707114Y-125512580D01*
X183088066Y-125512580D01*
X183183304Y-125560200D01*
X183230923Y-125607819D01*
X183278542Y-125703057D01*
X183278542Y-125845914D01*
X183230923Y-125941152D01*
X183183304Y-125988771D01*
X183088066Y-126036390D01*
X182707114Y-126036390D01*
X183659495Y-125607819D02*
X183707114Y-125560200D01*
X183802352Y-125512580D01*
X184040447Y-125512580D01*
X184135685Y-125560200D01*
X184183304Y-125607819D01*
X184230923Y-125703057D01*
X184230923Y-125798295D01*
X184183304Y-125941152D01*
X183611876Y-126512580D01*
X184230923Y-126512580D01*
X184802352Y-125941152D02*
X184707114Y-125893533D01*
X184659495Y-125845914D01*
X184611876Y-125750676D01*
X184611876Y-125703057D01*
X184659495Y-125607819D01*
X184707114Y-125560200D01*
X184802352Y-125512580D01*
X184992828Y-125512580D01*
X185088066Y-125560200D01*
X185135685Y-125607819D01*
X185183304Y-125703057D01*
X185183304Y-125750676D01*
X185135685Y-125845914D01*
X185088066Y-125893533D01*
X184992828Y-125941152D01*
X184802352Y-125941152D01*
X184707114Y-125988771D01*
X184659495Y-126036390D01*
X184611876Y-126131628D01*
X184611876Y-126322104D01*
X184659495Y-126417342D01*
X184707114Y-126464961D01*
X184802352Y-126512580D01*
X184992828Y-126512580D01*
X185088066Y-126464961D01*
X185135685Y-126417342D01*
X185183304Y-126322104D01*
X185183304Y-126131628D01*
X185135685Y-126036390D01*
X185088066Y-125988771D01*
X184992828Y-125941152D01*
%TO.C,U3*%
X198245480Y-142493904D02*
X199055004Y-142493904D01*
X199150242Y-142446285D01*
X199197861Y-142398666D01*
X199245480Y-142303428D01*
X199245480Y-142112952D01*
X199197861Y-142017714D01*
X199150242Y-141970095D01*
X199055004Y-141922476D01*
X198245480Y-141922476D01*
X198245480Y-141541523D02*
X198245480Y-140922476D01*
X198626433Y-141255809D01*
X198626433Y-141112952D01*
X198674052Y-141017714D01*
X198721671Y-140970095D01*
X198816909Y-140922476D01*
X199055004Y-140922476D01*
X199150242Y-140970095D01*
X199197861Y-141017714D01*
X199245480Y-141112952D01*
X199245480Y-141398666D01*
X199197861Y-141493904D01*
X199150242Y-141541523D01*
D10*
X167044242Y-141982000D02*
X167758528Y-141982000D01*
X166901385Y-142410571D02*
X167401385Y-140910571D01*
X167901385Y-142410571D01*
X168401385Y-142410571D02*
X168401385Y-141410571D01*
X168401385Y-141696285D02*
X168472814Y-141553428D01*
X168544242Y-141482000D01*
X168687100Y-141410571D01*
X168829957Y-141410571D01*
X169972814Y-142410571D02*
X169972814Y-140910571D01*
X169972814Y-142339142D02*
X169829957Y-142410571D01*
X169544242Y-142410571D01*
X169401385Y-142339142D01*
X169329957Y-142267714D01*
X169258528Y-142124857D01*
X169258528Y-141696285D01*
X169329957Y-141553428D01*
X169401385Y-141482000D01*
X169544242Y-141410571D01*
X169829957Y-141410571D01*
X169972814Y-141482000D01*
X171329957Y-141410571D02*
X171329957Y-142410571D01*
X170687100Y-141410571D02*
X170687100Y-142196285D01*
X170758528Y-142339142D01*
X170901385Y-142410571D01*
X171115671Y-142410571D01*
X171258528Y-142339142D01*
X171329957Y-142267714D01*
X172044242Y-142410571D02*
X172044242Y-141410571D01*
X172044242Y-140910571D02*
X171972814Y-140982000D01*
X172044242Y-141053428D01*
X172115671Y-140982000D01*
X172044242Y-140910571D01*
X172044242Y-141053428D01*
X172758528Y-141410571D02*
X172758528Y-142410571D01*
X172758528Y-141553428D02*
X172829957Y-141482000D01*
X172972814Y-141410571D01*
X173187100Y-141410571D01*
X173329957Y-141482000D01*
X173401385Y-141624857D01*
X173401385Y-142410571D01*
X174329957Y-142410571D02*
X174187100Y-142339142D01*
X174115671Y-142267714D01*
X174044242Y-142124857D01*
X174044242Y-141696285D01*
X174115671Y-141553428D01*
X174187100Y-141482000D01*
X174329957Y-141410571D01*
X174544242Y-141410571D01*
X174687100Y-141482000D01*
X174758528Y-141553428D01*
X174829957Y-141696285D01*
X174829957Y-142124857D01*
X174758528Y-142267714D01*
X174687100Y-142339142D01*
X174544242Y-142410571D01*
X174329957Y-142410571D01*
X176615671Y-142410571D02*
X176615671Y-140910571D01*
X177472814Y-142410571D01*
X177472814Y-140910571D01*
X178829957Y-142410571D02*
X178829957Y-141624857D01*
X178758528Y-141482000D01*
X178615671Y-141410571D01*
X178329957Y-141410571D01*
X178187100Y-141482000D01*
X178829957Y-142339142D02*
X178687100Y-142410571D01*
X178329957Y-142410571D01*
X178187100Y-142339142D01*
X178115671Y-142196285D01*
X178115671Y-142053428D01*
X178187100Y-141910571D01*
X178329957Y-141839142D01*
X178687100Y-141839142D01*
X178829957Y-141767714D01*
X179544242Y-141410571D02*
X179544242Y-142410571D01*
X179544242Y-141553428D02*
X179615671Y-141482000D01*
X179758528Y-141410571D01*
X179972814Y-141410571D01*
X180115671Y-141482000D01*
X180187100Y-141624857D01*
X180187100Y-142410571D01*
X181115671Y-142410571D02*
X180972814Y-142339142D01*
X180901385Y-142267714D01*
X180829957Y-142124857D01*
X180829957Y-141696285D01*
X180901385Y-141553428D01*
X180972814Y-141482000D01*
X181115671Y-141410571D01*
X181329957Y-141410571D01*
X181472814Y-141482000D01*
X181544242Y-141553428D01*
X181615671Y-141696285D01*
X181615671Y-142124857D01*
X181544242Y-142267714D01*
X181472814Y-142339142D01*
X181329957Y-142410571D01*
X181115671Y-142410571D01*
X183258528Y-141410571D02*
X183615671Y-142410571D01*
X183972814Y-141410571D01*
X184401385Y-140910571D02*
X185329957Y-140910571D01*
X184829957Y-141482000D01*
X185044242Y-141482000D01*
X185187100Y-141553428D01*
X185258528Y-141624857D01*
X185329957Y-141767714D01*
X185329957Y-142124857D01*
X185258528Y-142267714D01*
X185187100Y-142339142D01*
X185044242Y-142410571D01*
X184615671Y-142410571D01*
X184472814Y-142339142D01*
X184401385Y-142267714D01*
%TO.C,U2*%
D13*
X158559595Y-103344380D02*
X158559595Y-104153904D01*
X158607214Y-104249142D01*
X158654833Y-104296761D01*
X158750071Y-104344380D01*
X158940547Y-104344380D01*
X159035785Y-104296761D01*
X159083404Y-104249142D01*
X159131023Y-104153904D01*
X159131023Y-103344380D01*
X159559595Y-103439619D02*
X159607214Y-103392000D01*
X159702452Y-103344380D01*
X159940547Y-103344380D01*
X160035785Y-103392000D01*
X160083404Y-103439619D01*
X160131023Y-103534857D01*
X160131023Y-103630095D01*
X160083404Y-103772952D01*
X159511976Y-104344380D01*
X160131023Y-104344380D01*
%TO.C,U4*%
X176339595Y-129119380D02*
X176339595Y-129928904D01*
X176387214Y-130024142D01*
X176434833Y-130071761D01*
X176530071Y-130119380D01*
X176720547Y-130119380D01*
X176815785Y-130071761D01*
X176863404Y-130024142D01*
X176911023Y-129928904D01*
X176911023Y-129119380D01*
X177815785Y-129452714D02*
X177815785Y-130119380D01*
X177577690Y-129071761D02*
X177339595Y-129786047D01*
X177958642Y-129786047D01*
%TO.C,C10*%
X161866342Y-102515942D02*
X161818723Y-102563561D01*
X161675866Y-102611180D01*
X161580628Y-102611180D01*
X161437771Y-102563561D01*
X161342533Y-102468323D01*
X161294914Y-102373085D01*
X161247295Y-102182609D01*
X161247295Y-102039752D01*
X161294914Y-101849276D01*
X161342533Y-101754038D01*
X161437771Y-101658800D01*
X161580628Y-101611180D01*
X161675866Y-101611180D01*
X161818723Y-101658800D01*
X161866342Y-101706419D01*
X162818723Y-102611180D02*
X162247295Y-102611180D01*
X162533009Y-102611180D02*
X162533009Y-101611180D01*
X162437771Y-101754038D01*
X162342533Y-101849276D01*
X162247295Y-101896895D01*
X163437771Y-101611180D02*
X163533009Y-101611180D01*
X163628247Y-101658800D01*
X163675866Y-101706419D01*
X163723485Y-101801657D01*
X163771104Y-101992133D01*
X163771104Y-102230228D01*
X163723485Y-102420704D01*
X163675866Y-102515942D01*
X163628247Y-102563561D01*
X163533009Y-102611180D01*
X163437771Y-102611180D01*
X163342533Y-102563561D01*
X163294914Y-102515942D01*
X163247295Y-102420704D01*
X163199676Y-102230228D01*
X163199676Y-101992133D01*
X163247295Y-101801657D01*
X163294914Y-101706419D01*
X163342533Y-101658800D01*
X163437771Y-101611180D01*
%TO.C,C11*%
X161866342Y-92762342D02*
X161818723Y-92809961D01*
X161675866Y-92857580D01*
X161580628Y-92857580D01*
X161437771Y-92809961D01*
X161342533Y-92714723D01*
X161294914Y-92619485D01*
X161247295Y-92429009D01*
X161247295Y-92286152D01*
X161294914Y-92095676D01*
X161342533Y-92000438D01*
X161437771Y-91905200D01*
X161580628Y-91857580D01*
X161675866Y-91857580D01*
X161818723Y-91905200D01*
X161866342Y-91952819D01*
X162818723Y-92857580D02*
X162247295Y-92857580D01*
X162533009Y-92857580D02*
X162533009Y-91857580D01*
X162437771Y-92000438D01*
X162342533Y-92095676D01*
X162247295Y-92143295D01*
X163771104Y-92857580D02*
X163199676Y-92857580D01*
X163485390Y-92857580D02*
X163485390Y-91857580D01*
X163390152Y-92000438D01*
X163294914Y-92095676D01*
X163199676Y-92143295D01*
%TO.C,U5*%
X165303295Y-97953580D02*
X165303295Y-98763104D01*
X165350914Y-98858342D01*
X165398533Y-98905961D01*
X165493771Y-98953580D01*
X165684247Y-98953580D01*
X165779485Y-98905961D01*
X165827104Y-98858342D01*
X165874723Y-98763104D01*
X165874723Y-97953580D01*
X166827104Y-97953580D02*
X166350914Y-97953580D01*
X166303295Y-98429771D01*
X166350914Y-98382152D01*
X166446152Y-98334533D01*
X166684247Y-98334533D01*
X166779485Y-98382152D01*
X166827104Y-98429771D01*
X166874723Y-98525009D01*
X166874723Y-98763104D01*
X166827104Y-98858342D01*
X166779485Y-98905961D01*
X166684247Y-98953580D01*
X166446152Y-98953580D01*
X166350914Y-98905961D01*
X166303295Y-98858342D01*
%TO.C,C12*%
X204284342Y-116259942D02*
X204236723Y-116307561D01*
X204093866Y-116355180D01*
X203998628Y-116355180D01*
X203855771Y-116307561D01*
X203760533Y-116212323D01*
X203712914Y-116117085D01*
X203665295Y-115926609D01*
X203665295Y-115783752D01*
X203712914Y-115593276D01*
X203760533Y-115498038D01*
X203855771Y-115402800D01*
X203998628Y-115355180D01*
X204093866Y-115355180D01*
X204236723Y-115402800D01*
X204284342Y-115450419D01*
X205236723Y-116355180D02*
X204665295Y-116355180D01*
X204951009Y-116355180D02*
X204951009Y-115355180D01*
X204855771Y-115498038D01*
X204760533Y-115593276D01*
X204665295Y-115640895D01*
X205617676Y-115450419D02*
X205665295Y-115402800D01*
X205760533Y-115355180D01*
X205998628Y-115355180D01*
X206093866Y-115402800D01*
X206141485Y-115450419D01*
X206189104Y-115545657D01*
X206189104Y-115640895D01*
X206141485Y-115783752D01*
X205570057Y-116355180D01*
X206189104Y-116355180D01*
%TO.C,C13*%
X204284342Y-127218142D02*
X204236723Y-127265761D01*
X204093866Y-127313380D01*
X203998628Y-127313380D01*
X203855771Y-127265761D01*
X203760533Y-127170523D01*
X203712914Y-127075285D01*
X203665295Y-126884809D01*
X203665295Y-126741952D01*
X203712914Y-126551476D01*
X203760533Y-126456238D01*
X203855771Y-126361000D01*
X203998628Y-126313380D01*
X204093866Y-126313380D01*
X204236723Y-126361000D01*
X204284342Y-126408619D01*
X205236723Y-127313380D02*
X204665295Y-127313380D01*
X204951009Y-127313380D02*
X204951009Y-126313380D01*
X204855771Y-126456238D01*
X204760533Y-126551476D01*
X204665295Y-126599095D01*
X205570057Y-126313380D02*
X206189104Y-126313380D01*
X205855771Y-126694333D01*
X205998628Y-126694333D01*
X206093866Y-126741952D01*
X206141485Y-126789571D01*
X206189104Y-126884809D01*
X206189104Y-127122904D01*
X206141485Y-127218142D01*
X206093866Y-127265761D01*
X205998628Y-127313380D01*
X205712914Y-127313380D01*
X205617676Y-127265761D01*
X205570057Y-127218142D01*
X200266247Y-125382428D02*
X201028152Y-125382428D01*
X200647200Y-125763380D02*
X200647200Y-125001476D01*
%TO.C,R19*%
X175379142Y-121356380D02*
X175045809Y-120880190D01*
X174807714Y-121356380D02*
X174807714Y-120356380D01*
X175188666Y-120356380D01*
X175283904Y-120404000D01*
X175331523Y-120451619D01*
X175379142Y-120546857D01*
X175379142Y-120689714D01*
X175331523Y-120784952D01*
X175283904Y-120832571D01*
X175188666Y-120880190D01*
X174807714Y-120880190D01*
X176331523Y-121356380D02*
X175760095Y-121356380D01*
X176045809Y-121356380D02*
X176045809Y-120356380D01*
X175950571Y-120499238D01*
X175855333Y-120594476D01*
X175760095Y-120642095D01*
X176807714Y-121356380D02*
X176998190Y-121356380D01*
X177093428Y-121308761D01*
X177141047Y-121261142D01*
X177236285Y-121118285D01*
X177283904Y-120927809D01*
X177283904Y-120546857D01*
X177236285Y-120451619D01*
X177188666Y-120404000D01*
X177093428Y-120356380D01*
X176902952Y-120356380D01*
X176807714Y-120404000D01*
X176760095Y-120451619D01*
X176712476Y-120546857D01*
X176712476Y-120784952D01*
X176760095Y-120880190D01*
X176807714Y-120927809D01*
X176902952Y-120975428D01*
X177093428Y-120975428D01*
X177188666Y-120927809D01*
X177236285Y-120880190D01*
X177283904Y-120784952D01*
%TO.C,R29*%
X178777142Y-103492380D02*
X178443809Y-103016190D01*
X178205714Y-103492380D02*
X178205714Y-102492380D01*
X178586666Y-102492380D01*
X178681904Y-102540000D01*
X178729523Y-102587619D01*
X178777142Y-102682857D01*
X178777142Y-102825714D01*
X178729523Y-102920952D01*
X178681904Y-102968571D01*
X178586666Y-103016190D01*
X178205714Y-103016190D01*
X179158095Y-102587619D02*
X179205714Y-102540000D01*
X179300952Y-102492380D01*
X179539047Y-102492380D01*
X179634285Y-102540000D01*
X179681904Y-102587619D01*
X179729523Y-102682857D01*
X179729523Y-102778095D01*
X179681904Y-102920952D01*
X179110476Y-103492380D01*
X179729523Y-103492380D01*
X180205714Y-103492380D02*
X180396190Y-103492380D01*
X180491428Y-103444761D01*
X180539047Y-103397142D01*
X180634285Y-103254285D01*
X180681904Y-103063809D01*
X180681904Y-102682857D01*
X180634285Y-102587619D01*
X180586666Y-102540000D01*
X180491428Y-102492380D01*
X180300952Y-102492380D01*
X180205714Y-102540000D01*
X180158095Y-102587619D01*
X180110476Y-102682857D01*
X180110476Y-102920952D01*
X180158095Y-103016190D01*
X180205714Y-103063809D01*
X180300952Y-103111428D01*
X180491428Y-103111428D01*
X180586666Y-103063809D01*
X180634285Y-103016190D01*
X180681904Y-102920952D01*
%TO.C,R30*%
X178777142Y-105722380D02*
X178443809Y-105246190D01*
X178205714Y-105722380D02*
X178205714Y-104722380D01*
X178586666Y-104722380D01*
X178681904Y-104770000D01*
X178729523Y-104817619D01*
X178777142Y-104912857D01*
X178777142Y-105055714D01*
X178729523Y-105150952D01*
X178681904Y-105198571D01*
X178586666Y-105246190D01*
X178205714Y-105246190D01*
X179110476Y-104722380D02*
X179729523Y-104722380D01*
X179396190Y-105103333D01*
X179539047Y-105103333D01*
X179634285Y-105150952D01*
X179681904Y-105198571D01*
X179729523Y-105293809D01*
X179729523Y-105531904D01*
X179681904Y-105627142D01*
X179634285Y-105674761D01*
X179539047Y-105722380D01*
X179253333Y-105722380D01*
X179158095Y-105674761D01*
X179110476Y-105627142D01*
X180348571Y-104722380D02*
X180443809Y-104722380D01*
X180539047Y-104770000D01*
X180586666Y-104817619D01*
X180634285Y-104912857D01*
X180681904Y-105103333D01*
X180681904Y-105341428D01*
X180634285Y-105531904D01*
X180586666Y-105627142D01*
X180539047Y-105674761D01*
X180443809Y-105722380D01*
X180348571Y-105722380D01*
X180253333Y-105674761D01*
X180205714Y-105627142D01*
X180158095Y-105531904D01*
X180110476Y-105341428D01*
X180110476Y-105103333D01*
X180158095Y-104912857D01*
X180205714Y-104817619D01*
X180253333Y-104770000D01*
X180348571Y-104722380D01*
%TO.C,R31*%
X178787142Y-108022380D02*
X178453809Y-107546190D01*
X178215714Y-108022380D02*
X178215714Y-107022380D01*
X178596666Y-107022380D01*
X178691904Y-107070000D01*
X178739523Y-107117619D01*
X178787142Y-107212857D01*
X178787142Y-107355714D01*
X178739523Y-107450952D01*
X178691904Y-107498571D01*
X178596666Y-107546190D01*
X178215714Y-107546190D01*
X179120476Y-107022380D02*
X179739523Y-107022380D01*
X179406190Y-107403333D01*
X179549047Y-107403333D01*
X179644285Y-107450952D01*
X179691904Y-107498571D01*
X179739523Y-107593809D01*
X179739523Y-107831904D01*
X179691904Y-107927142D01*
X179644285Y-107974761D01*
X179549047Y-108022380D01*
X179263333Y-108022380D01*
X179168095Y-107974761D01*
X179120476Y-107927142D01*
X180691904Y-108022380D02*
X180120476Y-108022380D01*
X180406190Y-108022380D02*
X180406190Y-107022380D01*
X180310952Y-107165238D01*
X180215714Y-107260476D01*
X180120476Y-107308095D01*
%TD*%
M02*
