G04 #@! TF.FileFunction,Legend,Bot*
%FSLAX46Y46*%
G04 Gerber Fmt 4.6, Leading zero omitted, Abs format (unit mm)*
G04 Created by KiCad (PCBNEW 4.0.7-e2-6376~61~ubuntu18.04.1) date Wed Mar 18 18:40:07 2020*
%MOMM*%
%LPD*%
G01*
G04 APERTURE LIST*
%ADD10C,0.100000*%
%ADD11C,0.300000*%
G04 APERTURE END LIST*
D10*
D11*
X197014342Y-85928600D02*
X197085770Y-85857171D01*
X197228627Y-85642886D01*
X197300056Y-85500029D01*
X197371485Y-85285743D01*
X197442913Y-84928600D01*
X197442913Y-84642886D01*
X197371485Y-84285743D01*
X197300056Y-84071457D01*
X197228627Y-83928600D01*
X197085770Y-83714314D01*
X197014342Y-83642886D01*
X196514342Y-84000029D02*
X196442913Y-83928600D01*
X196300056Y-83857171D01*
X195942913Y-83857171D01*
X195800056Y-83928600D01*
X195728627Y-84000029D01*
X195657199Y-84142886D01*
X195657199Y-84285743D01*
X195728627Y-84500029D01*
X196585770Y-85357171D01*
X195657199Y-85357171D01*
X194728628Y-83857171D02*
X194585771Y-83857171D01*
X194442914Y-83928600D01*
X194371485Y-84000029D01*
X194300056Y-84142886D01*
X194228628Y-84428600D01*
X194228628Y-84785743D01*
X194300056Y-85071457D01*
X194371485Y-85214314D01*
X194442914Y-85285743D01*
X194585771Y-85357171D01*
X194728628Y-85357171D01*
X194871485Y-85285743D01*
X194942914Y-85214314D01*
X195014342Y-85071457D01*
X195085771Y-84785743D01*
X195085771Y-84428600D01*
X195014342Y-84142886D01*
X194942914Y-84000029D01*
X194871485Y-83928600D01*
X194728628Y-83857171D01*
X193657200Y-84000029D02*
X193585771Y-83928600D01*
X193442914Y-83857171D01*
X193085771Y-83857171D01*
X192942914Y-83928600D01*
X192871485Y-84000029D01*
X192800057Y-84142886D01*
X192800057Y-84285743D01*
X192871485Y-84500029D01*
X193728628Y-85357171D01*
X192800057Y-85357171D01*
X191871486Y-83857171D02*
X191728629Y-83857171D01*
X191585772Y-83928600D01*
X191514343Y-84000029D01*
X191442914Y-84142886D01*
X191371486Y-84428600D01*
X191371486Y-84785743D01*
X191442914Y-85071457D01*
X191514343Y-85214314D01*
X191585772Y-85285743D01*
X191728629Y-85357171D01*
X191871486Y-85357171D01*
X192014343Y-85285743D01*
X192085772Y-85214314D01*
X192157200Y-85071457D01*
X192228629Y-84785743D01*
X192228629Y-84428600D01*
X192157200Y-84142886D01*
X192085772Y-84000029D01*
X192014343Y-83928600D01*
X191871486Y-83857171D01*
X190871486Y-85928600D02*
X190800058Y-85857171D01*
X190657201Y-85642886D01*
X190585772Y-85500029D01*
X190514343Y-85285743D01*
X190442915Y-84928600D01*
X190442915Y-84642886D01*
X190514343Y-84285743D01*
X190585772Y-84071457D01*
X190657201Y-83928600D01*
X190800058Y-83714314D01*
X190871486Y-83642886D01*
X188585772Y-85357171D02*
X188585772Y-83857171D01*
X188085772Y-84928600D01*
X187585772Y-83857171D01*
X187585772Y-85357171D01*
X186228629Y-85357171D02*
X186228629Y-84571457D01*
X186300058Y-84428600D01*
X186442915Y-84357171D01*
X186728629Y-84357171D01*
X186871486Y-84428600D01*
X186228629Y-85285743D02*
X186371486Y-85357171D01*
X186728629Y-85357171D01*
X186871486Y-85285743D01*
X186942915Y-85142886D01*
X186942915Y-85000029D01*
X186871486Y-84857171D01*
X186728629Y-84785743D01*
X186371486Y-84785743D01*
X186228629Y-84714314D01*
X185514343Y-85357171D02*
X185514343Y-84357171D01*
X185514343Y-84642886D02*
X185442915Y-84500029D01*
X185371486Y-84428600D01*
X185228629Y-84357171D01*
X185085772Y-84357171D01*
X184800058Y-84357171D02*
X184228629Y-84357171D01*
X184585772Y-83857171D02*
X184585772Y-85142886D01*
X184514344Y-85285743D01*
X184371486Y-85357171D01*
X184228629Y-85357171D01*
X183728629Y-85357171D02*
X183728629Y-84357171D01*
X183728629Y-83857171D02*
X183800058Y-83928600D01*
X183728629Y-84000029D01*
X183657201Y-83928600D01*
X183728629Y-83857171D01*
X183728629Y-84000029D01*
X183014343Y-84357171D02*
X183014343Y-85357171D01*
X183014343Y-84500029D02*
X182942915Y-84428600D01*
X182800057Y-84357171D01*
X182585772Y-84357171D01*
X182442915Y-84428600D01*
X182371486Y-84571457D01*
X182371486Y-85357171D01*
X180514343Y-85357171D02*
X180514343Y-83857171D01*
X180514343Y-84571457D02*
X179657200Y-84571457D01*
X179657200Y-85357171D02*
X179657200Y-83857171D01*
X178371486Y-85285743D02*
X178514343Y-85357171D01*
X178800057Y-85357171D01*
X178942914Y-85285743D01*
X179014343Y-85142886D01*
X179014343Y-84571457D01*
X178942914Y-84428600D01*
X178800057Y-84357171D01*
X178514343Y-84357171D01*
X178371486Y-84428600D01*
X178300057Y-84571457D01*
X178300057Y-84714314D01*
X179014343Y-84857171D01*
X177657200Y-84357171D02*
X177657200Y-85642886D01*
X177728629Y-85785743D01*
X177871486Y-85857171D01*
X177942914Y-85857171D01*
X177657200Y-83857171D02*
X177728629Y-83928600D01*
X177657200Y-84000029D01*
X177585772Y-83928600D01*
X177657200Y-83857171D01*
X177657200Y-84000029D01*
X176942914Y-84357171D02*
X176942914Y-85357171D01*
X176942914Y-84500029D02*
X176871486Y-84428600D01*
X176728628Y-84357171D01*
X176514343Y-84357171D01*
X176371486Y-84428600D01*
X176300057Y-84571457D01*
X176300057Y-85357171D01*
X175800057Y-84357171D02*
X175228628Y-84357171D01*
X175585771Y-85357171D02*
X175585771Y-84071457D01*
X175514343Y-83928600D01*
X175371485Y-83857171D01*
X175228628Y-83857171D01*
X174157200Y-85285743D02*
X174300057Y-85357171D01*
X174585771Y-85357171D01*
X174728628Y-85285743D01*
X174800057Y-85142886D01*
X174800057Y-84571457D01*
X174728628Y-84428600D01*
X174585771Y-84357171D01*
X174300057Y-84357171D01*
X174157200Y-84428600D01*
X174085771Y-84571457D01*
X174085771Y-84714314D01*
X174800057Y-84857171D01*
X173228628Y-85357171D02*
X173371486Y-85285743D01*
X173442914Y-85142886D01*
X173442914Y-83857171D01*
X172871486Y-84357171D02*
X172300057Y-84357171D01*
X172657200Y-83857171D02*
X172657200Y-85142886D01*
X172585772Y-85285743D01*
X172442914Y-85357171D01*
X172300057Y-85357171D01*
X170228629Y-85928600D02*
X170300057Y-85857171D01*
X170442914Y-85642886D01*
X170514343Y-85500029D01*
X170585772Y-85285743D01*
X170657200Y-84928600D01*
X170657200Y-84642886D01*
X170585772Y-84285743D01*
X170514343Y-84071457D01*
X170442914Y-83928600D01*
X170300057Y-83714314D01*
X170228629Y-83642886D01*
X169657200Y-85357171D02*
X169657200Y-84357171D01*
X169657200Y-84500029D02*
X169585772Y-84428600D01*
X169442914Y-84357171D01*
X169228629Y-84357171D01*
X169085772Y-84428600D01*
X169014343Y-84571457D01*
X169014343Y-85357171D01*
X169014343Y-84571457D02*
X168942914Y-84428600D01*
X168800057Y-84357171D01*
X168585772Y-84357171D01*
X168442914Y-84428600D01*
X168371486Y-84571457D01*
X168371486Y-85357171D01*
X167014343Y-85357171D02*
X167014343Y-84571457D01*
X167085772Y-84428600D01*
X167228629Y-84357171D01*
X167514343Y-84357171D01*
X167657200Y-84428600D01*
X167014343Y-85285743D02*
X167157200Y-85357171D01*
X167514343Y-85357171D01*
X167657200Y-85285743D01*
X167728629Y-85142886D01*
X167728629Y-85000029D01*
X167657200Y-84857171D01*
X167514343Y-84785743D01*
X167157200Y-84785743D01*
X167014343Y-84714314D01*
X166300057Y-85357171D02*
X166300057Y-84357171D01*
X166300057Y-84642886D02*
X166228629Y-84500029D01*
X166157200Y-84428600D01*
X166014343Y-84357171D01*
X165871486Y-84357171D01*
X165585772Y-84357171D02*
X165014343Y-84357171D01*
X165371486Y-83857171D02*
X165371486Y-85142886D01*
X165300058Y-85285743D01*
X165157200Y-85357171D01*
X165014343Y-85357171D01*
X164514343Y-85357171D02*
X164514343Y-84357171D01*
X164514343Y-83857171D02*
X164585772Y-83928600D01*
X164514343Y-84000029D01*
X164442915Y-83928600D01*
X164514343Y-83857171D01*
X164514343Y-84000029D01*
X163800057Y-84357171D02*
X163800057Y-85357171D01*
X163800057Y-84500029D02*
X163728629Y-84428600D01*
X163585771Y-84357171D01*
X163371486Y-84357171D01*
X163228629Y-84428600D01*
X163157200Y-84571457D01*
X163157200Y-85357171D01*
X161514343Y-84642886D02*
X161585771Y-84571457D01*
X161728628Y-84500029D01*
X161871486Y-84500029D01*
X162014343Y-84571457D01*
X162085771Y-84642886D01*
X162157200Y-84785743D01*
X162157200Y-84928600D01*
X162085771Y-85071457D01*
X162014343Y-85142886D01*
X161871486Y-85214314D01*
X161728628Y-85214314D01*
X161585771Y-85142886D01*
X161514343Y-85071457D01*
X161514343Y-84500029D02*
X161514343Y-85071457D01*
X161442914Y-85142886D01*
X161371486Y-85142886D01*
X161228628Y-85071457D01*
X161157200Y-84928600D01*
X161157200Y-84571457D01*
X161300057Y-84357171D01*
X161514343Y-84214314D01*
X161800057Y-84142886D01*
X162085771Y-84214314D01*
X162300057Y-84357171D01*
X162442914Y-84571457D01*
X162514343Y-84857171D01*
X162442914Y-85142886D01*
X162300057Y-85357171D01*
X162085771Y-85500029D01*
X161800057Y-85571457D01*
X161514343Y-85500029D01*
X161300057Y-85357171D01*
X160514343Y-85357171D02*
X160514343Y-83857171D01*
X159871486Y-85357171D02*
X159871486Y-84571457D01*
X159942915Y-84428600D01*
X160085772Y-84357171D01*
X160300057Y-84357171D01*
X160442915Y-84428600D01*
X160514343Y-84500029D01*
X158585772Y-85285743D02*
X158728629Y-85357171D01*
X159014343Y-85357171D01*
X159157200Y-85285743D01*
X159228629Y-85142886D01*
X159228629Y-84571457D01*
X159157200Y-84428600D01*
X159014343Y-84357171D01*
X158728629Y-84357171D01*
X158585772Y-84428600D01*
X158514343Y-84571457D01*
X158514343Y-84714314D01*
X159228629Y-84857171D01*
X157871486Y-84357171D02*
X157871486Y-85642886D01*
X157942915Y-85785743D01*
X158085772Y-85857171D01*
X158157200Y-85857171D01*
X157871486Y-83857171D02*
X157942915Y-83928600D01*
X157871486Y-84000029D01*
X157800058Y-83928600D01*
X157871486Y-83857171D01*
X157871486Y-84000029D01*
X157157200Y-84357171D02*
X157157200Y-85357171D01*
X157157200Y-84500029D02*
X157085772Y-84428600D01*
X156942914Y-84357171D01*
X156728629Y-84357171D01*
X156585772Y-84428600D01*
X156514343Y-84571457D01*
X156514343Y-85357171D01*
X156014343Y-84357171D02*
X155442914Y-84357171D01*
X155800057Y-85357171D02*
X155800057Y-84071457D01*
X155728629Y-83928600D01*
X155585771Y-83857171D01*
X155442914Y-83857171D01*
X154371486Y-85285743D02*
X154514343Y-85357171D01*
X154800057Y-85357171D01*
X154942914Y-85285743D01*
X155014343Y-85142886D01*
X155014343Y-84571457D01*
X154942914Y-84428600D01*
X154800057Y-84357171D01*
X154514343Y-84357171D01*
X154371486Y-84428600D01*
X154300057Y-84571457D01*
X154300057Y-84714314D01*
X155014343Y-84857171D01*
X153442914Y-85357171D02*
X153585772Y-85285743D01*
X153657200Y-85142886D01*
X153657200Y-83857171D01*
X153085772Y-84357171D02*
X152514343Y-84357171D01*
X152871486Y-83857171D02*
X152871486Y-85142886D01*
X152800058Y-85285743D01*
X152657200Y-85357171D01*
X152514343Y-85357171D01*
X152014343Y-85214314D02*
X151942915Y-85285743D01*
X152014343Y-85357171D01*
X152085772Y-85285743D01*
X152014343Y-85214314D01*
X152014343Y-85357171D01*
X150657200Y-85285743D02*
X150800057Y-85357171D01*
X151085771Y-85357171D01*
X151228629Y-85285743D01*
X151300057Y-85214314D01*
X151371486Y-85071457D01*
X151371486Y-84642886D01*
X151300057Y-84500029D01*
X151228629Y-84428600D01*
X151085771Y-84357171D01*
X150800057Y-84357171D01*
X150657200Y-84428600D01*
X149800057Y-85357171D02*
X149942915Y-85285743D01*
X150014343Y-85214314D01*
X150085772Y-85071457D01*
X150085772Y-84642886D01*
X150014343Y-84500029D01*
X149942915Y-84428600D01*
X149800057Y-84357171D01*
X149585772Y-84357171D01*
X149442915Y-84428600D01*
X149371486Y-84500029D01*
X149300057Y-84642886D01*
X149300057Y-85071457D01*
X149371486Y-85214314D01*
X149442915Y-85285743D01*
X149585772Y-85357171D01*
X149800057Y-85357171D01*
X148657200Y-85357171D02*
X148657200Y-84357171D01*
X148657200Y-84500029D02*
X148585772Y-84428600D01*
X148442914Y-84357171D01*
X148228629Y-84357171D01*
X148085772Y-84428600D01*
X148014343Y-84571457D01*
X148014343Y-85357171D01*
X148014343Y-84571457D02*
X147942914Y-84428600D01*
X147800057Y-84357171D01*
X147585772Y-84357171D01*
X147442914Y-84428600D01*
X147371486Y-84571457D01*
X147371486Y-85357171D01*
X146800057Y-85928600D02*
X146728629Y-85857171D01*
X146585772Y-85642886D01*
X146514343Y-85500029D01*
X146442914Y-85285743D01*
X146371486Y-84928600D01*
X146371486Y-84642886D01*
X146442914Y-84285743D01*
X146514343Y-84071457D01*
X146585772Y-83928600D01*
X146728629Y-83714314D01*
X146800057Y-83642886D01*
X182514343Y-86907171D02*
X182228629Y-87907171D01*
X181942915Y-87192886D01*
X181657200Y-87907171D01*
X181371486Y-86907171D01*
X180942914Y-86907171D02*
X180657200Y-87907171D01*
X180371486Y-87192886D01*
X180085771Y-87907171D01*
X179800057Y-86907171D01*
X179371485Y-86907171D02*
X179085771Y-87907171D01*
X178800057Y-87192886D01*
X178514342Y-87907171D01*
X178228628Y-86907171D01*
X177657199Y-87764314D02*
X177585771Y-87835743D01*
X177657199Y-87907171D01*
X177728628Y-87835743D01*
X177657199Y-87764314D01*
X177657199Y-87907171D01*
X176942913Y-87907171D02*
X176942913Y-86907171D01*
X176942913Y-86407171D02*
X177014342Y-86478600D01*
X176942913Y-86550029D01*
X176871485Y-86478600D01*
X176942913Y-86407171D01*
X176942913Y-86550029D01*
X176228627Y-87907171D02*
X176228627Y-86907171D01*
X176228627Y-87050029D02*
X176157199Y-86978600D01*
X176014341Y-86907171D01*
X175800056Y-86907171D01*
X175657199Y-86978600D01*
X175585770Y-87121457D01*
X175585770Y-87907171D01*
X175585770Y-87121457D02*
X175514341Y-86978600D01*
X175371484Y-86907171D01*
X175157199Y-86907171D01*
X175014341Y-86978600D01*
X174942913Y-87121457D01*
X174942913Y-87907171D01*
X174228627Y-87907171D02*
X174228627Y-86907171D01*
X174228627Y-87050029D02*
X174157199Y-86978600D01*
X174014341Y-86907171D01*
X173800056Y-86907171D01*
X173657199Y-86978600D01*
X173585770Y-87121457D01*
X173585770Y-87907171D01*
X173585770Y-87121457D02*
X173514341Y-86978600D01*
X173371484Y-86907171D01*
X173157199Y-86907171D01*
X173014341Y-86978600D01*
X172942913Y-87121457D01*
X172942913Y-87907171D01*
X171657199Y-87835743D02*
X171800056Y-87907171D01*
X172085770Y-87907171D01*
X172228627Y-87835743D01*
X172300056Y-87692886D01*
X172300056Y-87121457D01*
X172228627Y-86978600D01*
X172085770Y-86907171D01*
X171800056Y-86907171D01*
X171657199Y-86978600D01*
X171585770Y-87121457D01*
X171585770Y-87264314D01*
X172300056Y-87407171D01*
X170942913Y-87907171D02*
X170942913Y-86907171D01*
X170942913Y-87192886D02*
X170871485Y-87050029D01*
X170800056Y-86978600D01*
X170657199Y-86907171D01*
X170514342Y-86907171D01*
X170014342Y-87907171D02*
X170014342Y-86407171D01*
X169371485Y-87907171D02*
X169371485Y-87121457D01*
X169442914Y-86978600D01*
X169585771Y-86907171D01*
X169800056Y-86907171D01*
X169942914Y-86978600D01*
X170014342Y-87050029D01*
X168014342Y-87907171D02*
X168014342Y-87121457D01*
X168085771Y-86978600D01*
X168228628Y-86907171D01*
X168514342Y-86907171D01*
X168657199Y-86978600D01*
X168014342Y-87835743D02*
X168157199Y-87907171D01*
X168514342Y-87907171D01*
X168657199Y-87835743D01*
X168728628Y-87692886D01*
X168728628Y-87550029D01*
X168657199Y-87407171D01*
X168514342Y-87335743D01*
X168157199Y-87335743D01*
X168014342Y-87264314D01*
X167442913Y-87907171D02*
X166657199Y-86907171D01*
X167442913Y-86907171D02*
X166657199Y-87907171D01*
X166085770Y-87764314D02*
X166014342Y-87835743D01*
X166085770Y-87907171D01*
X166157199Y-87835743D01*
X166085770Y-87764314D01*
X166085770Y-87907171D01*
X164728627Y-87835743D02*
X164871484Y-87907171D01*
X165157198Y-87907171D01*
X165300056Y-87835743D01*
X165371484Y-87764314D01*
X165442913Y-87621457D01*
X165442913Y-87192886D01*
X165371484Y-87050029D01*
X165300056Y-86978600D01*
X165157198Y-86907171D01*
X164871484Y-86907171D01*
X164728627Y-86978600D01*
X163871484Y-87907171D02*
X164014342Y-87835743D01*
X164085770Y-87764314D01*
X164157199Y-87621457D01*
X164157199Y-87192886D01*
X164085770Y-87050029D01*
X164014342Y-86978600D01*
X163871484Y-86907171D01*
X163657199Y-86907171D01*
X163514342Y-86978600D01*
X163442913Y-87050029D01*
X163371484Y-87192886D01*
X163371484Y-87621457D01*
X163442913Y-87764314D01*
X163514342Y-87835743D01*
X163657199Y-87907171D01*
X163871484Y-87907171D01*
X162728627Y-87907171D02*
X162728627Y-86907171D01*
X162728627Y-87050029D02*
X162657199Y-86978600D01*
X162514341Y-86907171D01*
X162300056Y-86907171D01*
X162157199Y-86978600D01*
X162085770Y-87121457D01*
X162085770Y-87907171D01*
X162085770Y-87121457D02*
X162014341Y-86978600D01*
X161871484Y-86907171D01*
X161657199Y-86907171D01*
X161514341Y-86978600D01*
X161442913Y-87121457D01*
X161442913Y-87907171D01*
M02*
