G04 #@! TF.FileFunction,Legend,Top*
%FSLAX46Y46*%
G04 Gerber Fmt 4.6, Leading zero omitted, Abs format (unit mm)*
G04 Created by KiCad (PCBNEW 4.0.7-e2-6376~61~ubuntu18.04.1) date Wed Mar 18 18:40:07 2020*
%MOMM*%
%LPD*%
G01*
G04 APERTURE LIST*
%ADD10C,0.100000*%
%ADD11C,0.300000*%
%ADD12C,0.250000*%
%ADD13C,0.200000*%
%ADD14C,0.120000*%
%ADD15C,0.500000*%
%ADD16C,0.150000*%
G04 APERTURE END LIST*
D10*
D11*
X142141072Y-149649571D02*
X141641072Y-148935286D01*
X141283929Y-149649571D02*
X141283929Y-148149571D01*
X141855357Y-148149571D01*
X141998215Y-148221000D01*
X142069643Y-148292429D01*
X142141072Y-148435286D01*
X142141072Y-148649571D01*
X142069643Y-148792429D01*
X141998215Y-148863857D01*
X141855357Y-148935286D01*
X141283929Y-148935286D01*
X143355357Y-149578143D02*
X143212500Y-149649571D01*
X142926786Y-149649571D01*
X142783929Y-149578143D01*
X142712500Y-149435286D01*
X142712500Y-148863857D01*
X142783929Y-148721000D01*
X142926786Y-148649571D01*
X143212500Y-148649571D01*
X143355357Y-148721000D01*
X143426786Y-148863857D01*
X143426786Y-149006714D01*
X142712500Y-149149571D01*
X143926786Y-148649571D02*
X144283929Y-149649571D01*
X144641071Y-148649571D01*
X145212500Y-149506714D02*
X145283928Y-149578143D01*
X145212500Y-149649571D01*
X145141071Y-149578143D01*
X145212500Y-149506714D01*
X145212500Y-149649571D01*
X146998214Y-149221000D02*
X147712500Y-149221000D01*
X146855357Y-149649571D02*
X147355357Y-148149571D01*
X147855357Y-149649571D01*
X126297857Y-148943143D02*
X126512143Y-149014571D01*
X126869286Y-149014571D01*
X127012143Y-148943143D01*
X127083572Y-148871714D01*
X127155000Y-148728857D01*
X127155000Y-148586000D01*
X127083572Y-148443143D01*
X127012143Y-148371714D01*
X126869286Y-148300286D01*
X126583572Y-148228857D01*
X126440714Y-148157429D01*
X126369286Y-148086000D01*
X126297857Y-147943143D01*
X126297857Y-147800286D01*
X126369286Y-147657429D01*
X126440714Y-147586000D01*
X126583572Y-147514571D01*
X126940714Y-147514571D01*
X127155000Y-147586000D01*
X128083571Y-148300286D02*
X128083571Y-149014571D01*
X127583571Y-147514571D02*
X128083571Y-148300286D01*
X128583571Y-147514571D01*
X129083571Y-149014571D02*
X129083571Y-147514571D01*
X129940714Y-149014571D01*
X129940714Y-147514571D01*
X131512143Y-148871714D02*
X131440714Y-148943143D01*
X131226428Y-149014571D01*
X131083571Y-149014571D01*
X130869286Y-148943143D01*
X130726428Y-148800286D01*
X130655000Y-148657429D01*
X130583571Y-148371714D01*
X130583571Y-148157429D01*
X130655000Y-147871714D01*
X130726428Y-147728857D01*
X130869286Y-147586000D01*
X131083571Y-147514571D01*
X131226428Y-147514571D01*
X131440714Y-147586000D01*
X131512143Y-147657429D01*
X126389143Y-127018171D02*
X125889143Y-126303886D01*
X125532000Y-127018171D02*
X125532000Y-125518171D01*
X126103428Y-125518171D01*
X126246286Y-125589600D01*
X126317714Y-125661029D01*
X126389143Y-125803886D01*
X126389143Y-126018171D01*
X126317714Y-126161029D01*
X126246286Y-126232457D01*
X126103428Y-126303886D01*
X125532000Y-126303886D01*
X127032000Y-126446743D02*
X128174857Y-126446743D01*
X129174857Y-126303886D02*
X129174857Y-127018171D01*
X128674857Y-125518171D02*
X129174857Y-126303886D01*
X129674857Y-125518171D01*
X131246285Y-125446743D02*
X129960571Y-127375314D01*
X132603429Y-127018171D02*
X132103429Y-126303886D01*
X131746286Y-127018171D02*
X131746286Y-125518171D01*
X132317714Y-125518171D01*
X132460572Y-125589600D01*
X132532000Y-125661029D01*
X132603429Y-125803886D01*
X132603429Y-126018171D01*
X132532000Y-126161029D01*
X132460572Y-126232457D01*
X132317714Y-126303886D01*
X131746286Y-126303886D01*
X126082800Y-104388457D02*
X126297086Y-104459886D01*
X126368514Y-104531314D01*
X126439943Y-104674171D01*
X126439943Y-104888457D01*
X126368514Y-105031314D01*
X126297086Y-105102743D01*
X126154228Y-105174171D01*
X125582800Y-105174171D01*
X125582800Y-103674171D01*
X126082800Y-103674171D01*
X126225657Y-103745600D01*
X126297086Y-103817029D01*
X126368514Y-103959886D01*
X126368514Y-104102743D01*
X126297086Y-104245600D01*
X126225657Y-104317029D01*
X126082800Y-104388457D01*
X125582800Y-104388457D01*
X127082800Y-104602743D02*
X128225657Y-104602743D01*
X129225657Y-104459886D02*
X129225657Y-105174171D01*
X128725657Y-103674171D02*
X129225657Y-104459886D01*
X129725657Y-103674171D01*
X131297085Y-103602743D02*
X130011371Y-105531314D01*
X132297086Y-104388457D02*
X132511372Y-104459886D01*
X132582800Y-104531314D01*
X132654229Y-104674171D01*
X132654229Y-104888457D01*
X132582800Y-105031314D01*
X132511372Y-105102743D01*
X132368514Y-105174171D01*
X131797086Y-105174171D01*
X131797086Y-103674171D01*
X132297086Y-103674171D01*
X132439943Y-103745600D01*
X132511372Y-103817029D01*
X132582800Y-103959886D01*
X132582800Y-104102743D01*
X132511372Y-104245600D01*
X132439943Y-104317029D01*
X132297086Y-104388457D01*
X131797086Y-104388457D01*
X127521686Y-82285686D02*
X127521686Y-82999971D01*
X127021686Y-81499971D02*
X127521686Y-82285686D01*
X128021686Y-81499971D01*
X129593114Y-81428543D02*
X128307400Y-83357114D01*
X130878829Y-81571400D02*
X130735972Y-81499971D01*
X130521686Y-81499971D01*
X130307401Y-81571400D01*
X130164543Y-81714257D01*
X130093115Y-81857114D01*
X130021686Y-82142829D01*
X130021686Y-82357114D01*
X130093115Y-82642829D01*
X130164543Y-82785686D01*
X130307401Y-82928543D01*
X130521686Y-82999971D01*
X130664543Y-82999971D01*
X130878829Y-82928543D01*
X130950258Y-82857114D01*
X130950258Y-82357114D01*
X130664543Y-82357114D01*
D12*
X162113781Y-66914686D02*
X162051876Y-66976590D01*
X161866162Y-67038495D01*
X161742352Y-67038495D01*
X161556638Y-66976590D01*
X161432829Y-66852781D01*
X161370924Y-66728971D01*
X161309019Y-66481352D01*
X161309019Y-66295638D01*
X161370924Y-66048019D01*
X161432829Y-65924210D01*
X161556638Y-65800400D01*
X161742352Y-65738495D01*
X161866162Y-65738495D01*
X162051876Y-65800400D01*
X162113781Y-65862305D01*
X162547114Y-65738495D02*
X163413781Y-65738495D01*
X162856638Y-67038495D01*
X163970924Y-66976590D02*
X163970924Y-67038495D01*
X163909019Y-67162305D01*
X163847114Y-67224210D01*
X164713781Y-66295638D02*
X164589972Y-66233733D01*
X164528067Y-66171829D01*
X164466162Y-66048019D01*
X164466162Y-65986114D01*
X164528067Y-65862305D01*
X164589972Y-65800400D01*
X164713781Y-65738495D01*
X164961400Y-65738495D01*
X165085210Y-65800400D01*
X165147114Y-65862305D01*
X165209019Y-65986114D01*
X165209019Y-66048019D01*
X165147114Y-66171829D01*
X165085210Y-66233733D01*
X164961400Y-66295638D01*
X164713781Y-66295638D01*
X164589972Y-66357543D01*
X164528067Y-66419448D01*
X164466162Y-66543257D01*
X164466162Y-66790876D01*
X164528067Y-66914686D01*
X164589972Y-66976590D01*
X164713781Y-67038495D01*
X164961400Y-67038495D01*
X165085210Y-66976590D01*
X165147114Y-66914686D01*
X165209019Y-66790876D01*
X165209019Y-66543257D01*
X165147114Y-66419448D01*
X165085210Y-66357543D01*
X164961400Y-66295638D01*
X165828067Y-66976590D02*
X165828067Y-67038495D01*
X165766162Y-67162305D01*
X165704257Y-67224210D01*
X167066162Y-67038495D02*
X166323305Y-67038495D01*
X166694734Y-67038495D02*
X166694734Y-65738495D01*
X166570924Y-65924210D01*
X166447115Y-66048019D01*
X166323305Y-66109924D01*
X167499495Y-65738495D02*
X168304257Y-65738495D01*
X167870924Y-66233733D01*
X168056638Y-66233733D01*
X168180448Y-66295638D01*
X168242352Y-66357543D01*
X168304257Y-66481352D01*
X168304257Y-66790876D01*
X168242352Y-66914686D01*
X168180448Y-66976590D01*
X168056638Y-67038495D01*
X167685210Y-67038495D01*
X167561400Y-66976590D01*
X167499495Y-66914686D01*
X169851876Y-66543257D02*
X170842352Y-66543257D01*
X173132828Y-67038495D02*
X172389971Y-67038495D01*
X172761400Y-67038495D02*
X172761400Y-65738495D01*
X172637590Y-65924210D01*
X172513781Y-66048019D01*
X172389971Y-66109924D01*
X173937590Y-65738495D02*
X174061399Y-65738495D01*
X174185209Y-65800400D01*
X174247114Y-65862305D01*
X174309018Y-65986114D01*
X174370923Y-66233733D01*
X174370923Y-66543257D01*
X174309018Y-66790876D01*
X174247114Y-66914686D01*
X174185209Y-66976590D01*
X174061399Y-67038495D01*
X173937590Y-67038495D01*
X173813780Y-66976590D01*
X173751876Y-66914686D01*
X173689971Y-66790876D01*
X173628066Y-66543257D01*
X173628066Y-66233733D01*
X173689971Y-65986114D01*
X173751876Y-65862305D01*
X173813780Y-65800400D01*
X173937590Y-65738495D01*
X175175685Y-65738495D02*
X175299494Y-65738495D01*
X175423304Y-65800400D01*
X175485209Y-65862305D01*
X175547113Y-65986114D01*
X175609018Y-66233733D01*
X175609018Y-66543257D01*
X175547113Y-66790876D01*
X175485209Y-66914686D01*
X175423304Y-66976590D01*
X175299494Y-67038495D01*
X175175685Y-67038495D01*
X175051875Y-66976590D01*
X174989971Y-66914686D01*
X174928066Y-66790876D01*
X174866161Y-66543257D01*
X174866161Y-66233733D01*
X174928066Y-65986114D01*
X174989971Y-65862305D01*
X175051875Y-65800400D01*
X175175685Y-65738495D01*
X176723304Y-66171829D02*
X176723304Y-67038495D01*
X176166161Y-66171829D02*
X176166161Y-66852781D01*
X176228066Y-66976590D01*
X176351875Y-67038495D01*
X176537589Y-67038495D01*
X176661399Y-66976590D01*
X176723304Y-66914686D01*
X177775684Y-66357543D02*
X177342351Y-66357543D01*
X177342351Y-67038495D02*
X177342351Y-65738495D01*
X177961398Y-65738495D01*
X179385208Y-65676590D02*
X178270923Y-67348019D01*
X180499494Y-67038495D02*
X179756637Y-67038495D01*
X180128066Y-67038495D02*
X180128066Y-65738495D01*
X180004256Y-65924210D01*
X179880447Y-66048019D01*
X179756637Y-66109924D01*
X181613780Y-65738495D02*
X181366161Y-65738495D01*
X181242351Y-65800400D01*
X181180446Y-65862305D01*
X181056637Y-66048019D01*
X180994732Y-66295638D01*
X180994732Y-66790876D01*
X181056637Y-66914686D01*
X181118542Y-66976590D01*
X181242351Y-67038495D01*
X181489970Y-67038495D01*
X181613780Y-66976590D01*
X181675684Y-66914686D01*
X181737589Y-66790876D01*
X181737589Y-66481352D01*
X181675684Y-66357543D01*
X181613780Y-66295638D01*
X181489970Y-66233733D01*
X181242351Y-66233733D01*
X181118542Y-66295638D01*
X181056637Y-66357543D01*
X180994732Y-66481352D01*
X182109018Y-65738495D02*
X182542351Y-67038495D01*
X182975684Y-65738495D01*
X161928067Y-67938495D02*
X161680448Y-67938495D01*
X161556638Y-68000400D01*
X161494733Y-68062305D01*
X161370924Y-68248019D01*
X161309019Y-68495638D01*
X161309019Y-68990876D01*
X161370924Y-69114686D01*
X161432829Y-69176590D01*
X161556638Y-69238495D01*
X161804257Y-69238495D01*
X161928067Y-69176590D01*
X161989971Y-69114686D01*
X162051876Y-68990876D01*
X162051876Y-68681352D01*
X161989971Y-68557543D01*
X161928067Y-68495638D01*
X161804257Y-68433733D01*
X161556638Y-68433733D01*
X161432829Y-68495638D01*
X161370924Y-68557543D01*
X161309019Y-68681352D01*
X162670924Y-69176590D02*
X162670924Y-69238495D01*
X162609019Y-69362305D01*
X162547114Y-69424210D01*
X163104257Y-67938495D02*
X163909019Y-67938495D01*
X163475686Y-68433733D01*
X163661400Y-68433733D01*
X163785210Y-68495638D01*
X163847114Y-68557543D01*
X163909019Y-68681352D01*
X163909019Y-68990876D01*
X163847114Y-69114686D01*
X163785210Y-69176590D01*
X163661400Y-69238495D01*
X163289972Y-69238495D01*
X163166162Y-69176590D01*
X163104257Y-69114686D01*
X164342352Y-69238495D02*
X165023305Y-68371829D01*
X164342352Y-68371829D02*
X165023305Y-69238495D01*
X166137590Y-67938495D02*
X165518543Y-67938495D01*
X165456638Y-68557543D01*
X165518543Y-68495638D01*
X165642352Y-68433733D01*
X165951876Y-68433733D01*
X166075686Y-68495638D01*
X166137590Y-68557543D01*
X166199495Y-68681352D01*
X166199495Y-68990876D01*
X166137590Y-69114686D01*
X166075686Y-69176590D01*
X165951876Y-69238495D01*
X165642352Y-69238495D01*
X165518543Y-69176590D01*
X165456638Y-69114686D01*
X166818543Y-69176590D02*
X166818543Y-69238495D01*
X166756638Y-69362305D01*
X166694733Y-69424210D01*
X167251876Y-67938495D02*
X168056638Y-67938495D01*
X167623305Y-68433733D01*
X167809019Y-68433733D01*
X167932829Y-68495638D01*
X167994733Y-68557543D01*
X168056638Y-68681352D01*
X168056638Y-68990876D01*
X167994733Y-69114686D01*
X167932829Y-69176590D01*
X167809019Y-69238495D01*
X167437591Y-69238495D01*
X167313781Y-69176590D01*
X167251876Y-69114686D01*
X169604257Y-68557543D02*
X170037590Y-68557543D01*
X170223304Y-69238495D02*
X169604257Y-69238495D01*
X169604257Y-67938495D01*
X170223304Y-67938495D01*
X170780447Y-68743257D02*
X171770923Y-68743257D01*
X172947114Y-69176590D02*
X172823304Y-69238495D01*
X172575685Y-69238495D01*
X172451876Y-69176590D01*
X172389971Y-69114686D01*
X172328066Y-68990876D01*
X172328066Y-68619448D01*
X172389971Y-68495638D01*
X172451876Y-68433733D01*
X172575685Y-68371829D01*
X172823304Y-68371829D01*
X172947114Y-68433733D01*
X174061400Y-69238495D02*
X174061400Y-68557543D01*
X173999495Y-68433733D01*
X173875685Y-68371829D01*
X173628066Y-68371829D01*
X173504257Y-68433733D01*
X174061400Y-69176590D02*
X173937590Y-69238495D01*
X173628066Y-69238495D01*
X173504257Y-69176590D01*
X173442352Y-69052781D01*
X173442352Y-68928971D01*
X173504257Y-68805162D01*
X173628066Y-68743257D01*
X173937590Y-68743257D01*
X174061400Y-68681352D01*
X174680447Y-68371829D02*
X174680447Y-69671829D01*
X174680447Y-68433733D02*
X174804256Y-68371829D01*
X175051875Y-68371829D01*
X175175685Y-68433733D01*
X175237590Y-68495638D01*
X175299494Y-68619448D01*
X175299494Y-68990876D01*
X175237590Y-69114686D01*
X175175685Y-69176590D01*
X175051875Y-69238495D01*
X174804256Y-69238495D01*
X174680447Y-69176590D01*
X175794732Y-69176590D02*
X175918542Y-69238495D01*
X176166161Y-69238495D01*
X176289970Y-69176590D01*
X176351875Y-69052781D01*
X176351875Y-68990876D01*
X176289970Y-68867067D01*
X176166161Y-68805162D01*
X175980446Y-68805162D01*
X175856637Y-68743257D01*
X175794732Y-68619448D01*
X175794732Y-68557543D01*
X175856637Y-68433733D01*
X175980446Y-68371829D01*
X176166161Y-68371829D01*
X176289970Y-68433733D01*
X162113781Y-73514686D02*
X162051876Y-73576590D01*
X161866162Y-73638495D01*
X161742352Y-73638495D01*
X161556638Y-73576590D01*
X161432829Y-73452781D01*
X161370924Y-73328971D01*
X161309019Y-73081352D01*
X161309019Y-72895638D01*
X161370924Y-72648019D01*
X161432829Y-72524210D01*
X161556638Y-72400400D01*
X161742352Y-72338495D01*
X161866162Y-72338495D01*
X162051876Y-72400400D01*
X162113781Y-72462305D01*
X163351876Y-73638495D02*
X162609019Y-73638495D01*
X162980448Y-73638495D02*
X162980448Y-72338495D01*
X162856638Y-72524210D01*
X162732829Y-72648019D01*
X162609019Y-72709924D01*
X164156638Y-72338495D02*
X164280447Y-72338495D01*
X164404257Y-72400400D01*
X164466162Y-72462305D01*
X164528066Y-72586114D01*
X164589971Y-72833733D01*
X164589971Y-73143257D01*
X164528066Y-73390876D01*
X164466162Y-73514686D01*
X164404257Y-73576590D01*
X164280447Y-73638495D01*
X164156638Y-73638495D01*
X164032828Y-73576590D01*
X163970924Y-73514686D01*
X163909019Y-73390876D01*
X163847114Y-73143257D01*
X163847114Y-72833733D01*
X163909019Y-72586114D01*
X163970924Y-72462305D01*
X164032828Y-72400400D01*
X164156638Y-72338495D01*
X166137590Y-73143257D02*
X167128066Y-73143257D01*
X168675685Y-72462305D02*
X168737590Y-72400400D01*
X168861399Y-72338495D01*
X169170923Y-72338495D01*
X169294733Y-72400400D01*
X169356637Y-72462305D01*
X169418542Y-72586114D01*
X169418542Y-72709924D01*
X169356637Y-72895638D01*
X168613780Y-73638495D01*
X169418542Y-73638495D01*
X169975685Y-73514686D02*
X170037590Y-73576590D01*
X169975685Y-73638495D01*
X169913780Y-73576590D01*
X169975685Y-73514686D01*
X169975685Y-73638495D01*
X170532828Y-72462305D02*
X170594733Y-72400400D01*
X170718542Y-72338495D01*
X171028066Y-72338495D01*
X171151876Y-72400400D01*
X171213780Y-72462305D01*
X171275685Y-72586114D01*
X171275685Y-72709924D01*
X171213780Y-72895638D01*
X170470923Y-73638495D01*
X171275685Y-73638495D01*
X172389971Y-72771829D02*
X172389971Y-73638495D01*
X171832828Y-72771829D02*
X171832828Y-73452781D01*
X171894733Y-73576590D01*
X172018542Y-73638495D01*
X172204256Y-73638495D01*
X172328066Y-73576590D01*
X172389971Y-73514686D01*
X173442351Y-72957543D02*
X173009018Y-72957543D01*
X173009018Y-73638495D02*
X173009018Y-72338495D01*
X173628065Y-72338495D01*
X162113781Y-75714686D02*
X162051876Y-75776590D01*
X161866162Y-75838495D01*
X161742352Y-75838495D01*
X161556638Y-75776590D01*
X161432829Y-75652781D01*
X161370924Y-75528971D01*
X161309019Y-75281352D01*
X161309019Y-75095638D01*
X161370924Y-74848019D01*
X161432829Y-74724210D01*
X161556638Y-74600400D01*
X161742352Y-74538495D01*
X161866162Y-74538495D01*
X162051876Y-74600400D01*
X162113781Y-74662305D01*
X163351876Y-75838495D02*
X162609019Y-75838495D01*
X162980448Y-75838495D02*
X162980448Y-74538495D01*
X162856638Y-74724210D01*
X162732829Y-74848019D01*
X162609019Y-74909924D01*
X164589971Y-75838495D02*
X163847114Y-75838495D01*
X164218543Y-75838495D02*
X164218543Y-74538495D01*
X164094733Y-74724210D01*
X163970924Y-74848019D01*
X163847114Y-74909924D01*
X166137590Y-75343257D02*
X167128066Y-75343257D01*
X169418542Y-75838495D02*
X168675685Y-75838495D01*
X169047114Y-75838495D02*
X169047114Y-74538495D01*
X168923304Y-74724210D01*
X168799495Y-74848019D01*
X168675685Y-74909924D01*
X169975685Y-75714686D02*
X170037590Y-75776590D01*
X169975685Y-75838495D01*
X169913780Y-75776590D01*
X169975685Y-75714686D01*
X169975685Y-75838495D01*
X170842352Y-74538495D02*
X170966161Y-74538495D01*
X171089971Y-74600400D01*
X171151876Y-74662305D01*
X171213780Y-74786114D01*
X171275685Y-75033733D01*
X171275685Y-75343257D01*
X171213780Y-75590876D01*
X171151876Y-75714686D01*
X171089971Y-75776590D01*
X170966161Y-75838495D01*
X170842352Y-75838495D01*
X170718542Y-75776590D01*
X170656638Y-75714686D01*
X170594733Y-75590876D01*
X170532828Y-75343257D01*
X170532828Y-75033733D01*
X170594733Y-74786114D01*
X170656638Y-74662305D01*
X170718542Y-74600400D01*
X170842352Y-74538495D01*
X172389971Y-74971829D02*
X172389971Y-75838495D01*
X171832828Y-74971829D02*
X171832828Y-75652781D01*
X171894733Y-75776590D01*
X172018542Y-75838495D01*
X172204256Y-75838495D01*
X172328066Y-75776590D01*
X172389971Y-75714686D01*
X173442351Y-75157543D02*
X173009018Y-75157543D01*
X173009018Y-75838495D02*
X173009018Y-74538495D01*
X173628065Y-74538495D01*
X162113781Y-78038495D02*
X161680448Y-77419448D01*
X161370924Y-78038495D02*
X161370924Y-76738495D01*
X161866162Y-76738495D01*
X161989971Y-76800400D01*
X162051876Y-76862305D01*
X162113781Y-76986114D01*
X162113781Y-77171829D01*
X162051876Y-77295638D01*
X161989971Y-77357543D01*
X161866162Y-77419448D01*
X161370924Y-77419448D01*
X163166162Y-77976590D02*
X163042352Y-78038495D01*
X162794733Y-78038495D01*
X162670924Y-77976590D01*
X162609019Y-77852781D01*
X162609019Y-77357543D01*
X162670924Y-77233733D01*
X162794733Y-77171829D01*
X163042352Y-77171829D01*
X163166162Y-77233733D01*
X163228067Y-77357543D01*
X163228067Y-77481352D01*
X162609019Y-77605162D01*
X163723305Y-77976590D02*
X163847115Y-78038495D01*
X164094734Y-78038495D01*
X164218543Y-77976590D01*
X164280448Y-77852781D01*
X164280448Y-77790876D01*
X164218543Y-77667067D01*
X164094734Y-77605162D01*
X163909019Y-77605162D01*
X163785210Y-77543257D01*
X163723305Y-77419448D01*
X163723305Y-77357543D01*
X163785210Y-77233733D01*
X163909019Y-77171829D01*
X164094734Y-77171829D01*
X164218543Y-77233733D01*
X164651877Y-77171829D02*
X165147115Y-77171829D01*
X164837591Y-76738495D02*
X164837591Y-77852781D01*
X164899496Y-77976590D01*
X165023305Y-78038495D01*
X165147115Y-78038495D01*
X166570924Y-77543257D02*
X167561400Y-77543257D01*
X169418543Y-76738495D02*
X169542352Y-76738495D01*
X169666162Y-76800400D01*
X169728067Y-76862305D01*
X169789971Y-76986114D01*
X169851876Y-77233733D01*
X169851876Y-77543257D01*
X169789971Y-77790876D01*
X169728067Y-77914686D01*
X169666162Y-77976590D01*
X169542352Y-78038495D01*
X169418543Y-78038495D01*
X169294733Y-77976590D01*
X169232829Y-77914686D01*
X169170924Y-77790876D01*
X169109019Y-77543257D01*
X169109019Y-77233733D01*
X169170924Y-76986114D01*
X169232829Y-76862305D01*
X169294733Y-76800400D01*
X169418543Y-76738495D01*
X170409019Y-77914686D02*
X170470924Y-77976590D01*
X170409019Y-78038495D01*
X170347114Y-77976590D01*
X170409019Y-77914686D01*
X170409019Y-78038495D01*
X171709019Y-78038495D02*
X170966162Y-78038495D01*
X171337591Y-78038495D02*
X171337591Y-76738495D01*
X171213781Y-76924210D01*
X171089972Y-77048019D01*
X170966162Y-77109924D01*
X172823305Y-77171829D02*
X172823305Y-78038495D01*
X172266162Y-77171829D02*
X172266162Y-77852781D01*
X172328067Y-77976590D01*
X172451876Y-78038495D01*
X172637590Y-78038495D01*
X172761400Y-77976590D01*
X172823305Y-77914686D01*
X173875685Y-77357543D02*
X173442352Y-77357543D01*
X173442352Y-78038495D02*
X173442352Y-76738495D01*
X174061399Y-76738495D01*
X161618543Y-78938495D02*
X161742352Y-78938495D01*
X161866162Y-79000400D01*
X161928067Y-79062305D01*
X161989971Y-79186114D01*
X162051876Y-79433733D01*
X162051876Y-79743257D01*
X161989971Y-79990876D01*
X161928067Y-80114686D01*
X161866162Y-80176590D01*
X161742352Y-80238495D01*
X161618543Y-80238495D01*
X161494733Y-80176590D01*
X161432829Y-80114686D01*
X161370924Y-79990876D01*
X161309019Y-79743257D01*
X161309019Y-79433733D01*
X161370924Y-79186114D01*
X161432829Y-79062305D01*
X161494733Y-79000400D01*
X161618543Y-78938495D01*
X162794733Y-79495638D02*
X162670924Y-79433733D01*
X162609019Y-79371829D01*
X162547114Y-79248019D01*
X162547114Y-79186114D01*
X162609019Y-79062305D01*
X162670924Y-79000400D01*
X162794733Y-78938495D01*
X163042352Y-78938495D01*
X163166162Y-79000400D01*
X163228066Y-79062305D01*
X163289971Y-79186114D01*
X163289971Y-79248019D01*
X163228066Y-79371829D01*
X163166162Y-79433733D01*
X163042352Y-79495638D01*
X162794733Y-79495638D01*
X162670924Y-79557543D01*
X162609019Y-79619448D01*
X162547114Y-79743257D01*
X162547114Y-79990876D01*
X162609019Y-80114686D01*
X162670924Y-80176590D01*
X162794733Y-80238495D01*
X163042352Y-80238495D01*
X163166162Y-80176590D01*
X163228066Y-80114686D01*
X163289971Y-79990876D01*
X163289971Y-79743257D01*
X163228066Y-79619448D01*
X163166162Y-79557543D01*
X163042352Y-79495638D01*
X164094733Y-78938495D02*
X164218542Y-78938495D01*
X164342352Y-79000400D01*
X164404257Y-79062305D01*
X164466161Y-79186114D01*
X164528066Y-79433733D01*
X164528066Y-79743257D01*
X164466161Y-79990876D01*
X164404257Y-80114686D01*
X164342352Y-80176590D01*
X164218542Y-80238495D01*
X164094733Y-80238495D01*
X163970923Y-80176590D01*
X163909019Y-80114686D01*
X163847114Y-79990876D01*
X163785209Y-79743257D01*
X163785209Y-79433733D01*
X163847114Y-79186114D01*
X163909019Y-79062305D01*
X163970923Y-79000400D01*
X164094733Y-78938495D01*
X165704256Y-78938495D02*
X165085209Y-78938495D01*
X165023304Y-79557543D01*
X165085209Y-79495638D01*
X165209018Y-79433733D01*
X165518542Y-79433733D01*
X165642352Y-79495638D01*
X165704256Y-79557543D01*
X165766161Y-79681352D01*
X165766161Y-79990876D01*
X165704256Y-80114686D01*
X165642352Y-80176590D01*
X165518542Y-80238495D01*
X165209018Y-80238495D01*
X165085209Y-80176590D01*
X165023304Y-80114686D01*
X167251875Y-80176590D02*
X167375685Y-80238495D01*
X167623304Y-80238495D01*
X167747113Y-80176590D01*
X167809018Y-80052781D01*
X167809018Y-79990876D01*
X167747113Y-79867067D01*
X167623304Y-79805162D01*
X167437589Y-79805162D01*
X167313780Y-79743257D01*
X167251875Y-79619448D01*
X167251875Y-79557543D01*
X167313780Y-79433733D01*
X167437589Y-79371829D01*
X167623304Y-79371829D01*
X167747113Y-79433733D01*
X168366161Y-80238495D02*
X168366161Y-79371829D01*
X168366161Y-78938495D02*
X168304256Y-79000400D01*
X168366161Y-79062305D01*
X168428066Y-79000400D01*
X168366161Y-78938495D01*
X168366161Y-79062305D01*
X168861399Y-79371829D02*
X169542352Y-79371829D01*
X168861399Y-80238495D01*
X169542352Y-80238495D01*
X170532828Y-80176590D02*
X170409018Y-80238495D01*
X170161399Y-80238495D01*
X170037590Y-80176590D01*
X169975685Y-80052781D01*
X169975685Y-79557543D01*
X170037590Y-79433733D01*
X170161399Y-79371829D01*
X170409018Y-79371829D01*
X170532828Y-79433733D01*
X170594733Y-79557543D01*
X170594733Y-79681352D01*
X169975685Y-79805162D01*
X186662881Y-66992595D02*
X186229548Y-66373548D01*
X185920024Y-66992595D02*
X185920024Y-65692595D01*
X186415262Y-65692595D01*
X186539071Y-65754500D01*
X186600976Y-65816405D01*
X186662881Y-65940214D01*
X186662881Y-66125929D01*
X186600976Y-66249738D01*
X186539071Y-66311643D01*
X186415262Y-66373548D01*
X185920024Y-66373548D01*
X187900976Y-66992595D02*
X187158119Y-66992595D01*
X187529548Y-66992595D02*
X187529548Y-65692595D01*
X187405738Y-65878310D01*
X187281929Y-66002119D01*
X187158119Y-66064024D01*
X188520024Y-66930690D02*
X188520024Y-66992595D01*
X188458119Y-67116405D01*
X188396214Y-67178310D01*
X189758119Y-66992595D02*
X189015262Y-66992595D01*
X189386691Y-66992595D02*
X189386691Y-65692595D01*
X189262881Y-65878310D01*
X189139072Y-66002119D01*
X189015262Y-66064024D01*
X190500976Y-66249738D02*
X190377167Y-66187833D01*
X190315262Y-66125929D01*
X190253357Y-66002119D01*
X190253357Y-65940214D01*
X190315262Y-65816405D01*
X190377167Y-65754500D01*
X190500976Y-65692595D01*
X190748595Y-65692595D01*
X190872405Y-65754500D01*
X190934309Y-65816405D01*
X190996214Y-65940214D01*
X190996214Y-66002119D01*
X190934309Y-66125929D01*
X190872405Y-66187833D01*
X190748595Y-66249738D01*
X190500976Y-66249738D01*
X190377167Y-66311643D01*
X190315262Y-66373548D01*
X190253357Y-66497357D01*
X190253357Y-66744976D01*
X190315262Y-66868786D01*
X190377167Y-66930690D01*
X190500976Y-66992595D01*
X190748595Y-66992595D01*
X190872405Y-66930690D01*
X190934309Y-66868786D01*
X190996214Y-66744976D01*
X190996214Y-66497357D01*
X190934309Y-66373548D01*
X190872405Y-66311643D01*
X190748595Y-66249738D01*
X192543833Y-66497357D02*
X193534309Y-66497357D01*
X195824785Y-66992595D02*
X195081928Y-66992595D01*
X195453357Y-66992595D02*
X195453357Y-65692595D01*
X195329547Y-65878310D01*
X195205738Y-66002119D01*
X195081928Y-66064024D01*
X196629547Y-65692595D02*
X196753356Y-65692595D01*
X196877166Y-65754500D01*
X196939071Y-65816405D01*
X197000975Y-65940214D01*
X197062880Y-66187833D01*
X197062880Y-66497357D01*
X197000975Y-66744976D01*
X196939071Y-66868786D01*
X196877166Y-66930690D01*
X196753356Y-66992595D01*
X196629547Y-66992595D01*
X196505737Y-66930690D01*
X196443833Y-66868786D01*
X196381928Y-66744976D01*
X196320023Y-66497357D01*
X196320023Y-66187833D01*
X196381928Y-65940214D01*
X196443833Y-65816405D01*
X196505737Y-65754500D01*
X196629547Y-65692595D01*
X197620023Y-66992595D02*
X197620023Y-65692595D01*
X198362880Y-66992595D02*
X197805737Y-66249738D01*
X198362880Y-65692595D02*
X197620023Y-66435452D01*
X186662881Y-69192595D02*
X186229548Y-68573548D01*
X185920024Y-69192595D02*
X185920024Y-67892595D01*
X186415262Y-67892595D01*
X186539071Y-67954500D01*
X186600976Y-68016405D01*
X186662881Y-68140214D01*
X186662881Y-68325929D01*
X186600976Y-68449738D01*
X186539071Y-68511643D01*
X186415262Y-68573548D01*
X185920024Y-68573548D01*
X187777167Y-67892595D02*
X187529548Y-67892595D01*
X187405738Y-67954500D01*
X187343833Y-68016405D01*
X187220024Y-68202119D01*
X187158119Y-68449738D01*
X187158119Y-68944976D01*
X187220024Y-69068786D01*
X187281929Y-69130690D01*
X187405738Y-69192595D01*
X187653357Y-69192595D01*
X187777167Y-69130690D01*
X187839071Y-69068786D01*
X187900976Y-68944976D01*
X187900976Y-68635452D01*
X187839071Y-68511643D01*
X187777167Y-68449738D01*
X187653357Y-68387833D01*
X187405738Y-68387833D01*
X187281929Y-68449738D01*
X187220024Y-68511643D01*
X187158119Y-68635452D01*
X188520024Y-69130690D02*
X188520024Y-69192595D01*
X188458119Y-69316405D01*
X188396214Y-69378310D01*
X188953357Y-67892595D02*
X189820024Y-67892595D01*
X189262881Y-69192595D01*
X190377167Y-69130690D02*
X190377167Y-69192595D01*
X190315262Y-69316405D01*
X190253357Y-69378310D01*
X191120024Y-68449738D02*
X190996215Y-68387833D01*
X190934310Y-68325929D01*
X190872405Y-68202119D01*
X190872405Y-68140214D01*
X190934310Y-68016405D01*
X190996215Y-67954500D01*
X191120024Y-67892595D01*
X191367643Y-67892595D01*
X191491453Y-67954500D01*
X191553357Y-68016405D01*
X191615262Y-68140214D01*
X191615262Y-68202119D01*
X191553357Y-68325929D01*
X191491453Y-68387833D01*
X191367643Y-68449738D01*
X191120024Y-68449738D01*
X190996215Y-68511643D01*
X190934310Y-68573548D01*
X190872405Y-68697357D01*
X190872405Y-68944976D01*
X190934310Y-69068786D01*
X190996215Y-69130690D01*
X191120024Y-69192595D01*
X191367643Y-69192595D01*
X191491453Y-69130690D01*
X191553357Y-69068786D01*
X191615262Y-68944976D01*
X191615262Y-68697357D01*
X191553357Y-68573548D01*
X191491453Y-68511643D01*
X191367643Y-68449738D01*
X192234310Y-69130690D02*
X192234310Y-69192595D01*
X192172405Y-69316405D01*
X192110500Y-69378310D01*
X193781929Y-68697357D02*
X194772405Y-68697357D01*
X197062881Y-69192595D02*
X196320024Y-69192595D01*
X196691453Y-69192595D02*
X196691453Y-67892595D01*
X196567643Y-68078310D01*
X196443834Y-68202119D01*
X196320024Y-68264024D01*
X198239071Y-67892595D02*
X197620024Y-67892595D01*
X197558119Y-68511643D01*
X197620024Y-68449738D01*
X197743833Y-68387833D01*
X198053357Y-68387833D01*
X198177167Y-68449738D01*
X198239071Y-68511643D01*
X198300976Y-68635452D01*
X198300976Y-68944976D01*
X198239071Y-69068786D01*
X198177167Y-69130690D01*
X198053357Y-69192595D01*
X197743833Y-69192595D01*
X197620024Y-69130690D01*
X197558119Y-69068786D01*
X199105738Y-67892595D02*
X199229547Y-67892595D01*
X199353357Y-67954500D01*
X199415262Y-68016405D01*
X199477166Y-68140214D01*
X199539071Y-68387833D01*
X199539071Y-68697357D01*
X199477166Y-68944976D01*
X199415262Y-69068786D01*
X199353357Y-69130690D01*
X199229547Y-69192595D01*
X199105738Y-69192595D01*
X198981928Y-69130690D01*
X198920024Y-69068786D01*
X198858119Y-68944976D01*
X198796214Y-68697357D01*
X198796214Y-68387833D01*
X198858119Y-68140214D01*
X198920024Y-68016405D01*
X198981928Y-67954500D01*
X199105738Y-67892595D01*
X200839071Y-69192595D02*
X200405738Y-68573548D01*
X200096214Y-69192595D02*
X200096214Y-67892595D01*
X200591452Y-67892595D01*
X200715261Y-67954500D01*
X200777166Y-68016405D01*
X200839071Y-68140214D01*
X200839071Y-68325929D01*
X200777166Y-68449738D01*
X200715261Y-68511643D01*
X200591452Y-68573548D01*
X200096214Y-68573548D01*
X186662881Y-71392595D02*
X186229548Y-70773548D01*
X185920024Y-71392595D02*
X185920024Y-70092595D01*
X186415262Y-70092595D01*
X186539071Y-70154500D01*
X186600976Y-70216405D01*
X186662881Y-70340214D01*
X186662881Y-70525929D01*
X186600976Y-70649738D01*
X186539071Y-70711643D01*
X186415262Y-70773548D01*
X185920024Y-70773548D01*
X187281929Y-71392595D02*
X187529548Y-71392595D01*
X187653357Y-71330690D01*
X187715262Y-71268786D01*
X187839071Y-71083071D01*
X187900976Y-70835452D01*
X187900976Y-70340214D01*
X187839071Y-70216405D01*
X187777167Y-70154500D01*
X187653357Y-70092595D01*
X187405738Y-70092595D01*
X187281929Y-70154500D01*
X187220024Y-70216405D01*
X187158119Y-70340214D01*
X187158119Y-70649738D01*
X187220024Y-70773548D01*
X187281929Y-70835452D01*
X187405738Y-70897357D01*
X187653357Y-70897357D01*
X187777167Y-70835452D01*
X187839071Y-70773548D01*
X187900976Y-70649738D01*
X189448595Y-70897357D02*
X190439071Y-70897357D01*
X192296214Y-70092595D02*
X192420023Y-70092595D01*
X192543833Y-70154500D01*
X192605738Y-70216405D01*
X192667642Y-70340214D01*
X192729547Y-70587833D01*
X192729547Y-70897357D01*
X192667642Y-71144976D01*
X192605738Y-71268786D01*
X192543833Y-71330690D01*
X192420023Y-71392595D01*
X192296214Y-71392595D01*
X192172404Y-71330690D01*
X192110500Y-71268786D01*
X192048595Y-71144976D01*
X191986690Y-70897357D01*
X191986690Y-70587833D01*
X192048595Y-70340214D01*
X192110500Y-70216405D01*
X192172404Y-70154500D01*
X192296214Y-70092595D01*
X194029547Y-71392595D02*
X193596214Y-70773548D01*
X193286690Y-71392595D02*
X193286690Y-70092595D01*
X193781928Y-70092595D01*
X193905737Y-70154500D01*
X193967642Y-70216405D01*
X194029547Y-70340214D01*
X194029547Y-70525929D01*
X193967642Y-70649738D01*
X193905737Y-70711643D01*
X193781928Y-70773548D01*
X193286690Y-70773548D01*
X195948594Y-71887833D02*
X195886690Y-71825929D01*
X195762880Y-71640214D01*
X195700975Y-71516405D01*
X195639071Y-71330690D01*
X195577166Y-71021167D01*
X195577166Y-70773548D01*
X195639071Y-70464024D01*
X195700975Y-70278310D01*
X195762880Y-70154500D01*
X195886690Y-69968786D01*
X195948594Y-69906881D01*
X196629547Y-71392595D02*
X196505738Y-71330690D01*
X196443833Y-71268786D01*
X196381928Y-71144976D01*
X196381928Y-70773548D01*
X196443833Y-70649738D01*
X196505738Y-70587833D01*
X196629547Y-70525929D01*
X196815261Y-70525929D01*
X196939071Y-70587833D01*
X197000976Y-70649738D01*
X197062880Y-70773548D01*
X197062880Y-71144976D01*
X197000976Y-71268786D01*
X196939071Y-71330690D01*
X196815261Y-71392595D01*
X196629547Y-71392595D01*
X197620023Y-71392595D02*
X197620023Y-70525929D01*
X197620023Y-70773548D02*
X197681928Y-70649738D01*
X197743832Y-70587833D01*
X197867642Y-70525929D01*
X197991451Y-70525929D01*
X199415261Y-70525929D02*
X199415261Y-71640214D01*
X199353356Y-71764024D01*
X199229547Y-71825929D01*
X199167642Y-71825929D01*
X199415261Y-70092595D02*
X199353356Y-70154500D01*
X199415261Y-70216405D01*
X199477166Y-70154500D01*
X199415261Y-70092595D01*
X199415261Y-70216405D01*
X200591452Y-70525929D02*
X200591452Y-71392595D01*
X200034309Y-70525929D02*
X200034309Y-71206881D01*
X200096214Y-71330690D01*
X200220023Y-71392595D01*
X200405737Y-71392595D01*
X200529547Y-71330690D01*
X200591452Y-71268786D01*
X201210499Y-71392595D02*
X201210499Y-70525929D01*
X201210499Y-70649738D02*
X201272404Y-70587833D01*
X201396213Y-70525929D01*
X201581927Y-70525929D01*
X201705737Y-70587833D01*
X201767642Y-70711643D01*
X201767642Y-71392595D01*
X201767642Y-70711643D02*
X201829546Y-70587833D01*
X201953356Y-70525929D01*
X202139070Y-70525929D01*
X202262880Y-70587833D01*
X202324785Y-70711643D01*
X202324785Y-71392595D01*
X202943832Y-70525929D02*
X202943832Y-71825929D01*
X202943832Y-70587833D02*
X203067641Y-70525929D01*
X203315260Y-70525929D01*
X203439070Y-70587833D01*
X203500975Y-70649738D01*
X203562879Y-70773548D01*
X203562879Y-71144976D01*
X203500975Y-71268786D01*
X203439070Y-71330690D01*
X203315260Y-71392595D01*
X203067641Y-71392595D01*
X202943832Y-71330690D01*
X204615260Y-71330690D02*
X204491450Y-71392595D01*
X204243831Y-71392595D01*
X204120022Y-71330690D01*
X204058117Y-71206881D01*
X204058117Y-70711643D01*
X204120022Y-70587833D01*
X204243831Y-70525929D01*
X204491450Y-70525929D01*
X204615260Y-70587833D01*
X204677165Y-70711643D01*
X204677165Y-70835452D01*
X204058117Y-70959262D01*
X205234308Y-71392595D02*
X205234308Y-70525929D01*
X205234308Y-70773548D02*
X205296213Y-70649738D01*
X205358117Y-70587833D01*
X205481927Y-70525929D01*
X205605736Y-70525929D01*
X205915260Y-71887833D02*
X205977165Y-71825929D01*
X206100975Y-71640214D01*
X206162879Y-71516405D01*
X206224784Y-71330690D01*
X206286689Y-71021167D01*
X206286689Y-70773548D01*
X206224784Y-70464024D01*
X206162879Y-70278310D01*
X206100975Y-70154500D01*
X205977165Y-69968786D01*
X205915260Y-69906881D01*
X186662881Y-73592595D02*
X186229548Y-72973548D01*
X185920024Y-73592595D02*
X185920024Y-72292595D01*
X186415262Y-72292595D01*
X186539071Y-72354500D01*
X186600976Y-72416405D01*
X186662881Y-72540214D01*
X186662881Y-72725929D01*
X186600976Y-72849738D01*
X186539071Y-72911643D01*
X186415262Y-72973548D01*
X185920024Y-72973548D01*
X187900976Y-73592595D02*
X187158119Y-73592595D01*
X187529548Y-73592595D02*
X187529548Y-72292595D01*
X187405738Y-72478310D01*
X187281929Y-72602119D01*
X187158119Y-72664024D01*
X188705738Y-72292595D02*
X188829547Y-72292595D01*
X188953357Y-72354500D01*
X189015262Y-72416405D01*
X189077166Y-72540214D01*
X189139071Y-72787833D01*
X189139071Y-73097357D01*
X189077166Y-73344976D01*
X189015262Y-73468786D01*
X188953357Y-73530690D01*
X188829547Y-73592595D01*
X188705738Y-73592595D01*
X188581928Y-73530690D01*
X188520024Y-73468786D01*
X188458119Y-73344976D01*
X188396214Y-73097357D01*
X188396214Y-72787833D01*
X188458119Y-72540214D01*
X188520024Y-72416405D01*
X188581928Y-72354500D01*
X188705738Y-72292595D01*
X189758119Y-73530690D02*
X189758119Y-73592595D01*
X189696214Y-73716405D01*
X189634309Y-73778310D01*
X190996214Y-73592595D02*
X190253357Y-73592595D01*
X190624786Y-73592595D02*
X190624786Y-72292595D01*
X190500976Y-72478310D01*
X190377167Y-72602119D01*
X190253357Y-72664024D01*
X192234309Y-73592595D02*
X191491452Y-73592595D01*
X191862881Y-73592595D02*
X191862881Y-72292595D01*
X191739071Y-72478310D01*
X191615262Y-72602119D01*
X191491452Y-72664024D01*
X192853357Y-73530690D02*
X192853357Y-73592595D01*
X192791452Y-73716405D01*
X192729547Y-73778310D01*
X194091452Y-73592595D02*
X193348595Y-73592595D01*
X193720024Y-73592595D02*
X193720024Y-72292595D01*
X193596214Y-72478310D01*
X193472405Y-72602119D01*
X193348595Y-72664024D01*
X194586690Y-72416405D02*
X194648595Y-72354500D01*
X194772404Y-72292595D01*
X195081928Y-72292595D01*
X195205738Y-72354500D01*
X195267642Y-72416405D01*
X195329547Y-72540214D01*
X195329547Y-72664024D01*
X195267642Y-72849738D01*
X194524785Y-73592595D01*
X195329547Y-73592595D01*
X195948595Y-73530690D02*
X195948595Y-73592595D01*
X195886690Y-73716405D01*
X195824785Y-73778310D01*
X197186690Y-73592595D02*
X196443833Y-73592595D01*
X196815262Y-73592595D02*
X196815262Y-72292595D01*
X196691452Y-72478310D01*
X196567643Y-72602119D01*
X196443833Y-72664024D01*
X197620023Y-72292595D02*
X198424785Y-72292595D01*
X197991452Y-72787833D01*
X198177166Y-72787833D01*
X198300976Y-72849738D01*
X198362880Y-72911643D01*
X198424785Y-73035452D01*
X198424785Y-73344976D01*
X198362880Y-73468786D01*
X198300976Y-73530690D01*
X198177166Y-73592595D01*
X197805738Y-73592595D01*
X197681928Y-73530690D01*
X197620023Y-73468786D01*
X199972404Y-73097357D02*
X200962880Y-73097357D01*
X202448594Y-72292595D02*
X203315261Y-72292595D01*
X202758118Y-73592595D01*
X204429546Y-72292595D02*
X203810499Y-72292595D01*
X203748594Y-72911643D01*
X203810499Y-72849738D01*
X203934308Y-72787833D01*
X204243832Y-72787833D01*
X204367642Y-72849738D01*
X204429546Y-72911643D01*
X204491451Y-73035452D01*
X204491451Y-73344976D01*
X204429546Y-73468786D01*
X204367642Y-73530690D01*
X204243832Y-73592595D01*
X203934308Y-73592595D01*
X203810499Y-73530690D01*
X203748594Y-73468786D01*
X205791451Y-73592595D02*
X205358118Y-72973548D01*
X205048594Y-73592595D02*
X205048594Y-72292595D01*
X205543832Y-72292595D01*
X205667641Y-72354500D01*
X205729546Y-72416405D01*
X205791451Y-72540214D01*
X205791451Y-72725929D01*
X205729546Y-72849738D01*
X205667641Y-72911643D01*
X205543832Y-72973548D01*
X205048594Y-72973548D01*
X186662881Y-75792595D02*
X186229548Y-75173548D01*
X185920024Y-75792595D02*
X185920024Y-74492595D01*
X186415262Y-74492595D01*
X186539071Y-74554500D01*
X186600976Y-74616405D01*
X186662881Y-74740214D01*
X186662881Y-74925929D01*
X186600976Y-75049738D01*
X186539071Y-75111643D01*
X186415262Y-75173548D01*
X185920024Y-75173548D01*
X187900976Y-75792595D02*
X187158119Y-75792595D01*
X187529548Y-75792595D02*
X187529548Y-74492595D01*
X187405738Y-74678310D01*
X187281929Y-74802119D01*
X187158119Y-74864024D01*
X188520024Y-75792595D02*
X188767643Y-75792595D01*
X188891452Y-75730690D01*
X188953357Y-75668786D01*
X189077166Y-75483071D01*
X189139071Y-75235452D01*
X189139071Y-74740214D01*
X189077166Y-74616405D01*
X189015262Y-74554500D01*
X188891452Y-74492595D01*
X188643833Y-74492595D01*
X188520024Y-74554500D01*
X188458119Y-74616405D01*
X188396214Y-74740214D01*
X188396214Y-75049738D01*
X188458119Y-75173548D01*
X188520024Y-75235452D01*
X188643833Y-75297357D01*
X188891452Y-75297357D01*
X189015262Y-75235452D01*
X189077166Y-75173548D01*
X189139071Y-75049738D01*
X189758119Y-75730690D02*
X189758119Y-75792595D01*
X189696214Y-75916405D01*
X189634309Y-75978310D01*
X190253357Y-74616405D02*
X190315262Y-74554500D01*
X190439071Y-74492595D01*
X190748595Y-74492595D01*
X190872405Y-74554500D01*
X190934309Y-74616405D01*
X190996214Y-74740214D01*
X190996214Y-74864024D01*
X190934309Y-75049738D01*
X190191452Y-75792595D01*
X190996214Y-75792595D01*
X191429547Y-74492595D02*
X192234309Y-74492595D01*
X191800976Y-74987833D01*
X191986690Y-74987833D01*
X192110500Y-75049738D01*
X192172404Y-75111643D01*
X192234309Y-75235452D01*
X192234309Y-75544976D01*
X192172404Y-75668786D01*
X192110500Y-75730690D01*
X191986690Y-75792595D01*
X191615262Y-75792595D01*
X191491452Y-75730690D01*
X191429547Y-75668786D01*
X193781928Y-75297357D02*
X194772404Y-75297357D01*
X196939071Y-74925929D02*
X196939071Y-75792595D01*
X196629547Y-74430690D02*
X196320023Y-75359262D01*
X197124785Y-75359262D01*
X197620023Y-75792595D02*
X197620023Y-74492595D01*
X198362880Y-75792595D02*
X197805737Y-75049738D01*
X198362880Y-74492595D02*
X197620023Y-75235452D01*
X198796213Y-74492595D02*
X199662880Y-74492595D01*
X199105737Y-75792595D01*
X186662881Y-77992595D02*
X186229548Y-77373548D01*
X185920024Y-77992595D02*
X185920024Y-76692595D01*
X186415262Y-76692595D01*
X186539071Y-76754500D01*
X186600976Y-76816405D01*
X186662881Y-76940214D01*
X186662881Y-77125929D01*
X186600976Y-77249738D01*
X186539071Y-77311643D01*
X186415262Y-77373548D01*
X185920024Y-77373548D01*
X187158119Y-76816405D02*
X187220024Y-76754500D01*
X187343833Y-76692595D01*
X187653357Y-76692595D01*
X187777167Y-76754500D01*
X187839071Y-76816405D01*
X187900976Y-76940214D01*
X187900976Y-77064024D01*
X187839071Y-77249738D01*
X187096214Y-77992595D01*
X187900976Y-77992595D01*
X188705738Y-76692595D02*
X188829547Y-76692595D01*
X188953357Y-76754500D01*
X189015262Y-76816405D01*
X189077166Y-76940214D01*
X189139071Y-77187833D01*
X189139071Y-77497357D01*
X189077166Y-77744976D01*
X189015262Y-77868786D01*
X188953357Y-77930690D01*
X188829547Y-77992595D01*
X188705738Y-77992595D01*
X188581928Y-77930690D01*
X188520024Y-77868786D01*
X188458119Y-77744976D01*
X188396214Y-77497357D01*
X188396214Y-77187833D01*
X188458119Y-76940214D01*
X188520024Y-76816405D01*
X188581928Y-76754500D01*
X188705738Y-76692595D01*
X189758119Y-77930690D02*
X189758119Y-77992595D01*
X189696214Y-78116405D01*
X189634309Y-78178310D01*
X190253357Y-76816405D02*
X190315262Y-76754500D01*
X190439071Y-76692595D01*
X190748595Y-76692595D01*
X190872405Y-76754500D01*
X190934309Y-76816405D01*
X190996214Y-76940214D01*
X190996214Y-77064024D01*
X190934309Y-77249738D01*
X190191452Y-77992595D01*
X190996214Y-77992595D01*
X191491452Y-76816405D02*
X191553357Y-76754500D01*
X191677166Y-76692595D01*
X191986690Y-76692595D01*
X192110500Y-76754500D01*
X192172404Y-76816405D01*
X192234309Y-76940214D01*
X192234309Y-77064024D01*
X192172404Y-77249738D01*
X191429547Y-77992595D01*
X192234309Y-77992595D01*
X192853357Y-77930690D02*
X192853357Y-77992595D01*
X192791452Y-78116405D01*
X192729547Y-78178310D01*
X193348595Y-76816405D02*
X193410500Y-76754500D01*
X193534309Y-76692595D01*
X193843833Y-76692595D01*
X193967643Y-76754500D01*
X194029547Y-76816405D01*
X194091452Y-76940214D01*
X194091452Y-77064024D01*
X194029547Y-77249738D01*
X193286690Y-77992595D01*
X194091452Y-77992595D01*
X195267642Y-76692595D02*
X194648595Y-76692595D01*
X194586690Y-77311643D01*
X194648595Y-77249738D01*
X194772404Y-77187833D01*
X195081928Y-77187833D01*
X195205738Y-77249738D01*
X195267642Y-77311643D01*
X195329547Y-77435452D01*
X195329547Y-77744976D01*
X195267642Y-77868786D01*
X195205738Y-77930690D01*
X195081928Y-77992595D01*
X194772404Y-77992595D01*
X194648595Y-77930690D01*
X194586690Y-77868786D01*
X195948595Y-77930690D02*
X195948595Y-77992595D01*
X195886690Y-78116405D01*
X195824785Y-78178310D01*
X196443833Y-76816405D02*
X196505738Y-76754500D01*
X196629547Y-76692595D01*
X196939071Y-76692595D01*
X197062881Y-76754500D01*
X197124785Y-76816405D01*
X197186690Y-76940214D01*
X197186690Y-77064024D01*
X197124785Y-77249738D01*
X196381928Y-77992595D01*
X197186690Y-77992595D01*
X197620023Y-76692595D02*
X198486690Y-76692595D01*
X197929547Y-77992595D01*
X199972404Y-77497357D02*
X200962880Y-77497357D01*
X203253356Y-77992595D02*
X202510499Y-77992595D01*
X202881928Y-77992595D02*
X202881928Y-76692595D01*
X202758118Y-76878310D01*
X202634309Y-77002119D01*
X202510499Y-77064024D01*
X204058118Y-76692595D02*
X204181927Y-76692595D01*
X204305737Y-76754500D01*
X204367642Y-76816405D01*
X204429546Y-76940214D01*
X204491451Y-77187833D01*
X204491451Y-77497357D01*
X204429546Y-77744976D01*
X204367642Y-77868786D01*
X204305737Y-77930690D01*
X204181927Y-77992595D01*
X204058118Y-77992595D01*
X203934308Y-77930690D01*
X203872404Y-77868786D01*
X203810499Y-77744976D01*
X203748594Y-77497357D01*
X203748594Y-77187833D01*
X203810499Y-76940214D01*
X203872404Y-76816405D01*
X203934308Y-76754500D01*
X204058118Y-76692595D01*
X205296213Y-76692595D02*
X205420022Y-76692595D01*
X205543832Y-76754500D01*
X205605737Y-76816405D01*
X205667641Y-76940214D01*
X205729546Y-77187833D01*
X205729546Y-77497357D01*
X205667641Y-77744976D01*
X205605737Y-77868786D01*
X205543832Y-77930690D01*
X205420022Y-77992595D01*
X205296213Y-77992595D01*
X205172403Y-77930690D01*
X205110499Y-77868786D01*
X205048594Y-77744976D01*
X204986689Y-77497357D01*
X204986689Y-77187833D01*
X205048594Y-76940214D01*
X205110499Y-76816405D01*
X205172403Y-76754500D01*
X205296213Y-76692595D01*
X206286689Y-77992595D02*
X206286689Y-76692595D01*
X207029546Y-77992595D02*
X206472403Y-77249738D01*
X207029546Y-76692595D02*
X206286689Y-77435452D01*
X186662881Y-80192595D02*
X186229548Y-79573548D01*
X185920024Y-80192595D02*
X185920024Y-78892595D01*
X186415262Y-78892595D01*
X186539071Y-78954500D01*
X186600976Y-79016405D01*
X186662881Y-79140214D01*
X186662881Y-79325929D01*
X186600976Y-79449738D01*
X186539071Y-79511643D01*
X186415262Y-79573548D01*
X185920024Y-79573548D01*
X187158119Y-79016405D02*
X187220024Y-78954500D01*
X187343833Y-78892595D01*
X187653357Y-78892595D01*
X187777167Y-78954500D01*
X187839071Y-79016405D01*
X187900976Y-79140214D01*
X187900976Y-79264024D01*
X187839071Y-79449738D01*
X187096214Y-80192595D01*
X187900976Y-80192595D01*
X189139071Y-80192595D02*
X188396214Y-80192595D01*
X188767643Y-80192595D02*
X188767643Y-78892595D01*
X188643833Y-79078310D01*
X188520024Y-79202119D01*
X188396214Y-79264024D01*
X189758119Y-80130690D02*
X189758119Y-80192595D01*
X189696214Y-80316405D01*
X189634309Y-80378310D01*
X190253357Y-79016405D02*
X190315262Y-78954500D01*
X190439071Y-78892595D01*
X190748595Y-78892595D01*
X190872405Y-78954500D01*
X190934309Y-79016405D01*
X190996214Y-79140214D01*
X190996214Y-79264024D01*
X190934309Y-79449738D01*
X190191452Y-80192595D01*
X190996214Y-80192595D01*
X192110500Y-79325929D02*
X192110500Y-80192595D01*
X191800976Y-78830690D02*
X191491452Y-79759262D01*
X192296214Y-79759262D01*
X192853357Y-80130690D02*
X192853357Y-80192595D01*
X192791452Y-80316405D01*
X192729547Y-80378310D01*
X193348595Y-79016405D02*
X193410500Y-78954500D01*
X193534309Y-78892595D01*
X193843833Y-78892595D01*
X193967643Y-78954500D01*
X194029547Y-79016405D01*
X194091452Y-79140214D01*
X194091452Y-79264024D01*
X194029547Y-79449738D01*
X193286690Y-80192595D01*
X194091452Y-80192595D01*
X195205738Y-78892595D02*
X194958119Y-78892595D01*
X194834309Y-78954500D01*
X194772404Y-79016405D01*
X194648595Y-79202119D01*
X194586690Y-79449738D01*
X194586690Y-79944976D01*
X194648595Y-80068786D01*
X194710500Y-80130690D01*
X194834309Y-80192595D01*
X195081928Y-80192595D01*
X195205738Y-80130690D01*
X195267642Y-80068786D01*
X195329547Y-79944976D01*
X195329547Y-79635452D01*
X195267642Y-79511643D01*
X195205738Y-79449738D01*
X195081928Y-79387833D01*
X194834309Y-79387833D01*
X194710500Y-79449738D01*
X194648595Y-79511643D01*
X194586690Y-79635452D01*
X195948595Y-80130690D02*
X195948595Y-80192595D01*
X195886690Y-80316405D01*
X195824785Y-80378310D01*
X196443833Y-79016405D02*
X196505738Y-78954500D01*
X196629547Y-78892595D01*
X196939071Y-78892595D01*
X197062881Y-78954500D01*
X197124785Y-79016405D01*
X197186690Y-79140214D01*
X197186690Y-79264024D01*
X197124785Y-79449738D01*
X196381928Y-80192595D01*
X197186690Y-80192595D01*
X197929547Y-79449738D02*
X197805738Y-79387833D01*
X197743833Y-79325929D01*
X197681928Y-79202119D01*
X197681928Y-79140214D01*
X197743833Y-79016405D01*
X197805738Y-78954500D01*
X197929547Y-78892595D01*
X198177166Y-78892595D01*
X198300976Y-78954500D01*
X198362880Y-79016405D01*
X198424785Y-79140214D01*
X198424785Y-79202119D01*
X198362880Y-79325929D01*
X198300976Y-79387833D01*
X198177166Y-79449738D01*
X197929547Y-79449738D01*
X197805738Y-79511643D01*
X197743833Y-79573548D01*
X197681928Y-79697357D01*
X197681928Y-79944976D01*
X197743833Y-80068786D01*
X197805738Y-80130690D01*
X197929547Y-80192595D01*
X198177166Y-80192595D01*
X198300976Y-80130690D01*
X198362880Y-80068786D01*
X198424785Y-79944976D01*
X198424785Y-79697357D01*
X198362880Y-79573548D01*
X198300976Y-79511643D01*
X198177166Y-79449738D01*
X199972404Y-79697357D02*
X200962880Y-79697357D01*
X203253356Y-80192595D02*
X202510499Y-80192595D01*
X202881928Y-80192595D02*
X202881928Y-78892595D01*
X202758118Y-79078310D01*
X202634309Y-79202119D01*
X202510499Y-79264024D01*
X204058118Y-78892595D02*
X204181927Y-78892595D01*
X204305737Y-78954500D01*
X204367642Y-79016405D01*
X204429546Y-79140214D01*
X204491451Y-79387833D01*
X204491451Y-79697357D01*
X204429546Y-79944976D01*
X204367642Y-80068786D01*
X204305737Y-80130690D01*
X204181927Y-80192595D01*
X204058118Y-80192595D01*
X203934308Y-80130690D01*
X203872404Y-80068786D01*
X203810499Y-79944976D01*
X203748594Y-79697357D01*
X203748594Y-79387833D01*
X203810499Y-79140214D01*
X203872404Y-79016405D01*
X203934308Y-78954500D01*
X204058118Y-78892595D01*
X205296213Y-78892595D02*
X205420022Y-78892595D01*
X205543832Y-78954500D01*
X205605737Y-79016405D01*
X205667641Y-79140214D01*
X205729546Y-79387833D01*
X205729546Y-79697357D01*
X205667641Y-79944976D01*
X205605737Y-80068786D01*
X205543832Y-80130690D01*
X205420022Y-80192595D01*
X205296213Y-80192595D01*
X205172403Y-80130690D01*
X205110499Y-80068786D01*
X205048594Y-79944976D01*
X204986689Y-79697357D01*
X204986689Y-79387833D01*
X205048594Y-79140214D01*
X205110499Y-79016405D01*
X205172403Y-78954500D01*
X205296213Y-78892595D01*
X207029546Y-80192595D02*
X206596213Y-79573548D01*
X206286689Y-80192595D02*
X206286689Y-78892595D01*
X206781927Y-78892595D01*
X206905736Y-78954500D01*
X206967641Y-79016405D01*
X207029546Y-79140214D01*
X207029546Y-79325929D01*
X206967641Y-79449738D01*
X206905736Y-79511643D01*
X206781927Y-79573548D01*
X206286689Y-79573548D01*
X185858119Y-82021167D02*
X186477167Y-82021167D01*
X185734310Y-82392595D02*
X186167643Y-81092595D01*
X186600976Y-82392595D01*
X187220024Y-82392595D02*
X187096215Y-82330690D01*
X187034310Y-82206881D01*
X187034310Y-81092595D01*
X187900976Y-82392595D02*
X187777167Y-82330690D01*
X187715262Y-82206881D01*
X187715262Y-81092595D01*
X189634309Y-81092595D02*
X189758118Y-81092595D01*
X189881928Y-81154500D01*
X189943833Y-81216405D01*
X190005737Y-81340214D01*
X190067642Y-81587833D01*
X190067642Y-81897357D01*
X190005737Y-82144976D01*
X189943833Y-82268786D01*
X189881928Y-82330690D01*
X189758118Y-82392595D01*
X189634309Y-82392595D01*
X189510499Y-82330690D01*
X189448595Y-82268786D01*
X189386690Y-82144976D01*
X189324785Y-81897357D01*
X189324785Y-81587833D01*
X189386690Y-81340214D01*
X189448595Y-81216405D01*
X189510499Y-81154500D01*
X189634309Y-81092595D01*
X190810499Y-81649738D02*
X190686690Y-81587833D01*
X190624785Y-81525929D01*
X190562880Y-81402119D01*
X190562880Y-81340214D01*
X190624785Y-81216405D01*
X190686690Y-81154500D01*
X190810499Y-81092595D01*
X191058118Y-81092595D01*
X191181928Y-81154500D01*
X191243832Y-81216405D01*
X191305737Y-81340214D01*
X191305737Y-81402119D01*
X191243832Y-81525929D01*
X191181928Y-81587833D01*
X191058118Y-81649738D01*
X190810499Y-81649738D01*
X190686690Y-81711643D01*
X190624785Y-81773548D01*
X190562880Y-81897357D01*
X190562880Y-82144976D01*
X190624785Y-82268786D01*
X190686690Y-82330690D01*
X190810499Y-82392595D01*
X191058118Y-82392595D01*
X191181928Y-82330690D01*
X191243832Y-82268786D01*
X191305737Y-82144976D01*
X191305737Y-81897357D01*
X191243832Y-81773548D01*
X191181928Y-81711643D01*
X191058118Y-81649738D01*
X192110499Y-81092595D02*
X192234308Y-81092595D01*
X192358118Y-81154500D01*
X192420023Y-81216405D01*
X192481927Y-81340214D01*
X192543832Y-81587833D01*
X192543832Y-81897357D01*
X192481927Y-82144976D01*
X192420023Y-82268786D01*
X192358118Y-82330690D01*
X192234308Y-82392595D01*
X192110499Y-82392595D01*
X191986689Y-82330690D01*
X191924785Y-82268786D01*
X191862880Y-82144976D01*
X191800975Y-81897357D01*
X191800975Y-81587833D01*
X191862880Y-81340214D01*
X191924785Y-81216405D01*
X191986689Y-81154500D01*
X192110499Y-81092595D01*
X193720022Y-81092595D02*
X193100975Y-81092595D01*
X193039070Y-81711643D01*
X193100975Y-81649738D01*
X193224784Y-81587833D01*
X193534308Y-81587833D01*
X193658118Y-81649738D01*
X193720022Y-81711643D01*
X193781927Y-81835452D01*
X193781927Y-82144976D01*
X193720022Y-82268786D01*
X193658118Y-82330690D01*
X193534308Y-82392595D01*
X193224784Y-82392595D01*
X193100975Y-82330690D01*
X193039070Y-82268786D01*
X195267641Y-82330690D02*
X195391451Y-82392595D01*
X195639070Y-82392595D01*
X195762879Y-82330690D01*
X195824784Y-82206881D01*
X195824784Y-82144976D01*
X195762879Y-82021167D01*
X195639070Y-81959262D01*
X195453355Y-81959262D01*
X195329546Y-81897357D01*
X195267641Y-81773548D01*
X195267641Y-81711643D01*
X195329546Y-81587833D01*
X195453355Y-81525929D01*
X195639070Y-81525929D01*
X195762879Y-81587833D01*
X196381927Y-82392595D02*
X196381927Y-81525929D01*
X196381927Y-81092595D02*
X196320022Y-81154500D01*
X196381927Y-81216405D01*
X196443832Y-81154500D01*
X196381927Y-81092595D01*
X196381927Y-81216405D01*
X196877165Y-81525929D02*
X197558118Y-81525929D01*
X196877165Y-82392595D01*
X197558118Y-82392595D01*
X198548594Y-82330690D02*
X198424784Y-82392595D01*
X198177165Y-82392595D01*
X198053356Y-82330690D01*
X197991451Y-82206881D01*
X197991451Y-81711643D01*
X198053356Y-81587833D01*
X198177165Y-81525929D01*
X198424784Y-81525929D01*
X198548594Y-81587833D01*
X198610499Y-81711643D01*
X198610499Y-81835452D01*
X197991451Y-81959262D01*
X136936124Y-65992495D02*
X136936124Y-67044876D01*
X136998029Y-67168686D01*
X137059933Y-67230590D01*
X137183743Y-67292495D01*
X137431362Y-67292495D01*
X137555171Y-67230590D01*
X137617076Y-67168686D01*
X137678981Y-67044876D01*
X137678981Y-65992495D01*
X138978981Y-67292495D02*
X138236124Y-67292495D01*
X138607553Y-67292495D02*
X138607553Y-65992495D01*
X138483743Y-66178210D01*
X138359934Y-66302019D01*
X138236124Y-66363924D01*
X140526600Y-66797257D02*
X141517076Y-66797257D01*
X143064695Y-66921067D02*
X143683743Y-66921067D01*
X142940886Y-67292495D02*
X143374219Y-65992495D01*
X143807552Y-67292495D01*
X144240886Y-67292495D02*
X144240886Y-65992495D01*
X144550410Y-65992495D01*
X144736124Y-66054400D01*
X144859933Y-66178210D01*
X144921838Y-66302019D01*
X144983743Y-66549638D01*
X144983743Y-66735352D01*
X144921838Y-66982971D01*
X144859933Y-67106781D01*
X144736124Y-67230590D01*
X144550410Y-67292495D01*
X144240886Y-67292495D01*
X146221838Y-66054400D02*
X146098029Y-65992495D01*
X145912314Y-65992495D01*
X145726600Y-66054400D01*
X145602791Y-66178210D01*
X145540886Y-66302019D01*
X145478981Y-66549638D01*
X145478981Y-66735352D01*
X145540886Y-66982971D01*
X145602791Y-67106781D01*
X145726600Y-67230590D01*
X145912314Y-67292495D01*
X146036124Y-67292495D01*
X146221838Y-67230590D01*
X146283743Y-67168686D01*
X146283743Y-66735352D01*
X146036124Y-66735352D01*
X147521838Y-67292495D02*
X146778981Y-67292495D01*
X147150410Y-67292495D02*
X147150410Y-65992495D01*
X147026600Y-66178210D01*
X146902791Y-66302019D01*
X146778981Y-66363924D01*
X148636124Y-65992495D02*
X148388505Y-65992495D01*
X148264695Y-66054400D01*
X148202790Y-66116305D01*
X148078981Y-66302019D01*
X148017076Y-66549638D01*
X148017076Y-67044876D01*
X148078981Y-67168686D01*
X148140886Y-67230590D01*
X148264695Y-67292495D01*
X148512314Y-67292495D01*
X148636124Y-67230590D01*
X148698028Y-67168686D01*
X148759933Y-67044876D01*
X148759933Y-66735352D01*
X148698028Y-66611543D01*
X148636124Y-66549638D01*
X148512314Y-66487733D01*
X148264695Y-66487733D01*
X148140886Y-66549638D01*
X148078981Y-66611543D01*
X148017076Y-66735352D01*
X149998028Y-67292495D02*
X149255171Y-67292495D01*
X149626600Y-67292495D02*
X149626600Y-65992495D01*
X149502790Y-66178210D01*
X149378981Y-66302019D01*
X149255171Y-66363924D01*
X151236123Y-67292495D02*
X150493266Y-67292495D01*
X150864695Y-67292495D02*
X150864695Y-65992495D01*
X150740885Y-66178210D01*
X150617076Y-66302019D01*
X150493266Y-66363924D01*
X136936124Y-68192495D02*
X136936124Y-69244876D01*
X136998029Y-69368686D01*
X137059933Y-69430590D01*
X137183743Y-69492495D01*
X137431362Y-69492495D01*
X137555171Y-69430590D01*
X137617076Y-69368686D01*
X137678981Y-69244876D01*
X137678981Y-68192495D01*
X138236124Y-68316305D02*
X138298029Y-68254400D01*
X138421838Y-68192495D01*
X138731362Y-68192495D01*
X138855172Y-68254400D01*
X138917076Y-68316305D01*
X138978981Y-68440114D01*
X138978981Y-68563924D01*
X138917076Y-68749638D01*
X138174219Y-69492495D01*
X138978981Y-69492495D01*
X140526600Y-68997257D02*
X141517076Y-68997257D01*
X142940886Y-68192495D02*
X143683743Y-68192495D01*
X143312314Y-69492495D02*
X143312314Y-68192495D01*
X144117076Y-69492495D02*
X144117076Y-68192495D01*
X144117076Y-68811543D02*
X144859933Y-68811543D01*
X144859933Y-69492495D02*
X144859933Y-68192495D01*
X145417076Y-69430590D02*
X145602790Y-69492495D01*
X145912314Y-69492495D01*
X146036124Y-69430590D01*
X146098028Y-69368686D01*
X146159933Y-69244876D01*
X146159933Y-69121067D01*
X146098028Y-68997257D01*
X146036124Y-68935352D01*
X145912314Y-68873448D01*
X145664695Y-68811543D01*
X145540886Y-68749638D01*
X145478981Y-68687733D01*
X145417076Y-68563924D01*
X145417076Y-68440114D01*
X145478981Y-68316305D01*
X145540886Y-68254400D01*
X145664695Y-68192495D01*
X145974219Y-68192495D01*
X146159933Y-68254400D01*
X146593266Y-68192495D02*
X147459933Y-68192495D01*
X146902790Y-69492495D01*
X147831361Y-68192495D02*
X148636123Y-68192495D01*
X148202790Y-68687733D01*
X148388504Y-68687733D01*
X148512314Y-68749638D01*
X148574218Y-68811543D01*
X148636123Y-68935352D01*
X148636123Y-69244876D01*
X148574218Y-69368686D01*
X148512314Y-69430590D01*
X148388504Y-69492495D01*
X148017076Y-69492495D01*
X147893266Y-69430590D01*
X147831361Y-69368686D01*
X149069456Y-68192495D02*
X149936123Y-68192495D01*
X149378980Y-69492495D01*
X150988504Y-68625829D02*
X150988504Y-69492495D01*
X150678980Y-68130590D02*
X150369456Y-69059162D01*
X151174218Y-69059162D01*
X136936124Y-70392495D02*
X136936124Y-71444876D01*
X136998029Y-71568686D01*
X137059933Y-71630590D01*
X137183743Y-71692495D01*
X137431362Y-71692495D01*
X137555171Y-71630590D01*
X137617076Y-71568686D01*
X137678981Y-71444876D01*
X137678981Y-70392495D01*
X138174219Y-70392495D02*
X138978981Y-70392495D01*
X138545648Y-70887733D01*
X138731362Y-70887733D01*
X138855172Y-70949638D01*
X138917076Y-71011543D01*
X138978981Y-71135352D01*
X138978981Y-71444876D01*
X138917076Y-71568686D01*
X138855172Y-71630590D01*
X138731362Y-71692495D01*
X138359934Y-71692495D01*
X138236124Y-71630590D01*
X138174219Y-71568686D01*
X140526600Y-71197257D02*
X141517076Y-71197257D01*
X143064695Y-71321067D02*
X143683743Y-71321067D01*
X142940886Y-71692495D02*
X143374219Y-70392495D01*
X143807552Y-71692495D01*
X144240886Y-71692495D02*
X144240886Y-70825829D01*
X144240886Y-71073448D02*
X144302791Y-70949638D01*
X144364695Y-70887733D01*
X144488505Y-70825829D01*
X144612314Y-70825829D01*
X145602791Y-71692495D02*
X145602791Y-70392495D01*
X145602791Y-71630590D02*
X145478981Y-71692495D01*
X145231362Y-71692495D01*
X145107553Y-71630590D01*
X145045648Y-71568686D01*
X144983743Y-71444876D01*
X144983743Y-71073448D01*
X145045648Y-70949638D01*
X145107553Y-70887733D01*
X145231362Y-70825829D01*
X145478981Y-70825829D01*
X145602791Y-70887733D01*
X146778981Y-70825829D02*
X146778981Y-71692495D01*
X146221838Y-70825829D02*
X146221838Y-71506781D01*
X146283743Y-71630590D01*
X146407552Y-71692495D01*
X146593266Y-71692495D01*
X146717076Y-71630590D01*
X146778981Y-71568686D01*
X147398028Y-71692495D02*
X147398028Y-70825829D01*
X147398028Y-70392495D02*
X147336123Y-70454400D01*
X147398028Y-70516305D01*
X147459933Y-70454400D01*
X147398028Y-70392495D01*
X147398028Y-70516305D01*
X148017076Y-70825829D02*
X148017076Y-71692495D01*
X148017076Y-70949638D02*
X148078981Y-70887733D01*
X148202790Y-70825829D01*
X148388504Y-70825829D01*
X148512314Y-70887733D01*
X148574219Y-71011543D01*
X148574219Y-71692495D01*
X149378980Y-71692495D02*
X149255171Y-71630590D01*
X149193266Y-71568686D01*
X149131361Y-71444876D01*
X149131361Y-71073448D01*
X149193266Y-70949638D01*
X149255171Y-70887733D01*
X149378980Y-70825829D01*
X149564694Y-70825829D01*
X149688504Y-70887733D01*
X149750409Y-70949638D01*
X149812313Y-71073448D01*
X149812313Y-71444876D01*
X149750409Y-71568686D01*
X149688504Y-71630590D01*
X149564694Y-71692495D01*
X149378980Y-71692495D01*
X151359932Y-71692495D02*
X151359932Y-70392495D01*
X152102789Y-71692495D01*
X152102789Y-70392495D01*
X153278980Y-71692495D02*
X153278980Y-71011543D01*
X153217075Y-70887733D01*
X153093265Y-70825829D01*
X152845646Y-70825829D01*
X152721837Y-70887733D01*
X153278980Y-71630590D02*
X153155170Y-71692495D01*
X152845646Y-71692495D01*
X152721837Y-71630590D01*
X152659932Y-71506781D01*
X152659932Y-71382971D01*
X152721837Y-71259162D01*
X152845646Y-71197257D01*
X153155170Y-71197257D01*
X153278980Y-71135352D01*
X153898027Y-70825829D02*
X153898027Y-71692495D01*
X153898027Y-70949638D02*
X153959932Y-70887733D01*
X154083741Y-70825829D01*
X154269455Y-70825829D01*
X154393265Y-70887733D01*
X154455170Y-71011543D01*
X154455170Y-71692495D01*
X155259931Y-71692495D02*
X155136122Y-71630590D01*
X155074217Y-71568686D01*
X155012312Y-71444876D01*
X155012312Y-71073448D01*
X155074217Y-70949638D01*
X155136122Y-70887733D01*
X155259931Y-70825829D01*
X155445645Y-70825829D01*
X155569455Y-70887733D01*
X155631360Y-70949638D01*
X155693264Y-71073448D01*
X155693264Y-71444876D01*
X155631360Y-71568686D01*
X155569455Y-71630590D01*
X155445645Y-71692495D01*
X155259931Y-71692495D01*
X157117073Y-70825829D02*
X157426597Y-71692495D01*
X157736121Y-70825829D01*
X158107549Y-70392495D02*
X158912311Y-70392495D01*
X158478978Y-70887733D01*
X158664692Y-70887733D01*
X158788502Y-70949638D01*
X158850406Y-71011543D01*
X158912311Y-71135352D01*
X158912311Y-71444876D01*
X158850406Y-71568686D01*
X158788502Y-71630590D01*
X158664692Y-71692495D01*
X158293264Y-71692495D01*
X158169454Y-71630590D01*
X158107549Y-71568686D01*
X136936124Y-72592495D02*
X136936124Y-73644876D01*
X136998029Y-73768686D01*
X137059933Y-73830590D01*
X137183743Y-73892495D01*
X137431362Y-73892495D01*
X137555171Y-73830590D01*
X137617076Y-73768686D01*
X137678981Y-73644876D01*
X137678981Y-72592495D01*
X138855172Y-73025829D02*
X138855172Y-73892495D01*
X138545648Y-72530590D02*
X138236124Y-73459162D01*
X139040886Y-73459162D01*
X140526600Y-73397257D02*
X141517076Y-73397257D01*
X143002790Y-72592495D02*
X143869457Y-72592495D01*
X143312314Y-73892495D01*
X144921838Y-73025829D02*
X144921838Y-73892495D01*
X144612314Y-72530590D02*
X144302790Y-73459162D01*
X145107552Y-73459162D01*
X145417076Y-72592495D02*
X145850409Y-73892495D01*
X146283742Y-72592495D01*
X146717076Y-73892495D02*
X146717076Y-72592495D01*
X146717076Y-73211543D02*
X147459933Y-73211543D01*
X147459933Y-73892495D02*
X147459933Y-72592495D01*
X148821838Y-73768686D02*
X148759933Y-73830590D01*
X148574219Y-73892495D01*
X148450409Y-73892495D01*
X148264695Y-73830590D01*
X148140886Y-73706781D01*
X148078981Y-73582971D01*
X148017076Y-73335352D01*
X148017076Y-73149638D01*
X148078981Y-72902019D01*
X148140886Y-72778210D01*
X148264695Y-72654400D01*
X148450409Y-72592495D01*
X148574219Y-72592495D01*
X148759933Y-72654400D01*
X148821838Y-72716305D01*
X150059933Y-73892495D02*
X149317076Y-73892495D01*
X149688505Y-73892495D02*
X149688505Y-72592495D01*
X149564695Y-72778210D01*
X149440886Y-72902019D01*
X149317076Y-72963924D01*
X150555171Y-72716305D02*
X150617076Y-72654400D01*
X150740885Y-72592495D01*
X151050409Y-72592495D01*
X151174219Y-72654400D01*
X151236123Y-72716305D01*
X151298028Y-72840114D01*
X151298028Y-72963924D01*
X151236123Y-73149638D01*
X150493266Y-73892495D01*
X151298028Y-73892495D01*
X152474218Y-72592495D02*
X151855171Y-72592495D01*
X151793266Y-73211543D01*
X151855171Y-73149638D01*
X151978980Y-73087733D01*
X152288504Y-73087733D01*
X152412314Y-73149638D01*
X152474218Y-73211543D01*
X152536123Y-73335352D01*
X152536123Y-73644876D01*
X152474218Y-73768686D01*
X152412314Y-73830590D01*
X152288504Y-73892495D01*
X151978980Y-73892495D01*
X151855171Y-73830590D01*
X151793266Y-73768686D01*
X136936124Y-74792495D02*
X136936124Y-75844876D01*
X136998029Y-75968686D01*
X137059933Y-76030590D01*
X137183743Y-76092495D01*
X137431362Y-76092495D01*
X137555171Y-76030590D01*
X137617076Y-75968686D01*
X137678981Y-75844876D01*
X137678981Y-74792495D01*
X138917076Y-74792495D02*
X138298029Y-74792495D01*
X138236124Y-75411543D01*
X138298029Y-75349638D01*
X138421838Y-75287733D01*
X138731362Y-75287733D01*
X138855172Y-75349638D01*
X138917076Y-75411543D01*
X138978981Y-75535352D01*
X138978981Y-75844876D01*
X138917076Y-75968686D01*
X138855172Y-76030590D01*
X138731362Y-76092495D01*
X138421838Y-76092495D01*
X138298029Y-76030590D01*
X138236124Y-75968686D01*
X140526600Y-75597257D02*
X141517076Y-75597257D01*
X143126600Y-76092495D02*
X143126600Y-74792495D01*
X143559933Y-75721067D01*
X143993266Y-74792495D01*
X143993266Y-76092495D01*
X144612314Y-76092495D02*
X144612314Y-74792495D01*
X145974219Y-75968686D02*
X145912314Y-76030590D01*
X145726600Y-76092495D01*
X145602790Y-76092495D01*
X145417076Y-76030590D01*
X145293267Y-75906781D01*
X145231362Y-75782971D01*
X145169457Y-75535352D01*
X145169457Y-75349638D01*
X145231362Y-75102019D01*
X145293267Y-74978210D01*
X145417076Y-74854400D01*
X145602790Y-74792495D01*
X145726600Y-74792495D01*
X145912314Y-74854400D01*
X145974219Y-74916305D01*
X146407552Y-74792495D02*
X147212314Y-74792495D01*
X146778981Y-75287733D01*
X146964695Y-75287733D01*
X147088505Y-75349638D01*
X147150409Y-75411543D01*
X147212314Y-75535352D01*
X147212314Y-75844876D01*
X147150409Y-75968686D01*
X147088505Y-76030590D01*
X146964695Y-76092495D01*
X146593267Y-76092495D01*
X146469457Y-76030590D01*
X146407552Y-75968686D01*
X148326600Y-75225829D02*
X148326600Y-76092495D01*
X148017076Y-74730590D02*
X147707552Y-75659162D01*
X148512314Y-75659162D01*
X149069457Y-76092495D02*
X149317076Y-76092495D01*
X149440885Y-76030590D01*
X149502790Y-75968686D01*
X149626599Y-75782971D01*
X149688504Y-75535352D01*
X149688504Y-75040114D01*
X149626599Y-74916305D01*
X149564695Y-74854400D01*
X149440885Y-74792495D01*
X149193266Y-74792495D01*
X149069457Y-74854400D01*
X149007552Y-74916305D01*
X148945647Y-75040114D01*
X148945647Y-75349638D01*
X149007552Y-75473448D01*
X149069457Y-75535352D01*
X149193266Y-75597257D01*
X149440885Y-75597257D01*
X149564695Y-75535352D01*
X149626599Y-75473448D01*
X149688504Y-75349638D01*
X150493266Y-74792495D02*
X150617075Y-74792495D01*
X150740885Y-74854400D01*
X150802790Y-74916305D01*
X150864694Y-75040114D01*
X150926599Y-75287733D01*
X150926599Y-75597257D01*
X150864694Y-75844876D01*
X150802790Y-75968686D01*
X150740885Y-76030590D01*
X150617075Y-76092495D01*
X150493266Y-76092495D01*
X150369456Y-76030590D01*
X150307552Y-75968686D01*
X150245647Y-75844876D01*
X150183742Y-75597257D01*
X150183742Y-75287733D01*
X150245647Y-75040114D01*
X150307552Y-74916305D01*
X150369456Y-74854400D01*
X150493266Y-74792495D01*
X151483742Y-75597257D02*
X152474218Y-75597257D01*
X152969456Y-74792495D02*
X153774218Y-74792495D01*
X153340885Y-75287733D01*
X153526599Y-75287733D01*
X153650409Y-75349638D01*
X153712313Y-75411543D01*
X153774218Y-75535352D01*
X153774218Y-75844876D01*
X153712313Y-75968686D01*
X153650409Y-76030590D01*
X153526599Y-76092495D01*
X153155171Y-76092495D01*
X153031361Y-76030590D01*
X152969456Y-75968686D01*
X154331361Y-75968686D02*
X154393266Y-76030590D01*
X154331361Y-76092495D01*
X154269456Y-76030590D01*
X154331361Y-75968686D01*
X154331361Y-76092495D01*
X154826599Y-74792495D02*
X155631361Y-74792495D01*
X155198028Y-75287733D01*
X155383742Y-75287733D01*
X155507552Y-75349638D01*
X155569456Y-75411543D01*
X155631361Y-75535352D01*
X155631361Y-75844876D01*
X155569456Y-75968686D01*
X155507552Y-76030590D01*
X155383742Y-76092495D01*
X155012314Y-76092495D01*
X154888504Y-76030590D01*
X154826599Y-75968686D01*
X137802790Y-78416305D02*
X137678981Y-78354400D01*
X137555171Y-78230590D01*
X137369457Y-78044876D01*
X137245648Y-77982971D01*
X137121838Y-77982971D01*
X137183743Y-78292495D02*
X137059933Y-78230590D01*
X136936124Y-78106781D01*
X136874219Y-77859162D01*
X136874219Y-77425829D01*
X136936124Y-77178210D01*
X137059933Y-77054400D01*
X137183743Y-76992495D01*
X137431362Y-76992495D01*
X137555171Y-77054400D01*
X137678981Y-77178210D01*
X137740886Y-77425829D01*
X137740886Y-77859162D01*
X137678981Y-78106781D01*
X137555171Y-78230590D01*
X137431362Y-78292495D01*
X137183743Y-78292495D01*
X138978981Y-78292495D02*
X138236124Y-78292495D01*
X138607553Y-78292495D02*
X138607553Y-76992495D01*
X138483743Y-77178210D01*
X138359934Y-77302019D01*
X138236124Y-77363924D01*
X140526600Y-77797257D02*
X141517076Y-77797257D01*
X143126600Y-78292495D02*
X143126600Y-76992495D01*
X143436124Y-76992495D01*
X143621838Y-77054400D01*
X143745647Y-77178210D01*
X143807552Y-77302019D01*
X143869457Y-77549638D01*
X143869457Y-77735352D01*
X143807552Y-77982971D01*
X143745647Y-78106781D01*
X143621838Y-78230590D01*
X143436124Y-78292495D01*
X143126600Y-78292495D01*
X144240886Y-76992495D02*
X144983743Y-76992495D01*
X144612314Y-78292495D02*
X144612314Y-76992495D01*
X146159933Y-78168686D02*
X146098028Y-78230590D01*
X145912314Y-78292495D01*
X145788504Y-78292495D01*
X145602790Y-78230590D01*
X145478981Y-78106781D01*
X145417076Y-77982971D01*
X145355171Y-77735352D01*
X145355171Y-77549638D01*
X145417076Y-77302019D01*
X145478981Y-77178210D01*
X145602790Y-77054400D01*
X145788504Y-76992495D01*
X145912314Y-76992495D01*
X146098028Y-77054400D01*
X146159933Y-77116305D01*
X147398028Y-78292495D02*
X146655171Y-78292495D01*
X147026600Y-78292495D02*
X147026600Y-76992495D01*
X146902790Y-77178210D01*
X146778981Y-77302019D01*
X146655171Y-77363924D01*
X148512314Y-77425829D02*
X148512314Y-78292495D01*
X148202790Y-76930590D02*
X147893266Y-77859162D01*
X148698028Y-77859162D01*
X149750409Y-77425829D02*
X149750409Y-78292495D01*
X149440885Y-76930590D02*
X149131361Y-77859162D01*
X149936123Y-77859162D01*
X150431361Y-77611543D02*
X150864694Y-77611543D01*
X151050408Y-78292495D02*
X150431361Y-78292495D01*
X150431361Y-76992495D01*
X151050408Y-76992495D01*
X151607551Y-78292495D02*
X151607551Y-76992495D01*
X152350408Y-78292495D02*
X151793265Y-77549638D01*
X152350408Y-76992495D02*
X151607551Y-77735352D01*
X152845646Y-77921067D02*
X153464694Y-77921067D01*
X152721837Y-78292495D02*
X153155170Y-76992495D01*
X153588503Y-78292495D01*
X136936124Y-79192495D02*
X136936124Y-80244876D01*
X136998029Y-80368686D01*
X137059933Y-80430590D01*
X137183743Y-80492495D01*
X137431362Y-80492495D01*
X137555171Y-80430590D01*
X137617076Y-80368686D01*
X137678981Y-80244876D01*
X137678981Y-79192495D01*
X138978981Y-80492495D02*
X138236124Y-80492495D01*
X138607553Y-80492495D02*
X138607553Y-79192495D01*
X138483743Y-79378210D01*
X138359934Y-79502019D01*
X138236124Y-79563924D01*
X140464695Y-79130590D02*
X139350410Y-80802019D01*
X140836124Y-79316305D02*
X140898029Y-79254400D01*
X141021838Y-79192495D01*
X141331362Y-79192495D01*
X141455172Y-79254400D01*
X141517076Y-79316305D01*
X141578981Y-79440114D01*
X141578981Y-79563924D01*
X141517076Y-79749638D01*
X140774219Y-80492495D01*
X141578981Y-80492495D01*
X143064695Y-79130590D02*
X141950410Y-80802019D01*
X144055172Y-79625829D02*
X144055172Y-80492495D01*
X143745648Y-79130590D02*
X143436124Y-80059162D01*
X144240886Y-80059162D01*
X144736124Y-80368686D02*
X144798029Y-80430590D01*
X144736124Y-80492495D01*
X144674219Y-80430590D01*
X144736124Y-80368686D01*
X144736124Y-80492495D01*
X144736124Y-79687733D02*
X144798029Y-79749638D01*
X144736124Y-79811543D01*
X144674219Y-79749638D01*
X144736124Y-79687733D01*
X144736124Y-79811543D01*
X146159934Y-79192495D02*
X146902791Y-79192495D01*
X146531362Y-80492495D02*
X146531362Y-79192495D01*
X147274219Y-80430590D02*
X147459933Y-80492495D01*
X147769457Y-80492495D01*
X147893267Y-80430590D01*
X147955171Y-80368686D01*
X148017076Y-80244876D01*
X148017076Y-80121067D01*
X147955171Y-79997257D01*
X147893267Y-79935352D01*
X147769457Y-79873448D01*
X147521838Y-79811543D01*
X147398029Y-79749638D01*
X147336124Y-79687733D01*
X147274219Y-79563924D01*
X147274219Y-79440114D01*
X147336124Y-79316305D01*
X147398029Y-79254400D01*
X147521838Y-79192495D01*
X147831362Y-79192495D01*
X148017076Y-79254400D01*
X148512314Y-80430590D02*
X148698028Y-80492495D01*
X149007552Y-80492495D01*
X149131362Y-80430590D01*
X149193266Y-80368686D01*
X149255171Y-80244876D01*
X149255171Y-80121067D01*
X149193266Y-79997257D01*
X149131362Y-79935352D01*
X149007552Y-79873448D01*
X148759933Y-79811543D01*
X148636124Y-79749638D01*
X148574219Y-79687733D01*
X148512314Y-79563924D01*
X148512314Y-79440114D01*
X148574219Y-79316305D01*
X148636124Y-79254400D01*
X148759933Y-79192495D01*
X149069457Y-79192495D01*
X149255171Y-79254400D01*
X150059933Y-79192495D02*
X150307552Y-79192495D01*
X150431361Y-79254400D01*
X150555171Y-79378210D01*
X150617076Y-79625829D01*
X150617076Y-80059162D01*
X150555171Y-80306781D01*
X150431361Y-80430590D01*
X150307552Y-80492495D01*
X150059933Y-80492495D01*
X149936123Y-80430590D01*
X149812314Y-80306781D01*
X149750409Y-80059162D01*
X149750409Y-79625829D01*
X149812314Y-79378210D01*
X149936123Y-79254400D01*
X150059933Y-79192495D01*
X151174219Y-80492495D02*
X151174219Y-79192495D01*
X151669457Y-79192495D01*
X151793266Y-79254400D01*
X151855171Y-79316305D01*
X151917076Y-79440114D01*
X151917076Y-79625829D01*
X151855171Y-79749638D01*
X151793266Y-79811543D01*
X151669457Y-79873448D01*
X151174219Y-79873448D01*
X153155171Y-80492495D02*
X152412314Y-80492495D01*
X152783743Y-80492495D02*
X152783743Y-79192495D01*
X152659933Y-79378210D01*
X152536124Y-79502019D01*
X152412314Y-79563924D01*
X154269457Y-79625829D02*
X154269457Y-80492495D01*
X153959933Y-79130590D02*
X153650409Y-80059162D01*
X154455171Y-80059162D01*
D11*
X157402144Y-63646857D02*
X157616430Y-63718286D01*
X157687858Y-63789714D01*
X157759287Y-63932571D01*
X157759287Y-64146857D01*
X157687858Y-64289714D01*
X157616430Y-64361143D01*
X157473572Y-64432571D01*
X156902144Y-64432571D01*
X156902144Y-62932571D01*
X157402144Y-62932571D01*
X157545001Y-63004000D01*
X157616430Y-63075429D01*
X157687858Y-63218286D01*
X157687858Y-63361143D01*
X157616430Y-63504000D01*
X157545001Y-63575429D01*
X157402144Y-63646857D01*
X156902144Y-63646857D01*
X158402144Y-64432571D02*
X158402144Y-62932571D01*
X159259287Y-64432571D02*
X158616430Y-63575429D01*
X159259287Y-62932571D02*
X158402144Y-63789714D01*
X159902144Y-64432571D02*
X159902144Y-62932571D01*
X160402144Y-64004000D01*
X160902144Y-62932571D01*
X160902144Y-64432571D01*
X161616430Y-63861143D02*
X162759287Y-63861143D01*
X164259287Y-64432571D02*
X163402144Y-64432571D01*
X163830716Y-64432571D02*
X163830716Y-62932571D01*
X163687859Y-63146857D01*
X163545001Y-63289714D01*
X163402144Y-63361143D01*
X164830715Y-63075429D02*
X164902144Y-63004000D01*
X165045001Y-62932571D01*
X165402144Y-62932571D01*
X165545001Y-63004000D01*
X165616430Y-63075429D01*
X165687858Y-63218286D01*
X165687858Y-63361143D01*
X165616430Y-63575429D01*
X164759287Y-64432571D01*
X165687858Y-64432571D01*
X166402143Y-64432571D02*
X166687858Y-64432571D01*
X166830715Y-64361143D01*
X166902143Y-64289714D01*
X167045001Y-64075429D01*
X167116429Y-63789714D01*
X167116429Y-63218286D01*
X167045001Y-63075429D01*
X166973572Y-63004000D01*
X166830715Y-62932571D01*
X166545001Y-62932571D01*
X166402143Y-63004000D01*
X166330715Y-63075429D01*
X166259286Y-63218286D01*
X166259286Y-63575429D01*
X166330715Y-63718286D01*
X166402143Y-63789714D01*
X166545001Y-63861143D01*
X166830715Y-63861143D01*
X166973572Y-63789714D01*
X167045001Y-63718286D01*
X167116429Y-63575429D01*
X167616429Y-62932571D02*
X168616429Y-64432571D01*
X168616429Y-62932571D02*
X167616429Y-64432571D01*
X171187857Y-64289714D02*
X171116428Y-64361143D01*
X170902142Y-64432571D01*
X170759285Y-64432571D01*
X170545000Y-64361143D01*
X170402142Y-64218286D01*
X170330714Y-64075429D01*
X170259285Y-63789714D01*
X170259285Y-63575429D01*
X170330714Y-63289714D01*
X170402142Y-63146857D01*
X170545000Y-63004000D01*
X170759285Y-62932571D01*
X170902142Y-62932571D01*
X171116428Y-63004000D01*
X171187857Y-63075429D01*
X172045000Y-64432571D02*
X171902142Y-64361143D01*
X171830714Y-64289714D01*
X171759285Y-64146857D01*
X171759285Y-63718286D01*
X171830714Y-63575429D01*
X171902142Y-63504000D01*
X172045000Y-63432571D01*
X172259285Y-63432571D01*
X172402142Y-63504000D01*
X172473571Y-63575429D01*
X172545000Y-63718286D01*
X172545000Y-64146857D01*
X172473571Y-64289714D01*
X172402142Y-64361143D01*
X172259285Y-64432571D01*
X172045000Y-64432571D01*
X173187857Y-64432571D02*
X173187857Y-63432571D01*
X173187857Y-63575429D02*
X173259285Y-63504000D01*
X173402143Y-63432571D01*
X173616428Y-63432571D01*
X173759285Y-63504000D01*
X173830714Y-63646857D01*
X173830714Y-64432571D01*
X173830714Y-63646857D02*
X173902143Y-63504000D01*
X174045000Y-63432571D01*
X174259285Y-63432571D01*
X174402143Y-63504000D01*
X174473571Y-63646857D01*
X174473571Y-64432571D01*
X175187857Y-63432571D02*
X175187857Y-64932571D01*
X175187857Y-63504000D02*
X175330714Y-63432571D01*
X175616428Y-63432571D01*
X175759285Y-63504000D01*
X175830714Y-63575429D01*
X175902143Y-63718286D01*
X175902143Y-64146857D01*
X175830714Y-64289714D01*
X175759285Y-64361143D01*
X175616428Y-64432571D01*
X175330714Y-64432571D01*
X175187857Y-64361143D01*
X177187857Y-64432571D02*
X177187857Y-63646857D01*
X177116428Y-63504000D01*
X176973571Y-63432571D01*
X176687857Y-63432571D01*
X176545000Y-63504000D01*
X177187857Y-64361143D02*
X177045000Y-64432571D01*
X176687857Y-64432571D01*
X176545000Y-64361143D01*
X176473571Y-64218286D01*
X176473571Y-64075429D01*
X176545000Y-63932571D01*
X176687857Y-63861143D01*
X177045000Y-63861143D01*
X177187857Y-63789714D01*
X177687857Y-63432571D02*
X178259286Y-63432571D01*
X177902143Y-62932571D02*
X177902143Y-64218286D01*
X177973571Y-64361143D01*
X178116429Y-64432571D01*
X178259286Y-64432571D01*
X178759286Y-64432571D02*
X178759286Y-63432571D01*
X178759286Y-62932571D02*
X178687857Y-63004000D01*
X178759286Y-63075429D01*
X178830714Y-63004000D01*
X178759286Y-62932571D01*
X178759286Y-63075429D01*
X179473572Y-64432571D02*
X179473572Y-62932571D01*
X179473572Y-63504000D02*
X179616429Y-63432571D01*
X179902143Y-63432571D01*
X180045000Y-63504000D01*
X180116429Y-63575429D01*
X180187858Y-63718286D01*
X180187858Y-64146857D01*
X180116429Y-64289714D01*
X180045000Y-64361143D01*
X179902143Y-64432571D01*
X179616429Y-64432571D01*
X179473572Y-64361143D01*
X181045001Y-64432571D02*
X180902143Y-64361143D01*
X180830715Y-64218286D01*
X180830715Y-62932571D01*
X182187857Y-64361143D02*
X182045000Y-64432571D01*
X181759286Y-64432571D01*
X181616429Y-64361143D01*
X181545000Y-64218286D01*
X181545000Y-63646857D01*
X181616429Y-63504000D01*
X181759286Y-63432571D01*
X182045000Y-63432571D01*
X182187857Y-63504000D01*
X182259286Y-63646857D01*
X182259286Y-63789714D01*
X181545000Y-63932571D01*
D13*
X130429000Y-106489500D02*
X134493000Y-106489500D01*
D14*
X149042500Y-102069000D02*
X150042500Y-102069000D01*
X150042500Y-100369000D02*
X149042500Y-100369000D01*
X149042500Y-105561500D02*
X150042500Y-105561500D01*
X150042500Y-103861500D02*
X149042500Y-103861500D01*
X149042500Y-109054000D02*
X150042500Y-109054000D01*
X150042500Y-107354000D02*
X149042500Y-107354000D01*
X149042500Y-112546500D02*
X150042500Y-112546500D01*
X150042500Y-110846500D02*
X149042500Y-110846500D01*
X158821500Y-112546500D02*
X159821500Y-112546500D01*
X159821500Y-110846500D02*
X158821500Y-110846500D01*
X179871000Y-96782000D02*
X179871000Y-97782000D01*
X181571000Y-97782000D02*
X181571000Y-96782000D01*
X188656500Y-93982000D02*
X186476500Y-93982000D01*
X182056500Y-93982000D02*
X184236500Y-93982000D01*
X187896500Y-100582000D02*
X186476500Y-100582000D01*
X182816500Y-100582000D02*
X184236500Y-100582000D01*
X188656500Y-93982000D02*
X188656500Y-99822000D01*
X188656500Y-99822000D02*
X187896500Y-100582000D01*
X182816500Y-100582000D02*
X182056500Y-99822000D01*
X182056500Y-99822000D02*
X182056500Y-93982000D01*
X189422500Y-100582000D02*
X191602500Y-100582000D01*
X196022500Y-100582000D02*
X193842500Y-100582000D01*
X190182500Y-93982000D02*
X191602500Y-93982000D01*
X195262500Y-93982000D02*
X193842500Y-93982000D01*
X189422500Y-100582000D02*
X189422500Y-94742000D01*
X189422500Y-94742000D02*
X190182500Y-93982000D01*
X195262500Y-93982000D02*
X196022500Y-94742000D01*
X196022500Y-94742000D02*
X196022500Y-100582000D01*
X196571500Y-96782000D02*
X196571500Y-97782000D01*
X198271500Y-97782000D02*
X198271500Y-96782000D01*
D15*
X103309020Y-73431400D02*
G75*
G03X103309020Y-73431400I-718420J0D01*
G01*
X100812600Y-73431400D02*
X100812600Y-78003400D01*
X100812600Y-78003400D02*
X112750600Y-78003400D01*
X100812600Y-73431400D02*
X100812600Y-68859400D01*
X100812600Y-68859400D02*
X112750600Y-68859400D01*
X119608600Y-79273400D02*
X121386600Y-67589400D01*
X118338600Y-79273400D02*
X120116600Y-67589400D01*
X117068600Y-79273400D02*
X118846600Y-67589400D01*
X115798600Y-79273400D02*
X117576600Y-67589400D01*
X114528600Y-79273400D02*
X116306600Y-67589400D01*
X113258600Y-79273400D02*
X115036600Y-67589400D01*
X121386600Y-79273400D02*
X112750600Y-79273400D01*
X112750600Y-79273400D02*
X112750600Y-67589400D01*
X112750600Y-67589400D02*
X121386600Y-67589400D01*
X135610600Y-80797400D02*
X135610600Y-66065400D01*
X135610600Y-66065400D02*
X121386600Y-66065400D01*
X121386600Y-66065400D02*
X121386600Y-80797400D01*
X121386600Y-80797400D02*
X135610600Y-80797400D01*
X103309020Y-95478600D02*
G75*
G03X103309020Y-95478600I-718420J0D01*
G01*
X100812600Y-95478600D02*
X100812600Y-100050600D01*
X100812600Y-100050600D02*
X112750600Y-100050600D01*
X100812600Y-95478600D02*
X100812600Y-90906600D01*
X100812600Y-90906600D02*
X112750600Y-90906600D01*
X119608600Y-101320600D02*
X121386600Y-89636600D01*
X118338600Y-101320600D02*
X120116600Y-89636600D01*
X117068600Y-101320600D02*
X118846600Y-89636600D01*
X115798600Y-101320600D02*
X117576600Y-89636600D01*
X114528600Y-101320600D02*
X116306600Y-89636600D01*
X113258600Y-101320600D02*
X115036600Y-89636600D01*
X121386600Y-101320600D02*
X112750600Y-101320600D01*
X112750600Y-101320600D02*
X112750600Y-89636600D01*
X112750600Y-89636600D02*
X121386600Y-89636600D01*
X135610600Y-102844600D02*
X135610600Y-88112600D01*
X135610600Y-88112600D02*
X121386600Y-88112600D01*
X121386600Y-88112600D02*
X121386600Y-102844600D01*
X121386600Y-102844600D02*
X135610600Y-102844600D01*
X103334420Y-117475000D02*
G75*
G03X103334420Y-117475000I-718420J0D01*
G01*
X100838000Y-117475000D02*
X100838000Y-122047000D01*
X100838000Y-122047000D02*
X112776000Y-122047000D01*
X100838000Y-117475000D02*
X100838000Y-112903000D01*
X100838000Y-112903000D02*
X112776000Y-112903000D01*
X119634000Y-123317000D02*
X121412000Y-111633000D01*
X118364000Y-123317000D02*
X120142000Y-111633000D01*
X117094000Y-123317000D02*
X118872000Y-111633000D01*
X115824000Y-123317000D02*
X117602000Y-111633000D01*
X114554000Y-123317000D02*
X116332000Y-111633000D01*
X113284000Y-123317000D02*
X115062000Y-111633000D01*
X121412000Y-123317000D02*
X112776000Y-123317000D01*
X112776000Y-123317000D02*
X112776000Y-111633000D01*
X112776000Y-111633000D02*
X121412000Y-111633000D01*
X135636000Y-124841000D02*
X135636000Y-110109000D01*
X135636000Y-110109000D02*
X121412000Y-110109000D01*
X121412000Y-110109000D02*
X121412000Y-124841000D01*
X121412000Y-124841000D02*
X135636000Y-124841000D01*
X103334420Y-139573000D02*
G75*
G03X103334420Y-139573000I-718420J0D01*
G01*
X100838000Y-139573000D02*
X100838000Y-144145000D01*
X100838000Y-144145000D02*
X112776000Y-144145000D01*
X100838000Y-139573000D02*
X100838000Y-135001000D01*
X100838000Y-135001000D02*
X112776000Y-135001000D01*
X119634000Y-145415000D02*
X121412000Y-133731000D01*
X118364000Y-145415000D02*
X120142000Y-133731000D01*
X117094000Y-145415000D02*
X118872000Y-133731000D01*
X115824000Y-145415000D02*
X117602000Y-133731000D01*
X114554000Y-145415000D02*
X116332000Y-133731000D01*
X113284000Y-145415000D02*
X115062000Y-133731000D01*
X121412000Y-145415000D02*
X112776000Y-145415000D01*
X112776000Y-145415000D02*
X112776000Y-133731000D01*
X112776000Y-133731000D02*
X121412000Y-133731000D01*
X135636000Y-146939000D02*
X135636000Y-132207000D01*
X135636000Y-132207000D02*
X121412000Y-132207000D01*
X121412000Y-132207000D02*
X121412000Y-146939000D01*
X121412000Y-146939000D02*
X135636000Y-146939000D01*
X226009200Y-104521000D02*
X222453200Y-104521000D01*
X222453200Y-104521000D02*
X222453200Y-108585000D01*
X222453200Y-108585000D02*
X226009200Y-108585000D01*
X216865200Y-151003000D02*
X226009200Y-151003000D01*
X226009200Y-151003000D02*
X226009200Y-62103000D01*
X226009200Y-62103000D02*
X216865200Y-62103000D01*
X216865200Y-62103000D02*
X216865200Y-151003000D01*
D14*
X204624600Y-147065000D02*
X202224600Y-147065000D01*
X202224600Y-147065000D02*
X202224600Y-146015000D01*
X204024600Y-143765000D02*
X202224600Y-143765000D01*
X202224600Y-143765000D02*
X202224600Y-144815000D01*
X175955400Y-110905400D02*
X177155400Y-110905400D01*
X177155400Y-112665400D02*
X175955400Y-112665400D01*
X149919800Y-96739000D02*
X149919800Y-95539000D01*
X151679800Y-95539000D02*
X151679800Y-96739000D01*
X152180400Y-96739000D02*
X152180400Y-95539000D01*
X153940400Y-95539000D02*
X153940400Y-96739000D01*
X154441000Y-96739000D02*
X154441000Y-95539000D01*
X156201000Y-95539000D02*
X156201000Y-96739000D01*
X156701600Y-96739000D02*
X156701600Y-95539000D01*
X158461600Y-95539000D02*
X158461600Y-96739000D01*
X167497200Y-102167800D02*
X168697200Y-102167800D01*
X168697200Y-103927800D02*
X167497200Y-103927800D01*
X167497200Y-104428400D02*
X168697200Y-104428400D01*
X168697200Y-106188400D02*
X167497200Y-106188400D01*
X167497200Y-106689000D02*
X168697200Y-106689000D01*
X168697200Y-108449000D02*
X167497200Y-108449000D01*
X167497200Y-108949600D02*
X168697200Y-108949600D01*
X168697200Y-110709600D02*
X167497200Y-110709600D01*
X144116500Y-110816500D02*
X145316500Y-110816500D01*
X145316500Y-112576500D02*
X144116500Y-112576500D01*
X144116500Y-107324000D02*
X145316500Y-107324000D01*
X145316500Y-109084000D02*
X144116500Y-109084000D01*
X144116500Y-103831500D02*
X145316500Y-103831500D01*
X145316500Y-105591500D02*
X144116500Y-105591500D01*
X144116500Y-100339000D02*
X145316500Y-100339000D01*
X145316500Y-102099000D02*
X144116500Y-102099000D01*
X146008200Y-117998800D02*
X146008200Y-116798800D01*
X147768200Y-116798800D02*
X147768200Y-117998800D01*
X148268800Y-117998800D02*
X148268800Y-116798800D01*
X150028800Y-116798800D02*
X150028800Y-117998800D01*
X150529400Y-117998800D02*
X150529400Y-116798800D01*
X152289400Y-116798800D02*
X152289400Y-117998800D01*
X152790000Y-117998800D02*
X152790000Y-116798800D01*
X154550000Y-116798800D02*
X154550000Y-117998800D01*
X177155400Y-114976800D02*
X175955400Y-114976800D01*
X175955400Y-113216800D02*
X177155400Y-113216800D01*
X194478200Y-124578000D02*
X193278200Y-124578000D01*
X193278200Y-122818000D02*
X194478200Y-122818000D01*
X189093400Y-124578000D02*
X187893400Y-124578000D01*
X187893400Y-122818000D02*
X189093400Y-122818000D01*
X202574600Y-141169500D02*
X203774600Y-141169500D01*
X203774600Y-142929500D02*
X202574600Y-142929500D01*
X172685000Y-124070000D02*
X171485000Y-124070000D01*
X171485000Y-122310000D02*
X172685000Y-122310000D01*
X189118800Y-131639200D02*
X187918800Y-131639200D01*
X187918800Y-129879200D02*
X189118800Y-129879200D01*
X194478200Y-129277000D02*
X193278200Y-129277000D01*
X193278200Y-127517000D02*
X194478200Y-127517000D01*
X189093400Y-129277000D02*
X187893400Y-129277000D01*
X187893400Y-127517000D02*
X189093400Y-127517000D01*
X194478200Y-126940200D02*
X193278200Y-126940200D01*
X193278200Y-125180200D02*
X194478200Y-125180200D01*
X189093400Y-126940200D02*
X187893400Y-126940200D01*
X187893400Y-125180200D02*
X189093400Y-125180200D01*
D16*
X182222500Y-103764500D02*
X177822500Y-103764500D01*
X183797500Y-109289500D02*
X177822500Y-109289500D01*
D15*
X158407100Y-144272000D02*
X154597100Y-144272000D01*
X154597100Y-144272000D02*
X154597100Y-143002000D01*
X154597100Y-143002000D02*
X158407100Y-143002000D01*
X158407100Y-143002000D02*
X158407100Y-144272000D01*
X158407100Y-139192000D02*
X154597100Y-139192000D01*
X154597100Y-139192000D02*
X154597100Y-140462000D01*
X154597100Y-140462000D02*
X158407100Y-140462000D01*
X158407100Y-140462000D02*
X158407100Y-139192000D01*
X154597100Y-132461000D02*
X154597100Y-137922000D01*
X154597100Y-151003000D02*
X154597100Y-145542000D01*
X153327100Y-137922000D02*
X153327100Y-145542000D01*
X153327100Y-145542000D02*
X159677100Y-145542000D01*
X159677100Y-145542000D02*
X159677100Y-137922000D01*
X159677100Y-137922000D02*
X153327100Y-137922000D01*
X197777100Y-151003000D02*
X154597100Y-151003000D01*
X154597100Y-132461000D02*
X197777100Y-132461000D01*
X197777100Y-132461000D02*
X197777100Y-151003000D01*
X197015100Y-137922000D02*
X191935100Y-137922000D01*
X191935100Y-137922000D02*
X191935100Y-145542000D01*
X191935100Y-145542000D02*
X197015100Y-145542000D01*
X197015100Y-145542000D02*
X197015100Y-137922000D01*
X193840100Y-144272000D02*
G75*
G03X193840100Y-144272000I-635000J0D01*
G01*
X193840100Y-141732000D02*
G75*
G03X193840100Y-141732000I-635000J0D01*
G01*
X193840100Y-139192000D02*
G75*
G03X193840100Y-139192000I-635000J0D01*
G01*
X196380100Y-139192000D02*
G75*
G03X196380100Y-139192000I-635000J0D01*
G01*
X196380100Y-144272000D02*
G75*
G03X196380100Y-144272000I-635000J0D01*
G01*
X196380100Y-141732000D02*
G75*
G03X196380100Y-141732000I-635000J0D01*
G01*
D16*
X156996500Y-104817000D02*
X156996500Y-104942000D01*
X161646500Y-104817000D02*
X161646500Y-105042000D01*
X161646500Y-110067000D02*
X161646500Y-109842000D01*
X156996500Y-110067000D02*
X156996500Y-109842000D01*
X156996500Y-104817000D02*
X161646500Y-104817000D01*
X156996500Y-110067000D02*
X161646500Y-110067000D01*
X156996500Y-104942000D02*
X155646500Y-104942000D01*
X169734600Y-124756000D02*
X169734600Y-124881000D01*
X174384600Y-124756000D02*
X174384600Y-124981000D01*
X174384600Y-130006000D02*
X174384600Y-129781000D01*
X169734600Y-130006000D02*
X169734600Y-129781000D01*
X169734600Y-124756000D02*
X174384600Y-124756000D01*
X169734600Y-130006000D02*
X174384600Y-130006000D01*
X169734600Y-124881000D02*
X168384600Y-124881000D01*
D14*
X163009200Y-99556200D02*
X162009200Y-99556200D01*
X162009200Y-101256200D02*
X163009200Y-101256200D01*
X162009200Y-95007800D02*
X163009200Y-95007800D01*
X163009200Y-93307800D02*
X162009200Y-93307800D01*
X163536200Y-95672000D02*
X161736200Y-95672000D01*
X161736200Y-98892000D02*
X164186200Y-98892000D01*
X205427200Y-116802800D02*
X204427200Y-116802800D01*
X204427200Y-118502800D02*
X205427200Y-118502800D01*
X208227200Y-125601000D02*
X208227200Y-123421000D01*
X208227200Y-119001000D02*
X208227200Y-121181000D01*
X201627200Y-124841000D02*
X201627200Y-123421000D01*
X201627200Y-119761000D02*
X201627200Y-121181000D01*
X208227200Y-125601000D02*
X202387200Y-125601000D01*
X202387200Y-125601000D02*
X201627200Y-124841000D01*
X201627200Y-119761000D02*
X202387200Y-119001000D01*
X202387200Y-119001000D02*
X208227200Y-119001000D01*
X172685000Y-121784000D02*
X171485000Y-121784000D01*
X171485000Y-120024000D02*
X172685000Y-120024000D01*
D16*
X149363134Y-103328743D02*
X149315515Y-103376362D01*
X149172658Y-103423981D01*
X149077420Y-103423981D01*
X148934562Y-103376362D01*
X148839324Y-103281124D01*
X148791705Y-103185886D01*
X148744086Y-102995410D01*
X148744086Y-102852552D01*
X148791705Y-102662076D01*
X148839324Y-102566838D01*
X148934562Y-102471600D01*
X149077420Y-102423981D01*
X149172658Y-102423981D01*
X149315515Y-102471600D01*
X149363134Y-102519219D01*
X150315515Y-103423981D02*
X149744086Y-103423981D01*
X150029800Y-103423981D02*
X150029800Y-102423981D01*
X149934562Y-102566838D01*
X149839324Y-102662076D01*
X149744086Y-102709695D01*
X149375834Y-106818643D02*
X149328215Y-106866262D01*
X149185358Y-106913881D01*
X149090120Y-106913881D01*
X148947262Y-106866262D01*
X148852024Y-106771024D01*
X148804405Y-106675786D01*
X148756786Y-106485310D01*
X148756786Y-106342452D01*
X148804405Y-106151976D01*
X148852024Y-106056738D01*
X148947262Y-105961500D01*
X149090120Y-105913881D01*
X149185358Y-105913881D01*
X149328215Y-105961500D01*
X149375834Y-106009119D01*
X149756786Y-106009119D02*
X149804405Y-105961500D01*
X149899643Y-105913881D01*
X150137739Y-105913881D01*
X150232977Y-105961500D01*
X150280596Y-106009119D01*
X150328215Y-106104357D01*
X150328215Y-106199595D01*
X150280596Y-106342452D01*
X149709167Y-106913881D01*
X150328215Y-106913881D01*
X149375834Y-110311143D02*
X149328215Y-110358762D01*
X149185358Y-110406381D01*
X149090120Y-110406381D01*
X148947262Y-110358762D01*
X148852024Y-110263524D01*
X148804405Y-110168286D01*
X148756786Y-109977810D01*
X148756786Y-109834952D01*
X148804405Y-109644476D01*
X148852024Y-109549238D01*
X148947262Y-109454000D01*
X149090120Y-109406381D01*
X149185358Y-109406381D01*
X149328215Y-109454000D01*
X149375834Y-109501619D01*
X149709167Y-109406381D02*
X150328215Y-109406381D01*
X149994881Y-109787333D01*
X150137739Y-109787333D01*
X150232977Y-109834952D01*
X150280596Y-109882571D01*
X150328215Y-109977810D01*
X150328215Y-110215905D01*
X150280596Y-110311143D01*
X150232977Y-110358762D01*
X150137739Y-110406381D01*
X149852024Y-110406381D01*
X149756786Y-110358762D01*
X149709167Y-110311143D01*
X149375834Y-113803643D02*
X149328215Y-113851262D01*
X149185358Y-113898881D01*
X149090120Y-113898881D01*
X148947262Y-113851262D01*
X148852024Y-113756024D01*
X148804405Y-113660786D01*
X148756786Y-113470310D01*
X148756786Y-113327452D01*
X148804405Y-113136976D01*
X148852024Y-113041738D01*
X148947262Y-112946500D01*
X149090120Y-112898881D01*
X149185358Y-112898881D01*
X149328215Y-112946500D01*
X149375834Y-112994119D01*
X150232977Y-113232214D02*
X150232977Y-113898881D01*
X149994881Y-112851262D02*
X149756786Y-113565548D01*
X150375834Y-113565548D01*
X159154834Y-113803643D02*
X159107215Y-113851262D01*
X158964358Y-113898881D01*
X158869120Y-113898881D01*
X158726262Y-113851262D01*
X158631024Y-113756024D01*
X158583405Y-113660786D01*
X158535786Y-113470310D01*
X158535786Y-113327452D01*
X158583405Y-113136976D01*
X158631024Y-113041738D01*
X158726262Y-112946500D01*
X158869120Y-112898881D01*
X158964358Y-112898881D01*
X159107215Y-112946500D01*
X159154834Y-112994119D01*
X160059596Y-112898881D02*
X159583405Y-112898881D01*
X159535786Y-113375071D01*
X159583405Y-113327452D01*
X159678643Y-113279833D01*
X159916739Y-113279833D01*
X160011977Y-113327452D01*
X160059596Y-113375071D01*
X160107215Y-113470310D01*
X160107215Y-113708405D01*
X160059596Y-113803643D01*
X160011977Y-113851262D01*
X159916739Y-113898881D01*
X159678643Y-113898881D01*
X159583405Y-113851262D01*
X159535786Y-113803643D01*
X179328143Y-97448666D02*
X179375762Y-97496285D01*
X179423381Y-97639142D01*
X179423381Y-97734380D01*
X179375762Y-97877238D01*
X179280524Y-97972476D01*
X179185286Y-98020095D01*
X178994810Y-98067714D01*
X178851952Y-98067714D01*
X178661476Y-98020095D01*
X178566238Y-97972476D01*
X178471000Y-97877238D01*
X178423381Y-97734380D01*
X178423381Y-97639142D01*
X178471000Y-97496285D01*
X178518619Y-97448666D01*
X178423381Y-96591523D02*
X178423381Y-96782000D01*
X178471000Y-96877238D01*
X178518619Y-96924857D01*
X178661476Y-97020095D01*
X178851952Y-97067714D01*
X179232905Y-97067714D01*
X179328143Y-97020095D01*
X179375762Y-96972476D01*
X179423381Y-96877238D01*
X179423381Y-96686761D01*
X179375762Y-96591523D01*
X179328143Y-96543904D01*
X179232905Y-96496285D01*
X178994810Y-96496285D01*
X178899571Y-96543904D01*
X178851952Y-96591523D01*
X178804333Y-96686761D01*
X178804333Y-96877238D01*
X178851952Y-96972476D01*
X178899571Y-97020095D01*
X178994810Y-97067714D01*
X187729834Y-92241643D02*
X187682215Y-92289262D01*
X187539358Y-92336881D01*
X187444120Y-92336881D01*
X187301262Y-92289262D01*
X187206024Y-92194024D01*
X187158405Y-92098786D01*
X187110786Y-91908310D01*
X187110786Y-91765452D01*
X187158405Y-91574976D01*
X187206024Y-91479738D01*
X187301262Y-91384500D01*
X187444120Y-91336881D01*
X187539358Y-91336881D01*
X187682215Y-91384500D01*
X187729834Y-91432119D01*
X188063167Y-91336881D02*
X188729834Y-91336881D01*
X188301262Y-92336881D01*
X188437929Y-101942952D02*
X188437929Y-101181047D01*
X188818881Y-101561999D02*
X188056976Y-101561999D01*
X195159334Y-92241643D02*
X195111715Y-92289262D01*
X194968858Y-92336881D01*
X194873620Y-92336881D01*
X194730762Y-92289262D01*
X194635524Y-92194024D01*
X194587905Y-92098786D01*
X194540286Y-91908310D01*
X194540286Y-91765452D01*
X194587905Y-91574976D01*
X194635524Y-91479738D01*
X194730762Y-91384500D01*
X194873620Y-91336881D01*
X194968858Y-91336881D01*
X195111715Y-91384500D01*
X195159334Y-91432119D01*
X195730762Y-91765452D02*
X195635524Y-91717833D01*
X195587905Y-91670214D01*
X195540286Y-91574976D01*
X195540286Y-91527357D01*
X195587905Y-91432119D01*
X195635524Y-91384500D01*
X195730762Y-91336881D01*
X195921239Y-91336881D01*
X196016477Y-91384500D01*
X196064096Y-91432119D01*
X196111715Y-91527357D01*
X196111715Y-91574976D01*
X196064096Y-91670214D01*
X196016477Y-91717833D01*
X195921239Y-91765452D01*
X195730762Y-91765452D01*
X195635524Y-91813071D01*
X195587905Y-91860690D01*
X195540286Y-91955929D01*
X195540286Y-92146405D01*
X195587905Y-92241643D01*
X195635524Y-92289262D01*
X195730762Y-92336881D01*
X195921239Y-92336881D01*
X196016477Y-92289262D01*
X196064096Y-92241643D01*
X196111715Y-92146405D01*
X196111715Y-91955929D01*
X196064096Y-91860690D01*
X196016477Y-91813071D01*
X195921239Y-91765452D01*
X189783929Y-93382952D02*
X189783929Y-92621047D01*
X190164881Y-93001999D02*
X189402976Y-93001999D01*
X199429643Y-97448666D02*
X199477262Y-97496285D01*
X199524881Y-97639142D01*
X199524881Y-97734380D01*
X199477262Y-97877238D01*
X199382024Y-97972476D01*
X199286786Y-98020095D01*
X199096310Y-98067714D01*
X198953452Y-98067714D01*
X198762976Y-98020095D01*
X198667738Y-97972476D01*
X198572500Y-97877238D01*
X198524881Y-97734380D01*
X198524881Y-97639142D01*
X198572500Y-97496285D01*
X198620119Y-97448666D01*
X199524881Y-96972476D02*
X199524881Y-96782000D01*
X199477262Y-96686761D01*
X199429643Y-96639142D01*
X199286786Y-96543904D01*
X199096310Y-96496285D01*
X198715357Y-96496285D01*
X198620119Y-96543904D01*
X198572500Y-96591523D01*
X198524881Y-96686761D01*
X198524881Y-96877238D01*
X198572500Y-96972476D01*
X198620119Y-97020095D01*
X198715357Y-97067714D01*
X198953452Y-97067714D01*
X199048690Y-97020095D01*
X199096310Y-96972476D01*
X199143929Y-96877238D01*
X199143929Y-96686761D01*
X199096310Y-96591523D01*
X199048690Y-96543904D01*
X198953452Y-96496285D01*
X134794667Y-64539881D02*
X134794667Y-65254167D01*
X134747047Y-65397024D01*
X134651809Y-65492262D01*
X134508952Y-65539881D01*
X134413714Y-65539881D01*
X135794667Y-65539881D02*
X135223238Y-65539881D01*
X135508952Y-65539881D02*
X135508952Y-64539881D01*
X135413714Y-64682738D01*
X135318476Y-64777976D01*
X135223238Y-64825595D01*
X134794667Y-86574381D02*
X134794667Y-87288667D01*
X134747047Y-87431524D01*
X134651809Y-87526762D01*
X134508952Y-87574381D01*
X134413714Y-87574381D01*
X135223238Y-86669619D02*
X135270857Y-86622000D01*
X135366095Y-86574381D01*
X135604191Y-86574381D01*
X135699429Y-86622000D01*
X135747048Y-86669619D01*
X135794667Y-86764857D01*
X135794667Y-86860095D01*
X135747048Y-87002952D01*
X135175619Y-87574381D01*
X135794667Y-87574381D01*
X134794667Y-108545381D02*
X134794667Y-109259667D01*
X134747047Y-109402524D01*
X134651809Y-109497762D01*
X134508952Y-109545381D01*
X134413714Y-109545381D01*
X135175619Y-108545381D02*
X135794667Y-108545381D01*
X135461333Y-108926333D01*
X135604191Y-108926333D01*
X135699429Y-108973952D01*
X135747048Y-109021571D01*
X135794667Y-109116810D01*
X135794667Y-109354905D01*
X135747048Y-109450143D01*
X135699429Y-109497762D01*
X135604191Y-109545381D01*
X135318476Y-109545381D01*
X135223238Y-109497762D01*
X135175619Y-109450143D01*
X134858167Y-130643381D02*
X134858167Y-131357667D01*
X134810547Y-131500524D01*
X134715309Y-131595762D01*
X134572452Y-131643381D01*
X134477214Y-131643381D01*
X135762929Y-130976714D02*
X135762929Y-131643381D01*
X135524833Y-130595762D02*
X135286738Y-131310048D01*
X135905786Y-131310048D01*
X213483867Y-64730381D02*
X213483867Y-65444667D01*
X213436247Y-65587524D01*
X213341009Y-65682762D01*
X213198152Y-65730381D01*
X213102914Y-65730381D01*
X214436248Y-64730381D02*
X213960057Y-64730381D01*
X213912438Y-65206571D01*
X213960057Y-65158952D01*
X214055295Y-65111333D01*
X214293391Y-65111333D01*
X214388629Y-65158952D01*
X214436248Y-65206571D01*
X214483867Y-65301810D01*
X214483867Y-65539905D01*
X214436248Y-65635143D01*
X214388629Y-65682762D01*
X214293391Y-65730381D01*
X214055295Y-65730381D01*
X213960057Y-65682762D01*
X213912438Y-65635143D01*
X203079362Y-148462619D02*
X202984124Y-148415000D01*
X202888886Y-148319762D01*
X202746029Y-148176905D01*
X202650790Y-148129286D01*
X202555552Y-148129286D01*
X202603171Y-148367381D02*
X202507933Y-148319762D01*
X202412695Y-148224524D01*
X202365076Y-148034048D01*
X202365076Y-147700714D01*
X202412695Y-147510238D01*
X202507933Y-147415000D01*
X202603171Y-147367381D01*
X202793648Y-147367381D01*
X202888886Y-147415000D01*
X202984124Y-147510238D01*
X203031743Y-147700714D01*
X203031743Y-148034048D01*
X202984124Y-148224524D01*
X202888886Y-148319762D01*
X202793648Y-148367381D01*
X202603171Y-148367381D01*
X203984124Y-148367381D02*
X203412695Y-148367381D01*
X203698409Y-148367381D02*
X203698409Y-147367381D01*
X203603171Y-147510238D01*
X203507933Y-147605476D01*
X203412695Y-147653095D01*
X179792334Y-112237781D02*
X179459000Y-111761590D01*
X179220905Y-112237781D02*
X179220905Y-111237781D01*
X179601858Y-111237781D01*
X179697096Y-111285400D01*
X179744715Y-111333019D01*
X179792334Y-111428257D01*
X179792334Y-111571114D01*
X179744715Y-111666352D01*
X179697096Y-111713971D01*
X179601858Y-111761590D01*
X179220905Y-111761590D01*
X180744715Y-112237781D02*
X180173286Y-112237781D01*
X180459000Y-112237781D02*
X180459000Y-111237781D01*
X180363762Y-111380638D01*
X180268524Y-111475876D01*
X180173286Y-111523495D01*
X151252181Y-92927466D02*
X150775990Y-93260800D01*
X151252181Y-93498895D02*
X150252181Y-93498895D01*
X150252181Y-93117942D01*
X150299800Y-93022704D01*
X150347419Y-92975085D01*
X150442657Y-92927466D01*
X150585514Y-92927466D01*
X150680752Y-92975085D01*
X150728371Y-93022704D01*
X150775990Y-93117942D01*
X150775990Y-93498895D01*
X150347419Y-92546514D02*
X150299800Y-92498895D01*
X150252181Y-92403657D01*
X150252181Y-92165561D01*
X150299800Y-92070323D01*
X150347419Y-92022704D01*
X150442657Y-91975085D01*
X150537895Y-91975085D01*
X150680752Y-92022704D01*
X151252181Y-92594133D01*
X151252181Y-91975085D01*
X153512781Y-92927466D02*
X153036590Y-93260800D01*
X153512781Y-93498895D02*
X152512781Y-93498895D01*
X152512781Y-93117942D01*
X152560400Y-93022704D01*
X152608019Y-92975085D01*
X152703257Y-92927466D01*
X152846114Y-92927466D01*
X152941352Y-92975085D01*
X152988971Y-93022704D01*
X153036590Y-93117942D01*
X153036590Y-93498895D01*
X152512781Y-92594133D02*
X152512781Y-91975085D01*
X152893733Y-92308419D01*
X152893733Y-92165561D01*
X152941352Y-92070323D01*
X152988971Y-92022704D01*
X153084210Y-91975085D01*
X153322305Y-91975085D01*
X153417543Y-92022704D01*
X153465162Y-92070323D01*
X153512781Y-92165561D01*
X153512781Y-92451276D01*
X153465162Y-92546514D01*
X153417543Y-92594133D01*
X155773381Y-92902066D02*
X155297190Y-93235400D01*
X155773381Y-93473495D02*
X154773381Y-93473495D01*
X154773381Y-93092542D01*
X154821000Y-92997304D01*
X154868619Y-92949685D01*
X154963857Y-92902066D01*
X155106714Y-92902066D01*
X155201952Y-92949685D01*
X155249571Y-92997304D01*
X155297190Y-93092542D01*
X155297190Y-93473495D01*
X155106714Y-92044923D02*
X155773381Y-92044923D01*
X154725762Y-92283019D02*
X155440048Y-92521114D01*
X155440048Y-91902066D01*
X158033981Y-92876666D02*
X157557790Y-93210000D01*
X158033981Y-93448095D02*
X157033981Y-93448095D01*
X157033981Y-93067142D01*
X157081600Y-92971904D01*
X157129219Y-92924285D01*
X157224457Y-92876666D01*
X157367314Y-92876666D01*
X157462552Y-92924285D01*
X157510171Y-92971904D01*
X157557790Y-93067142D01*
X157557790Y-93448095D01*
X157033981Y-91971904D02*
X157033981Y-92448095D01*
X157510171Y-92495714D01*
X157462552Y-92448095D01*
X157414933Y-92352857D01*
X157414933Y-92114761D01*
X157462552Y-92019523D01*
X157510171Y-91971904D01*
X157605410Y-91924285D01*
X157843505Y-91924285D01*
X157938743Y-91971904D01*
X157986362Y-92019523D01*
X158033981Y-92114761D01*
X158033981Y-92352857D01*
X157986362Y-92448095D01*
X157938743Y-92495714D01*
X171397634Y-103500181D02*
X171064300Y-103023990D01*
X170826205Y-103500181D02*
X170826205Y-102500181D01*
X171207158Y-102500181D01*
X171302396Y-102547800D01*
X171350015Y-102595419D01*
X171397634Y-102690657D01*
X171397634Y-102833514D01*
X171350015Y-102928752D01*
X171302396Y-102976371D01*
X171207158Y-103023990D01*
X170826205Y-103023990D01*
X172254777Y-102500181D02*
X172064300Y-102500181D01*
X171969062Y-102547800D01*
X171921443Y-102595419D01*
X171826205Y-102738276D01*
X171778586Y-102928752D01*
X171778586Y-103309705D01*
X171826205Y-103404943D01*
X171873824Y-103452562D01*
X171969062Y-103500181D01*
X172159539Y-103500181D01*
X172254777Y-103452562D01*
X172302396Y-103404943D01*
X172350015Y-103309705D01*
X172350015Y-103071610D01*
X172302396Y-102976371D01*
X172254777Y-102928752D01*
X172159539Y-102881133D01*
X171969062Y-102881133D01*
X171873824Y-102928752D01*
X171826205Y-102976371D01*
X171778586Y-103071610D01*
X171384934Y-105760781D02*
X171051600Y-105284590D01*
X170813505Y-105760781D02*
X170813505Y-104760781D01*
X171194458Y-104760781D01*
X171289696Y-104808400D01*
X171337315Y-104856019D01*
X171384934Y-104951257D01*
X171384934Y-105094114D01*
X171337315Y-105189352D01*
X171289696Y-105236971D01*
X171194458Y-105284590D01*
X170813505Y-105284590D01*
X171718267Y-104760781D02*
X172384934Y-104760781D01*
X171956362Y-105760781D01*
X171384934Y-107995981D02*
X171051600Y-107519790D01*
X170813505Y-107995981D02*
X170813505Y-106995981D01*
X171194458Y-106995981D01*
X171289696Y-107043600D01*
X171337315Y-107091219D01*
X171384934Y-107186457D01*
X171384934Y-107329314D01*
X171337315Y-107424552D01*
X171289696Y-107472171D01*
X171194458Y-107519790D01*
X170813505Y-107519790D01*
X171956362Y-107424552D02*
X171861124Y-107376933D01*
X171813505Y-107329314D01*
X171765886Y-107234076D01*
X171765886Y-107186457D01*
X171813505Y-107091219D01*
X171861124Y-107043600D01*
X171956362Y-106995981D01*
X172146839Y-106995981D01*
X172242077Y-107043600D01*
X172289696Y-107091219D01*
X172337315Y-107186457D01*
X172337315Y-107234076D01*
X172289696Y-107329314D01*
X172242077Y-107376933D01*
X172146839Y-107424552D01*
X171956362Y-107424552D01*
X171861124Y-107472171D01*
X171813505Y-107519790D01*
X171765886Y-107615029D01*
X171765886Y-107805505D01*
X171813505Y-107900743D01*
X171861124Y-107948362D01*
X171956362Y-107995981D01*
X172146839Y-107995981D01*
X172242077Y-107948362D01*
X172289696Y-107900743D01*
X172337315Y-107805505D01*
X172337315Y-107615029D01*
X172289696Y-107519790D01*
X172242077Y-107472171D01*
X172146839Y-107424552D01*
X171359534Y-110281981D02*
X171026200Y-109805790D01*
X170788105Y-110281981D02*
X170788105Y-109281981D01*
X171169058Y-109281981D01*
X171264296Y-109329600D01*
X171311915Y-109377219D01*
X171359534Y-109472457D01*
X171359534Y-109615314D01*
X171311915Y-109710552D01*
X171264296Y-109758171D01*
X171169058Y-109805790D01*
X170788105Y-109805790D01*
X171835724Y-110281981D02*
X172026200Y-110281981D01*
X172121439Y-110234362D01*
X172169058Y-110186743D01*
X172264296Y-110043886D01*
X172311915Y-109853410D01*
X172311915Y-109472457D01*
X172264296Y-109377219D01*
X172216677Y-109329600D01*
X172121439Y-109281981D01*
X171930962Y-109281981D01*
X171835724Y-109329600D01*
X171788105Y-109377219D01*
X171740486Y-109472457D01*
X171740486Y-109710552D01*
X171788105Y-109805790D01*
X171835724Y-109853410D01*
X171930962Y-109901029D01*
X172121439Y-109901029D01*
X172216677Y-109853410D01*
X172264296Y-109805790D01*
X172311915Y-109710552D01*
X144073643Y-113848881D02*
X143740309Y-113372690D01*
X143502214Y-113848881D02*
X143502214Y-112848881D01*
X143883167Y-112848881D01*
X143978405Y-112896500D01*
X144026024Y-112944119D01*
X144073643Y-113039357D01*
X144073643Y-113182214D01*
X144026024Y-113277452D01*
X143978405Y-113325071D01*
X143883167Y-113372690D01*
X143502214Y-113372690D01*
X145026024Y-113848881D02*
X144454595Y-113848881D01*
X144740309Y-113848881D02*
X144740309Y-112848881D01*
X144645071Y-112991738D01*
X144549833Y-113086976D01*
X144454595Y-113134595D01*
X145645071Y-112848881D02*
X145740310Y-112848881D01*
X145835548Y-112896500D01*
X145883167Y-112944119D01*
X145930786Y-113039357D01*
X145978405Y-113229833D01*
X145978405Y-113467929D01*
X145930786Y-113658405D01*
X145883167Y-113753643D01*
X145835548Y-113801262D01*
X145740310Y-113848881D01*
X145645071Y-113848881D01*
X145549833Y-113801262D01*
X145502214Y-113753643D01*
X145454595Y-113658405D01*
X145406976Y-113467929D01*
X145406976Y-113229833D01*
X145454595Y-113039357D01*
X145502214Y-112944119D01*
X145549833Y-112896500D01*
X145645071Y-112848881D01*
X144073643Y-110356381D02*
X143740309Y-109880190D01*
X143502214Y-110356381D02*
X143502214Y-109356381D01*
X143883167Y-109356381D01*
X143978405Y-109404000D01*
X144026024Y-109451619D01*
X144073643Y-109546857D01*
X144073643Y-109689714D01*
X144026024Y-109784952D01*
X143978405Y-109832571D01*
X143883167Y-109880190D01*
X143502214Y-109880190D01*
X145026024Y-110356381D02*
X144454595Y-110356381D01*
X144740309Y-110356381D02*
X144740309Y-109356381D01*
X144645071Y-109499238D01*
X144549833Y-109594476D01*
X144454595Y-109642095D01*
X145978405Y-110356381D02*
X145406976Y-110356381D01*
X145692690Y-110356381D02*
X145692690Y-109356381D01*
X145597452Y-109499238D01*
X145502214Y-109594476D01*
X145406976Y-109642095D01*
X144073643Y-106863881D02*
X143740309Y-106387690D01*
X143502214Y-106863881D02*
X143502214Y-105863881D01*
X143883167Y-105863881D01*
X143978405Y-105911500D01*
X144026024Y-105959119D01*
X144073643Y-106054357D01*
X144073643Y-106197214D01*
X144026024Y-106292452D01*
X143978405Y-106340071D01*
X143883167Y-106387690D01*
X143502214Y-106387690D01*
X145026024Y-106863881D02*
X144454595Y-106863881D01*
X144740309Y-106863881D02*
X144740309Y-105863881D01*
X144645071Y-106006738D01*
X144549833Y-106101976D01*
X144454595Y-106149595D01*
X145406976Y-105959119D02*
X145454595Y-105911500D01*
X145549833Y-105863881D01*
X145787929Y-105863881D01*
X145883167Y-105911500D01*
X145930786Y-105959119D01*
X145978405Y-106054357D01*
X145978405Y-106149595D01*
X145930786Y-106292452D01*
X145359357Y-106863881D01*
X145978405Y-106863881D01*
X144073643Y-103371381D02*
X143740309Y-102895190D01*
X143502214Y-103371381D02*
X143502214Y-102371381D01*
X143883167Y-102371381D01*
X143978405Y-102419000D01*
X144026024Y-102466619D01*
X144073643Y-102561857D01*
X144073643Y-102704714D01*
X144026024Y-102799952D01*
X143978405Y-102847571D01*
X143883167Y-102895190D01*
X143502214Y-102895190D01*
X145026024Y-103371381D02*
X144454595Y-103371381D01*
X144740309Y-103371381D02*
X144740309Y-102371381D01*
X144645071Y-102514238D01*
X144549833Y-102609476D01*
X144454595Y-102657095D01*
X145359357Y-102371381D02*
X145978405Y-102371381D01*
X145645071Y-102752333D01*
X145787929Y-102752333D01*
X145883167Y-102799952D01*
X145930786Y-102847571D01*
X145978405Y-102942810D01*
X145978405Y-103180905D01*
X145930786Y-103276143D01*
X145883167Y-103323762D01*
X145787929Y-103371381D01*
X145502214Y-103371381D01*
X145406976Y-103323762D01*
X145359357Y-103276143D01*
X147340581Y-121978657D02*
X146864390Y-122311991D01*
X147340581Y-122550086D02*
X146340581Y-122550086D01*
X146340581Y-122169133D01*
X146388200Y-122073895D01*
X146435819Y-122026276D01*
X146531057Y-121978657D01*
X146673914Y-121978657D01*
X146769152Y-122026276D01*
X146816771Y-122073895D01*
X146864390Y-122169133D01*
X146864390Y-122550086D01*
X147340581Y-121026276D02*
X147340581Y-121597705D01*
X147340581Y-121311991D02*
X146340581Y-121311991D01*
X146483438Y-121407229D01*
X146578676Y-121502467D01*
X146626295Y-121597705D01*
X146673914Y-120169133D02*
X147340581Y-120169133D01*
X146292962Y-120407229D02*
X147007248Y-120645324D01*
X147007248Y-120026276D01*
X149601181Y-121978657D02*
X149124990Y-122311991D01*
X149601181Y-122550086D02*
X148601181Y-122550086D01*
X148601181Y-122169133D01*
X148648800Y-122073895D01*
X148696419Y-122026276D01*
X148791657Y-121978657D01*
X148934514Y-121978657D01*
X149029752Y-122026276D01*
X149077371Y-122073895D01*
X149124990Y-122169133D01*
X149124990Y-122550086D01*
X149601181Y-121026276D02*
X149601181Y-121597705D01*
X149601181Y-121311991D02*
X148601181Y-121311991D01*
X148744038Y-121407229D01*
X148839276Y-121502467D01*
X148886895Y-121597705D01*
X148601181Y-120121514D02*
X148601181Y-120597705D01*
X149077371Y-120645324D01*
X149029752Y-120597705D01*
X148982133Y-120502467D01*
X148982133Y-120264371D01*
X149029752Y-120169133D01*
X149077371Y-120121514D01*
X149172610Y-120073895D01*
X149410705Y-120073895D01*
X149505943Y-120121514D01*
X149553562Y-120169133D01*
X149601181Y-120264371D01*
X149601181Y-120502467D01*
X149553562Y-120597705D01*
X149505943Y-120645324D01*
X151861781Y-121953257D02*
X151385590Y-122286591D01*
X151861781Y-122524686D02*
X150861781Y-122524686D01*
X150861781Y-122143733D01*
X150909400Y-122048495D01*
X150957019Y-122000876D01*
X151052257Y-121953257D01*
X151195114Y-121953257D01*
X151290352Y-122000876D01*
X151337971Y-122048495D01*
X151385590Y-122143733D01*
X151385590Y-122524686D01*
X151861781Y-121000876D02*
X151861781Y-121572305D01*
X151861781Y-121286591D02*
X150861781Y-121286591D01*
X151004638Y-121381829D01*
X151099876Y-121477067D01*
X151147495Y-121572305D01*
X150861781Y-120143733D02*
X150861781Y-120334210D01*
X150909400Y-120429448D01*
X150957019Y-120477067D01*
X151099876Y-120572305D01*
X151290352Y-120619924D01*
X151671305Y-120619924D01*
X151766543Y-120572305D01*
X151814162Y-120524686D01*
X151861781Y-120429448D01*
X151861781Y-120238971D01*
X151814162Y-120143733D01*
X151766543Y-120096114D01*
X151671305Y-120048495D01*
X151433210Y-120048495D01*
X151337971Y-120096114D01*
X151290352Y-120143733D01*
X151242733Y-120238971D01*
X151242733Y-120429448D01*
X151290352Y-120524686D01*
X151337971Y-120572305D01*
X151433210Y-120619924D01*
X154147781Y-121978657D02*
X153671590Y-122311991D01*
X154147781Y-122550086D02*
X153147781Y-122550086D01*
X153147781Y-122169133D01*
X153195400Y-122073895D01*
X153243019Y-122026276D01*
X153338257Y-121978657D01*
X153481114Y-121978657D01*
X153576352Y-122026276D01*
X153623971Y-122073895D01*
X153671590Y-122169133D01*
X153671590Y-122550086D01*
X154147781Y-121026276D02*
X154147781Y-121597705D01*
X154147781Y-121311991D02*
X153147781Y-121311991D01*
X153290638Y-121407229D01*
X153385876Y-121502467D01*
X153433495Y-121597705D01*
X153147781Y-120692943D02*
X153147781Y-120026276D01*
X154147781Y-120454848D01*
X179798743Y-114549181D02*
X179465409Y-114072990D01*
X179227314Y-114549181D02*
X179227314Y-113549181D01*
X179608267Y-113549181D01*
X179703505Y-113596800D01*
X179751124Y-113644419D01*
X179798743Y-113739657D01*
X179798743Y-113882514D01*
X179751124Y-113977752D01*
X179703505Y-114025371D01*
X179608267Y-114072990D01*
X179227314Y-114072990D01*
X180751124Y-114549181D02*
X180179695Y-114549181D01*
X180465409Y-114549181D02*
X180465409Y-113549181D01*
X180370171Y-113692038D01*
X180274933Y-113787276D01*
X180179695Y-113834895D01*
X181322552Y-113977752D02*
X181227314Y-113930133D01*
X181179695Y-113882514D01*
X181132076Y-113787276D01*
X181132076Y-113739657D01*
X181179695Y-113644419D01*
X181227314Y-113596800D01*
X181322552Y-113549181D01*
X181513029Y-113549181D01*
X181608267Y-113596800D01*
X181655886Y-113644419D01*
X181703505Y-113739657D01*
X181703505Y-113787276D01*
X181655886Y-113882514D01*
X181608267Y-113930133D01*
X181513029Y-113977752D01*
X181322552Y-113977752D01*
X181227314Y-114025371D01*
X181179695Y-114072990D01*
X181132076Y-114168229D01*
X181132076Y-114358705D01*
X181179695Y-114453943D01*
X181227314Y-114501562D01*
X181322552Y-114549181D01*
X181513029Y-114549181D01*
X181608267Y-114501562D01*
X181655886Y-114453943D01*
X181703505Y-114358705D01*
X181703505Y-114168229D01*
X181655886Y-114072990D01*
X181608267Y-114025371D01*
X181513029Y-113977752D01*
X198010543Y-124150381D02*
X197677209Y-123674190D01*
X197439114Y-124150381D02*
X197439114Y-123150381D01*
X197820067Y-123150381D01*
X197915305Y-123198000D01*
X197962924Y-123245619D01*
X198010543Y-123340857D01*
X198010543Y-123483714D01*
X197962924Y-123578952D01*
X197915305Y-123626571D01*
X197820067Y-123674190D01*
X197439114Y-123674190D01*
X198391495Y-123245619D02*
X198439114Y-123198000D01*
X198534352Y-123150381D01*
X198772448Y-123150381D01*
X198867686Y-123198000D01*
X198915305Y-123245619D01*
X198962924Y-123340857D01*
X198962924Y-123436095D01*
X198915305Y-123578952D01*
X198343876Y-124150381D01*
X198962924Y-124150381D01*
X199581971Y-123150381D02*
X199677210Y-123150381D01*
X199772448Y-123198000D01*
X199820067Y-123245619D01*
X199867686Y-123340857D01*
X199915305Y-123531333D01*
X199915305Y-123769429D01*
X199867686Y-123959905D01*
X199820067Y-124055143D01*
X199772448Y-124102762D01*
X199677210Y-124150381D01*
X199581971Y-124150381D01*
X199486733Y-124102762D01*
X199439114Y-124055143D01*
X199391495Y-123959905D01*
X199343876Y-123769429D01*
X199343876Y-123531333D01*
X199391495Y-123340857D01*
X199439114Y-123245619D01*
X199486733Y-123198000D01*
X199581971Y-123150381D01*
X183278543Y-124150381D02*
X182945209Y-123674190D01*
X182707114Y-124150381D02*
X182707114Y-123150381D01*
X183088067Y-123150381D01*
X183183305Y-123198000D01*
X183230924Y-123245619D01*
X183278543Y-123340857D01*
X183278543Y-123483714D01*
X183230924Y-123578952D01*
X183183305Y-123626571D01*
X183088067Y-123674190D01*
X182707114Y-123674190D01*
X183659495Y-123245619D02*
X183707114Y-123198000D01*
X183802352Y-123150381D01*
X184040448Y-123150381D01*
X184135686Y-123198000D01*
X184183305Y-123245619D01*
X184230924Y-123340857D01*
X184230924Y-123436095D01*
X184183305Y-123578952D01*
X183611876Y-124150381D01*
X184230924Y-124150381D01*
X185183305Y-124150381D02*
X184611876Y-124150381D01*
X184897590Y-124150381D02*
X184897590Y-123150381D01*
X184802352Y-123293238D01*
X184707114Y-123388476D01*
X184611876Y-123436095D01*
X202531743Y-140787381D02*
X202198409Y-140311190D01*
X201960314Y-140787381D02*
X201960314Y-139787381D01*
X202341267Y-139787381D01*
X202436505Y-139835000D01*
X202484124Y-139882619D01*
X202531743Y-139977857D01*
X202531743Y-140120714D01*
X202484124Y-140215952D01*
X202436505Y-140263571D01*
X202341267Y-140311190D01*
X201960314Y-140311190D01*
X202912695Y-139882619D02*
X202960314Y-139835000D01*
X203055552Y-139787381D01*
X203293648Y-139787381D01*
X203388886Y-139835000D01*
X203436505Y-139882619D01*
X203484124Y-139977857D01*
X203484124Y-140073095D01*
X203436505Y-140215952D01*
X202865076Y-140787381D01*
X203484124Y-140787381D01*
X203865076Y-139882619D02*
X203912695Y-139835000D01*
X204007933Y-139787381D01*
X204246029Y-139787381D01*
X204341267Y-139835000D01*
X204388886Y-139882619D01*
X204436505Y-139977857D01*
X204436505Y-140073095D01*
X204388886Y-140215952D01*
X203817457Y-140787381D01*
X204436505Y-140787381D01*
X175379143Y-123642381D02*
X175045809Y-123166190D01*
X174807714Y-123642381D02*
X174807714Y-122642381D01*
X175188667Y-122642381D01*
X175283905Y-122690000D01*
X175331524Y-122737619D01*
X175379143Y-122832857D01*
X175379143Y-122975714D01*
X175331524Y-123070952D01*
X175283905Y-123118571D01*
X175188667Y-123166190D01*
X174807714Y-123166190D01*
X175760095Y-122737619D02*
X175807714Y-122690000D01*
X175902952Y-122642381D01*
X176141048Y-122642381D01*
X176236286Y-122690000D01*
X176283905Y-122737619D01*
X176331524Y-122832857D01*
X176331524Y-122928095D01*
X176283905Y-123070952D01*
X175712476Y-123642381D01*
X176331524Y-123642381D01*
X176664857Y-122642381D02*
X177283905Y-122642381D01*
X176950571Y-123023333D01*
X177093429Y-123023333D01*
X177188667Y-123070952D01*
X177236286Y-123118571D01*
X177283905Y-123213810D01*
X177283905Y-123451905D01*
X177236286Y-123547143D01*
X177188667Y-123594762D01*
X177093429Y-123642381D01*
X176807714Y-123642381D01*
X176712476Y-123594762D01*
X176664857Y-123547143D01*
X183227743Y-131211581D02*
X182894409Y-130735390D01*
X182656314Y-131211581D02*
X182656314Y-130211581D01*
X183037267Y-130211581D01*
X183132505Y-130259200D01*
X183180124Y-130306819D01*
X183227743Y-130402057D01*
X183227743Y-130544914D01*
X183180124Y-130640152D01*
X183132505Y-130687771D01*
X183037267Y-130735390D01*
X182656314Y-130735390D01*
X183608695Y-130306819D02*
X183656314Y-130259200D01*
X183751552Y-130211581D01*
X183989648Y-130211581D01*
X184084886Y-130259200D01*
X184132505Y-130306819D01*
X184180124Y-130402057D01*
X184180124Y-130497295D01*
X184132505Y-130640152D01*
X183561076Y-131211581D01*
X184180124Y-131211581D01*
X185037267Y-130544914D02*
X185037267Y-131211581D01*
X184799171Y-130163962D02*
X184561076Y-130878248D01*
X185180124Y-130878248D01*
X197985143Y-128874781D02*
X197651809Y-128398590D01*
X197413714Y-128874781D02*
X197413714Y-127874781D01*
X197794667Y-127874781D01*
X197889905Y-127922400D01*
X197937524Y-127970019D01*
X197985143Y-128065257D01*
X197985143Y-128208114D01*
X197937524Y-128303352D01*
X197889905Y-128350971D01*
X197794667Y-128398590D01*
X197413714Y-128398590D01*
X198366095Y-127970019D02*
X198413714Y-127922400D01*
X198508952Y-127874781D01*
X198747048Y-127874781D01*
X198842286Y-127922400D01*
X198889905Y-127970019D01*
X198937524Y-128065257D01*
X198937524Y-128160495D01*
X198889905Y-128303352D01*
X198318476Y-128874781D01*
X198937524Y-128874781D01*
X199842286Y-127874781D02*
X199366095Y-127874781D01*
X199318476Y-128350971D01*
X199366095Y-128303352D01*
X199461333Y-128255733D01*
X199699429Y-128255733D01*
X199794667Y-128303352D01*
X199842286Y-128350971D01*
X199889905Y-128446210D01*
X199889905Y-128684305D01*
X199842286Y-128779543D01*
X199794667Y-128827162D01*
X199699429Y-128874781D01*
X199461333Y-128874781D01*
X199366095Y-128827162D01*
X199318476Y-128779543D01*
X183253143Y-128849381D02*
X182919809Y-128373190D01*
X182681714Y-128849381D02*
X182681714Y-127849381D01*
X183062667Y-127849381D01*
X183157905Y-127897000D01*
X183205524Y-127944619D01*
X183253143Y-128039857D01*
X183253143Y-128182714D01*
X183205524Y-128277952D01*
X183157905Y-128325571D01*
X183062667Y-128373190D01*
X182681714Y-128373190D01*
X183634095Y-127944619D02*
X183681714Y-127897000D01*
X183776952Y-127849381D01*
X184015048Y-127849381D01*
X184110286Y-127897000D01*
X184157905Y-127944619D01*
X184205524Y-128039857D01*
X184205524Y-128135095D01*
X184157905Y-128277952D01*
X183586476Y-128849381D01*
X184205524Y-128849381D01*
X185062667Y-127849381D02*
X184872190Y-127849381D01*
X184776952Y-127897000D01*
X184729333Y-127944619D01*
X184634095Y-128087476D01*
X184586476Y-128277952D01*
X184586476Y-128658905D01*
X184634095Y-128754143D01*
X184681714Y-128801762D01*
X184776952Y-128849381D01*
X184967429Y-128849381D01*
X185062667Y-128801762D01*
X185110286Y-128754143D01*
X185157905Y-128658905D01*
X185157905Y-128420810D01*
X185110286Y-128325571D01*
X185062667Y-128277952D01*
X184967429Y-128230333D01*
X184776952Y-128230333D01*
X184681714Y-128277952D01*
X184634095Y-128325571D01*
X184586476Y-128420810D01*
X197985143Y-126512581D02*
X197651809Y-126036390D01*
X197413714Y-126512581D02*
X197413714Y-125512581D01*
X197794667Y-125512581D01*
X197889905Y-125560200D01*
X197937524Y-125607819D01*
X197985143Y-125703057D01*
X197985143Y-125845914D01*
X197937524Y-125941152D01*
X197889905Y-125988771D01*
X197794667Y-126036390D01*
X197413714Y-126036390D01*
X198366095Y-125607819D02*
X198413714Y-125560200D01*
X198508952Y-125512581D01*
X198747048Y-125512581D01*
X198842286Y-125560200D01*
X198889905Y-125607819D01*
X198937524Y-125703057D01*
X198937524Y-125798295D01*
X198889905Y-125941152D01*
X198318476Y-126512581D01*
X198937524Y-126512581D01*
X199270857Y-125512581D02*
X199937524Y-125512581D01*
X199508952Y-126512581D01*
X183278543Y-126512581D02*
X182945209Y-126036390D01*
X182707114Y-126512581D02*
X182707114Y-125512581D01*
X183088067Y-125512581D01*
X183183305Y-125560200D01*
X183230924Y-125607819D01*
X183278543Y-125703057D01*
X183278543Y-125845914D01*
X183230924Y-125941152D01*
X183183305Y-125988771D01*
X183088067Y-126036390D01*
X182707114Y-126036390D01*
X183659495Y-125607819D02*
X183707114Y-125560200D01*
X183802352Y-125512581D01*
X184040448Y-125512581D01*
X184135686Y-125560200D01*
X184183305Y-125607819D01*
X184230924Y-125703057D01*
X184230924Y-125798295D01*
X184183305Y-125941152D01*
X183611876Y-126512581D01*
X184230924Y-126512581D01*
X184802352Y-125941152D02*
X184707114Y-125893533D01*
X184659495Y-125845914D01*
X184611876Y-125750676D01*
X184611876Y-125703057D01*
X184659495Y-125607819D01*
X184707114Y-125560200D01*
X184802352Y-125512581D01*
X184992829Y-125512581D01*
X185088067Y-125560200D01*
X185135686Y-125607819D01*
X185183305Y-125703057D01*
X185183305Y-125750676D01*
X185135686Y-125845914D01*
X185088067Y-125893533D01*
X184992829Y-125941152D01*
X184802352Y-125941152D01*
X184707114Y-125988771D01*
X184659495Y-126036390D01*
X184611876Y-126131629D01*
X184611876Y-126322105D01*
X184659495Y-126417343D01*
X184707114Y-126464962D01*
X184802352Y-126512581D01*
X184992829Y-126512581D01*
X185088067Y-126464962D01*
X185135686Y-126417343D01*
X185183305Y-126322105D01*
X185183305Y-126131629D01*
X185135686Y-126036390D01*
X185088067Y-125988771D01*
X184992829Y-125941152D01*
X179260595Y-109491881D02*
X179260595Y-110301405D01*
X179308214Y-110396643D01*
X179355833Y-110444262D01*
X179451071Y-110491881D01*
X179641548Y-110491881D01*
X179736786Y-110444262D01*
X179784405Y-110396643D01*
X179832024Y-110301405D01*
X179832024Y-109491881D01*
X180832024Y-110491881D02*
X180260595Y-110491881D01*
X180546309Y-110491881D02*
X180546309Y-109491881D01*
X180451071Y-109634738D01*
X180355833Y-109729976D01*
X180260595Y-109777595D01*
X198245481Y-142493905D02*
X199055005Y-142493905D01*
X199150243Y-142446286D01*
X199197862Y-142398667D01*
X199245481Y-142303429D01*
X199245481Y-142112952D01*
X199197862Y-142017714D01*
X199150243Y-141970095D01*
X199055005Y-141922476D01*
X198245481Y-141922476D01*
X198245481Y-141541524D02*
X198245481Y-140922476D01*
X198626433Y-141255810D01*
X198626433Y-141112952D01*
X198674052Y-141017714D01*
X198721671Y-140970095D01*
X198816910Y-140922476D01*
X199055005Y-140922476D01*
X199150243Y-140970095D01*
X199197862Y-141017714D01*
X199245481Y-141112952D01*
X199245481Y-141398667D01*
X199197862Y-141493905D01*
X199150243Y-141541524D01*
D11*
X167044243Y-141982000D02*
X167758529Y-141982000D01*
X166901386Y-142410571D02*
X167401386Y-140910571D01*
X167901386Y-142410571D01*
X168401386Y-142410571D02*
X168401386Y-141410571D01*
X168401386Y-141696286D02*
X168472814Y-141553429D01*
X168544243Y-141482000D01*
X168687100Y-141410571D01*
X168829957Y-141410571D01*
X169972814Y-142410571D02*
X169972814Y-140910571D01*
X169972814Y-142339143D02*
X169829957Y-142410571D01*
X169544243Y-142410571D01*
X169401385Y-142339143D01*
X169329957Y-142267714D01*
X169258528Y-142124857D01*
X169258528Y-141696286D01*
X169329957Y-141553429D01*
X169401385Y-141482000D01*
X169544243Y-141410571D01*
X169829957Y-141410571D01*
X169972814Y-141482000D01*
X171329957Y-141410571D02*
X171329957Y-142410571D01*
X170687100Y-141410571D02*
X170687100Y-142196286D01*
X170758528Y-142339143D01*
X170901386Y-142410571D01*
X171115671Y-142410571D01*
X171258528Y-142339143D01*
X171329957Y-142267714D01*
X172044243Y-142410571D02*
X172044243Y-141410571D01*
X172044243Y-140910571D02*
X171972814Y-140982000D01*
X172044243Y-141053429D01*
X172115671Y-140982000D01*
X172044243Y-140910571D01*
X172044243Y-141053429D01*
X172758529Y-141410571D02*
X172758529Y-142410571D01*
X172758529Y-141553429D02*
X172829957Y-141482000D01*
X172972815Y-141410571D01*
X173187100Y-141410571D01*
X173329957Y-141482000D01*
X173401386Y-141624857D01*
X173401386Y-142410571D01*
X174329958Y-142410571D02*
X174187100Y-142339143D01*
X174115672Y-142267714D01*
X174044243Y-142124857D01*
X174044243Y-141696286D01*
X174115672Y-141553429D01*
X174187100Y-141482000D01*
X174329958Y-141410571D01*
X174544243Y-141410571D01*
X174687100Y-141482000D01*
X174758529Y-141553429D01*
X174829958Y-141696286D01*
X174829958Y-142124857D01*
X174758529Y-142267714D01*
X174687100Y-142339143D01*
X174544243Y-142410571D01*
X174329958Y-142410571D01*
X176615672Y-142410571D02*
X176615672Y-140910571D01*
X177472815Y-142410571D01*
X177472815Y-140910571D01*
X178829958Y-142410571D02*
X178829958Y-141624857D01*
X178758529Y-141482000D01*
X178615672Y-141410571D01*
X178329958Y-141410571D01*
X178187101Y-141482000D01*
X178829958Y-142339143D02*
X178687101Y-142410571D01*
X178329958Y-142410571D01*
X178187101Y-142339143D01*
X178115672Y-142196286D01*
X178115672Y-142053429D01*
X178187101Y-141910571D01*
X178329958Y-141839143D01*
X178687101Y-141839143D01*
X178829958Y-141767714D01*
X179544244Y-141410571D02*
X179544244Y-142410571D01*
X179544244Y-141553429D02*
X179615672Y-141482000D01*
X179758530Y-141410571D01*
X179972815Y-141410571D01*
X180115672Y-141482000D01*
X180187101Y-141624857D01*
X180187101Y-142410571D01*
X181115673Y-142410571D02*
X180972815Y-142339143D01*
X180901387Y-142267714D01*
X180829958Y-142124857D01*
X180829958Y-141696286D01*
X180901387Y-141553429D01*
X180972815Y-141482000D01*
X181115673Y-141410571D01*
X181329958Y-141410571D01*
X181472815Y-141482000D01*
X181544244Y-141553429D01*
X181615673Y-141696286D01*
X181615673Y-142124857D01*
X181544244Y-142267714D01*
X181472815Y-142339143D01*
X181329958Y-142410571D01*
X181115673Y-142410571D01*
X183258530Y-141410571D02*
X183615673Y-142410571D01*
X183972815Y-141410571D01*
X184401387Y-140910571D02*
X185329958Y-140910571D01*
X184829958Y-141482000D01*
X185044244Y-141482000D01*
X185187101Y-141553429D01*
X185258530Y-141624857D01*
X185329958Y-141767714D01*
X185329958Y-142124857D01*
X185258530Y-142267714D01*
X185187101Y-142339143D01*
X185044244Y-142410571D01*
X184615672Y-142410571D01*
X184472815Y-142339143D01*
X184401387Y-142267714D01*
D16*
X158559595Y-103344381D02*
X158559595Y-104153905D01*
X158607214Y-104249143D01*
X158654833Y-104296762D01*
X158750071Y-104344381D01*
X158940548Y-104344381D01*
X159035786Y-104296762D01*
X159083405Y-104249143D01*
X159131024Y-104153905D01*
X159131024Y-103344381D01*
X159559595Y-103439619D02*
X159607214Y-103392000D01*
X159702452Y-103344381D01*
X159940548Y-103344381D01*
X160035786Y-103392000D01*
X160083405Y-103439619D01*
X160131024Y-103534857D01*
X160131024Y-103630095D01*
X160083405Y-103772952D01*
X159511976Y-104344381D01*
X160131024Y-104344381D01*
X176339595Y-129119381D02*
X176339595Y-129928905D01*
X176387214Y-130024143D01*
X176434833Y-130071762D01*
X176530071Y-130119381D01*
X176720548Y-130119381D01*
X176815786Y-130071762D01*
X176863405Y-130024143D01*
X176911024Y-129928905D01*
X176911024Y-129119381D01*
X177815786Y-129452714D02*
X177815786Y-130119381D01*
X177577690Y-129071762D02*
X177339595Y-129786048D01*
X177958643Y-129786048D01*
X161866343Y-102515943D02*
X161818724Y-102563562D01*
X161675867Y-102611181D01*
X161580629Y-102611181D01*
X161437771Y-102563562D01*
X161342533Y-102468324D01*
X161294914Y-102373086D01*
X161247295Y-102182610D01*
X161247295Y-102039752D01*
X161294914Y-101849276D01*
X161342533Y-101754038D01*
X161437771Y-101658800D01*
X161580629Y-101611181D01*
X161675867Y-101611181D01*
X161818724Y-101658800D01*
X161866343Y-101706419D01*
X162818724Y-102611181D02*
X162247295Y-102611181D01*
X162533009Y-102611181D02*
X162533009Y-101611181D01*
X162437771Y-101754038D01*
X162342533Y-101849276D01*
X162247295Y-101896895D01*
X163437771Y-101611181D02*
X163533010Y-101611181D01*
X163628248Y-101658800D01*
X163675867Y-101706419D01*
X163723486Y-101801657D01*
X163771105Y-101992133D01*
X163771105Y-102230229D01*
X163723486Y-102420705D01*
X163675867Y-102515943D01*
X163628248Y-102563562D01*
X163533010Y-102611181D01*
X163437771Y-102611181D01*
X163342533Y-102563562D01*
X163294914Y-102515943D01*
X163247295Y-102420705D01*
X163199676Y-102230229D01*
X163199676Y-101992133D01*
X163247295Y-101801657D01*
X163294914Y-101706419D01*
X163342533Y-101658800D01*
X163437771Y-101611181D01*
X161866343Y-92762343D02*
X161818724Y-92809962D01*
X161675867Y-92857581D01*
X161580629Y-92857581D01*
X161437771Y-92809962D01*
X161342533Y-92714724D01*
X161294914Y-92619486D01*
X161247295Y-92429010D01*
X161247295Y-92286152D01*
X161294914Y-92095676D01*
X161342533Y-92000438D01*
X161437771Y-91905200D01*
X161580629Y-91857581D01*
X161675867Y-91857581D01*
X161818724Y-91905200D01*
X161866343Y-91952819D01*
X162818724Y-92857581D02*
X162247295Y-92857581D01*
X162533009Y-92857581D02*
X162533009Y-91857581D01*
X162437771Y-92000438D01*
X162342533Y-92095676D01*
X162247295Y-92143295D01*
X163771105Y-92857581D02*
X163199676Y-92857581D01*
X163485390Y-92857581D02*
X163485390Y-91857581D01*
X163390152Y-92000438D01*
X163294914Y-92095676D01*
X163199676Y-92143295D01*
X165303295Y-97953581D02*
X165303295Y-98763105D01*
X165350914Y-98858343D01*
X165398533Y-98905962D01*
X165493771Y-98953581D01*
X165684248Y-98953581D01*
X165779486Y-98905962D01*
X165827105Y-98858343D01*
X165874724Y-98763105D01*
X165874724Y-97953581D01*
X166827105Y-97953581D02*
X166350914Y-97953581D01*
X166303295Y-98429771D01*
X166350914Y-98382152D01*
X166446152Y-98334533D01*
X166684248Y-98334533D01*
X166779486Y-98382152D01*
X166827105Y-98429771D01*
X166874724Y-98525010D01*
X166874724Y-98763105D01*
X166827105Y-98858343D01*
X166779486Y-98905962D01*
X166684248Y-98953581D01*
X166446152Y-98953581D01*
X166350914Y-98905962D01*
X166303295Y-98858343D01*
X204284343Y-116259943D02*
X204236724Y-116307562D01*
X204093867Y-116355181D01*
X203998629Y-116355181D01*
X203855771Y-116307562D01*
X203760533Y-116212324D01*
X203712914Y-116117086D01*
X203665295Y-115926610D01*
X203665295Y-115783752D01*
X203712914Y-115593276D01*
X203760533Y-115498038D01*
X203855771Y-115402800D01*
X203998629Y-115355181D01*
X204093867Y-115355181D01*
X204236724Y-115402800D01*
X204284343Y-115450419D01*
X205236724Y-116355181D02*
X204665295Y-116355181D01*
X204951009Y-116355181D02*
X204951009Y-115355181D01*
X204855771Y-115498038D01*
X204760533Y-115593276D01*
X204665295Y-115640895D01*
X205617676Y-115450419D02*
X205665295Y-115402800D01*
X205760533Y-115355181D01*
X205998629Y-115355181D01*
X206093867Y-115402800D01*
X206141486Y-115450419D01*
X206189105Y-115545657D01*
X206189105Y-115640895D01*
X206141486Y-115783752D01*
X205570057Y-116355181D01*
X206189105Y-116355181D01*
X204284343Y-127218143D02*
X204236724Y-127265762D01*
X204093867Y-127313381D01*
X203998629Y-127313381D01*
X203855771Y-127265762D01*
X203760533Y-127170524D01*
X203712914Y-127075286D01*
X203665295Y-126884810D01*
X203665295Y-126741952D01*
X203712914Y-126551476D01*
X203760533Y-126456238D01*
X203855771Y-126361000D01*
X203998629Y-126313381D01*
X204093867Y-126313381D01*
X204236724Y-126361000D01*
X204284343Y-126408619D01*
X205236724Y-127313381D02*
X204665295Y-127313381D01*
X204951009Y-127313381D02*
X204951009Y-126313381D01*
X204855771Y-126456238D01*
X204760533Y-126551476D01*
X204665295Y-126599095D01*
X205570057Y-126313381D02*
X206189105Y-126313381D01*
X205855771Y-126694333D01*
X205998629Y-126694333D01*
X206093867Y-126741952D01*
X206141486Y-126789571D01*
X206189105Y-126884810D01*
X206189105Y-127122905D01*
X206141486Y-127218143D01*
X206093867Y-127265762D01*
X205998629Y-127313381D01*
X205712914Y-127313381D01*
X205617676Y-127265762D01*
X205570057Y-127218143D01*
X200266248Y-125382429D02*
X201028153Y-125382429D01*
X200647201Y-125763381D02*
X200647201Y-125001476D01*
X175379143Y-121356381D02*
X175045809Y-120880190D01*
X174807714Y-121356381D02*
X174807714Y-120356381D01*
X175188667Y-120356381D01*
X175283905Y-120404000D01*
X175331524Y-120451619D01*
X175379143Y-120546857D01*
X175379143Y-120689714D01*
X175331524Y-120784952D01*
X175283905Y-120832571D01*
X175188667Y-120880190D01*
X174807714Y-120880190D01*
X176331524Y-121356381D02*
X175760095Y-121356381D01*
X176045809Y-121356381D02*
X176045809Y-120356381D01*
X175950571Y-120499238D01*
X175855333Y-120594476D01*
X175760095Y-120642095D01*
X176807714Y-121356381D02*
X176998190Y-121356381D01*
X177093429Y-121308762D01*
X177141048Y-121261143D01*
X177236286Y-121118286D01*
X177283905Y-120927810D01*
X177283905Y-120546857D01*
X177236286Y-120451619D01*
X177188667Y-120404000D01*
X177093429Y-120356381D01*
X176902952Y-120356381D01*
X176807714Y-120404000D01*
X176760095Y-120451619D01*
X176712476Y-120546857D01*
X176712476Y-120784952D01*
X176760095Y-120880190D01*
X176807714Y-120927810D01*
X176902952Y-120975429D01*
X177093429Y-120975429D01*
X177188667Y-120927810D01*
X177236286Y-120880190D01*
X177283905Y-120784952D01*
M02*
