M48
; DRILL file {KiCad 5.1.9-73d0e3b20d~88~ubuntu20.04.1} date Sun May  9 07:33:56 2021
; FORMAT={-:-/ absolute / inch / decimal}
; #@! TF.CreationDate,2021-05-09T07:33:56+02:00
; #@! TF.GenerationSoftware,Kicad,Pcbnew,5.1.9-73d0e3b20d~88~ubuntu20.04.1
; #@! TF.FileFunction,Plated,1,2,PTH
FMAT,2
INCH
T1C0.0157
T2C0.0300
T3C0.0354
T4C0.0787
%
G90
G05
T1
X5.783Y-4.509
X5.872Y-4.508
X5.937Y-4.03
X5.961Y-4.509
X5.98Y-4.219
X5.984Y-4.083
X6.006Y-4.334
X6.026Y-3.899
X6.114Y-3.899
X6.203Y-3.898
X6.206Y-4.256
X6.516Y-3.831
X6.63Y-4.865
X6.659Y-5.1225
X6.714Y-4.964
X6.714Y-5.076
X6.787Y-5.148
X6.839Y-5.015
X6.9965Y-4.0571
X6.9965Y-4.1469
X6.9972Y-4.2354
X7.2157Y-4.2268
X7.2161Y-4.3583
X7.2976Y-4.0331
X7.308Y-4.963
X7.309Y-4.87
X7.3323Y-4.1417
X7.3866Y-4.5047
X7.4602Y-4.1421
X7.4602Y-4.3213
X7.4654Y-4.4748
X7.5016Y-4.587
X7.5713Y-4.2071
X7.587Y-4.0339
X7.5878Y-4.2445
X7.751Y-5.055
X7.752Y-4.963
X7.753Y-4.871
X7.7735Y-5.4425
X7.825Y-3.878
X7.913Y-5.071
X8.028Y-5.242
T2
X6.2365Y-5.28
X6.2365Y-5.88
X6.3365Y-5.28
X6.3365Y-5.88
X6.4365Y-5.28
X6.4365Y-5.88
X6.5365Y-5.28
X6.5365Y-5.88
X6.6365Y-5.28
X6.6365Y-5.88
X6.7365Y-5.28
X6.7365Y-5.88
X6.8365Y-5.28
X6.8365Y-5.88
X6.9365Y-5.28
X6.9365Y-5.88
X7.0365Y-5.28
X7.0365Y-5.88
X7.1365Y-5.28
X7.1365Y-5.88
X7.2365Y-5.28
X7.2365Y-5.88
X7.3365Y-5.28
X7.3365Y-5.88
X7.4365Y-5.28
X7.4365Y-5.88
X7.5365Y-5.28
X7.5365Y-5.88
X7.6365Y-5.28
X7.6365Y-5.88
X8.368Y-2.645
X8.368Y-2.745
X8.368Y-2.845
X8.368Y-2.945
X8.368Y-3.045
X8.368Y-3.145
X8.368Y-3.245
X8.368Y-3.345
X8.368Y-3.445
X8.368Y-3.545
X8.368Y-3.645
X8.368Y-3.745
X8.368Y-3.845
X8.368Y-3.945
X8.368Y-4.045
X8.368Y-4.145
X8.368Y-4.245
X8.368Y-4.345
X8.368Y-4.445
X8.368Y-4.545
X8.368Y-4.645
X8.368Y-4.745
X8.368Y-4.845
X8.368Y-4.945
X8.368Y-5.045
X8.368Y-5.145
X8.368Y-5.245
X8.368Y-5.345
X8.368Y-5.445
X8.368Y-5.545
X8.368Y-5.645
X8.368Y-5.745
X8.468Y-2.645
X8.468Y-2.745
X8.468Y-2.845
X8.468Y-2.945
X8.468Y-3.045
X8.468Y-3.145
X8.468Y-3.245
X8.468Y-3.345
X8.468Y-3.445
X8.468Y-3.545
X8.468Y-3.645
X8.468Y-3.745
X8.468Y-3.845
X8.468Y-3.945
X8.468Y-4.045
X8.468Y-4.145
X8.468Y-4.245
X8.468Y-4.345
X8.468Y-4.445
X8.468Y-4.545
X8.468Y-4.645
X8.468Y-4.745
X8.468Y-4.845
X8.468Y-4.945
X8.468Y-5.045
X8.468Y-5.145
X8.468Y-5.245
X8.468Y-5.345
X8.468Y-5.445
X8.468Y-5.545
X8.468Y-5.645
X8.468Y-5.745
T3
X5.279Y-2.891
X5.279Y-2.991
X5.279Y-3.759
X5.279Y-3.859
X5.28Y-4.625
X5.28Y-4.725
X5.28Y-5.495
X5.28Y-5.595
T4
X5.079Y-2.691
X5.079Y-3.091
X5.079Y-3.559
X5.079Y-3.959
X5.08Y-4.425
X5.08Y-4.825
X5.08Y-5.295
X5.08Y-5.695
T0
M30
