%TF.GenerationSoftware,KiCad,Pcbnew,(6.0.6)*%
%TF.CreationDate,2023-01-12T23:41:02-06:00*%
%TF.ProjectId,bkm-129x-simple,626b6d2d-3132-4397-982d-73696d706c65,rev?*%
%TF.SameCoordinates,Original*%
%TF.FileFunction,Soldermask,Top*%
%TF.FilePolarity,Negative*%
%FSLAX46Y46*%
G04 Gerber Fmt 4.6, Leading zero omitted, Abs format (unit mm)*
G04 Created by KiCad (PCBNEW (6.0.6)) date 2023-01-12 23:41:02*
%MOMM*%
%LPD*%
G01*
G04 APERTURE LIST*
G04 Aperture macros list*
%AMRoundRect*
0 Rectangle with rounded corners*
0 $1 Rounding radius*
0 $2 $3 $4 $5 $6 $7 $8 $9 X,Y pos of 4 corners*
0 Add a 4 corners polygon primitive as box body*
4,1,4,$2,$3,$4,$5,$6,$7,$8,$9,$2,$3,0*
0 Add four circle primitives for the rounded corners*
1,1,$1+$1,$2,$3*
1,1,$1+$1,$4,$5*
1,1,$1+$1,$6,$7*
1,1,$1+$1,$8,$9*
0 Add four rect primitives between the rounded corners*
20,1,$1+$1,$2,$3,$4,$5,0*
20,1,$1+$1,$4,$5,$6,$7,0*
20,1,$1+$1,$6,$7,$8,$9,0*
20,1,$1+$1,$8,$9,$2,$3,0*%
G04 Aperture macros list end*
%ADD10R,1.000000X1.500000*%
%ADD11R,1.500000X1.250000*%
%ADD12R,1.250000X1.500000*%
%ADD13R,1.600000X3.500000*%
%ADD14RoundRect,0.200000X0.200000X0.275000X-0.200000X0.275000X-0.200000X-0.275000X0.200000X-0.275000X0*%
%ADD15RoundRect,0.200000X-0.275000X0.200000X-0.275000X-0.200000X0.275000X-0.200000X0.275000X0.200000X0*%
%ADD16RoundRect,0.200000X-0.200000X-0.275000X0.200000X-0.275000X0.200000X0.275000X-0.200000X0.275000X0*%
%ADD17R,1.500000X0.450000*%
%ADD18C,1.524000*%
%ADD19R,1.450000X0.450000*%
%ADD20R,1.560000X0.650000*%
%ADD21R,3.500000X1.600000*%
%ADD22RoundRect,0.135000X0.185000X-0.135000X0.185000X0.135000X-0.185000X0.135000X-0.185000X-0.135000X0*%
%ADD23C,2.500000*%
%ADD24RoundRect,0.750000X-1.500000X0.750000X-1.500000X-0.750000X1.500000X-0.750000X1.500000X0.750000X0*%
%ADD25RoundRect,0.218750X0.218750X0.256250X-0.218750X0.256250X-0.218750X-0.256250X0.218750X-0.256250X0*%
%ADD26C,3.000000*%
%ADD27C,2.000000*%
%ADD28R,2.200000X2.800000*%
%ADD29R,2.800000X2.800000*%
%ADD30R,0.800000X1.800000*%
G04 APERTURE END LIST*
D10*
%TO.C,J1*%
X136250000Y-39400000D03*
X137550000Y-39400000D03*
%TD*%
D11*
%TO.C,C1*%
X120465100Y-41910600D03*
X117965100Y-41910600D03*
%TD*%
%TO.C,C2*%
X120465100Y-45403100D03*
X117965100Y-45403100D03*
%TD*%
%TO.C,C3*%
X120465100Y-48895600D03*
X117965100Y-48895600D03*
%TD*%
%TO.C,C4*%
X120465100Y-52388100D03*
X117965100Y-52388100D03*
%TD*%
%TO.C,C5*%
X130130000Y-44030000D03*
X127630000Y-44030000D03*
%TD*%
D12*
%TO.C,C6*%
X150321000Y-40792000D03*
X150321000Y-38292000D03*
%TD*%
D13*
%TO.C,C7*%
X154956500Y-42242000D03*
X154956500Y-36842000D03*
%TD*%
%TO.C,C8*%
X162322500Y-36842000D03*
X162322500Y-42242000D03*
%TD*%
D12*
%TO.C,C9*%
X167021500Y-40792000D03*
X167021500Y-38292000D03*
%TD*%
D14*
%TO.C,R1*%
X155195000Y-56680000D03*
X153545000Y-56680000D03*
%TD*%
D15*
%TO.C,R2*%
X120472400Y-36005600D03*
X120472400Y-37655600D03*
%TD*%
%TO.C,R3*%
X122733000Y-36005600D03*
X122733000Y-37655600D03*
%TD*%
%TO.C,R4*%
X124993600Y-36005600D03*
X124993600Y-37655600D03*
%TD*%
%TO.C,R5*%
X127254200Y-36005600D03*
X127254200Y-37655600D03*
%TD*%
D14*
%TO.C,R6*%
X138594800Y-43739400D03*
X136944800Y-43739400D03*
%TD*%
%TO.C,R7*%
X138595000Y-46000000D03*
X136945000Y-46000000D03*
%TD*%
%TO.C,R8*%
X138594800Y-48260600D03*
X136944800Y-48260600D03*
%TD*%
%TO.C,R9*%
X138594800Y-50521200D03*
X136944800Y-50521200D03*
%TD*%
%TO.C,R10*%
X115214100Y-52388100D03*
X113564100Y-52388100D03*
%TD*%
%TO.C,R11*%
X115214100Y-48895600D03*
X113564100Y-48895600D03*
%TD*%
%TO.C,R12*%
X115214100Y-45403100D03*
X113564100Y-45403100D03*
%TD*%
%TO.C,R13*%
X115214100Y-41910600D03*
X113564100Y-41910600D03*
%TD*%
D15*
%TO.C,R14*%
X116560800Y-57265400D03*
X116560800Y-58915400D03*
%TD*%
%TO.C,R15*%
X118821400Y-57265400D03*
X118821400Y-58915400D03*
%TD*%
%TO.C,R16*%
X121082000Y-57265400D03*
X121082000Y-58915400D03*
%TD*%
%TO.C,R17*%
X123342600Y-57265400D03*
X123342600Y-58915400D03*
%TD*%
D16*
%TO.C,R18*%
X153565000Y-54350000D03*
X155215000Y-54350000D03*
%TD*%
%TO.C,R20*%
X138626000Y-67397000D03*
X140276000Y-67397000D03*
%TD*%
%TO.C,R21*%
X133241200Y-67397000D03*
X134891200Y-67397000D03*
%TD*%
D15*
%TO.C,R22*%
X148000000Y-74025000D03*
X148000000Y-75675000D03*
%TD*%
D16*
%TO.C,R23*%
X116832800Y-66889000D03*
X118482800Y-66889000D03*
%TD*%
%TO.C,R24*%
X133266600Y-74458200D03*
X134916600Y-74458200D03*
%TD*%
%TO.C,R25*%
X138626000Y-72096000D03*
X140276000Y-72096000D03*
%TD*%
%TO.C,R26*%
X133241200Y-72096000D03*
X134891200Y-72096000D03*
%TD*%
%TO.C,R27*%
X138626000Y-69759200D03*
X140276000Y-69759200D03*
%TD*%
%TO.C,R28*%
X133241200Y-69759200D03*
X134891200Y-69759200D03*
%TD*%
D17*
%TO.C,U1*%
X160420000Y-52015000D03*
X160420000Y-51365000D03*
X160420000Y-50715000D03*
X160420000Y-50065000D03*
X160420000Y-49415000D03*
X160420000Y-48765000D03*
X160420000Y-48115000D03*
X160420000Y-47465000D03*
X154520000Y-47465000D03*
X154520000Y-48115000D03*
X154520000Y-48765000D03*
X154520000Y-49415000D03*
X154520000Y-50065000D03*
X154520000Y-50715000D03*
X154520000Y-51365000D03*
X154520000Y-52015000D03*
%TD*%
D18*
%TO.C,U3*%
X104320000Y-74895000D03*
X104320000Y-72355000D03*
X104320000Y-69815000D03*
X104320000Y-67275000D03*
X104320000Y-64735000D03*
X104320000Y-62195000D03*
X104320000Y-59655000D03*
X104320000Y-57115000D03*
X104320000Y-54575000D03*
X104320000Y-52035000D03*
X104320000Y-49495000D03*
X104320000Y-46955000D03*
X104320000Y-44415000D03*
X104320000Y-41875000D03*
X104320000Y-39335000D03*
X89080000Y-39335000D03*
X89080000Y-41875000D03*
X89080000Y-44415000D03*
X89080000Y-46955000D03*
X89080000Y-49495000D03*
X89080000Y-52035000D03*
X89080000Y-54575000D03*
X89080000Y-57115000D03*
X89080000Y-59655000D03*
X89080000Y-62195000D03*
X89080000Y-64735000D03*
X89080000Y-67275000D03*
X89080000Y-69815000D03*
X89080000Y-72355000D03*
X89080000Y-74895000D03*
%TD*%
D19*
%TO.C,U2*%
X126044100Y-46183600D03*
X126044100Y-46833600D03*
X126044100Y-47483600D03*
X126044100Y-48133600D03*
X126044100Y-48783600D03*
X126044100Y-49433600D03*
X126044100Y-50083600D03*
X131944100Y-50083600D03*
X131944100Y-49433600D03*
X131944100Y-48783600D03*
X131944100Y-48133600D03*
X131944100Y-47483600D03*
X131944100Y-46833600D03*
X131944100Y-46183600D03*
%TD*%
%TO.C,U4*%
X114682400Y-69130000D03*
X114682400Y-69780000D03*
X114682400Y-70430000D03*
X114682400Y-71080000D03*
X114682400Y-71730000D03*
X114682400Y-72380000D03*
X114682400Y-73030000D03*
X120582400Y-73030000D03*
X120582400Y-72380000D03*
X120582400Y-71730000D03*
X120582400Y-71080000D03*
X120582400Y-70430000D03*
X120582400Y-69780000D03*
X120582400Y-69130000D03*
%TD*%
D11*
%TO.C,C10*%
X130931800Y-41097800D03*
X133431800Y-41097800D03*
%TD*%
%TO.C,C11*%
X133431800Y-34849400D03*
X130931800Y-34849400D03*
%TD*%
D20*
%TO.C,U5*%
X133658800Y-38923600D03*
X133658800Y-37973600D03*
X133658800Y-37023600D03*
X130958800Y-37023600D03*
X130958800Y-38923600D03*
%TD*%
D11*
%TO.C,C12*%
X149250000Y-61351800D03*
X151750000Y-61351800D03*
%TD*%
D21*
%TO.C,C13*%
X147800000Y-66000000D03*
X153200000Y-66000000D03*
%TD*%
D16*
%TO.C,R19*%
X116832800Y-64603000D03*
X118482800Y-64603000D03*
%TD*%
%TO.C,R29*%
X143947600Y-43741600D03*
X145597600Y-43741600D03*
%TD*%
%TO.C,R30*%
X143967600Y-46001600D03*
X145617600Y-46001600D03*
%TD*%
%TO.C,R31*%
X143957600Y-48261600D03*
X145607600Y-48261600D03*
%TD*%
D22*
%TO.C,R50*%
X151851250Y-171010000D03*
X151851250Y-169990000D03*
%TD*%
D18*
%TO.C,J5*%
X160135000Y-67200000D03*
X157595000Y-67200000D03*
X160135000Y-69740000D03*
X157595000Y-69740000D03*
X160135000Y-72280000D03*
X157595000Y-72280000D03*
X160135000Y-74820000D03*
X157595000Y-74820000D03*
X160135000Y-77360000D03*
X157595000Y-77360000D03*
X160135000Y-79900000D03*
X157595000Y-79900000D03*
X160135000Y-82440000D03*
X157595000Y-82440000D03*
X160135000Y-84980000D03*
X157595000Y-84980000D03*
X160135000Y-87520000D03*
X157595000Y-87520000D03*
X160135000Y-90060000D03*
X157595000Y-90060000D03*
X160135000Y-92600000D03*
X157595000Y-92600000D03*
X160135000Y-95140000D03*
X157595000Y-95140000D03*
X160135000Y-97680000D03*
X157595000Y-97680000D03*
X160135000Y-100220000D03*
X157595000Y-100220000D03*
X160135000Y-102760000D03*
X157595000Y-102760000D03*
X160135000Y-105300000D03*
X157595000Y-105300000D03*
X160135000Y-107840000D03*
X157595000Y-107840000D03*
X160135000Y-110380000D03*
X157595000Y-110380000D03*
X160135000Y-112920000D03*
X157595000Y-112920000D03*
X160135000Y-115460000D03*
X157595000Y-115460000D03*
X160135000Y-118000000D03*
X157595000Y-118000000D03*
X160135000Y-120540000D03*
X157595000Y-120540000D03*
X160135000Y-123080000D03*
X157595000Y-123080000D03*
X160135000Y-125620000D03*
X157595000Y-125620000D03*
X160135000Y-128160000D03*
X157595000Y-128160000D03*
X160135000Y-130700000D03*
X157595000Y-130700000D03*
X160135000Y-133240000D03*
X157595000Y-133240000D03*
X160135000Y-135780000D03*
X157595000Y-135780000D03*
X160135000Y-138320000D03*
X157595000Y-138320000D03*
X160135000Y-140860000D03*
X157595000Y-140860000D03*
X160135000Y-143400000D03*
X157595000Y-143400000D03*
X160135000Y-145940000D03*
X157595000Y-145940000D03*
%TD*%
D23*
%TO.C,TP16*%
X162020000Y-157930000D03*
%TD*%
D18*
%TO.C,CN2*%
X84687500Y-140410000D03*
X84787500Y-157490000D03*
X84687500Y-142410000D03*
X84787500Y-159490000D03*
X84687500Y-144410000D03*
X84787500Y-161490000D03*
X82687500Y-139410000D03*
X82787500Y-156490000D03*
X82687500Y-141410000D03*
X82787500Y-158490000D03*
X82687500Y-143410000D03*
X82787500Y-160490000D03*
X82687500Y-145410000D03*
X82787500Y-162490000D03*
D24*
X83537500Y-152990000D03*
X83437500Y-148910000D03*
X83437500Y-135910000D03*
X83537500Y-165990000D03*
%TD*%
D23*
%TO.C,TP5*%
X161460000Y-167830000D03*
%TD*%
%TO.C,REF\u002A\u002A*%
X70000000Y-183000000D03*
%TD*%
D25*
%TO.C,D2*%
X149697500Y-157290000D03*
X148122500Y-157290000D03*
%TD*%
D23*
%TO.C,REF\u002A\u002A*%
X144500000Y-136000000D03*
%TD*%
D26*
%TO.C,TP1*%
X117500000Y-176000000D03*
%TD*%
D23*
%TO.C,TP11*%
X108090000Y-44810000D03*
%TD*%
D22*
%TO.C,R51*%
X139500000Y-173010000D03*
X139500000Y-171990000D03*
%TD*%
%TO.C,R48*%
X151910000Y-156010000D03*
X151910000Y-154990000D03*
%TD*%
D23*
%TO.C,TP12*%
X115090000Y-37170000D03*
%TD*%
%TO.C,TP14*%
X111020000Y-48200000D03*
%TD*%
%TO.C,TP13*%
X110780000Y-42240000D03*
%TD*%
D26*
%TO.C,TP2*%
X101250000Y-176000000D03*
%TD*%
D23*
%TO.C,REF\u002A\u002A*%
X73800000Y-87000000D03*
%TD*%
%TO.C,TP15*%
X110850000Y-54630000D03*
%TD*%
%TO.C,TP17*%
X167780000Y-158030000D03*
%TD*%
%TO.C,*%
X153900000Y-150300000D03*
%TD*%
%TO.C,TP8*%
X164650000Y-153760000D03*
%TD*%
D25*
%TO.C,D7*%
X137787500Y-171000000D03*
X136212500Y-171000000D03*
%TD*%
D23*
%TO.C,REF\u002A\u002A*%
X144500000Y-94000000D03*
%TD*%
D25*
%TO.C,D8*%
X137787500Y-174500000D03*
X136212500Y-174500000D03*
%TD*%
D26*
%TO.C,TP3*%
X109250000Y-176000000D03*
%TD*%
D23*
%TO.C,REF\u002A\u002A*%
X86500000Y-94000000D03*
%TD*%
%TO.C,TP10*%
X110960000Y-37000000D03*
%TD*%
D25*
%TO.C,D3*%
X152787500Y-162095000D03*
X151212500Y-162095000D03*
%TD*%
D18*
%TO.C,CN1*%
X84740000Y-40300000D03*
X84740000Y-68180000D03*
X84740000Y-42300000D03*
X84740000Y-70180000D03*
X84740000Y-44300000D03*
X84740000Y-72180000D03*
X82740000Y-39300000D03*
X82740000Y-67180000D03*
X82740000Y-41300000D03*
X82740000Y-69180000D03*
X82740000Y-43300000D03*
X82740000Y-71180000D03*
X82740000Y-45300000D03*
X82740000Y-73180000D03*
D24*
X83490000Y-35800000D03*
X83490000Y-76680000D03*
X83490000Y-48800000D03*
X83490000Y-63680000D03*
%TD*%
D25*
%TO.C,D4*%
X152877500Y-165095000D03*
X151302500Y-165095000D03*
%TD*%
%TO.C,D5*%
X149638750Y-169000000D03*
X148063750Y-169000000D03*
%TD*%
D23*
%TO.C,TP6*%
X166150000Y-171630000D03*
%TD*%
%TO.C,TP9*%
X108210000Y-50630000D03*
%TD*%
%TO.C,TP7*%
X161500000Y-174500000D03*
%TD*%
D27*
%TO.C,U14*%
X76600000Y-172625000D03*
X69600000Y-172625000D03*
D28*
X68500000Y-176325000D03*
D29*
X77900000Y-176325000D03*
D28*
X70500000Y-168925000D03*
D29*
X81900000Y-171875000D03*
%TD*%
D25*
%TO.C,D1*%
X149787500Y-154000000D03*
X148212500Y-154000000D03*
%TD*%
%TO.C,D6*%
X149638750Y-172500000D03*
X148063750Y-172500000D03*
%TD*%
D22*
%TO.C,R49*%
X155000000Y-164105000D03*
X155000000Y-163085000D03*
%TD*%
D30*
%TO.C,Q1*%
X152250000Y-72660000D03*
X150350000Y-72660000D03*
X151300000Y-75960000D03*
%TD*%
D23*
%TO.C,TP4*%
X165960000Y-164320000D03*
%TD*%
%TO.C,REF\u002A\u002A*%
X73800000Y-56300000D03*
%TD*%
%TO.C,REF\u002A\u002A*%
X70000000Y-30000000D03*
%TD*%
M02*
