M48
; DRILL file {KiCad (6.0.6)} date Thu Jan 12 23:41:30 2023
; FORMAT={-:-/ absolute / inch / decimal}
; #@! TF.CreationDate,2023-01-12T23:41:30-06:00
; #@! TF.GenerationSoftware,Kicad,Pcbnew,(6.0.6)
; #@! TF.FileFunction,Plated,1,2,PTH
FMAT,2
INCH
; #@! TA.AperFunction,Plated,PTH,ViaDrill
T1C0.0157
; #@! TA.AperFunction,Plated,PTH,ComponentDrill
T2C0.0300
; #@! TA.AperFunction,Plated,PTH,ComponentDrill
T3C0.0394
%
G90
G05
T1
X2.8728Y-6.1307
X2.875Y-5.4902
X2.8769Y-1.8957
X2.8795Y-5.9941
X2.8796Y-2.6457
X2.8798Y-2.9917
X2.8816Y-5.3535
X2.8824Y-5.8343
X2.8825Y-1.5441
X2.8836Y-1.7591
X2.8859Y-6.4817
X2.8863Y-2.5091
X2.8865Y-2.8551
X2.8891Y-5.6976
X2.8892Y-1.4075
X2.8926Y-6.3451
X2.8947Y-6.6506
X2.8969Y-4.8098
X2.9835Y-4.9028
X3.0632Y-3.0557
X3.2402Y-6.9429
X3.8031Y-3.4724
X3.9469Y-2.4969
X4.2402Y-2.7303
X4.274Y-2.5756
X4.2939Y-2.9455
X4.3181Y-2.824
X4.3378Y-2.7343
X4.4872Y-2.6484
X4.5146Y-2.676
X4.5162Y-2.9059
X4.5712Y-2.7474
X4.5712Y-2.8594
X4.589Y-2.174
X4.6442Y-2.9314
X4.678Y-2.173
X4.6962Y-2.7984
X4.743Y-1.695
X4.767Y-2.174
X4.786Y-1.884
X4.79Y-1.748
X4.812Y-1.999
X4.832Y-1.564
X4.8382Y-2.5814
X4.92Y-1.564
X5.009Y-1.563
X5.012Y-1.921
X5.1413Y-1.9146
X5.1652Y-2.7464
X5.1662Y-2.6534
X5.322Y-1.496
X5.3696Y-6.6338
X5.3902Y-2.9794
X5.3913Y-3.0303
X5.4465Y-3.0291
X5.4476Y-2.9055
X5.4829Y-2.4864
X5.4905Y-2.7924
X5.4905Y-3.116
X5.6082Y-2.8384
X5.6092Y-2.7464
X5.6102Y-2.6544
X5.6201Y-3.0807
X5.7244Y-2.7004
X5.7248Y-3.124
X5.8025Y-1.7221
X5.8025Y-1.8119
X5.8033Y-1.9005
X5.8661Y-5.8563
X5.8693Y-5.2591
X5.8858Y-6.6043
X5.9402Y-2.087
X5.9449Y-5.6102
X5.9449Y-5.7382
X5.95Y-2.3185
X6.0118Y-1.7398
X6.0189Y-1.9535
X6.0193Y-2.085
X6.0433Y-5.8976
X6.0433Y-5.9331
X6.0748Y-5.8976
X6.0748Y-5.9331
X6.1008Y-1.7598
X6.1063Y-4.2323
X6.1354Y-1.8685
X6.1898Y-2.2315
X6.2067Y-2.1398
X6.2087Y-6.102
X6.2634Y-1.8689
X6.2634Y-2.048
X6.3531Y-2.5417
X6.3744Y-1.9339
X6.389Y-2.485
X6.3902Y-1.7606
X6.3909Y-1.9713
X6.4346Y-2.4083
X6.5598Y-2.4839
X6.5681Y-2.4071
X6.6024Y-2.5417
X6.6075Y-6.1094
X6.6281Y-1.6048
T2
X3.2554Y-5.4886
X3.2554Y-5.5673
X3.2554Y-5.6461
X3.2554Y-5.7248
X3.2575Y-1.5472
X3.2575Y-1.626
X3.2575Y-1.7047
X3.2575Y-1.7835
X3.2575Y-2.6449
X3.2575Y-2.7236
X3.2575Y-2.8024
X3.2575Y-2.8811
X3.2594Y-6.161
X3.2594Y-6.2398
X3.2594Y-6.3185
X3.2594Y-6.3972
X3.3342Y-5.528
X3.3342Y-5.6067
X3.3342Y-5.6854
X3.3362Y-1.5866
X3.3362Y-1.6654
X3.3362Y-1.7441
X3.3362Y-2.6843
X3.3362Y-2.763
X3.3362Y-2.8417
X3.3381Y-6.2004
X3.3381Y-6.2791
X3.3381Y-6.3579
X3.5071Y-1.5486
X3.5071Y-1.6486
X3.5071Y-1.7486
X3.5071Y-1.8486
X3.5071Y-1.9486
X3.5071Y-2.0486
X3.5071Y-2.1486
X3.5071Y-2.2486
X3.5071Y-2.3486
X3.5071Y-2.4486
X3.5071Y-2.5486
X3.5071Y-2.6486
X3.5071Y-2.7486
X3.5071Y-2.8486
X3.5071Y-2.9486
X4.1071Y-1.5486
X4.1071Y-1.6486
X4.1071Y-1.7486
X4.1071Y-1.8486
X4.1071Y-1.9486
X4.1071Y-2.0486
X4.1071Y-2.1486
X4.1071Y-2.2486
X4.1071Y-2.3486
X4.1071Y-2.4486
X4.1071Y-2.5486
X4.1071Y-2.6486
X4.1071Y-2.7486
X4.1071Y-2.8486
X4.1071Y-2.9486
X6.2045Y-2.6457
X6.2045Y-2.7457
X6.2045Y-2.8457
X6.2045Y-2.9457
X6.2045Y-3.0457
X6.2045Y-3.1457
X6.2045Y-3.2457
X6.2045Y-3.3457
X6.2045Y-3.4457
X6.2045Y-3.5457
X6.2045Y-3.6457
X6.2045Y-3.7457
X6.2045Y-3.8457
X6.2045Y-3.9457
X6.2045Y-4.0457
X6.2045Y-4.1457
X6.2045Y-4.2457
X6.2045Y-4.3457
X6.2045Y-4.4457
X6.2045Y-4.5457
X6.2045Y-4.6457
X6.2045Y-4.7457
X6.2045Y-4.8457
X6.2045Y-4.9457
X6.2045Y-5.0457
X6.2045Y-5.1457
X6.2045Y-5.2457
X6.2045Y-5.3457
X6.2045Y-5.4457
X6.2045Y-5.5457
X6.2045Y-5.6457
X6.2045Y-5.7457
X6.3045Y-2.6457
X6.3045Y-2.7457
X6.3045Y-2.8457
X6.3045Y-2.9457
X6.3045Y-3.0457
X6.3045Y-3.1457
X6.3045Y-3.2457
X6.3045Y-3.3457
X6.3045Y-3.4457
X6.3045Y-3.5457
X6.3045Y-3.6457
X6.3045Y-3.7457
X6.3045Y-3.8457
X6.3045Y-3.9457
X6.3045Y-4.0457
X6.3045Y-4.1457
X6.3045Y-4.2457
X6.3045Y-4.3457
X6.3045Y-4.4457
X6.3045Y-4.5457
X6.3045Y-4.6457
X6.3045Y-4.7457
X6.3045Y-4.8457
X6.3045Y-4.9457
X6.3045Y-5.0457
X6.3045Y-5.1457
X6.3045Y-5.2457
X6.3045Y-5.3457
X6.3045Y-5.4457
X6.3045Y-5.5457
X6.3045Y-5.6457
X6.3045Y-5.7457
T3
G00X3.3145Y-5.3508
M15
G01X3.2554Y-5.3508
M16
G05
G00X3.3145Y-5.8626
M15
G01X3.2554Y-5.8626
M16
G05
G00X3.3165Y-1.4094
M15
G01X3.2575Y-1.4094
M16
G05
G00X3.3165Y-1.9213
M15
G01X3.2575Y-1.9213
M16
G05
G00X3.3165Y-2.5071
M15
G01X3.2575Y-2.5071
M16
G05
G00X3.3165Y-3.0189
M15
G01X3.2575Y-3.0189
M16
G05
G00X3.3184Y-6.0232
M15
G01X3.2594Y-6.0232
M16
G05
G00X3.3184Y-6.535
M15
G01X3.2594Y-6.535
M16
G05
T0
M30
