%TF.GenerationSoftware,KiCad,Pcbnew,(6.0.6)*%
%TF.CreationDate,2023-01-12T23:41:02-06:00*%
%TF.ProjectId,bkm-129x-simple,626b6d2d-3132-4397-982d-73696d706c65,rev?*%
%TF.SameCoordinates,Original*%
%TF.FileFunction,Legend,Bot*%
%TF.FilePolarity,Positive*%
%FSLAX46Y46*%
G04 Gerber Fmt 4.6, Leading zero omitted, Abs format (unit mm)*
G04 Created by KiCad (PCBNEW (6.0.6)) date 2023-01-12 23:41:02*
%MOMM*%
%LPD*%
G01*
G04 APERTURE LIST*
%ADD10C,0.150000*%
%ADD11C,0.200000*%
%ADD12C,0.300000*%
%ADD13C,0.500000*%
%ADD14C,0.120000*%
G04 APERTURE END LIST*
D10*
X73086666Y-149363333D02*
X73053333Y-149330000D01*
X72986666Y-149296666D01*
X72820000Y-149296666D01*
X72753333Y-149330000D01*
X72720000Y-149363333D01*
X72686666Y-149430000D01*
X72686666Y-149496666D01*
X72720000Y-149596666D01*
X73120000Y-149996666D01*
X72686666Y-149996666D01*
X72253333Y-149296666D02*
X72186666Y-149296666D01*
X72120000Y-149330000D01*
X72086666Y-149363333D01*
X72053333Y-149430000D01*
X72020000Y-149563333D01*
X72020000Y-149730000D01*
X72053333Y-149863333D01*
X72086666Y-149930000D01*
X72120000Y-149963333D01*
X72186666Y-149996666D01*
X72253333Y-149996666D01*
X72320000Y-149963333D01*
X72353333Y-149930000D01*
X72386666Y-149863333D01*
X72420000Y-149730000D01*
X72420000Y-149563333D01*
X72386666Y-149430000D01*
X72353333Y-149363333D01*
X72320000Y-149330000D01*
X72253333Y-149296666D01*
X71720000Y-149996666D02*
X71720000Y-149296666D01*
X71653333Y-149730000D02*
X71453333Y-149996666D01*
X71453333Y-149530000D02*
X71720000Y-149796666D01*
X71186666Y-149996666D02*
X71020000Y-149996666D01*
X71020000Y-149863333D01*
X71086666Y-149830000D01*
X71153333Y-149763333D01*
X71186666Y-149663333D01*
X71186666Y-149496666D01*
X71153333Y-149396666D01*
X71086666Y-149330000D01*
X70986666Y-149296666D01*
X70853333Y-149296666D01*
X70753333Y-149330000D01*
X70686666Y-149396666D01*
X70653333Y-149496666D01*
X70653333Y-149663333D01*
X70686666Y-149763333D01*
X70753333Y-149830000D01*
X70820000Y-149863333D01*
X70820000Y-149996666D01*
X70653333Y-149996666D01*
X71133333Y-47640000D02*
X71133333Y-47573333D01*
X71100000Y-47506666D01*
X71066666Y-47473333D01*
X71000000Y-47440000D01*
X70866666Y-47406666D01*
X70700000Y-47406666D01*
X70566666Y-47440000D01*
X70500000Y-47473333D01*
X70466666Y-47506666D01*
X70433333Y-47573333D01*
X70433333Y-47640000D01*
X70466666Y-47706666D01*
X70500000Y-47740000D01*
X70566666Y-47773333D01*
X70700000Y-47806666D01*
X70866666Y-47806666D01*
X71000000Y-47773333D01*
X71066666Y-47740000D01*
X71100000Y-47706666D01*
X71133333Y-47640000D01*
X70500000Y-47106666D02*
X70466666Y-47073333D01*
X70433333Y-47106666D01*
X70466666Y-47140000D01*
X70500000Y-47106666D01*
X70433333Y-47106666D01*
X70433333Y-46406666D02*
X70433333Y-46806666D01*
X70433333Y-46606666D02*
X71133333Y-46606666D01*
X71033333Y-46673333D01*
X70966666Y-46740000D01*
X70933333Y-46806666D01*
X70900000Y-46106666D02*
X70200000Y-46106666D01*
X70533333Y-45773333D02*
X70466666Y-45740000D01*
X70433333Y-45673333D01*
X70533333Y-46106666D02*
X70466666Y-46073333D01*
X70433333Y-46006666D01*
X70433333Y-45873333D01*
X70466666Y-45806666D01*
X70533333Y-45773333D01*
X70900000Y-45773333D01*
X70800000Y-45140000D02*
X70800000Y-45373333D01*
X70433333Y-45373333D02*
X71133333Y-45373333D01*
X71133333Y-45040000D01*
D11*
X132093809Y-175087380D02*
X131903333Y-175087380D01*
X131808095Y-175135000D01*
X131712857Y-175230238D01*
X131665238Y-175420714D01*
X131665238Y-175754047D01*
X131712857Y-175944523D01*
X131808095Y-176039761D01*
X131903333Y-176087380D01*
X132093809Y-176087380D01*
X132189047Y-176039761D01*
X132284285Y-175944523D01*
X132331904Y-175754047D01*
X132331904Y-175420714D01*
X132284285Y-175230238D01*
X132189047Y-175135000D01*
X132093809Y-175087380D01*
X131236666Y-176087380D02*
X131236666Y-175420714D01*
X131236666Y-175611190D02*
X131189047Y-175515952D01*
X131141428Y-175468333D01*
X131046190Y-175420714D01*
X130950952Y-175420714D01*
X130617619Y-176087380D02*
X130617619Y-175420714D01*
X130617619Y-175087380D02*
X130665238Y-175135000D01*
X130617619Y-175182619D01*
X130570000Y-175135000D01*
X130617619Y-175087380D01*
X130617619Y-175182619D01*
X129712857Y-175420714D02*
X129712857Y-176230238D01*
X129760476Y-176325476D01*
X129808095Y-176373095D01*
X129903333Y-176420714D01*
X130046190Y-176420714D01*
X130141428Y-176373095D01*
X129712857Y-176039761D02*
X129808095Y-176087380D01*
X129998571Y-176087380D01*
X130093809Y-176039761D01*
X130141428Y-175992142D01*
X130189047Y-175896904D01*
X130189047Y-175611190D01*
X130141428Y-175515952D01*
X130093809Y-175468333D01*
X129998571Y-175420714D01*
X129808095Y-175420714D01*
X129712857Y-175468333D01*
X129236666Y-176087380D02*
X129236666Y-175420714D01*
X129236666Y-175087380D02*
X129284285Y-175135000D01*
X129236666Y-175182619D01*
X129189047Y-175135000D01*
X129236666Y-175087380D01*
X129236666Y-175182619D01*
X128760476Y-175420714D02*
X128760476Y-176087380D01*
X128760476Y-175515952D02*
X128712857Y-175468333D01*
X128617619Y-175420714D01*
X128474761Y-175420714D01*
X128379523Y-175468333D01*
X128331904Y-175563571D01*
X128331904Y-176087380D01*
X127427142Y-176087380D02*
X127427142Y-175563571D01*
X127474761Y-175468333D01*
X127570000Y-175420714D01*
X127760476Y-175420714D01*
X127855714Y-175468333D01*
X127427142Y-176039761D02*
X127522380Y-176087380D01*
X127760476Y-176087380D01*
X127855714Y-176039761D01*
X127903333Y-175944523D01*
X127903333Y-175849285D01*
X127855714Y-175754047D01*
X127760476Y-175706428D01*
X127522380Y-175706428D01*
X127427142Y-175658809D01*
X126808095Y-176087380D02*
X126903333Y-176039761D01*
X126950952Y-175944523D01*
X126950952Y-175087380D01*
X125331904Y-175563571D02*
X125189047Y-175611190D01*
X125141428Y-175658809D01*
X125093809Y-175754047D01*
X125093809Y-175896904D01*
X125141428Y-175992142D01*
X125189047Y-176039761D01*
X125284285Y-176087380D01*
X125665238Y-176087380D01*
X125665238Y-175087380D01*
X125331904Y-175087380D01*
X125236666Y-175135000D01*
X125189047Y-175182619D01*
X125141428Y-175277857D01*
X125141428Y-175373095D01*
X125189047Y-175468333D01*
X125236666Y-175515952D01*
X125331904Y-175563571D01*
X125665238Y-175563571D01*
X124760476Y-175087380D02*
X124093809Y-176087380D01*
X124093809Y-175087380D02*
X124760476Y-176087380D01*
X123712857Y-176087380D02*
X123712857Y-175087380D01*
X123379523Y-175801666D01*
X123046190Y-175087380D01*
X123046190Y-176087380D01*
X122570000Y-175706428D02*
X121808095Y-175706428D01*
X120808095Y-176087380D02*
X121379523Y-176087380D01*
X121093809Y-176087380D02*
X121093809Y-175087380D01*
X121189047Y-175230238D01*
X121284285Y-175325476D01*
X121379523Y-175373095D01*
X120427142Y-175182619D02*
X120379523Y-175135000D01*
X120284285Y-175087380D01*
X120046190Y-175087380D01*
X119950952Y-175135000D01*
X119903333Y-175182619D01*
X119855714Y-175277857D01*
X119855714Y-175373095D01*
X119903333Y-175515952D01*
X120474761Y-176087380D01*
X119855714Y-176087380D01*
X119379523Y-176087380D02*
X119189047Y-176087380D01*
X119093809Y-176039761D01*
X119046190Y-175992142D01*
X118950952Y-175849285D01*
X118903333Y-175658809D01*
X118903333Y-175277857D01*
X118950952Y-175182619D01*
X118998571Y-175135000D01*
X119093809Y-175087380D01*
X119284285Y-175087380D01*
X119379523Y-175135000D01*
X119427142Y-175182619D01*
X119474761Y-175277857D01*
X119474761Y-175515952D01*
X119427142Y-175611190D01*
X119379523Y-175658809D01*
X119284285Y-175706428D01*
X119093809Y-175706428D01*
X118998571Y-175658809D01*
X118950952Y-175611190D01*
X118903333Y-175515952D01*
X118570000Y-175087380D02*
X117903333Y-176087380D01*
X117903333Y-175087380D02*
X118570000Y-176087380D01*
X116189047Y-175992142D02*
X116236666Y-176039761D01*
X116379523Y-176087380D01*
X116474761Y-176087380D01*
X116617619Y-176039761D01*
X116712857Y-175944523D01*
X116760476Y-175849285D01*
X116808095Y-175658809D01*
X116808095Y-175515952D01*
X116760476Y-175325476D01*
X116712857Y-175230238D01*
X116617619Y-175135000D01*
X116474761Y-175087380D01*
X116379523Y-175087380D01*
X116236666Y-175135000D01*
X116189047Y-175182619D01*
X115617619Y-176087380D02*
X115712857Y-176039761D01*
X115760476Y-175992142D01*
X115808095Y-175896904D01*
X115808095Y-175611190D01*
X115760476Y-175515952D01*
X115712857Y-175468333D01*
X115617619Y-175420714D01*
X115474761Y-175420714D01*
X115379523Y-175468333D01*
X115331904Y-175515952D01*
X115284285Y-175611190D01*
X115284285Y-175896904D01*
X115331904Y-175992142D01*
X115379523Y-176039761D01*
X115474761Y-176087380D01*
X115617619Y-176087380D01*
X114855714Y-176087380D02*
X114855714Y-175420714D01*
X114855714Y-175515952D02*
X114808095Y-175468333D01*
X114712857Y-175420714D01*
X114570000Y-175420714D01*
X114474761Y-175468333D01*
X114427142Y-175563571D01*
X114427142Y-176087380D01*
X114427142Y-175563571D02*
X114379523Y-175468333D01*
X114284285Y-175420714D01*
X114141428Y-175420714D01*
X114046190Y-175468333D01*
X113998571Y-175563571D01*
X113998571Y-176087380D01*
X113522380Y-175420714D02*
X113522380Y-176420714D01*
X113522380Y-175468333D02*
X113427142Y-175420714D01*
X113236666Y-175420714D01*
X113141428Y-175468333D01*
X113093809Y-175515952D01*
X113046190Y-175611190D01*
X113046190Y-175896904D01*
X113093809Y-175992142D01*
X113141428Y-176039761D01*
X113236666Y-176087380D01*
X113427142Y-176087380D01*
X113522380Y-176039761D01*
X112189047Y-176087380D02*
X112189047Y-175563571D01*
X112236666Y-175468333D01*
X112331904Y-175420714D01*
X112522380Y-175420714D01*
X112617619Y-175468333D01*
X112189047Y-176039761D02*
X112284285Y-176087380D01*
X112522380Y-176087380D01*
X112617619Y-176039761D01*
X112665238Y-175944523D01*
X112665238Y-175849285D01*
X112617619Y-175754047D01*
X112522380Y-175706428D01*
X112284285Y-175706428D01*
X112189047Y-175658809D01*
X111855714Y-175420714D02*
X111474761Y-175420714D01*
X111712857Y-175087380D02*
X111712857Y-175944523D01*
X111665238Y-176039761D01*
X111570000Y-176087380D01*
X111474761Y-176087380D01*
X111141428Y-176087380D02*
X111141428Y-175420714D01*
X111141428Y-175087380D02*
X111189047Y-175135000D01*
X111141428Y-175182619D01*
X111093809Y-175135000D01*
X111141428Y-175087380D01*
X111141428Y-175182619D01*
X110665238Y-176087380D02*
X110665238Y-175087380D01*
X110665238Y-175468333D02*
X110570000Y-175420714D01*
X110379523Y-175420714D01*
X110284285Y-175468333D01*
X110236666Y-175515952D01*
X110189047Y-175611190D01*
X110189047Y-175896904D01*
X110236666Y-175992142D01*
X110284285Y-176039761D01*
X110379523Y-176087380D01*
X110570000Y-176087380D01*
X110665238Y-176039761D01*
X109617619Y-176087380D02*
X109712857Y-176039761D01*
X109760476Y-175944523D01*
X109760476Y-175087380D01*
X108855714Y-176039761D02*
X108950952Y-176087380D01*
X109141428Y-176087380D01*
X109236666Y-176039761D01*
X109284285Y-175944523D01*
X109284285Y-175563571D01*
X109236666Y-175468333D01*
X109141428Y-175420714D01*
X108950952Y-175420714D01*
X108855714Y-175468333D01*
X108808095Y-175563571D01*
X108808095Y-175658809D01*
X109284285Y-175754047D01*
X128665238Y-177602142D02*
X128712857Y-177649761D01*
X128855714Y-177697380D01*
X128950952Y-177697380D01*
X129093809Y-177649761D01*
X129189047Y-177554523D01*
X129236666Y-177459285D01*
X129284285Y-177268809D01*
X129284285Y-177125952D01*
X129236666Y-176935476D01*
X129189047Y-176840238D01*
X129093809Y-176745000D01*
X128950952Y-176697380D01*
X128855714Y-176697380D01*
X128712857Y-176745000D01*
X128665238Y-176792619D01*
X127808095Y-177697380D02*
X127808095Y-177173571D01*
X127855714Y-177078333D01*
X127950952Y-177030714D01*
X128141428Y-177030714D01*
X128236666Y-177078333D01*
X127808095Y-177649761D02*
X127903333Y-177697380D01*
X128141428Y-177697380D01*
X128236666Y-177649761D01*
X128284285Y-177554523D01*
X128284285Y-177459285D01*
X128236666Y-177364047D01*
X128141428Y-177316428D01*
X127903333Y-177316428D01*
X127808095Y-177268809D01*
X127331904Y-177697380D02*
X127331904Y-177030714D01*
X127331904Y-177221190D02*
X127284285Y-177125952D01*
X127236666Y-177078333D01*
X127141428Y-177030714D01*
X127046190Y-177030714D01*
X126284285Y-177697380D02*
X126284285Y-176697380D01*
X126284285Y-177649761D02*
X126379523Y-177697380D01*
X126570000Y-177697380D01*
X126665238Y-177649761D01*
X126712857Y-177602142D01*
X126760476Y-177506904D01*
X126760476Y-177221190D01*
X126712857Y-177125952D01*
X126665238Y-177078333D01*
X126570000Y-177030714D01*
X126379523Y-177030714D01*
X126284285Y-177078333D01*
X125046190Y-177697380D02*
X125046190Y-176697380D01*
X125046190Y-177078333D02*
X124950952Y-177030714D01*
X124760476Y-177030714D01*
X124665238Y-177078333D01*
X124617619Y-177125952D01*
X124570000Y-177221190D01*
X124570000Y-177506904D01*
X124617619Y-177602142D01*
X124665238Y-177649761D01*
X124760476Y-177697380D01*
X124950952Y-177697380D01*
X125046190Y-177649761D01*
X124236666Y-177030714D02*
X123998571Y-177697380D01*
X123760476Y-177030714D02*
X123998571Y-177697380D01*
X124093809Y-177935476D01*
X124141428Y-177983095D01*
X124236666Y-178030714D01*
X122617619Y-177697380D02*
X122617619Y-176697380D01*
X122284285Y-177411666D01*
X121950952Y-176697380D01*
X121950952Y-177697380D01*
X121046190Y-177697380D02*
X121046190Y-177173571D01*
X121093809Y-177078333D01*
X121189047Y-177030714D01*
X121379523Y-177030714D01*
X121474761Y-177078333D01*
X121046190Y-177649761D02*
X121141428Y-177697380D01*
X121379523Y-177697380D01*
X121474761Y-177649761D01*
X121522380Y-177554523D01*
X121522380Y-177459285D01*
X121474761Y-177364047D01*
X121379523Y-177316428D01*
X121141428Y-177316428D01*
X121046190Y-177268809D01*
X120570000Y-177697380D02*
X120570000Y-177030714D01*
X120570000Y-177221190D02*
X120522380Y-177125952D01*
X120474761Y-177078333D01*
X120379523Y-177030714D01*
X120284285Y-177030714D01*
X120093809Y-177030714D02*
X119712857Y-177030714D01*
X119950952Y-176697380D02*
X119950952Y-177554523D01*
X119903333Y-177649761D01*
X119808095Y-177697380D01*
X119712857Y-177697380D01*
X119379523Y-177697380D02*
X119379523Y-177030714D01*
X119379523Y-176697380D02*
X119427142Y-176745000D01*
X119379523Y-176792619D01*
X119331904Y-176745000D01*
X119379523Y-176697380D01*
X119379523Y-176792619D01*
X118903333Y-177030714D02*
X118903333Y-177697380D01*
X118903333Y-177125952D02*
X118855714Y-177078333D01*
X118760476Y-177030714D01*
X118617619Y-177030714D01*
X118522380Y-177078333D01*
X118474761Y-177173571D01*
X118474761Y-177697380D01*
X117236666Y-177697380D02*
X117236666Y-176697380D01*
X117236666Y-177173571D02*
X116665238Y-177173571D01*
X116665238Y-177697380D02*
X116665238Y-176697380D01*
X115808095Y-177649761D02*
X115903333Y-177697380D01*
X116093809Y-177697380D01*
X116189047Y-177649761D01*
X116236666Y-177554523D01*
X116236666Y-177173571D01*
X116189047Y-177078333D01*
X116093809Y-177030714D01*
X115903333Y-177030714D01*
X115808095Y-177078333D01*
X115760476Y-177173571D01*
X115760476Y-177268809D01*
X116236666Y-177364047D01*
X115331904Y-177030714D02*
X115331904Y-177887857D01*
X115379523Y-177983095D01*
X115474761Y-178030714D01*
X115522380Y-178030714D01*
X115331904Y-176697380D02*
X115379523Y-176745000D01*
X115331904Y-176792619D01*
X115284285Y-176745000D01*
X115331904Y-176697380D01*
X115331904Y-176792619D01*
X114855714Y-177030714D02*
X114855714Y-177697380D01*
X114855714Y-177125952D02*
X114808095Y-177078333D01*
X114712857Y-177030714D01*
X114570000Y-177030714D01*
X114474761Y-177078333D01*
X114427142Y-177173571D01*
X114427142Y-177697380D01*
X114093809Y-177030714D02*
X113712857Y-177030714D01*
X113950952Y-177697380D02*
X113950952Y-176840238D01*
X113903333Y-176745000D01*
X113808095Y-176697380D01*
X113712857Y-176697380D01*
X112998571Y-177649761D02*
X113093809Y-177697380D01*
X113284285Y-177697380D01*
X113379523Y-177649761D01*
X113427142Y-177554523D01*
X113427142Y-177173571D01*
X113379523Y-177078333D01*
X113284285Y-177030714D01*
X113093809Y-177030714D01*
X112998571Y-177078333D01*
X112950952Y-177173571D01*
X112950952Y-177268809D01*
X113427142Y-177364047D01*
X112379523Y-177697380D02*
X112474761Y-177649761D01*
X112522380Y-177554523D01*
X112522380Y-176697380D01*
X112141428Y-177030714D02*
X111760476Y-177030714D01*
X111998571Y-176697380D02*
X111998571Y-177554523D01*
X111950952Y-177649761D01*
X111855714Y-177697380D01*
X111760476Y-177697380D01*
D10*
X72846666Y-68333333D02*
X72813333Y-68300000D01*
X72746666Y-68266666D01*
X72580000Y-68266666D01*
X72513333Y-68300000D01*
X72480000Y-68333333D01*
X72446666Y-68400000D01*
X72446666Y-68466666D01*
X72480000Y-68566666D01*
X72880000Y-68966666D01*
X72446666Y-68966666D01*
X72013333Y-68266666D02*
X71946666Y-68266666D01*
X71880000Y-68300000D01*
X71846666Y-68333333D01*
X71813333Y-68400000D01*
X71780000Y-68533333D01*
X71780000Y-68700000D01*
X71813333Y-68833333D01*
X71846666Y-68900000D01*
X71880000Y-68933333D01*
X71946666Y-68966666D01*
X72013333Y-68966666D01*
X72080000Y-68933333D01*
X72113333Y-68900000D01*
X72146666Y-68833333D01*
X72180000Y-68700000D01*
X72180000Y-68533333D01*
X72146666Y-68400000D01*
X72113333Y-68333333D01*
X72080000Y-68300000D01*
X72013333Y-68266666D01*
X71480000Y-68966666D02*
X71480000Y-68266666D01*
X71413333Y-68700000D02*
X71213333Y-68966666D01*
X71213333Y-68500000D02*
X71480000Y-68766666D01*
X70946666Y-68966666D02*
X70780000Y-68966666D01*
X70780000Y-68833333D01*
X70846666Y-68800000D01*
X70913333Y-68733333D01*
X70946666Y-68633333D01*
X70946666Y-68466666D01*
X70913333Y-68366666D01*
X70846666Y-68300000D01*
X70746666Y-68266666D01*
X70613333Y-68266666D01*
X70513333Y-68300000D01*
X70446666Y-68366666D01*
X70413333Y-68466666D01*
X70413333Y-68633333D01*
X70446666Y-68733333D01*
X70513333Y-68800000D01*
X70580000Y-68833333D01*
X70580000Y-68966666D01*
X70413333Y-68966666D01*
X79863333Y-44120000D02*
X79863333Y-44520000D01*
X79863333Y-44320000D02*
X80563333Y-44320000D01*
X80463333Y-44386666D01*
X80396666Y-44453333D01*
X80363333Y-44520000D01*
X80563333Y-43686666D02*
X80563333Y-43620000D01*
X80530000Y-43553333D01*
X80496666Y-43520000D01*
X80430000Y-43486666D01*
X80296666Y-43453333D01*
X80130000Y-43453333D01*
X79996666Y-43486666D01*
X79930000Y-43520000D01*
X79896666Y-43553333D01*
X79863333Y-43620000D01*
X79863333Y-43686666D01*
X79896666Y-43753333D01*
X79930000Y-43786666D01*
X79996666Y-43820000D01*
X80130000Y-43853333D01*
X80296666Y-43853333D01*
X80430000Y-43820000D01*
X80496666Y-43786666D01*
X80530000Y-43753333D01*
X80563333Y-43686666D01*
X80330000Y-43153333D02*
X79630000Y-43153333D01*
X79963333Y-42820000D02*
X79896666Y-42786666D01*
X79863333Y-42720000D01*
X79963333Y-43153333D02*
X79896666Y-43120000D01*
X79863333Y-43053333D01*
X79863333Y-42920000D01*
X79896666Y-42853333D01*
X79963333Y-42820000D01*
X80330000Y-42820000D01*
X80230000Y-42186666D02*
X80230000Y-42420000D01*
X79863333Y-42420000D02*
X80563333Y-42420000D01*
X80563333Y-42086666D01*
X78636666Y-139590000D02*
X78670000Y-139556666D01*
X78703333Y-139490000D01*
X78703333Y-139323333D01*
X78670000Y-139256666D01*
X78636666Y-139223333D01*
X78570000Y-139190000D01*
X78503333Y-139190000D01*
X78403333Y-139223333D01*
X78003333Y-139623333D01*
X78003333Y-139190000D01*
X78003333Y-138523333D02*
X78003333Y-138923333D01*
X78003333Y-138723333D02*
X78703333Y-138723333D01*
X78603333Y-138790000D01*
X78536666Y-138856666D01*
X78503333Y-138923333D01*
X78703333Y-138090000D02*
X78703333Y-138023333D01*
X78670000Y-137956666D01*
X78636666Y-137923333D01*
X78570000Y-137890000D01*
X78436666Y-137856666D01*
X78270000Y-137856666D01*
X78136666Y-137890000D01*
X78070000Y-137923333D01*
X78036666Y-137956666D01*
X78003333Y-138023333D01*
X78003333Y-138090000D01*
X78036666Y-138156666D01*
X78070000Y-138190000D01*
X78136666Y-138223333D01*
X78270000Y-138256666D01*
X78436666Y-138256666D01*
X78570000Y-138223333D01*
X78636666Y-138190000D01*
X78670000Y-138156666D01*
X78703333Y-138090000D01*
X78003333Y-137556666D02*
X78703333Y-137556666D01*
X78270000Y-137490000D02*
X78003333Y-137290000D01*
X78470000Y-137290000D02*
X78203333Y-137556666D01*
X78003333Y-137023333D02*
X78003333Y-136856666D01*
X78136666Y-136856666D01*
X78170000Y-136923333D01*
X78236666Y-136990000D01*
X78336666Y-137023333D01*
X78503333Y-137023333D01*
X78603333Y-136990000D01*
X78670000Y-136923333D01*
X78703333Y-136823333D01*
X78703333Y-136690000D01*
X78670000Y-136590000D01*
X78603333Y-136523333D01*
X78503333Y-136490000D01*
X78336666Y-136490000D01*
X78236666Y-136523333D01*
X78170000Y-136590000D01*
X78136666Y-136656666D01*
X78003333Y-136656666D01*
X78003333Y-136490000D01*
X73096666Y-140603333D02*
X73063333Y-140570000D01*
X72996666Y-140536666D01*
X72830000Y-140536666D01*
X72763333Y-140570000D01*
X72730000Y-140603333D01*
X72696666Y-140670000D01*
X72696666Y-140736666D01*
X72730000Y-140836666D01*
X73130000Y-141236666D01*
X72696666Y-141236666D01*
X72263333Y-140536666D02*
X72196666Y-140536666D01*
X72130000Y-140570000D01*
X72096666Y-140603333D01*
X72063333Y-140670000D01*
X72030000Y-140803333D01*
X72030000Y-140970000D01*
X72063333Y-141103333D01*
X72096666Y-141170000D01*
X72130000Y-141203333D01*
X72196666Y-141236666D01*
X72263333Y-141236666D01*
X72330000Y-141203333D01*
X72363333Y-141170000D01*
X72396666Y-141103333D01*
X72430000Y-140970000D01*
X72430000Y-140803333D01*
X72396666Y-140670000D01*
X72363333Y-140603333D01*
X72330000Y-140570000D01*
X72263333Y-140536666D01*
X71730000Y-141236666D02*
X71730000Y-140536666D01*
X71663333Y-140970000D02*
X71463333Y-141236666D01*
X71463333Y-140770000D02*
X71730000Y-141036666D01*
X71196666Y-141236666D02*
X71030000Y-141236666D01*
X71030000Y-141103333D01*
X71096666Y-141070000D01*
X71163333Y-141003333D01*
X71196666Y-140903333D01*
X71196666Y-140736666D01*
X71163333Y-140636666D01*
X71096666Y-140570000D01*
X70996666Y-140536666D01*
X70863333Y-140536666D01*
X70763333Y-140570000D01*
X70696666Y-140636666D01*
X70663333Y-140736666D01*
X70663333Y-140903333D01*
X70696666Y-141003333D01*
X70763333Y-141070000D01*
X70830000Y-141103333D01*
X70830000Y-141236666D01*
X70663333Y-141236666D01*
D12*
X143129342Y-24141100D02*
X143200771Y-24069671D01*
X143343628Y-23855385D01*
X143415057Y-23712528D01*
X143486485Y-23498242D01*
X143557914Y-23141100D01*
X143557914Y-22855385D01*
X143486485Y-22498242D01*
X143415057Y-22283957D01*
X143343628Y-22141100D01*
X143200771Y-21926814D01*
X143129342Y-21855385D01*
X142629342Y-22212528D02*
X142557914Y-22141100D01*
X142415057Y-22069671D01*
X142057914Y-22069671D01*
X141915057Y-22141100D01*
X141843628Y-22212528D01*
X141772200Y-22355385D01*
X141772200Y-22498242D01*
X141843628Y-22712528D01*
X142700771Y-23569671D01*
X141772200Y-23569671D01*
X140843628Y-22069671D02*
X140700771Y-22069671D01*
X140557914Y-22141100D01*
X140486485Y-22212528D01*
X140415057Y-22355385D01*
X140343628Y-22641100D01*
X140343628Y-22998242D01*
X140415057Y-23283957D01*
X140486485Y-23426814D01*
X140557914Y-23498242D01*
X140700771Y-23569671D01*
X140843628Y-23569671D01*
X140986485Y-23498242D01*
X141057914Y-23426814D01*
X141129342Y-23283957D01*
X141200771Y-22998242D01*
X141200771Y-22641100D01*
X141129342Y-22355385D01*
X141057914Y-22212528D01*
X140986485Y-22141100D01*
X140843628Y-22069671D01*
X139772200Y-22212528D02*
X139700771Y-22141100D01*
X139557914Y-22069671D01*
X139200771Y-22069671D01*
X139057914Y-22141100D01*
X138986485Y-22212528D01*
X138915057Y-22355385D01*
X138915057Y-22498242D01*
X138986485Y-22712528D01*
X139843628Y-23569671D01*
X138915057Y-23569671D01*
X137986485Y-22069671D02*
X137843628Y-22069671D01*
X137700771Y-22141100D01*
X137629342Y-22212528D01*
X137557914Y-22355385D01*
X137486485Y-22641100D01*
X137486485Y-22998242D01*
X137557914Y-23283957D01*
X137629342Y-23426814D01*
X137700771Y-23498242D01*
X137843628Y-23569671D01*
X137986485Y-23569671D01*
X138129342Y-23498242D01*
X138200771Y-23426814D01*
X138272200Y-23283957D01*
X138343628Y-22998242D01*
X138343628Y-22641100D01*
X138272200Y-22355385D01*
X138200771Y-22212528D01*
X138129342Y-22141100D01*
X137986485Y-22069671D01*
X136986485Y-24141100D02*
X136915057Y-24069671D01*
X136772200Y-23855385D01*
X136700771Y-23712528D01*
X136629342Y-23498242D01*
X136557914Y-23141100D01*
X136557914Y-22855385D01*
X136629342Y-22498242D01*
X136700771Y-22283957D01*
X136772200Y-22141100D01*
X136915057Y-21926814D01*
X136986485Y-21855385D01*
X134700771Y-23569671D02*
X134700771Y-22069671D01*
X134200771Y-23141100D01*
X133700771Y-22069671D01*
X133700771Y-23569671D01*
X132343628Y-23569671D02*
X132343628Y-22783957D01*
X132415057Y-22641100D01*
X132557914Y-22569671D01*
X132843628Y-22569671D01*
X132986485Y-22641100D01*
X132343628Y-23498242D02*
X132486485Y-23569671D01*
X132843628Y-23569671D01*
X132986485Y-23498242D01*
X133057914Y-23355385D01*
X133057914Y-23212528D01*
X132986485Y-23069671D01*
X132843628Y-22998242D01*
X132486485Y-22998242D01*
X132343628Y-22926814D01*
X131629342Y-23569671D02*
X131629342Y-22569671D01*
X131629342Y-22855385D02*
X131557914Y-22712528D01*
X131486485Y-22641100D01*
X131343628Y-22569671D01*
X131200771Y-22569671D01*
X130915057Y-22569671D02*
X130343628Y-22569671D01*
X130700771Y-22069671D02*
X130700771Y-23355385D01*
X130629342Y-23498242D01*
X130486485Y-23569671D01*
X130343628Y-23569671D01*
X129843628Y-23569671D02*
X129843628Y-22569671D01*
X129843628Y-22069671D02*
X129915057Y-22141100D01*
X129843628Y-22212528D01*
X129772200Y-22141100D01*
X129843628Y-22069671D01*
X129843628Y-22212528D01*
X129129342Y-22569671D02*
X129129342Y-23569671D01*
X129129342Y-22712528D02*
X129057914Y-22641100D01*
X128915057Y-22569671D01*
X128700771Y-22569671D01*
X128557914Y-22641100D01*
X128486485Y-22783957D01*
X128486485Y-23569671D01*
X126629342Y-23569671D02*
X126629342Y-22069671D01*
X126629342Y-22783957D02*
X125772200Y-22783957D01*
X125772200Y-23569671D02*
X125772200Y-22069671D01*
X124486485Y-23498242D02*
X124629342Y-23569671D01*
X124915057Y-23569671D01*
X125057914Y-23498242D01*
X125129342Y-23355385D01*
X125129342Y-22783957D01*
X125057914Y-22641100D01*
X124915057Y-22569671D01*
X124629342Y-22569671D01*
X124486485Y-22641100D01*
X124415057Y-22783957D01*
X124415057Y-22926814D01*
X125129342Y-23069671D01*
X123772200Y-22569671D02*
X123772200Y-23855385D01*
X123843628Y-23998242D01*
X123986485Y-24069671D01*
X124057914Y-24069671D01*
X123772200Y-22069671D02*
X123843628Y-22141100D01*
X123772200Y-22212528D01*
X123700771Y-22141100D01*
X123772200Y-22069671D01*
X123772200Y-22212528D01*
X123057914Y-22569671D02*
X123057914Y-23569671D01*
X123057914Y-22712528D02*
X122986485Y-22641100D01*
X122843628Y-22569671D01*
X122629342Y-22569671D01*
X122486485Y-22641100D01*
X122415057Y-22783957D01*
X122415057Y-23569671D01*
X121915057Y-22569671D02*
X121343628Y-22569671D01*
X121700771Y-23569671D02*
X121700771Y-22283957D01*
X121629342Y-22141100D01*
X121486485Y-22069671D01*
X121343628Y-22069671D01*
X120272200Y-23498242D02*
X120415057Y-23569671D01*
X120700771Y-23569671D01*
X120843628Y-23498242D01*
X120915057Y-23355385D01*
X120915057Y-22783957D01*
X120843628Y-22641100D01*
X120700771Y-22569671D01*
X120415057Y-22569671D01*
X120272200Y-22641100D01*
X120200771Y-22783957D01*
X120200771Y-22926814D01*
X120915057Y-23069671D01*
X119343628Y-23569671D02*
X119486485Y-23498242D01*
X119557914Y-23355385D01*
X119557914Y-22069671D01*
X118986485Y-22569671D02*
X118415057Y-22569671D01*
X118772200Y-22069671D02*
X118772200Y-23355385D01*
X118700771Y-23498242D01*
X118557914Y-23569671D01*
X118415057Y-23569671D01*
X116343628Y-24141100D02*
X116415057Y-24069671D01*
X116557914Y-23855385D01*
X116629342Y-23712528D01*
X116700771Y-23498242D01*
X116772200Y-23141100D01*
X116772200Y-22855385D01*
X116700771Y-22498242D01*
X116629342Y-22283957D01*
X116557914Y-22141100D01*
X116415057Y-21926814D01*
X116343628Y-21855385D01*
X115772200Y-23569671D02*
X115772200Y-22569671D01*
X115772200Y-22712528D02*
X115700771Y-22641100D01*
X115557914Y-22569671D01*
X115343628Y-22569671D01*
X115200771Y-22641100D01*
X115129342Y-22783957D01*
X115129342Y-23569671D01*
X115129342Y-22783957D02*
X115057914Y-22641100D01*
X114915057Y-22569671D01*
X114700771Y-22569671D01*
X114557914Y-22641100D01*
X114486485Y-22783957D01*
X114486485Y-23569671D01*
X113129342Y-23569671D02*
X113129342Y-22783957D01*
X113200771Y-22641100D01*
X113343628Y-22569671D01*
X113629342Y-22569671D01*
X113772200Y-22641100D01*
X113129342Y-23498242D02*
X113272200Y-23569671D01*
X113629342Y-23569671D01*
X113772200Y-23498242D01*
X113843628Y-23355385D01*
X113843628Y-23212528D01*
X113772200Y-23069671D01*
X113629342Y-22998242D01*
X113272200Y-22998242D01*
X113129342Y-22926814D01*
X112415057Y-23569671D02*
X112415057Y-22569671D01*
X112415057Y-22855385D02*
X112343628Y-22712528D01*
X112272200Y-22641100D01*
X112129342Y-22569671D01*
X111986485Y-22569671D01*
X111700771Y-22569671D02*
X111129342Y-22569671D01*
X111486485Y-22069671D02*
X111486485Y-23355385D01*
X111415057Y-23498242D01*
X111272200Y-23569671D01*
X111129342Y-23569671D01*
X110629342Y-23569671D02*
X110629342Y-22569671D01*
X110629342Y-22069671D02*
X110700771Y-22141100D01*
X110629342Y-22212528D01*
X110557914Y-22141100D01*
X110629342Y-22069671D01*
X110629342Y-22212528D01*
X109915057Y-22569671D02*
X109915057Y-23569671D01*
X109915057Y-22712528D02*
X109843628Y-22641100D01*
X109700771Y-22569671D01*
X109486485Y-22569671D01*
X109343628Y-22641100D01*
X109272200Y-22783957D01*
X109272200Y-23569671D01*
X107629342Y-22855385D02*
X107700771Y-22783957D01*
X107843628Y-22712528D01*
X107986485Y-22712528D01*
X108129342Y-22783957D01*
X108200771Y-22855385D01*
X108272200Y-22998242D01*
X108272200Y-23141100D01*
X108200771Y-23283957D01*
X108129342Y-23355385D01*
X107986485Y-23426814D01*
X107843628Y-23426814D01*
X107700771Y-23355385D01*
X107629342Y-23283957D01*
X107629342Y-22712528D02*
X107629342Y-23283957D01*
X107557914Y-23355385D01*
X107486485Y-23355385D01*
X107343628Y-23283957D01*
X107272200Y-23141100D01*
X107272200Y-22783957D01*
X107415057Y-22569671D01*
X107629342Y-22426814D01*
X107915057Y-22355385D01*
X108200771Y-22426814D01*
X108415057Y-22569671D01*
X108557914Y-22783957D01*
X108629342Y-23069671D01*
X108557914Y-23355385D01*
X108415057Y-23569671D01*
X108200771Y-23712528D01*
X107915057Y-23783957D01*
X107629342Y-23712528D01*
X107415057Y-23569671D01*
X106629342Y-23569671D02*
X106629342Y-22069671D01*
X105986485Y-23569671D02*
X105986485Y-22783957D01*
X106057914Y-22641100D01*
X106200771Y-22569671D01*
X106415057Y-22569671D01*
X106557914Y-22641100D01*
X106629342Y-22712528D01*
X104700771Y-23498242D02*
X104843628Y-23569671D01*
X105129342Y-23569671D01*
X105272200Y-23498242D01*
X105343628Y-23355385D01*
X105343628Y-22783957D01*
X105272200Y-22641100D01*
X105129342Y-22569671D01*
X104843628Y-22569671D01*
X104700771Y-22641100D01*
X104629342Y-22783957D01*
X104629342Y-22926814D01*
X105343628Y-23069671D01*
X103986485Y-22569671D02*
X103986485Y-23855385D01*
X104057914Y-23998242D01*
X104200771Y-24069671D01*
X104272200Y-24069671D01*
X103986485Y-22069671D02*
X104057914Y-22141100D01*
X103986485Y-22212528D01*
X103915057Y-22141100D01*
X103986485Y-22069671D01*
X103986485Y-22212528D01*
X103272200Y-22569671D02*
X103272200Y-23569671D01*
X103272200Y-22712528D02*
X103200771Y-22641100D01*
X103057914Y-22569671D01*
X102843628Y-22569671D01*
X102700771Y-22641100D01*
X102629342Y-22783957D01*
X102629342Y-23569671D01*
X102129342Y-22569671D02*
X101557914Y-22569671D01*
X101915057Y-23569671D02*
X101915057Y-22283957D01*
X101843628Y-22141100D01*
X101700771Y-22069671D01*
X101557914Y-22069671D01*
X100486485Y-23498242D02*
X100629342Y-23569671D01*
X100915057Y-23569671D01*
X101057914Y-23498242D01*
X101129342Y-23355385D01*
X101129342Y-22783957D01*
X101057914Y-22641100D01*
X100915057Y-22569671D01*
X100629342Y-22569671D01*
X100486485Y-22641100D01*
X100415057Y-22783957D01*
X100415057Y-22926814D01*
X101129342Y-23069671D01*
X99557914Y-23569671D02*
X99700771Y-23498242D01*
X99772200Y-23355385D01*
X99772200Y-22069671D01*
X99200771Y-22569671D02*
X98629342Y-22569671D01*
X98986485Y-22069671D02*
X98986485Y-23355385D01*
X98915057Y-23498242D01*
X98772200Y-23569671D01*
X98629342Y-23569671D01*
X98129342Y-23426814D02*
X98057914Y-23498242D01*
X98129342Y-23569671D01*
X98200771Y-23498242D01*
X98129342Y-23426814D01*
X98129342Y-23569671D01*
X96772200Y-23498242D02*
X96915057Y-23569671D01*
X97200771Y-23569671D01*
X97343628Y-23498242D01*
X97415057Y-23426814D01*
X97486485Y-23283957D01*
X97486485Y-22855385D01*
X97415057Y-22712528D01*
X97343628Y-22641100D01*
X97200771Y-22569671D01*
X96915057Y-22569671D01*
X96772200Y-22641100D01*
X95915057Y-23569671D02*
X96057914Y-23498242D01*
X96129342Y-23426814D01*
X96200771Y-23283957D01*
X96200771Y-22855385D01*
X96129342Y-22712528D01*
X96057914Y-22641100D01*
X95915057Y-22569671D01*
X95700771Y-22569671D01*
X95557914Y-22641100D01*
X95486485Y-22712528D01*
X95415057Y-22855385D01*
X95415057Y-23283957D01*
X95486485Y-23426814D01*
X95557914Y-23498242D01*
X95700771Y-23569671D01*
X95915057Y-23569671D01*
X94772200Y-23569671D02*
X94772200Y-22569671D01*
X94772200Y-22712528D02*
X94700771Y-22641100D01*
X94557914Y-22569671D01*
X94343628Y-22569671D01*
X94200771Y-22641100D01*
X94129342Y-22783957D01*
X94129342Y-23569671D01*
X94129342Y-22783957D02*
X94057914Y-22641100D01*
X93915057Y-22569671D01*
X93700771Y-22569671D01*
X93557914Y-22641100D01*
X93486485Y-22783957D01*
X93486485Y-23569671D01*
X92915057Y-24141100D02*
X92843628Y-24069671D01*
X92700771Y-23855385D01*
X92629342Y-23712528D01*
X92557914Y-23498242D01*
X92486485Y-23141100D01*
X92486485Y-22855385D01*
X92557914Y-22498242D01*
X92629342Y-22283957D01*
X92700771Y-22141100D01*
X92843628Y-21926814D01*
X92915057Y-21855385D01*
X128629342Y-24984671D02*
X128343628Y-25984671D01*
X128057914Y-25270385D01*
X127772200Y-25984671D01*
X127486485Y-24984671D01*
X127057914Y-24984671D02*
X126772200Y-25984671D01*
X126486485Y-25270385D01*
X126200771Y-25984671D01*
X125915057Y-24984671D01*
X125486485Y-24984671D02*
X125200771Y-25984671D01*
X124915057Y-25270385D01*
X124629342Y-25984671D01*
X124343628Y-24984671D01*
X123772200Y-25841814D02*
X123700771Y-25913242D01*
X123772200Y-25984671D01*
X123843628Y-25913242D01*
X123772200Y-25841814D01*
X123772200Y-25984671D01*
X123057914Y-25984671D02*
X123057914Y-24984671D01*
X123057914Y-24484671D02*
X123129342Y-24556100D01*
X123057914Y-24627528D01*
X122986485Y-24556100D01*
X123057914Y-24484671D01*
X123057914Y-24627528D01*
X122343628Y-25984671D02*
X122343628Y-24984671D01*
X122343628Y-25127528D02*
X122272200Y-25056100D01*
X122129342Y-24984671D01*
X121915057Y-24984671D01*
X121772200Y-25056100D01*
X121700771Y-25198957D01*
X121700771Y-25984671D01*
X121700771Y-25198957D02*
X121629342Y-25056100D01*
X121486485Y-24984671D01*
X121272200Y-24984671D01*
X121129342Y-25056100D01*
X121057914Y-25198957D01*
X121057914Y-25984671D01*
X120343628Y-25984671D02*
X120343628Y-24984671D01*
X120343628Y-25127528D02*
X120272200Y-25056100D01*
X120129342Y-24984671D01*
X119915057Y-24984671D01*
X119772200Y-25056100D01*
X119700771Y-25198957D01*
X119700771Y-25984671D01*
X119700771Y-25198957D02*
X119629342Y-25056100D01*
X119486485Y-24984671D01*
X119272200Y-24984671D01*
X119129342Y-25056100D01*
X119057914Y-25198957D01*
X119057914Y-25984671D01*
X117772200Y-25913242D02*
X117915057Y-25984671D01*
X118200771Y-25984671D01*
X118343628Y-25913242D01*
X118415057Y-25770385D01*
X118415057Y-25198957D01*
X118343628Y-25056100D01*
X118200771Y-24984671D01*
X117915057Y-24984671D01*
X117772200Y-25056100D01*
X117700771Y-25198957D01*
X117700771Y-25341814D01*
X118415057Y-25484671D01*
X117057914Y-25984671D02*
X117057914Y-24984671D01*
X117057914Y-25270385D02*
X116986485Y-25127528D01*
X116915057Y-25056100D01*
X116772200Y-24984671D01*
X116629342Y-24984671D01*
X116129342Y-25984671D02*
X116129342Y-24484671D01*
X115486485Y-25984671D02*
X115486485Y-25198957D01*
X115557914Y-25056100D01*
X115700771Y-24984671D01*
X115915057Y-24984671D01*
X116057914Y-25056100D01*
X116129342Y-25127528D01*
X114129342Y-25984671D02*
X114129342Y-25198957D01*
X114200771Y-25056100D01*
X114343628Y-24984671D01*
X114629342Y-24984671D01*
X114772200Y-25056100D01*
X114129342Y-25913242D02*
X114272200Y-25984671D01*
X114629342Y-25984671D01*
X114772200Y-25913242D01*
X114843628Y-25770385D01*
X114843628Y-25627528D01*
X114772200Y-25484671D01*
X114629342Y-25413242D01*
X114272200Y-25413242D01*
X114129342Y-25341814D01*
X113557914Y-25984671D02*
X112772200Y-24984671D01*
X113557914Y-24984671D02*
X112772200Y-25984671D01*
X112200771Y-25841814D02*
X112129342Y-25913242D01*
X112200771Y-25984671D01*
X112272200Y-25913242D01*
X112200771Y-25841814D01*
X112200771Y-25984671D01*
X110843628Y-25913242D02*
X110986485Y-25984671D01*
X111272200Y-25984671D01*
X111415057Y-25913242D01*
X111486485Y-25841814D01*
X111557914Y-25698957D01*
X111557914Y-25270385D01*
X111486485Y-25127528D01*
X111415057Y-25056100D01*
X111272200Y-24984671D01*
X110986485Y-24984671D01*
X110843628Y-25056100D01*
X109986485Y-25984671D02*
X110129342Y-25913242D01*
X110200771Y-25841814D01*
X110272200Y-25698957D01*
X110272200Y-25270385D01*
X110200771Y-25127528D01*
X110129342Y-25056100D01*
X109986485Y-24984671D01*
X109772200Y-24984671D01*
X109629342Y-25056100D01*
X109557914Y-25127528D01*
X109486485Y-25270385D01*
X109486485Y-25698957D01*
X109557914Y-25841814D01*
X109629342Y-25913242D01*
X109772200Y-25984671D01*
X109986485Y-25984671D01*
X108843628Y-25984671D02*
X108843628Y-24984671D01*
X108843628Y-25127528D02*
X108772200Y-25056100D01*
X108629342Y-24984671D01*
X108415057Y-24984671D01*
X108272200Y-25056100D01*
X108200771Y-25198957D01*
X108200771Y-25984671D01*
X108200771Y-25198957D02*
X108129342Y-25056100D01*
X107986485Y-24984671D01*
X107772200Y-24984671D01*
X107629342Y-25056100D01*
X107557914Y-25198957D01*
X107557914Y-25984671D01*
D10*
X79943333Y-71720000D02*
X79943333Y-72120000D01*
X79943333Y-71920000D02*
X80643333Y-71920000D01*
X80543333Y-71986666D01*
X80476666Y-72053333D01*
X80443333Y-72120000D01*
X80643333Y-71286666D02*
X80643333Y-71220000D01*
X80610000Y-71153333D01*
X80576666Y-71120000D01*
X80510000Y-71086666D01*
X80376666Y-71053333D01*
X80210000Y-71053333D01*
X80076666Y-71086666D01*
X80010000Y-71120000D01*
X79976666Y-71153333D01*
X79943333Y-71220000D01*
X79943333Y-71286666D01*
X79976666Y-71353333D01*
X80010000Y-71386666D01*
X80076666Y-71420000D01*
X80210000Y-71453333D01*
X80376666Y-71453333D01*
X80510000Y-71420000D01*
X80576666Y-71386666D01*
X80610000Y-71353333D01*
X80643333Y-71286666D01*
X80410000Y-70753333D02*
X79710000Y-70753333D01*
X80043333Y-70420000D02*
X79976666Y-70386666D01*
X79943333Y-70320000D01*
X80043333Y-70753333D02*
X79976666Y-70720000D01*
X79943333Y-70653333D01*
X79943333Y-70520000D01*
X79976666Y-70453333D01*
X80043333Y-70420000D01*
X80410000Y-70420000D01*
X80310000Y-69786666D02*
X80310000Y-70020000D01*
X79943333Y-70020000D02*
X80643333Y-70020000D01*
X80643333Y-69686666D01*
X71283333Y-164270000D02*
X71283333Y-164203333D01*
X71250000Y-164136666D01*
X71216666Y-164103333D01*
X71150000Y-164070000D01*
X71016666Y-164036666D01*
X70850000Y-164036666D01*
X70716666Y-164070000D01*
X70650000Y-164103333D01*
X70616666Y-164136666D01*
X70583333Y-164203333D01*
X70583333Y-164270000D01*
X70616666Y-164336666D01*
X70650000Y-164370000D01*
X70716666Y-164403333D01*
X70850000Y-164436666D01*
X71016666Y-164436666D01*
X71150000Y-164403333D01*
X71216666Y-164370000D01*
X71250000Y-164336666D01*
X71283333Y-164270000D01*
X70650000Y-163736666D02*
X70616666Y-163703333D01*
X70583333Y-163736666D01*
X70616666Y-163770000D01*
X70650000Y-163736666D01*
X70583333Y-163736666D01*
X70583333Y-163036666D02*
X70583333Y-163436666D01*
X70583333Y-163236666D02*
X71283333Y-163236666D01*
X71183333Y-163303333D01*
X71116666Y-163370000D01*
X71083333Y-163436666D01*
X71050000Y-162736666D02*
X70350000Y-162736666D01*
X70683333Y-162403333D02*
X70616666Y-162370000D01*
X70583333Y-162303333D01*
X70683333Y-162736666D02*
X70616666Y-162703333D01*
X70583333Y-162636666D01*
X70583333Y-162503333D01*
X70616666Y-162436666D01*
X70683333Y-162403333D01*
X71050000Y-162403333D01*
X70950000Y-161770000D02*
X70950000Y-162003333D01*
X70583333Y-162003333D02*
X71283333Y-162003333D01*
X71283333Y-161670000D01*
X71283333Y-38740000D02*
X71283333Y-38673333D01*
X71250000Y-38606666D01*
X71216666Y-38573333D01*
X71150000Y-38540000D01*
X71016666Y-38506666D01*
X70850000Y-38506666D01*
X70716666Y-38540000D01*
X70650000Y-38573333D01*
X70616666Y-38606666D01*
X70583333Y-38673333D01*
X70583333Y-38740000D01*
X70616666Y-38806666D01*
X70650000Y-38840000D01*
X70716666Y-38873333D01*
X70850000Y-38906666D01*
X71016666Y-38906666D01*
X71150000Y-38873333D01*
X71216666Y-38840000D01*
X71250000Y-38806666D01*
X71283333Y-38740000D01*
X70650000Y-38206666D02*
X70616666Y-38173333D01*
X70583333Y-38206666D01*
X70616666Y-38240000D01*
X70650000Y-38206666D01*
X70583333Y-38206666D01*
X70583333Y-37506666D02*
X70583333Y-37906666D01*
X70583333Y-37706666D02*
X71283333Y-37706666D01*
X71183333Y-37773333D01*
X71116666Y-37840000D01*
X71083333Y-37906666D01*
X71050000Y-37206666D02*
X70350000Y-37206666D01*
X70683333Y-36873333D02*
X70616666Y-36840000D01*
X70583333Y-36773333D01*
X70683333Y-37206666D02*
X70616666Y-37173333D01*
X70583333Y-37106666D01*
X70583333Y-36973333D01*
X70616666Y-36906666D01*
X70683333Y-36873333D01*
X71050000Y-36873333D01*
X70950000Y-36240000D02*
X70950000Y-36473333D01*
X70583333Y-36473333D02*
X71283333Y-36473333D01*
X71283333Y-36140000D01*
X71243333Y-66740000D02*
X71243333Y-66673333D01*
X71210000Y-66606666D01*
X71176666Y-66573333D01*
X71110000Y-66540000D01*
X70976666Y-66506666D01*
X70810000Y-66506666D01*
X70676666Y-66540000D01*
X70610000Y-66573333D01*
X70576666Y-66606666D01*
X70543333Y-66673333D01*
X70543333Y-66740000D01*
X70576666Y-66806666D01*
X70610000Y-66840000D01*
X70676666Y-66873333D01*
X70810000Y-66906666D01*
X70976666Y-66906666D01*
X71110000Y-66873333D01*
X71176666Y-66840000D01*
X71210000Y-66806666D01*
X71243333Y-66740000D01*
X70610000Y-66206666D02*
X70576666Y-66173333D01*
X70543333Y-66206666D01*
X70576666Y-66240000D01*
X70610000Y-66206666D01*
X70543333Y-66206666D01*
X70543333Y-65506666D02*
X70543333Y-65906666D01*
X70543333Y-65706666D02*
X71243333Y-65706666D01*
X71143333Y-65773333D01*
X71076666Y-65840000D01*
X71043333Y-65906666D01*
X71010000Y-65206666D02*
X70310000Y-65206666D01*
X70643333Y-64873333D02*
X70576666Y-64840000D01*
X70543333Y-64773333D01*
X70643333Y-65206666D02*
X70576666Y-65173333D01*
X70543333Y-65106666D01*
X70543333Y-64973333D01*
X70576666Y-64906666D01*
X70643333Y-64873333D01*
X71010000Y-64873333D01*
X70910000Y-64240000D02*
X70910000Y-64473333D01*
X70543333Y-64473333D02*
X71243333Y-64473333D01*
X71243333Y-64140000D01*
X80556666Y-75970000D02*
X80590000Y-75936666D01*
X80623333Y-75870000D01*
X80623333Y-75703333D01*
X80590000Y-75636666D01*
X80556666Y-75603333D01*
X80490000Y-75570000D01*
X80423333Y-75570000D01*
X80323333Y-75603333D01*
X79923333Y-76003333D01*
X79923333Y-75570000D01*
X79923333Y-74903333D02*
X79923333Y-75303333D01*
X79923333Y-75103333D02*
X80623333Y-75103333D01*
X80523333Y-75170000D01*
X80456666Y-75236666D01*
X80423333Y-75303333D01*
X80623333Y-74470000D02*
X80623333Y-74403333D01*
X80590000Y-74336666D01*
X80556666Y-74303333D01*
X80490000Y-74270000D01*
X80356666Y-74236666D01*
X80190000Y-74236666D01*
X80056666Y-74270000D01*
X79990000Y-74303333D01*
X79956666Y-74336666D01*
X79923333Y-74403333D01*
X79923333Y-74470000D01*
X79956666Y-74536666D01*
X79990000Y-74570000D01*
X80056666Y-74603333D01*
X80190000Y-74636666D01*
X80356666Y-74636666D01*
X80490000Y-74603333D01*
X80556666Y-74570000D01*
X80590000Y-74536666D01*
X80623333Y-74470000D01*
X79923333Y-73936666D02*
X80623333Y-73936666D01*
X80190000Y-73870000D02*
X79923333Y-73670000D01*
X80390000Y-73670000D02*
X80123333Y-73936666D01*
X79923333Y-73403333D02*
X79923333Y-73236666D01*
X80056666Y-73236666D01*
X80090000Y-73303333D01*
X80156666Y-73370000D01*
X80256666Y-73403333D01*
X80423333Y-73403333D01*
X80523333Y-73370000D01*
X80590000Y-73303333D01*
X80623333Y-73203333D01*
X80623333Y-73070000D01*
X80590000Y-72970000D01*
X80523333Y-72903333D01*
X80423333Y-72870000D01*
X80256666Y-72870000D01*
X80156666Y-72903333D01*
X80090000Y-72970000D01*
X80056666Y-73036666D01*
X79923333Y-73036666D01*
X79923333Y-72870000D01*
X71323333Y-147770000D02*
X71323333Y-147703333D01*
X71290000Y-147636666D01*
X71256666Y-147603333D01*
X71190000Y-147570000D01*
X71056666Y-147536666D01*
X70890000Y-147536666D01*
X70756666Y-147570000D01*
X70690000Y-147603333D01*
X70656666Y-147636666D01*
X70623333Y-147703333D01*
X70623333Y-147770000D01*
X70656666Y-147836666D01*
X70690000Y-147870000D01*
X70756666Y-147903333D01*
X70890000Y-147936666D01*
X71056666Y-147936666D01*
X71190000Y-147903333D01*
X71256666Y-147870000D01*
X71290000Y-147836666D01*
X71323333Y-147770000D01*
X70690000Y-147236666D02*
X70656666Y-147203333D01*
X70623333Y-147236666D01*
X70656666Y-147270000D01*
X70690000Y-147236666D01*
X70623333Y-147236666D01*
X70623333Y-146536666D02*
X70623333Y-146936666D01*
X70623333Y-146736666D02*
X71323333Y-146736666D01*
X71223333Y-146803333D01*
X71156666Y-146870000D01*
X71123333Y-146936666D01*
X71090000Y-146236666D02*
X70390000Y-146236666D01*
X70723333Y-145903333D02*
X70656666Y-145870000D01*
X70623333Y-145803333D01*
X70723333Y-146236666D02*
X70656666Y-146203333D01*
X70623333Y-146136666D01*
X70623333Y-146003333D01*
X70656666Y-145936666D01*
X70723333Y-145903333D01*
X71090000Y-145903333D01*
X70990000Y-145270000D02*
X70990000Y-145503333D01*
X70623333Y-145503333D02*
X71323333Y-145503333D01*
X71323333Y-145170000D01*
X80666666Y-67650000D02*
X80700000Y-67616666D01*
X80733333Y-67550000D01*
X80733333Y-67383333D01*
X80700000Y-67316666D01*
X80666666Y-67283333D01*
X80600000Y-67250000D01*
X80533333Y-67250000D01*
X80433333Y-67283333D01*
X80033333Y-67683333D01*
X80033333Y-67250000D01*
X80033333Y-66583333D02*
X80033333Y-66983333D01*
X80033333Y-66783333D02*
X80733333Y-66783333D01*
X80633333Y-66850000D01*
X80566666Y-66916666D01*
X80533333Y-66983333D01*
X80733333Y-66150000D02*
X80733333Y-66083333D01*
X80700000Y-66016666D01*
X80666666Y-65983333D01*
X80600000Y-65950000D01*
X80466666Y-65916666D01*
X80300000Y-65916666D01*
X80166666Y-65950000D01*
X80100000Y-65983333D01*
X80066666Y-66016666D01*
X80033333Y-66083333D01*
X80033333Y-66150000D01*
X80066666Y-66216666D01*
X80100000Y-66250000D01*
X80166666Y-66283333D01*
X80300000Y-66316666D01*
X80466666Y-66316666D01*
X80600000Y-66283333D01*
X80666666Y-66250000D01*
X80700000Y-66216666D01*
X80733333Y-66150000D01*
X80033333Y-65616666D02*
X80733333Y-65616666D01*
X80300000Y-65550000D02*
X80033333Y-65350000D01*
X80500000Y-65350000D02*
X80233333Y-65616666D01*
X80033333Y-65083333D02*
X80033333Y-64916666D01*
X80166666Y-64916666D01*
X80200000Y-64983333D01*
X80266666Y-65050000D01*
X80366666Y-65083333D01*
X80533333Y-65083333D01*
X80633333Y-65050000D01*
X80700000Y-64983333D01*
X80733333Y-64883333D01*
X80733333Y-64750000D01*
X80700000Y-64650000D01*
X80633333Y-64583333D01*
X80533333Y-64550000D01*
X80366666Y-64550000D01*
X80266666Y-64583333D01*
X80200000Y-64650000D01*
X80166666Y-64716666D01*
X80033333Y-64716666D01*
X80033333Y-64550000D01*
X80476666Y-48370000D02*
X80510000Y-48336666D01*
X80543333Y-48270000D01*
X80543333Y-48103333D01*
X80510000Y-48036666D01*
X80476666Y-48003333D01*
X80410000Y-47970000D01*
X80343333Y-47970000D01*
X80243333Y-48003333D01*
X79843333Y-48403333D01*
X79843333Y-47970000D01*
X79843333Y-47303333D02*
X79843333Y-47703333D01*
X79843333Y-47503333D02*
X80543333Y-47503333D01*
X80443333Y-47570000D01*
X80376666Y-47636666D01*
X80343333Y-47703333D01*
X80543333Y-46870000D02*
X80543333Y-46803333D01*
X80510000Y-46736666D01*
X80476666Y-46703333D01*
X80410000Y-46670000D01*
X80276666Y-46636666D01*
X80110000Y-46636666D01*
X79976666Y-46670000D01*
X79910000Y-46703333D01*
X79876666Y-46736666D01*
X79843333Y-46803333D01*
X79843333Y-46870000D01*
X79876666Y-46936666D01*
X79910000Y-46970000D01*
X79976666Y-47003333D01*
X80110000Y-47036666D01*
X80276666Y-47036666D01*
X80410000Y-47003333D01*
X80476666Y-46970000D01*
X80510000Y-46936666D01*
X80543333Y-46870000D01*
X79843333Y-46336666D02*
X80543333Y-46336666D01*
X80110000Y-46270000D02*
X79843333Y-46070000D01*
X80310000Y-46070000D02*
X80043333Y-46336666D01*
X79843333Y-45803333D02*
X79843333Y-45636666D01*
X79976666Y-45636666D01*
X80010000Y-45703333D01*
X80076666Y-45770000D01*
X80176666Y-45803333D01*
X80343333Y-45803333D01*
X80443333Y-45770000D01*
X80510000Y-45703333D01*
X80543333Y-45603333D01*
X80543333Y-45470000D01*
X80510000Y-45370000D01*
X80443333Y-45303333D01*
X80343333Y-45270000D01*
X80176666Y-45270000D01*
X80076666Y-45303333D01*
X80010000Y-45370000D01*
X79976666Y-45436666D01*
X79843333Y-45436666D01*
X79843333Y-45270000D01*
X80733333Y-139170000D02*
X80733333Y-139570000D01*
X80733333Y-139370000D02*
X81433333Y-139370000D01*
X81333333Y-139436666D01*
X81266666Y-139503333D01*
X81233333Y-139570000D01*
X81433333Y-138736666D02*
X81433333Y-138670000D01*
X81400000Y-138603333D01*
X81366666Y-138570000D01*
X81300000Y-138536666D01*
X81166666Y-138503333D01*
X81000000Y-138503333D01*
X80866666Y-138536666D01*
X80800000Y-138570000D01*
X80766666Y-138603333D01*
X80733333Y-138670000D01*
X80733333Y-138736666D01*
X80766666Y-138803333D01*
X80800000Y-138836666D01*
X80866666Y-138870000D01*
X81000000Y-138903333D01*
X81166666Y-138903333D01*
X81300000Y-138870000D01*
X81366666Y-138836666D01*
X81400000Y-138803333D01*
X81433333Y-138736666D01*
X81200000Y-138203333D02*
X80500000Y-138203333D01*
X80833333Y-137870000D02*
X80766666Y-137836666D01*
X80733333Y-137770000D01*
X80833333Y-138203333D02*
X80766666Y-138170000D01*
X80733333Y-138103333D01*
X80733333Y-137970000D01*
X80766666Y-137903333D01*
X80833333Y-137870000D01*
X81200000Y-137870000D01*
X81100000Y-137236666D02*
X81100000Y-137470000D01*
X80733333Y-137470000D02*
X81433333Y-137470000D01*
X81433333Y-137136666D01*
X87538095Y-143252380D02*
X87538095Y-142252380D01*
X87157142Y-142252380D01*
X87061904Y-142300000D01*
X87014285Y-142347619D01*
X86966666Y-142442857D01*
X86966666Y-142585714D01*
X87014285Y-142680952D01*
X87061904Y-142728571D01*
X87157142Y-142776190D01*
X87538095Y-142776190D01*
X86633333Y-142252380D02*
X86014285Y-142252380D01*
X86347619Y-142633333D01*
X86204761Y-142633333D01*
X86109523Y-142680952D01*
X86061904Y-142728571D01*
X86014285Y-142823809D01*
X86014285Y-143061904D01*
X86061904Y-143157142D01*
X86109523Y-143204761D01*
X86204761Y-143252380D01*
X86490476Y-143252380D01*
X86585714Y-143204761D01*
X86633333Y-143157142D01*
X84118095Y-52142380D02*
X84118095Y-51142380D01*
X83737142Y-51142380D01*
X83641904Y-51190000D01*
X83594285Y-51237619D01*
X83546666Y-51332857D01*
X83546666Y-51475714D01*
X83594285Y-51570952D01*
X83641904Y-51618571D01*
X83737142Y-51666190D01*
X84118095Y-51666190D01*
X82594285Y-52142380D02*
X83165714Y-52142380D01*
X82880000Y-52142380D02*
X82880000Y-51142380D01*
X82975238Y-51285238D01*
X83070476Y-51380476D01*
X83165714Y-51428095D01*
X71143333Y-75550000D02*
X71143333Y-75483333D01*
X71110000Y-75416666D01*
X71076666Y-75383333D01*
X71010000Y-75350000D01*
X70876666Y-75316666D01*
X70710000Y-75316666D01*
X70576666Y-75350000D01*
X70510000Y-75383333D01*
X70476666Y-75416666D01*
X70443333Y-75483333D01*
X70443333Y-75550000D01*
X70476666Y-75616666D01*
X70510000Y-75650000D01*
X70576666Y-75683333D01*
X70710000Y-75716666D01*
X70876666Y-75716666D01*
X71010000Y-75683333D01*
X71076666Y-75650000D01*
X71110000Y-75616666D01*
X71143333Y-75550000D01*
X70510000Y-75016666D02*
X70476666Y-74983333D01*
X70443333Y-75016666D01*
X70476666Y-75050000D01*
X70510000Y-75016666D01*
X70443333Y-75016666D01*
X70443333Y-74316666D02*
X70443333Y-74716666D01*
X70443333Y-74516666D02*
X71143333Y-74516666D01*
X71043333Y-74583333D01*
X70976666Y-74650000D01*
X70943333Y-74716666D01*
X70910000Y-74016666D02*
X70210000Y-74016666D01*
X70543333Y-73683333D02*
X70476666Y-73650000D01*
X70443333Y-73583333D01*
X70543333Y-74016666D02*
X70476666Y-73983333D01*
X70443333Y-73916666D01*
X70443333Y-73783333D01*
X70476666Y-73716666D01*
X70543333Y-73683333D01*
X70910000Y-73683333D01*
X70810000Y-73050000D02*
X70810000Y-73283333D01*
X70443333Y-73283333D02*
X71143333Y-73283333D01*
X71143333Y-72950000D01*
X71123333Y-139020000D02*
X71123333Y-138953333D01*
X71090000Y-138886666D01*
X71056666Y-138853333D01*
X70990000Y-138820000D01*
X70856666Y-138786666D01*
X70690000Y-138786666D01*
X70556666Y-138820000D01*
X70490000Y-138853333D01*
X70456666Y-138886666D01*
X70423333Y-138953333D01*
X70423333Y-139020000D01*
X70456666Y-139086666D01*
X70490000Y-139120000D01*
X70556666Y-139153333D01*
X70690000Y-139186666D01*
X70856666Y-139186666D01*
X70990000Y-139153333D01*
X71056666Y-139120000D01*
X71090000Y-139086666D01*
X71123333Y-139020000D01*
X70490000Y-138486666D02*
X70456666Y-138453333D01*
X70423333Y-138486666D01*
X70456666Y-138520000D01*
X70490000Y-138486666D01*
X70423333Y-138486666D01*
X70423333Y-137786666D02*
X70423333Y-138186666D01*
X70423333Y-137986666D02*
X71123333Y-137986666D01*
X71023333Y-138053333D01*
X70956666Y-138120000D01*
X70923333Y-138186666D01*
X70890000Y-137486666D02*
X70190000Y-137486666D01*
X70523333Y-137153333D02*
X70456666Y-137120000D01*
X70423333Y-137053333D01*
X70523333Y-137486666D02*
X70456666Y-137453333D01*
X70423333Y-137386666D01*
X70423333Y-137253333D01*
X70456666Y-137186666D01*
X70523333Y-137153333D01*
X70890000Y-137153333D01*
X70790000Y-136520000D02*
X70790000Y-136753333D01*
X70423333Y-136753333D02*
X71123333Y-136753333D01*
X71123333Y-136420000D01*
X71133333Y-155340000D02*
X71133333Y-155273333D01*
X71100000Y-155206666D01*
X71066666Y-155173333D01*
X71000000Y-155140000D01*
X70866666Y-155106666D01*
X70700000Y-155106666D01*
X70566666Y-155140000D01*
X70500000Y-155173333D01*
X70466666Y-155206666D01*
X70433333Y-155273333D01*
X70433333Y-155340000D01*
X70466666Y-155406666D01*
X70500000Y-155440000D01*
X70566666Y-155473333D01*
X70700000Y-155506666D01*
X70866666Y-155506666D01*
X71000000Y-155473333D01*
X71066666Y-155440000D01*
X71100000Y-155406666D01*
X71133333Y-155340000D01*
X70500000Y-154806666D02*
X70466666Y-154773333D01*
X70433333Y-154806666D01*
X70466666Y-154840000D01*
X70500000Y-154806666D01*
X70433333Y-154806666D01*
X70433333Y-154106666D02*
X70433333Y-154506666D01*
X70433333Y-154306666D02*
X71133333Y-154306666D01*
X71033333Y-154373333D01*
X70966666Y-154440000D01*
X70933333Y-154506666D01*
X70900000Y-153806666D02*
X70200000Y-153806666D01*
X70533333Y-153473333D02*
X70466666Y-153440000D01*
X70433333Y-153373333D01*
X70533333Y-153806666D02*
X70466666Y-153773333D01*
X70433333Y-153706666D01*
X70433333Y-153573333D01*
X70466666Y-153506666D01*
X70533333Y-153473333D01*
X70900000Y-153473333D01*
X70800000Y-152840000D02*
X70800000Y-153073333D01*
X70433333Y-153073333D02*
X71133333Y-153073333D01*
X71133333Y-152740000D01*
X80403333Y-38560000D02*
X80403333Y-38960000D01*
X80403333Y-38760000D02*
X81103333Y-38760000D01*
X81003333Y-38826666D01*
X80936666Y-38893333D01*
X80903333Y-38960000D01*
X81103333Y-38126666D02*
X81103333Y-38060000D01*
X81070000Y-37993333D01*
X81036666Y-37960000D01*
X80970000Y-37926666D01*
X80836666Y-37893333D01*
X80670000Y-37893333D01*
X80536666Y-37926666D01*
X80470000Y-37960000D01*
X80436666Y-37993333D01*
X80403333Y-38060000D01*
X80403333Y-38126666D01*
X80436666Y-38193333D01*
X80470000Y-38226666D01*
X80536666Y-38260000D01*
X80670000Y-38293333D01*
X80836666Y-38293333D01*
X80970000Y-38260000D01*
X81036666Y-38226666D01*
X81070000Y-38193333D01*
X81103333Y-38126666D01*
X80870000Y-37593333D02*
X80170000Y-37593333D01*
X80503333Y-37260000D02*
X80436666Y-37226666D01*
X80403333Y-37160000D01*
X80503333Y-37593333D02*
X80436666Y-37560000D01*
X80403333Y-37493333D01*
X80403333Y-37360000D01*
X80436666Y-37293333D01*
X80503333Y-37260000D01*
X80870000Y-37260000D01*
X80770000Y-36626666D02*
X80770000Y-36860000D01*
X80403333Y-36860000D02*
X81103333Y-36860000D01*
X81103333Y-36526666D01*
X72916666Y-156793333D02*
X72883333Y-156760000D01*
X72816666Y-156726666D01*
X72650000Y-156726666D01*
X72583333Y-156760000D01*
X72550000Y-156793333D01*
X72516666Y-156860000D01*
X72516666Y-156926666D01*
X72550000Y-157026666D01*
X72950000Y-157426666D01*
X72516666Y-157426666D01*
X72083333Y-156726666D02*
X72016666Y-156726666D01*
X71950000Y-156760000D01*
X71916666Y-156793333D01*
X71883333Y-156860000D01*
X71850000Y-156993333D01*
X71850000Y-157160000D01*
X71883333Y-157293333D01*
X71916666Y-157360000D01*
X71950000Y-157393333D01*
X72016666Y-157426666D01*
X72083333Y-157426666D01*
X72150000Y-157393333D01*
X72183333Y-157360000D01*
X72216666Y-157293333D01*
X72250000Y-157160000D01*
X72250000Y-156993333D01*
X72216666Y-156860000D01*
X72183333Y-156793333D01*
X72150000Y-156760000D01*
X72083333Y-156726666D01*
X71550000Y-157426666D02*
X71550000Y-156726666D01*
X71483333Y-157160000D02*
X71283333Y-157426666D01*
X71283333Y-156960000D02*
X71550000Y-157226666D01*
X71016666Y-157426666D02*
X70850000Y-157426666D01*
X70850000Y-157293333D01*
X70916666Y-157260000D01*
X70983333Y-157193333D01*
X71016666Y-157093333D01*
X71016666Y-156926666D01*
X70983333Y-156826666D01*
X70916666Y-156760000D01*
X70816666Y-156726666D01*
X70683333Y-156726666D01*
X70583333Y-156760000D01*
X70516666Y-156826666D01*
X70483333Y-156926666D01*
X70483333Y-157093333D01*
X70516666Y-157193333D01*
X70583333Y-157260000D01*
X70650000Y-157293333D01*
X70650000Y-157426666D01*
X70483333Y-157426666D01*
X80676666Y-148190000D02*
X80710000Y-148156666D01*
X80743333Y-148090000D01*
X80743333Y-147923333D01*
X80710000Y-147856666D01*
X80676666Y-147823333D01*
X80610000Y-147790000D01*
X80543333Y-147790000D01*
X80443333Y-147823333D01*
X80043333Y-148223333D01*
X80043333Y-147790000D01*
X80043333Y-147123333D02*
X80043333Y-147523333D01*
X80043333Y-147323333D02*
X80743333Y-147323333D01*
X80643333Y-147390000D01*
X80576666Y-147456666D01*
X80543333Y-147523333D01*
X80743333Y-146690000D02*
X80743333Y-146623333D01*
X80710000Y-146556666D01*
X80676666Y-146523333D01*
X80610000Y-146490000D01*
X80476666Y-146456666D01*
X80310000Y-146456666D01*
X80176666Y-146490000D01*
X80110000Y-146523333D01*
X80076666Y-146556666D01*
X80043333Y-146623333D01*
X80043333Y-146690000D01*
X80076666Y-146756666D01*
X80110000Y-146790000D01*
X80176666Y-146823333D01*
X80310000Y-146856666D01*
X80476666Y-146856666D01*
X80610000Y-146823333D01*
X80676666Y-146790000D01*
X80710000Y-146756666D01*
X80743333Y-146690000D01*
X80043333Y-146156666D02*
X80743333Y-146156666D01*
X80310000Y-146090000D02*
X80043333Y-145890000D01*
X80510000Y-145890000D02*
X80243333Y-146156666D01*
X80043333Y-145623333D02*
X80043333Y-145456666D01*
X80176666Y-145456666D01*
X80210000Y-145523333D01*
X80276666Y-145590000D01*
X80376666Y-145623333D01*
X80543333Y-145623333D01*
X80643333Y-145590000D01*
X80710000Y-145523333D01*
X80743333Y-145423333D01*
X80743333Y-145290000D01*
X80710000Y-145190000D01*
X80643333Y-145123333D01*
X80543333Y-145090000D01*
X80376666Y-145090000D01*
X80276666Y-145123333D01*
X80210000Y-145190000D01*
X80176666Y-145256666D01*
X80043333Y-145256666D01*
X80043333Y-145090000D01*
X72886666Y-49543333D02*
X72853333Y-49510000D01*
X72786666Y-49476666D01*
X72620000Y-49476666D01*
X72553333Y-49510000D01*
X72520000Y-49543333D01*
X72486666Y-49610000D01*
X72486666Y-49676666D01*
X72520000Y-49776666D01*
X72920000Y-50176666D01*
X72486666Y-50176666D01*
X72053333Y-49476666D02*
X71986666Y-49476666D01*
X71920000Y-49510000D01*
X71886666Y-49543333D01*
X71853333Y-49610000D01*
X71820000Y-49743333D01*
X71820000Y-49910000D01*
X71853333Y-50043333D01*
X71886666Y-50110000D01*
X71920000Y-50143333D01*
X71986666Y-50176666D01*
X72053333Y-50176666D01*
X72120000Y-50143333D01*
X72153333Y-50110000D01*
X72186666Y-50043333D01*
X72220000Y-49910000D01*
X72220000Y-49743333D01*
X72186666Y-49610000D01*
X72153333Y-49543333D01*
X72120000Y-49510000D01*
X72053333Y-49476666D01*
X71520000Y-50176666D02*
X71520000Y-49476666D01*
X71453333Y-49910000D02*
X71253333Y-50176666D01*
X71253333Y-49710000D02*
X71520000Y-49976666D01*
X70986666Y-50176666D02*
X70820000Y-50176666D01*
X70820000Y-50043333D01*
X70886666Y-50010000D01*
X70953333Y-49943333D01*
X70986666Y-49843333D01*
X70986666Y-49676666D01*
X70953333Y-49576666D01*
X70886666Y-49510000D01*
X70786666Y-49476666D01*
X70653333Y-49476666D01*
X70553333Y-49510000D01*
X70486666Y-49576666D01*
X70453333Y-49676666D01*
X70453333Y-49843333D01*
X70486666Y-49943333D01*
X70553333Y-50010000D01*
X70620000Y-50043333D01*
X70620000Y-50176666D01*
X70453333Y-50176666D01*
X80003333Y-160380000D02*
X80003333Y-160780000D01*
X80003333Y-160580000D02*
X80703333Y-160580000D01*
X80603333Y-160646666D01*
X80536666Y-160713333D01*
X80503333Y-160780000D01*
X80703333Y-159946666D02*
X80703333Y-159880000D01*
X80670000Y-159813333D01*
X80636666Y-159780000D01*
X80570000Y-159746666D01*
X80436666Y-159713333D01*
X80270000Y-159713333D01*
X80136666Y-159746666D01*
X80070000Y-159780000D01*
X80036666Y-159813333D01*
X80003333Y-159880000D01*
X80003333Y-159946666D01*
X80036666Y-160013333D01*
X80070000Y-160046666D01*
X80136666Y-160080000D01*
X80270000Y-160113333D01*
X80436666Y-160113333D01*
X80570000Y-160080000D01*
X80636666Y-160046666D01*
X80670000Y-160013333D01*
X80703333Y-159946666D01*
X80470000Y-159413333D02*
X79770000Y-159413333D01*
X80103333Y-159080000D02*
X80036666Y-159046666D01*
X80003333Y-158980000D01*
X80103333Y-159413333D02*
X80036666Y-159380000D01*
X80003333Y-159313333D01*
X80003333Y-159180000D01*
X80036666Y-159113333D01*
X80103333Y-159080000D01*
X80470000Y-159080000D01*
X80370000Y-158446666D02*
X80370000Y-158680000D01*
X80003333Y-158680000D02*
X80703333Y-158680000D01*
X80703333Y-158346666D01*
X80616666Y-164630000D02*
X80650000Y-164596666D01*
X80683333Y-164530000D01*
X80683333Y-164363333D01*
X80650000Y-164296666D01*
X80616666Y-164263333D01*
X80550000Y-164230000D01*
X80483333Y-164230000D01*
X80383333Y-164263333D01*
X79983333Y-164663333D01*
X79983333Y-164230000D01*
X79983333Y-163563333D02*
X79983333Y-163963333D01*
X79983333Y-163763333D02*
X80683333Y-163763333D01*
X80583333Y-163830000D01*
X80516666Y-163896666D01*
X80483333Y-163963333D01*
X80683333Y-163130000D02*
X80683333Y-163063333D01*
X80650000Y-162996666D01*
X80616666Y-162963333D01*
X80550000Y-162930000D01*
X80416666Y-162896666D01*
X80250000Y-162896666D01*
X80116666Y-162930000D01*
X80050000Y-162963333D01*
X80016666Y-162996666D01*
X79983333Y-163063333D01*
X79983333Y-163130000D01*
X80016666Y-163196666D01*
X80050000Y-163230000D01*
X80116666Y-163263333D01*
X80250000Y-163296666D01*
X80416666Y-163296666D01*
X80550000Y-163263333D01*
X80616666Y-163230000D01*
X80650000Y-163196666D01*
X80683333Y-163130000D01*
X79983333Y-162596666D02*
X80683333Y-162596666D01*
X80250000Y-162530000D02*
X79983333Y-162330000D01*
X80450000Y-162330000D02*
X80183333Y-162596666D01*
X79983333Y-162063333D02*
X79983333Y-161896666D01*
X80116666Y-161896666D01*
X80150000Y-161963333D01*
X80216666Y-162030000D01*
X80316666Y-162063333D01*
X80483333Y-162063333D01*
X80583333Y-162030000D01*
X80650000Y-161963333D01*
X80683333Y-161863333D01*
X80683333Y-161730000D01*
X80650000Y-161630000D01*
X80583333Y-161563333D01*
X80483333Y-161530000D01*
X80316666Y-161530000D01*
X80216666Y-161563333D01*
X80150000Y-161630000D01*
X80116666Y-161696666D01*
X79983333Y-161696666D01*
X79983333Y-161530000D01*
X73136666Y-40553333D02*
X73103333Y-40520000D01*
X73036666Y-40486666D01*
X72870000Y-40486666D01*
X72803333Y-40520000D01*
X72770000Y-40553333D01*
X72736666Y-40620000D01*
X72736666Y-40686666D01*
X72770000Y-40786666D01*
X73170000Y-41186666D01*
X72736666Y-41186666D01*
X72303333Y-40486666D02*
X72236666Y-40486666D01*
X72170000Y-40520000D01*
X72136666Y-40553333D01*
X72103333Y-40620000D01*
X72070000Y-40753333D01*
X72070000Y-40920000D01*
X72103333Y-41053333D01*
X72136666Y-41120000D01*
X72170000Y-41153333D01*
X72236666Y-41186666D01*
X72303333Y-41186666D01*
X72370000Y-41153333D01*
X72403333Y-41120000D01*
X72436666Y-41053333D01*
X72470000Y-40920000D01*
X72470000Y-40753333D01*
X72436666Y-40620000D01*
X72403333Y-40553333D01*
X72370000Y-40520000D01*
X72303333Y-40486666D01*
X71770000Y-41186666D02*
X71770000Y-40486666D01*
X71703333Y-40920000D02*
X71503333Y-41186666D01*
X71503333Y-40720000D02*
X71770000Y-40986666D01*
X71236666Y-41186666D02*
X71070000Y-41186666D01*
X71070000Y-41053333D01*
X71136666Y-41020000D01*
X71203333Y-40953333D01*
X71236666Y-40853333D01*
X71236666Y-40686666D01*
X71203333Y-40586666D01*
X71136666Y-40520000D01*
X71036666Y-40486666D01*
X70903333Y-40486666D01*
X70803333Y-40520000D01*
X70736666Y-40586666D01*
X70703333Y-40686666D01*
X70703333Y-40853333D01*
X70736666Y-40953333D01*
X70803333Y-41020000D01*
X70870000Y-41053333D01*
X70870000Y-41186666D01*
X70703333Y-41186666D01*
X74936666Y-167113333D02*
X74903333Y-167080000D01*
X74836666Y-167046666D01*
X74670000Y-167046666D01*
X74603333Y-167080000D01*
X74570000Y-167113333D01*
X74536666Y-167180000D01*
X74536666Y-167246666D01*
X74570000Y-167346666D01*
X74970000Y-167746666D01*
X74536666Y-167746666D01*
X74103333Y-167046666D02*
X74036666Y-167046666D01*
X73970000Y-167080000D01*
X73936666Y-167113333D01*
X73903333Y-167180000D01*
X73870000Y-167313333D01*
X73870000Y-167480000D01*
X73903333Y-167613333D01*
X73936666Y-167680000D01*
X73970000Y-167713333D01*
X74036666Y-167746666D01*
X74103333Y-167746666D01*
X74170000Y-167713333D01*
X74203333Y-167680000D01*
X74236666Y-167613333D01*
X74270000Y-167480000D01*
X74270000Y-167313333D01*
X74236666Y-167180000D01*
X74203333Y-167113333D01*
X74170000Y-167080000D01*
X74103333Y-167046666D01*
X73570000Y-167746666D02*
X73570000Y-167046666D01*
X73503333Y-167480000D02*
X73303333Y-167746666D01*
X73303333Y-167280000D02*
X73570000Y-167546666D01*
X73036666Y-167746666D02*
X72870000Y-167746666D01*
X72870000Y-167613333D01*
X72936666Y-167580000D01*
X73003333Y-167513333D01*
X73036666Y-167413333D01*
X73036666Y-167246666D01*
X73003333Y-167146666D01*
X72936666Y-167080000D01*
X72836666Y-167046666D01*
X72703333Y-167046666D01*
X72603333Y-167080000D01*
X72536666Y-167146666D01*
X72503333Y-167246666D01*
X72503333Y-167413333D01*
X72536666Y-167513333D01*
X72603333Y-167580000D01*
X72670000Y-167613333D01*
X72670000Y-167746666D01*
X72503333Y-167746666D01*
X80053333Y-63400000D02*
X80053333Y-63800000D01*
X80053333Y-63600000D02*
X80753333Y-63600000D01*
X80653333Y-63666666D01*
X80586666Y-63733333D01*
X80553333Y-63800000D01*
X80753333Y-62966666D02*
X80753333Y-62900000D01*
X80720000Y-62833333D01*
X80686666Y-62800000D01*
X80620000Y-62766666D01*
X80486666Y-62733333D01*
X80320000Y-62733333D01*
X80186666Y-62766666D01*
X80120000Y-62800000D01*
X80086666Y-62833333D01*
X80053333Y-62900000D01*
X80053333Y-62966666D01*
X80086666Y-63033333D01*
X80120000Y-63066666D01*
X80186666Y-63100000D01*
X80320000Y-63133333D01*
X80486666Y-63133333D01*
X80620000Y-63100000D01*
X80686666Y-63066666D01*
X80720000Y-63033333D01*
X80753333Y-62966666D01*
X80520000Y-62433333D02*
X79820000Y-62433333D01*
X80153333Y-62100000D02*
X80086666Y-62066666D01*
X80053333Y-62000000D01*
X80153333Y-62433333D02*
X80086666Y-62400000D01*
X80053333Y-62333333D01*
X80053333Y-62200000D01*
X80086666Y-62133333D01*
X80153333Y-62100000D01*
X80520000Y-62100000D01*
X80420000Y-61466666D02*
X80420000Y-61700000D01*
X80053333Y-61700000D02*
X80753333Y-61700000D01*
X80753333Y-61366666D01*
X72966666Y-77143333D02*
X72933333Y-77110000D01*
X72866666Y-77076666D01*
X72700000Y-77076666D01*
X72633333Y-77110000D01*
X72600000Y-77143333D01*
X72566666Y-77210000D01*
X72566666Y-77276666D01*
X72600000Y-77376666D01*
X73000000Y-77776666D01*
X72566666Y-77776666D01*
X72133333Y-77076666D02*
X72066666Y-77076666D01*
X72000000Y-77110000D01*
X71966666Y-77143333D01*
X71933333Y-77210000D01*
X71900000Y-77343333D01*
X71900000Y-77510000D01*
X71933333Y-77643333D01*
X71966666Y-77710000D01*
X72000000Y-77743333D01*
X72066666Y-77776666D01*
X72133333Y-77776666D01*
X72200000Y-77743333D01*
X72233333Y-77710000D01*
X72266666Y-77643333D01*
X72300000Y-77510000D01*
X72300000Y-77343333D01*
X72266666Y-77210000D01*
X72233333Y-77143333D01*
X72200000Y-77110000D01*
X72133333Y-77076666D01*
X71600000Y-77776666D02*
X71600000Y-77076666D01*
X71533333Y-77510000D02*
X71333333Y-77776666D01*
X71333333Y-77310000D02*
X71600000Y-77576666D01*
X71066666Y-77776666D02*
X70900000Y-77776666D01*
X70900000Y-77643333D01*
X70966666Y-77610000D01*
X71033333Y-77543333D01*
X71066666Y-77443333D01*
X71066666Y-77276666D01*
X71033333Y-77176666D01*
X70966666Y-77110000D01*
X70866666Y-77076666D01*
X70733333Y-77076666D01*
X70633333Y-77110000D01*
X70566666Y-77176666D01*
X70533333Y-77276666D01*
X70533333Y-77443333D01*
X70566666Y-77543333D01*
X70633333Y-77610000D01*
X70700000Y-77643333D01*
X70700000Y-77776666D01*
X70533333Y-77776666D01*
D13*
X126675238Y-171304761D02*
X127341904Y-170352380D01*
X127818095Y-171304761D02*
X127818095Y-169304761D01*
X127056190Y-169304761D01*
X126865714Y-169400000D01*
X126770476Y-169495238D01*
X126675238Y-169685714D01*
X126675238Y-169971428D01*
X126770476Y-170161904D01*
X126865714Y-170257142D01*
X127056190Y-170352380D01*
X127818095Y-170352380D01*
X126103809Y-169304761D02*
X125437142Y-171304761D01*
X124770476Y-169304761D01*
X123151428Y-171304761D02*
X124103809Y-171304761D01*
X124103809Y-169304761D01*
X122484761Y-170542857D02*
X120960952Y-170542857D01*
X118960952Y-171304761D02*
X120103809Y-171304761D01*
X119532380Y-171304761D02*
X119532380Y-169304761D01*
X119722857Y-169590476D01*
X119913333Y-169780952D01*
X120103809Y-169876190D01*
X118199047Y-169495238D02*
X118103809Y-169400000D01*
X117913333Y-169304761D01*
X117437142Y-169304761D01*
X117246666Y-169400000D01*
X117151428Y-169495238D01*
X117056190Y-169685714D01*
X117056190Y-169876190D01*
X117151428Y-170161904D01*
X118294285Y-171304761D01*
X117056190Y-171304761D01*
X116103809Y-171304761D02*
X115722857Y-171304761D01*
X115532380Y-171209523D01*
X115437142Y-171114285D01*
X115246666Y-170828571D01*
X115151428Y-170447619D01*
X115151428Y-169685714D01*
X115246666Y-169495238D01*
X115341904Y-169400000D01*
X115532380Y-169304761D01*
X115913333Y-169304761D01*
X116103809Y-169400000D01*
X116199047Y-169495238D01*
X116294285Y-169685714D01*
X116294285Y-170161904D01*
X116199047Y-170352380D01*
X116103809Y-170447619D01*
X115913333Y-170542857D01*
X115532380Y-170542857D01*
X115341904Y-170447619D01*
X115246666Y-170352380D01*
X115151428Y-170161904D01*
X114484761Y-169304761D02*
X113151428Y-171304761D01*
X113151428Y-169304761D02*
X114484761Y-171304761D01*
D10*
X87538095Y-160052380D02*
X87538095Y-159052380D01*
X87157142Y-159052380D01*
X87061904Y-159100000D01*
X87014285Y-159147619D01*
X86966666Y-159242857D01*
X86966666Y-159385714D01*
X87014285Y-159480952D01*
X87061904Y-159528571D01*
X87157142Y-159576190D01*
X87538095Y-159576190D01*
X86109523Y-159385714D02*
X86109523Y-160052380D01*
X86347619Y-159004761D02*
X86585714Y-159719047D01*
X85966666Y-159719047D01*
D11*
X125789523Y-173342380D02*
X126360952Y-173342380D01*
X126075238Y-173342380D02*
X126075238Y-172342380D01*
X126170476Y-172485238D01*
X126265714Y-172580476D01*
X126360952Y-172628095D01*
X125360952Y-173247142D02*
X125313333Y-173294761D01*
X125360952Y-173342380D01*
X125408571Y-173294761D01*
X125360952Y-173247142D01*
X125360952Y-173342380D01*
X124360952Y-173342380D02*
X124932380Y-173342380D01*
X124646666Y-173342380D02*
X124646666Y-172342380D01*
X124741904Y-172485238D01*
X124837142Y-172580476D01*
X124932380Y-172628095D01*
X123170476Y-172961428D02*
X122408571Y-172961428D01*
X120837142Y-172818571D02*
X120694285Y-172866190D01*
X120646666Y-172913809D01*
X120599047Y-173009047D01*
X120599047Y-173151904D01*
X120646666Y-173247142D01*
X120694285Y-173294761D01*
X120789523Y-173342380D01*
X121170476Y-173342380D01*
X121170476Y-172342380D01*
X120837142Y-172342380D01*
X120741904Y-172390000D01*
X120694285Y-172437619D01*
X120646666Y-172532857D01*
X120646666Y-172628095D01*
X120694285Y-172723333D01*
X120741904Y-172770952D01*
X120837142Y-172818571D01*
X121170476Y-172818571D01*
X120265714Y-172675714D02*
X120027619Y-173342380D01*
X119789523Y-172675714D02*
X120027619Y-173342380D01*
X120122857Y-173580476D01*
X120170476Y-173628095D01*
X120265714Y-173675714D01*
X118694285Y-173294761D02*
X118551428Y-173342380D01*
X118313333Y-173342380D01*
X118218095Y-173294761D01*
X118170476Y-173247142D01*
X118122857Y-173151904D01*
X118122857Y-173056666D01*
X118170476Y-172961428D01*
X118218095Y-172913809D01*
X118313333Y-172866190D01*
X118503809Y-172818571D01*
X118599047Y-172770952D01*
X118646666Y-172723333D01*
X118694285Y-172628095D01*
X118694285Y-172532857D01*
X118646666Y-172437619D01*
X118599047Y-172390000D01*
X118503809Y-172342380D01*
X118265714Y-172342380D01*
X118122857Y-172390000D01*
X117694285Y-173342380D02*
X117694285Y-172342380D01*
X117265714Y-173342380D02*
X117265714Y-172818571D01*
X117313333Y-172723333D01*
X117408571Y-172675714D01*
X117551428Y-172675714D01*
X117646666Y-172723333D01*
X117694285Y-172770952D01*
X116360952Y-173342380D02*
X116360952Y-172818571D01*
X116408571Y-172723333D01*
X116503809Y-172675714D01*
X116694285Y-172675714D01*
X116789523Y-172723333D01*
X116360952Y-173294761D02*
X116456190Y-173342380D01*
X116694285Y-173342380D01*
X116789523Y-173294761D01*
X116837142Y-173199523D01*
X116837142Y-173104285D01*
X116789523Y-173009047D01*
X116694285Y-172961428D01*
X116456190Y-172961428D01*
X116360952Y-172913809D01*
X115884761Y-172675714D02*
X115884761Y-173342380D01*
X115884761Y-172770952D02*
X115837142Y-172723333D01*
X115741904Y-172675714D01*
X115599047Y-172675714D01*
X115503809Y-172723333D01*
X115456190Y-172818571D01*
X115456190Y-173342380D01*
X114980000Y-173342380D02*
X114980000Y-172342380D01*
X114884761Y-172961428D02*
X114599047Y-173342380D01*
X114599047Y-172675714D02*
X114980000Y-173056666D01*
D10*
X80063333Y-143940000D02*
X80063333Y-144340000D01*
X80063333Y-144140000D02*
X80763333Y-144140000D01*
X80663333Y-144206666D01*
X80596666Y-144273333D01*
X80563333Y-144340000D01*
X80763333Y-143506666D02*
X80763333Y-143440000D01*
X80730000Y-143373333D01*
X80696666Y-143340000D01*
X80630000Y-143306666D01*
X80496666Y-143273333D01*
X80330000Y-143273333D01*
X80196666Y-143306666D01*
X80130000Y-143340000D01*
X80096666Y-143373333D01*
X80063333Y-143440000D01*
X80063333Y-143506666D01*
X80096666Y-143573333D01*
X80130000Y-143606666D01*
X80196666Y-143640000D01*
X80330000Y-143673333D01*
X80496666Y-143673333D01*
X80630000Y-143640000D01*
X80696666Y-143606666D01*
X80730000Y-143573333D01*
X80763333Y-143506666D01*
X80530000Y-142973333D02*
X79830000Y-142973333D01*
X80163333Y-142640000D02*
X80096666Y-142606666D01*
X80063333Y-142540000D01*
X80163333Y-142973333D02*
X80096666Y-142940000D01*
X80063333Y-142873333D01*
X80063333Y-142740000D01*
X80096666Y-142673333D01*
X80163333Y-142640000D01*
X80530000Y-142640000D01*
X80430000Y-142006666D02*
X80430000Y-142240000D01*
X80063333Y-142240000D02*
X80763333Y-142240000D01*
X80763333Y-141906666D01*
X78646666Y-39550000D02*
X78680000Y-39516666D01*
X78713333Y-39450000D01*
X78713333Y-39283333D01*
X78680000Y-39216666D01*
X78646666Y-39183333D01*
X78580000Y-39150000D01*
X78513333Y-39150000D01*
X78413333Y-39183333D01*
X78013333Y-39583333D01*
X78013333Y-39150000D01*
X78013333Y-38483333D02*
X78013333Y-38883333D01*
X78013333Y-38683333D02*
X78713333Y-38683333D01*
X78613333Y-38750000D01*
X78546666Y-38816666D01*
X78513333Y-38883333D01*
X78713333Y-38050000D02*
X78713333Y-37983333D01*
X78680000Y-37916666D01*
X78646666Y-37883333D01*
X78580000Y-37850000D01*
X78446666Y-37816666D01*
X78280000Y-37816666D01*
X78146666Y-37850000D01*
X78080000Y-37883333D01*
X78046666Y-37916666D01*
X78013333Y-37983333D01*
X78013333Y-38050000D01*
X78046666Y-38116666D01*
X78080000Y-38150000D01*
X78146666Y-38183333D01*
X78280000Y-38216666D01*
X78446666Y-38216666D01*
X78580000Y-38183333D01*
X78646666Y-38150000D01*
X78680000Y-38116666D01*
X78713333Y-38050000D01*
X78013333Y-37516666D02*
X78713333Y-37516666D01*
X78280000Y-37450000D02*
X78013333Y-37250000D01*
X78480000Y-37250000D02*
X78213333Y-37516666D01*
X78013333Y-36983333D02*
X78013333Y-36816666D01*
X78146666Y-36816666D01*
X78180000Y-36883333D01*
X78246666Y-36950000D01*
X78346666Y-36983333D01*
X78513333Y-36983333D01*
X78613333Y-36950000D01*
X78680000Y-36883333D01*
X78713333Y-36783333D01*
X78713333Y-36650000D01*
X78680000Y-36550000D01*
X78613333Y-36483333D01*
X78513333Y-36450000D01*
X78346666Y-36450000D01*
X78246666Y-36483333D01*
X78180000Y-36550000D01*
X78146666Y-36616666D01*
X78013333Y-36616666D01*
X78013333Y-36450000D01*
X80246666Y-156230000D02*
X80280000Y-156196666D01*
X80313333Y-156130000D01*
X80313333Y-155963333D01*
X80280000Y-155896666D01*
X80246666Y-155863333D01*
X80180000Y-155830000D01*
X80113333Y-155830000D01*
X80013333Y-155863333D01*
X79613333Y-156263333D01*
X79613333Y-155830000D01*
X79613333Y-155163333D02*
X79613333Y-155563333D01*
X79613333Y-155363333D02*
X80313333Y-155363333D01*
X80213333Y-155430000D01*
X80146666Y-155496666D01*
X80113333Y-155563333D01*
X80313333Y-154730000D02*
X80313333Y-154663333D01*
X80280000Y-154596666D01*
X80246666Y-154563333D01*
X80180000Y-154530000D01*
X80046666Y-154496666D01*
X79880000Y-154496666D01*
X79746666Y-154530000D01*
X79680000Y-154563333D01*
X79646666Y-154596666D01*
X79613333Y-154663333D01*
X79613333Y-154730000D01*
X79646666Y-154796666D01*
X79680000Y-154830000D01*
X79746666Y-154863333D01*
X79880000Y-154896666D01*
X80046666Y-154896666D01*
X80180000Y-154863333D01*
X80246666Y-154830000D01*
X80280000Y-154796666D01*
X80313333Y-154730000D01*
X79613333Y-154196666D02*
X80313333Y-154196666D01*
X79880000Y-154130000D02*
X79613333Y-153930000D01*
X80080000Y-153930000D02*
X79813333Y-154196666D01*
X79613333Y-153663333D02*
X79613333Y-153496666D01*
X79746666Y-153496666D01*
X79780000Y-153563333D01*
X79846666Y-153630000D01*
X79946666Y-153663333D01*
X80113333Y-153663333D01*
X80213333Y-153630000D01*
X80280000Y-153563333D01*
X80313333Y-153463333D01*
X80313333Y-153330000D01*
X80280000Y-153230000D01*
X80213333Y-153163333D01*
X80113333Y-153130000D01*
X79946666Y-153130000D01*
X79846666Y-153163333D01*
X79780000Y-153230000D01*
X79746666Y-153296666D01*
X79613333Y-153296666D01*
X79613333Y-153130000D01*
X84118095Y-60812380D02*
X84118095Y-59812380D01*
X83737142Y-59812380D01*
X83641904Y-59860000D01*
X83594285Y-59907619D01*
X83546666Y-60002857D01*
X83546666Y-60145714D01*
X83594285Y-60240952D01*
X83641904Y-60288571D01*
X83737142Y-60336190D01*
X84118095Y-60336190D01*
X83165714Y-59907619D02*
X83118095Y-59860000D01*
X83022857Y-59812380D01*
X82784761Y-59812380D01*
X82689523Y-59860000D01*
X82641904Y-59907619D01*
X82594285Y-60002857D01*
X82594285Y-60098095D01*
X82641904Y-60240952D01*
X83213333Y-60812380D01*
X82594285Y-60812380D01*
X79873333Y-152010000D02*
X79873333Y-152410000D01*
X79873333Y-152210000D02*
X80573333Y-152210000D01*
X80473333Y-152276666D01*
X80406666Y-152343333D01*
X80373333Y-152410000D01*
X80573333Y-151576666D02*
X80573333Y-151510000D01*
X80540000Y-151443333D01*
X80506666Y-151410000D01*
X80440000Y-151376666D01*
X80306666Y-151343333D01*
X80140000Y-151343333D01*
X80006666Y-151376666D01*
X79940000Y-151410000D01*
X79906666Y-151443333D01*
X79873333Y-151510000D01*
X79873333Y-151576666D01*
X79906666Y-151643333D01*
X79940000Y-151676666D01*
X80006666Y-151710000D01*
X80140000Y-151743333D01*
X80306666Y-151743333D01*
X80440000Y-151710000D01*
X80506666Y-151676666D01*
X80540000Y-151643333D01*
X80573333Y-151576666D01*
X80340000Y-151043333D02*
X79640000Y-151043333D01*
X79973333Y-150710000D02*
X79906666Y-150676666D01*
X79873333Y-150610000D01*
X79973333Y-151043333D02*
X79906666Y-151010000D01*
X79873333Y-150943333D01*
X79873333Y-150810000D01*
X79906666Y-150743333D01*
X79973333Y-150710000D01*
X80340000Y-150710000D01*
X80240000Y-150076666D02*
X80240000Y-150310000D01*
X79873333Y-150310000D02*
X80573333Y-150310000D01*
X80573333Y-149976666D01*
%TO.C,C18*%
X72477142Y-42947142D02*
X72524761Y-42899523D01*
X72572380Y-42756666D01*
X72572380Y-42661428D01*
X72524761Y-42518571D01*
X72429523Y-42423333D01*
X72334285Y-42375714D01*
X72143809Y-42328095D01*
X72000952Y-42328095D01*
X71810476Y-42375714D01*
X71715238Y-42423333D01*
X71620000Y-42518571D01*
X71572380Y-42661428D01*
X71572380Y-42756666D01*
X71620000Y-42899523D01*
X71667619Y-42947142D01*
X72572380Y-43899523D02*
X72572380Y-43328095D01*
X72572380Y-43613809D02*
X71572380Y-43613809D01*
X71715238Y-43518571D01*
X71810476Y-43423333D01*
X71858095Y-43328095D01*
X72000952Y-44470952D02*
X71953333Y-44375714D01*
X71905714Y-44328095D01*
X71810476Y-44280476D01*
X71762857Y-44280476D01*
X71667619Y-44328095D01*
X71620000Y-44375714D01*
X71572380Y-44470952D01*
X71572380Y-44661428D01*
X71620000Y-44756666D01*
X71667619Y-44804285D01*
X71762857Y-44851904D01*
X71810476Y-44851904D01*
X71905714Y-44804285D01*
X71953333Y-44756666D01*
X72000952Y-44661428D01*
X72000952Y-44470952D01*
X72048571Y-44375714D01*
X72096190Y-44328095D01*
X72191428Y-44280476D01*
X72381904Y-44280476D01*
X72477142Y-44328095D01*
X72524761Y-44375714D01*
X72572380Y-44470952D01*
X72572380Y-44661428D01*
X72524761Y-44756666D01*
X72477142Y-44804285D01*
X72381904Y-44851904D01*
X72191428Y-44851904D01*
X72096190Y-44804285D01*
X72048571Y-44756666D01*
X72000952Y-44661428D01*
%TO.C,R45*%
X79452380Y-74107142D02*
X78976190Y-73773809D01*
X79452380Y-73535714D02*
X78452380Y-73535714D01*
X78452380Y-73916666D01*
X78500000Y-74011904D01*
X78547619Y-74059523D01*
X78642857Y-74107142D01*
X78785714Y-74107142D01*
X78880952Y-74059523D01*
X78928571Y-74011904D01*
X78976190Y-73916666D01*
X78976190Y-73535714D01*
X78785714Y-74964285D02*
X79452380Y-74964285D01*
X78404761Y-74726190D02*
X79119047Y-74488095D01*
X79119047Y-75107142D01*
X78452380Y-75964285D02*
X78452380Y-75488095D01*
X78928571Y-75440476D01*
X78880952Y-75488095D01*
X78833333Y-75583333D01*
X78833333Y-75821428D01*
X78880952Y-75916666D01*
X78928571Y-75964285D01*
X79023809Y-76011904D01*
X79261904Y-76011904D01*
X79357142Y-75964285D01*
X79404761Y-75916666D01*
X79452380Y-75821428D01*
X79452380Y-75583333D01*
X79404761Y-75488095D01*
X79357142Y-75440476D01*
%TO.C,R42*%
X75576607Y-150202380D02*
X75909940Y-149726190D01*
X76148035Y-150202380D02*
X76148035Y-149202380D01*
X75767083Y-149202380D01*
X75671845Y-149250000D01*
X75624226Y-149297619D01*
X75576607Y-149392857D01*
X75576607Y-149535714D01*
X75624226Y-149630952D01*
X75671845Y-149678571D01*
X75767083Y-149726190D01*
X76148035Y-149726190D01*
X74719464Y-149535714D02*
X74719464Y-150202380D01*
X74957559Y-149154761D02*
X75195654Y-149869047D01*
X74576607Y-149869047D01*
X74243273Y-149297619D02*
X74195654Y-149250000D01*
X74100416Y-149202380D01*
X73862321Y-149202380D01*
X73767083Y-149250000D01*
X73719464Y-149297619D01*
X73671845Y-149392857D01*
X73671845Y-149488095D01*
X73719464Y-149630952D01*
X74290892Y-150202380D01*
X73671845Y-150202380D01*
%TO.C,C17*%
X72252857Y-152317142D02*
X72300476Y-152364761D01*
X72443333Y-152412380D01*
X72538571Y-152412380D01*
X72681428Y-152364761D01*
X72776666Y-152269523D01*
X72824285Y-152174285D01*
X72871904Y-151983809D01*
X72871904Y-151840952D01*
X72824285Y-151650476D01*
X72776666Y-151555238D01*
X72681428Y-151460000D01*
X72538571Y-151412380D01*
X72443333Y-151412380D01*
X72300476Y-151460000D01*
X72252857Y-151507619D01*
X71300476Y-152412380D02*
X71871904Y-152412380D01*
X71586190Y-152412380D02*
X71586190Y-151412380D01*
X71681428Y-151555238D01*
X71776666Y-151650476D01*
X71871904Y-151698095D01*
X70967142Y-151412380D02*
X70300476Y-151412380D01*
X70729047Y-152412380D01*
%TO.C,C27*%
X79357142Y-143107142D02*
X79404761Y-143059523D01*
X79452380Y-142916666D01*
X79452380Y-142821428D01*
X79404761Y-142678571D01*
X79309523Y-142583333D01*
X79214285Y-142535714D01*
X79023809Y-142488095D01*
X78880952Y-142488095D01*
X78690476Y-142535714D01*
X78595238Y-142583333D01*
X78500000Y-142678571D01*
X78452380Y-142821428D01*
X78452380Y-142916666D01*
X78500000Y-143059523D01*
X78547619Y-143107142D01*
X78547619Y-143488095D02*
X78500000Y-143535714D01*
X78452380Y-143630952D01*
X78452380Y-143869047D01*
X78500000Y-143964285D01*
X78547619Y-144011904D01*
X78642857Y-144059523D01*
X78738095Y-144059523D01*
X78880952Y-144011904D01*
X79452380Y-143440476D01*
X79452380Y-144059523D01*
X78452380Y-144392857D02*
X78452380Y-145059523D01*
X79452380Y-144630952D01*
%TO.C,C28*%
X79257142Y-159082142D02*
X79304761Y-159034523D01*
X79352380Y-158891666D01*
X79352380Y-158796428D01*
X79304761Y-158653571D01*
X79209523Y-158558333D01*
X79114285Y-158510714D01*
X78923809Y-158463095D01*
X78780952Y-158463095D01*
X78590476Y-158510714D01*
X78495238Y-158558333D01*
X78400000Y-158653571D01*
X78352380Y-158796428D01*
X78352380Y-158891666D01*
X78400000Y-159034523D01*
X78447619Y-159082142D01*
X78447619Y-159463095D02*
X78400000Y-159510714D01*
X78352380Y-159605952D01*
X78352380Y-159844047D01*
X78400000Y-159939285D01*
X78447619Y-159986904D01*
X78542857Y-160034523D01*
X78638095Y-160034523D01*
X78780952Y-159986904D01*
X79352380Y-159415476D01*
X79352380Y-160034523D01*
X78780952Y-160605952D02*
X78733333Y-160510714D01*
X78685714Y-160463095D01*
X78590476Y-160415476D01*
X78542857Y-160415476D01*
X78447619Y-160463095D01*
X78400000Y-160510714D01*
X78352380Y-160605952D01*
X78352380Y-160796428D01*
X78400000Y-160891666D01*
X78447619Y-160939285D01*
X78542857Y-160986904D01*
X78590476Y-160986904D01*
X78685714Y-160939285D01*
X78733333Y-160891666D01*
X78780952Y-160796428D01*
X78780952Y-160605952D01*
X78828571Y-160510714D01*
X78876190Y-160463095D01*
X78971428Y-160415476D01*
X79161904Y-160415476D01*
X79257142Y-160463095D01*
X79304761Y-160510714D01*
X79352380Y-160605952D01*
X79352380Y-160796428D01*
X79304761Y-160891666D01*
X79257142Y-160939285D01*
X79161904Y-160986904D01*
X78971428Y-160986904D01*
X78876190Y-160939285D01*
X78828571Y-160891666D01*
X78780952Y-160796428D01*
%TO.C,R35*%
X75362857Y-157652380D02*
X75696190Y-157176190D01*
X75934285Y-157652380D02*
X75934285Y-156652380D01*
X75553333Y-156652380D01*
X75458095Y-156700000D01*
X75410476Y-156747619D01*
X75362857Y-156842857D01*
X75362857Y-156985714D01*
X75410476Y-157080952D01*
X75458095Y-157128571D01*
X75553333Y-157176190D01*
X75934285Y-157176190D01*
X75029523Y-156652380D02*
X74410476Y-156652380D01*
X74743809Y-157033333D01*
X74600952Y-157033333D01*
X74505714Y-157080952D01*
X74458095Y-157128571D01*
X74410476Y-157223809D01*
X74410476Y-157461904D01*
X74458095Y-157557142D01*
X74505714Y-157604761D01*
X74600952Y-157652380D01*
X74886666Y-157652380D01*
X74981904Y-157604761D01*
X75029523Y-157557142D01*
X73505714Y-156652380D02*
X73981904Y-156652380D01*
X74029523Y-157128571D01*
X73981904Y-157080952D01*
X73886666Y-157033333D01*
X73648571Y-157033333D01*
X73553333Y-157080952D01*
X73505714Y-157128571D01*
X73458095Y-157223809D01*
X73458095Y-157461904D01*
X73505714Y-157557142D01*
X73553333Y-157604761D01*
X73648571Y-157652380D01*
X73886666Y-157652380D01*
X73981904Y-157604761D01*
X74029523Y-157557142D01*
%TO.C,U7*%
X75511904Y-62372380D02*
X75511904Y-63181904D01*
X75464285Y-63277142D01*
X75416666Y-63324761D01*
X75321428Y-63372380D01*
X75130952Y-63372380D01*
X75035714Y-63324761D01*
X74988095Y-63277142D01*
X74940476Y-63181904D01*
X74940476Y-62372380D01*
X74559523Y-62372380D02*
X73892857Y-62372380D01*
X74321428Y-63372380D01*
%TO.C,C25*%
X80007142Y-34157142D02*
X80054761Y-34109523D01*
X80102380Y-33966666D01*
X80102380Y-33871428D01*
X80054761Y-33728571D01*
X79959523Y-33633333D01*
X79864285Y-33585714D01*
X79673809Y-33538095D01*
X79530952Y-33538095D01*
X79340476Y-33585714D01*
X79245238Y-33633333D01*
X79150000Y-33728571D01*
X79102380Y-33871428D01*
X79102380Y-33966666D01*
X79150000Y-34109523D01*
X79197619Y-34157142D01*
X79197619Y-34538095D02*
X79150000Y-34585714D01*
X79102380Y-34680952D01*
X79102380Y-34919047D01*
X79150000Y-35014285D01*
X79197619Y-35061904D01*
X79292857Y-35109523D01*
X79388095Y-35109523D01*
X79530952Y-35061904D01*
X80102380Y-34490476D01*
X80102380Y-35109523D01*
X79102380Y-36014285D02*
X79102380Y-35538095D01*
X79578571Y-35490476D01*
X79530952Y-35538095D01*
X79483333Y-35633333D01*
X79483333Y-35871428D01*
X79530952Y-35966666D01*
X79578571Y-36014285D01*
X79673809Y-36061904D01*
X79911904Y-36061904D01*
X80007142Y-36014285D01*
X80054761Y-35966666D01*
X80102380Y-35871428D01*
X80102380Y-35633333D01*
X80054761Y-35538095D01*
X80007142Y-35490476D01*
%TO.C,R32*%
X75477857Y-41172380D02*
X75811190Y-40696190D01*
X76049285Y-41172380D02*
X76049285Y-40172380D01*
X75668333Y-40172380D01*
X75573095Y-40220000D01*
X75525476Y-40267619D01*
X75477857Y-40362857D01*
X75477857Y-40505714D01*
X75525476Y-40600952D01*
X75573095Y-40648571D01*
X75668333Y-40696190D01*
X76049285Y-40696190D01*
X75144523Y-40172380D02*
X74525476Y-40172380D01*
X74858809Y-40553333D01*
X74715952Y-40553333D01*
X74620714Y-40600952D01*
X74573095Y-40648571D01*
X74525476Y-40743809D01*
X74525476Y-40981904D01*
X74573095Y-41077142D01*
X74620714Y-41124761D01*
X74715952Y-41172380D01*
X75001666Y-41172380D01*
X75096904Y-41124761D01*
X75144523Y-41077142D01*
X74144523Y-40267619D02*
X74096904Y-40220000D01*
X74001666Y-40172380D01*
X73763571Y-40172380D01*
X73668333Y-40220000D01*
X73620714Y-40267619D01*
X73573095Y-40362857D01*
X73573095Y-40458095D01*
X73620714Y-40600952D01*
X74192142Y-41172380D01*
X73573095Y-41172380D01*
%TO.C,U9*%
X75420654Y-150892380D02*
X75420654Y-151701904D01*
X75373035Y-151797142D01*
X75325416Y-151844761D01*
X75230178Y-151892380D01*
X75039702Y-151892380D01*
X74944464Y-151844761D01*
X74896845Y-151797142D01*
X74849226Y-151701904D01*
X74849226Y-150892380D01*
X74325416Y-151892380D02*
X74134940Y-151892380D01*
X74039702Y-151844761D01*
X73992083Y-151797142D01*
X73896845Y-151654285D01*
X73849226Y-151463809D01*
X73849226Y-151082857D01*
X73896845Y-150987619D01*
X73944464Y-150940000D01*
X74039702Y-150892380D01*
X74230178Y-150892380D01*
X74325416Y-150940000D01*
X74373035Y-150987619D01*
X74420654Y-151082857D01*
X74420654Y-151320952D01*
X74373035Y-151416190D01*
X74325416Y-151463809D01*
X74230178Y-151511428D01*
X74039702Y-151511428D01*
X73944464Y-151463809D01*
X73896845Y-151416190D01*
X73849226Y-151320952D01*
%TO.C,U13*%
X75958095Y-159802380D02*
X75958095Y-160611904D01*
X75910476Y-160707142D01*
X75862857Y-160754761D01*
X75767619Y-160802380D01*
X75577142Y-160802380D01*
X75481904Y-160754761D01*
X75434285Y-160707142D01*
X75386666Y-160611904D01*
X75386666Y-159802380D01*
X74386666Y-160802380D02*
X74958095Y-160802380D01*
X74672380Y-160802380D02*
X74672380Y-159802380D01*
X74767619Y-159945238D01*
X74862857Y-160040476D01*
X74958095Y-160088095D01*
X74053333Y-159802380D02*
X73434285Y-159802380D01*
X73767619Y-160183333D01*
X73624761Y-160183333D01*
X73529523Y-160230952D01*
X73481904Y-160278571D01*
X73434285Y-160373809D01*
X73434285Y-160611904D01*
X73481904Y-160707142D01*
X73529523Y-160754761D01*
X73624761Y-160802380D01*
X73910476Y-160802380D01*
X74005714Y-160754761D01*
X74053333Y-160707142D01*
%TO.C,C21*%
X72312857Y-161257142D02*
X72360476Y-161304761D01*
X72503333Y-161352380D01*
X72598571Y-161352380D01*
X72741428Y-161304761D01*
X72836666Y-161209523D01*
X72884285Y-161114285D01*
X72931904Y-160923809D01*
X72931904Y-160780952D01*
X72884285Y-160590476D01*
X72836666Y-160495238D01*
X72741428Y-160400000D01*
X72598571Y-160352380D01*
X72503333Y-160352380D01*
X72360476Y-160400000D01*
X72312857Y-160447619D01*
X71931904Y-160447619D02*
X71884285Y-160400000D01*
X71789047Y-160352380D01*
X71550952Y-160352380D01*
X71455714Y-160400000D01*
X71408095Y-160447619D01*
X71360476Y-160542857D01*
X71360476Y-160638095D01*
X71408095Y-160780952D01*
X71979523Y-161352380D01*
X71360476Y-161352380D01*
X70408095Y-161352380D02*
X70979523Y-161352380D01*
X70693809Y-161352380D02*
X70693809Y-160352380D01*
X70789047Y-160495238D01*
X70884285Y-160590476D01*
X70979523Y-160638095D01*
%TO.C,U6*%
X75511904Y-34452380D02*
X75511904Y-35261904D01*
X75464285Y-35357142D01*
X75416666Y-35404761D01*
X75321428Y-35452380D01*
X75130952Y-35452380D01*
X75035714Y-35404761D01*
X74988095Y-35357142D01*
X74940476Y-35261904D01*
X74940476Y-34452380D01*
X74035714Y-34452380D02*
X74226190Y-34452380D01*
X74321428Y-34500000D01*
X74369047Y-34547619D01*
X74464285Y-34690476D01*
X74511904Y-34880952D01*
X74511904Y-35261904D01*
X74464285Y-35357142D01*
X74416666Y-35404761D01*
X74321428Y-35452380D01*
X74130952Y-35452380D01*
X74035714Y-35404761D01*
X73988095Y-35357142D01*
X73940476Y-35261904D01*
X73940476Y-35023809D01*
X73988095Y-34928571D01*
X74035714Y-34880952D01*
X74130952Y-34833333D01*
X74321428Y-34833333D01*
X74416666Y-34880952D01*
X74464285Y-34928571D01*
X74511904Y-35023809D01*
%TO.C,R43*%
X75612857Y-166652380D02*
X75946190Y-166176190D01*
X76184285Y-166652380D02*
X76184285Y-165652380D01*
X75803333Y-165652380D01*
X75708095Y-165700000D01*
X75660476Y-165747619D01*
X75612857Y-165842857D01*
X75612857Y-165985714D01*
X75660476Y-166080952D01*
X75708095Y-166128571D01*
X75803333Y-166176190D01*
X76184285Y-166176190D01*
X74755714Y-165985714D02*
X74755714Y-166652380D01*
X74993809Y-165604761D02*
X75231904Y-166319047D01*
X74612857Y-166319047D01*
X74327142Y-165652380D02*
X73708095Y-165652380D01*
X74041428Y-166033333D01*
X73898571Y-166033333D01*
X73803333Y-166080952D01*
X73755714Y-166128571D01*
X73708095Y-166223809D01*
X73708095Y-166461904D01*
X73755714Y-166557142D01*
X73803333Y-166604761D01*
X73898571Y-166652380D01*
X74184285Y-166652380D01*
X74279523Y-166604761D01*
X74327142Y-166557142D01*
%TO.C,R38*%
X77702380Y-134607142D02*
X77226190Y-134273809D01*
X77702380Y-134035714D02*
X76702380Y-134035714D01*
X76702380Y-134416666D01*
X76750000Y-134511904D01*
X76797619Y-134559523D01*
X76892857Y-134607142D01*
X77035714Y-134607142D01*
X77130952Y-134559523D01*
X77178571Y-134511904D01*
X77226190Y-134416666D01*
X77226190Y-134035714D01*
X76702380Y-134940476D02*
X76702380Y-135559523D01*
X77083333Y-135226190D01*
X77083333Y-135369047D01*
X77130952Y-135464285D01*
X77178571Y-135511904D01*
X77273809Y-135559523D01*
X77511904Y-135559523D01*
X77607142Y-135511904D01*
X77654761Y-135464285D01*
X77702380Y-135369047D01*
X77702380Y-135083333D01*
X77654761Y-134988095D01*
X77607142Y-134940476D01*
X77130952Y-136130952D02*
X77083333Y-136035714D01*
X77035714Y-135988095D01*
X76940476Y-135940476D01*
X76892857Y-135940476D01*
X76797619Y-135988095D01*
X76750000Y-136035714D01*
X76702380Y-136130952D01*
X76702380Y-136321428D01*
X76750000Y-136416666D01*
X76797619Y-136464285D01*
X76892857Y-136511904D01*
X76940476Y-136511904D01*
X77035714Y-136464285D01*
X77083333Y-136416666D01*
X77130952Y-136321428D01*
X77130952Y-136130952D01*
X77178571Y-136035714D01*
X77226190Y-135988095D01*
X77321428Y-135940476D01*
X77511904Y-135940476D01*
X77607142Y-135988095D01*
X77654761Y-136035714D01*
X77702380Y-136130952D01*
X77702380Y-136321428D01*
X77654761Y-136416666D01*
X77607142Y-136464285D01*
X77511904Y-136511904D01*
X77321428Y-136511904D01*
X77226190Y-136464285D01*
X77178571Y-136416666D01*
X77130952Y-136321428D01*
%TO.C,R34*%
X75392857Y-141452380D02*
X75726190Y-140976190D01*
X75964285Y-141452380D02*
X75964285Y-140452380D01*
X75583333Y-140452380D01*
X75488095Y-140500000D01*
X75440476Y-140547619D01*
X75392857Y-140642857D01*
X75392857Y-140785714D01*
X75440476Y-140880952D01*
X75488095Y-140928571D01*
X75583333Y-140976190D01*
X75964285Y-140976190D01*
X75059523Y-140452380D02*
X74440476Y-140452380D01*
X74773809Y-140833333D01*
X74630952Y-140833333D01*
X74535714Y-140880952D01*
X74488095Y-140928571D01*
X74440476Y-141023809D01*
X74440476Y-141261904D01*
X74488095Y-141357142D01*
X74535714Y-141404761D01*
X74630952Y-141452380D01*
X74916666Y-141452380D01*
X75011904Y-141404761D01*
X75059523Y-141357142D01*
X73583333Y-140785714D02*
X73583333Y-141452380D01*
X73821428Y-140404761D02*
X74059523Y-141119047D01*
X73440476Y-141119047D01*
%TO.C,R41*%
X75392857Y-77952380D02*
X75726190Y-77476190D01*
X75964285Y-77952380D02*
X75964285Y-76952380D01*
X75583333Y-76952380D01*
X75488095Y-77000000D01*
X75440476Y-77047619D01*
X75392857Y-77142857D01*
X75392857Y-77285714D01*
X75440476Y-77380952D01*
X75488095Y-77428571D01*
X75583333Y-77476190D01*
X75964285Y-77476190D01*
X74535714Y-77285714D02*
X74535714Y-77952380D01*
X74773809Y-76904761D02*
X75011904Y-77619047D01*
X74392857Y-77619047D01*
X73488095Y-77952380D02*
X74059523Y-77952380D01*
X73773809Y-77952380D02*
X73773809Y-76952380D01*
X73869047Y-77095238D01*
X73964285Y-77190476D01*
X74059523Y-77238095D01*
%TO.C,R33*%
X75585357Y-69202380D02*
X75918690Y-68726190D01*
X76156785Y-69202380D02*
X76156785Y-68202380D01*
X75775833Y-68202380D01*
X75680595Y-68250000D01*
X75632976Y-68297619D01*
X75585357Y-68392857D01*
X75585357Y-68535714D01*
X75632976Y-68630952D01*
X75680595Y-68678571D01*
X75775833Y-68726190D01*
X76156785Y-68726190D01*
X75252023Y-68202380D02*
X74632976Y-68202380D01*
X74966309Y-68583333D01*
X74823452Y-68583333D01*
X74728214Y-68630952D01*
X74680595Y-68678571D01*
X74632976Y-68773809D01*
X74632976Y-69011904D01*
X74680595Y-69107142D01*
X74728214Y-69154761D01*
X74823452Y-69202380D01*
X75109166Y-69202380D01*
X75204404Y-69154761D01*
X75252023Y-69107142D01*
X74299642Y-68202380D02*
X73680595Y-68202380D01*
X74013928Y-68583333D01*
X73871071Y-68583333D01*
X73775833Y-68630952D01*
X73728214Y-68678571D01*
X73680595Y-68773809D01*
X73680595Y-69011904D01*
X73728214Y-69107142D01*
X73775833Y-69154761D01*
X73871071Y-69202380D01*
X74156785Y-69202380D01*
X74252023Y-69154761D01*
X74299642Y-69107142D01*
%TO.C,C24*%
X79257142Y-150557142D02*
X79304761Y-150509523D01*
X79352380Y-150366666D01*
X79352380Y-150271428D01*
X79304761Y-150128571D01*
X79209523Y-150033333D01*
X79114285Y-149985714D01*
X78923809Y-149938095D01*
X78780952Y-149938095D01*
X78590476Y-149985714D01*
X78495238Y-150033333D01*
X78400000Y-150128571D01*
X78352380Y-150271428D01*
X78352380Y-150366666D01*
X78400000Y-150509523D01*
X78447619Y-150557142D01*
X78447619Y-150938095D02*
X78400000Y-150985714D01*
X78352380Y-151080952D01*
X78352380Y-151319047D01*
X78400000Y-151414285D01*
X78447619Y-151461904D01*
X78542857Y-151509523D01*
X78638095Y-151509523D01*
X78780952Y-151461904D01*
X79352380Y-150890476D01*
X79352380Y-151509523D01*
X78685714Y-152366666D02*
X79352380Y-152366666D01*
X78304761Y-152128571D02*
X79019047Y-151890476D01*
X79019047Y-152509523D01*
%TO.C,R37*%
X79452380Y-65357142D02*
X78976190Y-65023809D01*
X79452380Y-64785714D02*
X78452380Y-64785714D01*
X78452380Y-65166666D01*
X78500000Y-65261904D01*
X78547619Y-65309523D01*
X78642857Y-65357142D01*
X78785714Y-65357142D01*
X78880952Y-65309523D01*
X78928571Y-65261904D01*
X78976190Y-65166666D01*
X78976190Y-64785714D01*
X78452380Y-65690476D02*
X78452380Y-66309523D01*
X78833333Y-65976190D01*
X78833333Y-66119047D01*
X78880952Y-66214285D01*
X78928571Y-66261904D01*
X79023809Y-66309523D01*
X79261904Y-66309523D01*
X79357142Y-66261904D01*
X79404761Y-66214285D01*
X79452380Y-66119047D01*
X79452380Y-65833333D01*
X79404761Y-65738095D01*
X79357142Y-65690476D01*
X78452380Y-66642857D02*
X78452380Y-67309523D01*
X79452380Y-66880952D01*
%TO.C,C26*%
X79287142Y-70357142D02*
X79334761Y-70309523D01*
X79382380Y-70166666D01*
X79382380Y-70071428D01*
X79334761Y-69928571D01*
X79239523Y-69833333D01*
X79144285Y-69785714D01*
X78953809Y-69738095D01*
X78810952Y-69738095D01*
X78620476Y-69785714D01*
X78525238Y-69833333D01*
X78430000Y-69928571D01*
X78382380Y-70071428D01*
X78382380Y-70166666D01*
X78430000Y-70309523D01*
X78477619Y-70357142D01*
X78477619Y-70738095D02*
X78430000Y-70785714D01*
X78382380Y-70880952D01*
X78382380Y-71119047D01*
X78430000Y-71214285D01*
X78477619Y-71261904D01*
X78572857Y-71309523D01*
X78668095Y-71309523D01*
X78810952Y-71261904D01*
X79382380Y-70690476D01*
X79382380Y-71309523D01*
X78382380Y-72166666D02*
X78382380Y-71976190D01*
X78430000Y-71880952D01*
X78477619Y-71833333D01*
X78620476Y-71738095D01*
X78810952Y-71690476D01*
X79191904Y-71690476D01*
X79287142Y-71738095D01*
X79334761Y-71785714D01*
X79382380Y-71880952D01*
X79382380Y-72071428D01*
X79334761Y-72166666D01*
X79287142Y-72214285D01*
X79191904Y-72261904D01*
X78953809Y-72261904D01*
X78858571Y-72214285D01*
X78810952Y-72166666D01*
X78763333Y-72071428D01*
X78763333Y-71880952D01*
X78810952Y-71785714D01*
X78858571Y-71738095D01*
X78953809Y-71690476D01*
%TO.C,C22*%
X79287142Y-62107142D02*
X79334761Y-62059523D01*
X79382380Y-61916666D01*
X79382380Y-61821428D01*
X79334761Y-61678571D01*
X79239523Y-61583333D01*
X79144285Y-61535714D01*
X78953809Y-61488095D01*
X78810952Y-61488095D01*
X78620476Y-61535714D01*
X78525238Y-61583333D01*
X78430000Y-61678571D01*
X78382380Y-61821428D01*
X78382380Y-61916666D01*
X78430000Y-62059523D01*
X78477619Y-62107142D01*
X78477619Y-62488095D02*
X78430000Y-62535714D01*
X78382380Y-62630952D01*
X78382380Y-62869047D01*
X78430000Y-62964285D01*
X78477619Y-63011904D01*
X78572857Y-63059523D01*
X78668095Y-63059523D01*
X78810952Y-63011904D01*
X79382380Y-62440476D01*
X79382380Y-63059523D01*
X78477619Y-63440476D02*
X78430000Y-63488095D01*
X78382380Y-63583333D01*
X78382380Y-63821428D01*
X78430000Y-63916666D01*
X78477619Y-63964285D01*
X78572857Y-64011904D01*
X78668095Y-64011904D01*
X78810952Y-63964285D01*
X79382380Y-63392857D01*
X79382380Y-64011904D01*
%TO.C,U8*%
X75261904Y-134627380D02*
X75261904Y-135436904D01*
X75214285Y-135532142D01*
X75166666Y-135579761D01*
X75071428Y-135627380D01*
X74880952Y-135627380D01*
X74785714Y-135579761D01*
X74738095Y-135532142D01*
X74690476Y-135436904D01*
X74690476Y-134627380D01*
X74071428Y-135055952D02*
X74166666Y-135008333D01*
X74214285Y-134960714D01*
X74261904Y-134865476D01*
X74261904Y-134817857D01*
X74214285Y-134722619D01*
X74166666Y-134675000D01*
X74071428Y-134627380D01*
X73880952Y-134627380D01*
X73785714Y-134675000D01*
X73738095Y-134722619D01*
X73690476Y-134817857D01*
X73690476Y-134865476D01*
X73738095Y-134960714D01*
X73785714Y-135008333D01*
X73880952Y-135055952D01*
X74071428Y-135055952D01*
X74166666Y-135103571D01*
X74214285Y-135151190D01*
X74261904Y-135246428D01*
X74261904Y-135436904D01*
X74214285Y-135532142D01*
X74166666Y-135579761D01*
X74071428Y-135627380D01*
X73880952Y-135627380D01*
X73785714Y-135579761D01*
X73738095Y-135532142D01*
X73690476Y-135436904D01*
X73690476Y-135246428D01*
X73738095Y-135151190D01*
X73785714Y-135103571D01*
X73880952Y-135055952D01*
%TO.C,C15*%
X72677142Y-61857142D02*
X72724761Y-61809523D01*
X72772380Y-61666666D01*
X72772380Y-61571428D01*
X72724761Y-61428571D01*
X72629523Y-61333333D01*
X72534285Y-61285714D01*
X72343809Y-61238095D01*
X72200952Y-61238095D01*
X72010476Y-61285714D01*
X71915238Y-61333333D01*
X71820000Y-61428571D01*
X71772380Y-61571428D01*
X71772380Y-61666666D01*
X71820000Y-61809523D01*
X71867619Y-61857142D01*
X72772380Y-62809523D02*
X72772380Y-62238095D01*
X72772380Y-62523809D02*
X71772380Y-62523809D01*
X71915238Y-62428571D01*
X72010476Y-62333333D01*
X72058095Y-62238095D01*
X71772380Y-63714285D02*
X71772380Y-63238095D01*
X72248571Y-63190476D01*
X72200952Y-63238095D01*
X72153333Y-63333333D01*
X72153333Y-63571428D01*
X72200952Y-63666666D01*
X72248571Y-63714285D01*
X72343809Y-63761904D01*
X72581904Y-63761904D01*
X72677142Y-63714285D01*
X72724761Y-63666666D01*
X72772380Y-63571428D01*
X72772380Y-63333333D01*
X72724761Y-63238095D01*
X72677142Y-63190476D01*
%TO.C,C20*%
X72707142Y-143087142D02*
X72754761Y-143039523D01*
X72802380Y-142896666D01*
X72802380Y-142801428D01*
X72754761Y-142658571D01*
X72659523Y-142563333D01*
X72564285Y-142515714D01*
X72373809Y-142468095D01*
X72230952Y-142468095D01*
X72040476Y-142515714D01*
X71945238Y-142563333D01*
X71850000Y-142658571D01*
X71802380Y-142801428D01*
X71802380Y-142896666D01*
X71850000Y-143039523D01*
X71897619Y-143087142D01*
X71897619Y-143468095D02*
X71850000Y-143515714D01*
X71802380Y-143610952D01*
X71802380Y-143849047D01*
X71850000Y-143944285D01*
X71897619Y-143991904D01*
X71992857Y-144039523D01*
X72088095Y-144039523D01*
X72230952Y-143991904D01*
X72802380Y-143420476D01*
X72802380Y-144039523D01*
X71802380Y-144658571D02*
X71802380Y-144753809D01*
X71850000Y-144849047D01*
X71897619Y-144896666D01*
X71992857Y-144944285D01*
X72183333Y-144991904D01*
X72421428Y-144991904D01*
X72611904Y-144944285D01*
X72707142Y-144896666D01*
X72754761Y-144849047D01*
X72802380Y-144753809D01*
X72802380Y-144658571D01*
X72754761Y-144563333D01*
X72707142Y-144515714D01*
X72611904Y-144468095D01*
X72421428Y-144420476D01*
X72183333Y-144420476D01*
X71992857Y-144468095D01*
X71897619Y-144515714D01*
X71850000Y-144563333D01*
X71802380Y-144658571D01*
%TO.C,R39*%
X79172380Y-154057142D02*
X78696190Y-153723809D01*
X79172380Y-153485714D02*
X78172380Y-153485714D01*
X78172380Y-153866666D01*
X78220000Y-153961904D01*
X78267619Y-154009523D01*
X78362857Y-154057142D01*
X78505714Y-154057142D01*
X78600952Y-154009523D01*
X78648571Y-153961904D01*
X78696190Y-153866666D01*
X78696190Y-153485714D01*
X78172380Y-154390476D02*
X78172380Y-155009523D01*
X78553333Y-154676190D01*
X78553333Y-154819047D01*
X78600952Y-154914285D01*
X78648571Y-154961904D01*
X78743809Y-155009523D01*
X78981904Y-155009523D01*
X79077142Y-154961904D01*
X79124761Y-154914285D01*
X79172380Y-154819047D01*
X79172380Y-154533333D01*
X79124761Y-154438095D01*
X79077142Y-154390476D01*
X79172380Y-155485714D02*
X79172380Y-155676190D01*
X79124761Y-155771428D01*
X79077142Y-155819047D01*
X78934285Y-155914285D01*
X78743809Y-155961904D01*
X78362857Y-155961904D01*
X78267619Y-155914285D01*
X78220000Y-155866666D01*
X78172380Y-155771428D01*
X78172380Y-155580952D01*
X78220000Y-155485714D01*
X78267619Y-155438095D01*
X78362857Y-155390476D01*
X78600952Y-155390476D01*
X78696190Y-155438095D01*
X78743809Y-155485714D01*
X78791428Y-155580952D01*
X78791428Y-155771428D01*
X78743809Y-155866666D01*
X78696190Y-155914285D01*
X78600952Y-155961904D01*
%TO.C,U12*%
X75738095Y-143362380D02*
X75738095Y-144171904D01*
X75690476Y-144267142D01*
X75642857Y-144314761D01*
X75547619Y-144362380D01*
X75357142Y-144362380D01*
X75261904Y-144314761D01*
X75214285Y-144267142D01*
X75166666Y-144171904D01*
X75166666Y-143362380D01*
X74166666Y-144362380D02*
X74738095Y-144362380D01*
X74452380Y-144362380D02*
X74452380Y-143362380D01*
X74547619Y-143505238D01*
X74642857Y-143600476D01*
X74738095Y-143648095D01*
X73785714Y-143457619D02*
X73738095Y-143410000D01*
X73642857Y-143362380D01*
X73404761Y-143362380D01*
X73309523Y-143410000D01*
X73261904Y-143457619D01*
X73214285Y-143552857D01*
X73214285Y-143648095D01*
X73261904Y-143790952D01*
X73833333Y-144362380D01*
X73214285Y-144362380D01*
%TO.C,R36*%
X77902380Y-34157142D02*
X77426190Y-33823809D01*
X77902380Y-33585714D02*
X76902380Y-33585714D01*
X76902380Y-33966666D01*
X76950000Y-34061904D01*
X76997619Y-34109523D01*
X77092857Y-34157142D01*
X77235714Y-34157142D01*
X77330952Y-34109523D01*
X77378571Y-34061904D01*
X77426190Y-33966666D01*
X77426190Y-33585714D01*
X76902380Y-34490476D02*
X76902380Y-35109523D01*
X77283333Y-34776190D01*
X77283333Y-34919047D01*
X77330952Y-35014285D01*
X77378571Y-35061904D01*
X77473809Y-35109523D01*
X77711904Y-35109523D01*
X77807142Y-35061904D01*
X77854761Y-35014285D01*
X77902380Y-34919047D01*
X77902380Y-34633333D01*
X77854761Y-34538095D01*
X77807142Y-34490476D01*
X76902380Y-35966666D02*
X76902380Y-35776190D01*
X76950000Y-35680952D01*
X76997619Y-35633333D01*
X77140476Y-35538095D01*
X77330952Y-35490476D01*
X77711904Y-35490476D01*
X77807142Y-35538095D01*
X77854761Y-35585714D01*
X77902380Y-35680952D01*
X77902380Y-35871428D01*
X77854761Y-35966666D01*
X77807142Y-36014285D01*
X77711904Y-36061904D01*
X77473809Y-36061904D01*
X77378571Y-36014285D01*
X77330952Y-35966666D01*
X77283333Y-35871428D01*
X77283333Y-35680952D01*
X77330952Y-35585714D01*
X77378571Y-35538095D01*
X77473809Y-35490476D01*
%TO.C,C14*%
X72687142Y-33917142D02*
X72734761Y-33869523D01*
X72782380Y-33726666D01*
X72782380Y-33631428D01*
X72734761Y-33488571D01*
X72639523Y-33393333D01*
X72544285Y-33345714D01*
X72353809Y-33298095D01*
X72210952Y-33298095D01*
X72020476Y-33345714D01*
X71925238Y-33393333D01*
X71830000Y-33488571D01*
X71782380Y-33631428D01*
X71782380Y-33726666D01*
X71830000Y-33869523D01*
X71877619Y-33917142D01*
X72782380Y-34869523D02*
X72782380Y-34298095D01*
X72782380Y-34583809D02*
X71782380Y-34583809D01*
X71925238Y-34488571D01*
X72020476Y-34393333D01*
X72068095Y-34298095D01*
X72115714Y-35726666D02*
X72782380Y-35726666D01*
X71734761Y-35488571D02*
X72449047Y-35250476D01*
X72449047Y-35869523D01*
%TO.C,C29*%
X79037142Y-42607142D02*
X79084761Y-42559523D01*
X79132380Y-42416666D01*
X79132380Y-42321428D01*
X79084761Y-42178571D01*
X78989523Y-42083333D01*
X78894285Y-42035714D01*
X78703809Y-41988095D01*
X78560952Y-41988095D01*
X78370476Y-42035714D01*
X78275238Y-42083333D01*
X78180000Y-42178571D01*
X78132380Y-42321428D01*
X78132380Y-42416666D01*
X78180000Y-42559523D01*
X78227619Y-42607142D01*
X78227619Y-42988095D02*
X78180000Y-43035714D01*
X78132380Y-43130952D01*
X78132380Y-43369047D01*
X78180000Y-43464285D01*
X78227619Y-43511904D01*
X78322857Y-43559523D01*
X78418095Y-43559523D01*
X78560952Y-43511904D01*
X79132380Y-42940476D01*
X79132380Y-43559523D01*
X79132380Y-44035714D02*
X79132380Y-44226190D01*
X79084761Y-44321428D01*
X79037142Y-44369047D01*
X78894285Y-44464285D01*
X78703809Y-44511904D01*
X78322857Y-44511904D01*
X78227619Y-44464285D01*
X78180000Y-44416666D01*
X78132380Y-44321428D01*
X78132380Y-44130952D01*
X78180000Y-44035714D01*
X78227619Y-43988095D01*
X78322857Y-43940476D01*
X78560952Y-43940476D01*
X78656190Y-43988095D01*
X78703809Y-44035714D01*
X78751428Y-44130952D01*
X78751428Y-44321428D01*
X78703809Y-44416666D01*
X78656190Y-44464285D01*
X78560952Y-44511904D01*
%TO.C,R47*%
X79422380Y-162557142D02*
X78946190Y-162223809D01*
X79422380Y-161985714D02*
X78422380Y-161985714D01*
X78422380Y-162366666D01*
X78470000Y-162461904D01*
X78517619Y-162509523D01*
X78612857Y-162557142D01*
X78755714Y-162557142D01*
X78850952Y-162509523D01*
X78898571Y-162461904D01*
X78946190Y-162366666D01*
X78946190Y-161985714D01*
X78755714Y-163414285D02*
X79422380Y-163414285D01*
X78374761Y-163176190D02*
X79089047Y-162938095D01*
X79089047Y-163557142D01*
X78422380Y-163842857D02*
X78422380Y-164509523D01*
X79422380Y-164080952D01*
%TO.C,C19*%
X72487142Y-70747142D02*
X72534761Y-70699523D01*
X72582380Y-70556666D01*
X72582380Y-70461428D01*
X72534761Y-70318571D01*
X72439523Y-70223333D01*
X72344285Y-70175714D01*
X72153809Y-70128095D01*
X72010952Y-70128095D01*
X71820476Y-70175714D01*
X71725238Y-70223333D01*
X71630000Y-70318571D01*
X71582380Y-70461428D01*
X71582380Y-70556666D01*
X71630000Y-70699523D01*
X71677619Y-70747142D01*
X72582380Y-71699523D02*
X72582380Y-71128095D01*
X72582380Y-71413809D02*
X71582380Y-71413809D01*
X71725238Y-71318571D01*
X71820476Y-71223333D01*
X71868095Y-71128095D01*
X72582380Y-72175714D02*
X72582380Y-72366190D01*
X72534761Y-72461428D01*
X72487142Y-72509047D01*
X72344285Y-72604285D01*
X72153809Y-72651904D01*
X71772857Y-72651904D01*
X71677619Y-72604285D01*
X71630000Y-72556666D01*
X71582380Y-72461428D01*
X71582380Y-72270952D01*
X71630000Y-72175714D01*
X71677619Y-72128095D01*
X71772857Y-72080476D01*
X72010952Y-72080476D01*
X72106190Y-72128095D01*
X72153809Y-72175714D01*
X72201428Y-72270952D01*
X72201428Y-72461428D01*
X72153809Y-72556666D01*
X72106190Y-72604285D01*
X72010952Y-72651904D01*
%TO.C,R40*%
X75445357Y-50202380D02*
X75778690Y-49726190D01*
X76016785Y-50202380D02*
X76016785Y-49202380D01*
X75635833Y-49202380D01*
X75540595Y-49250000D01*
X75492976Y-49297619D01*
X75445357Y-49392857D01*
X75445357Y-49535714D01*
X75492976Y-49630952D01*
X75540595Y-49678571D01*
X75635833Y-49726190D01*
X76016785Y-49726190D01*
X74588214Y-49535714D02*
X74588214Y-50202380D01*
X74826309Y-49154761D02*
X75064404Y-49869047D01*
X74445357Y-49869047D01*
X73873928Y-49202380D02*
X73778690Y-49202380D01*
X73683452Y-49250000D01*
X73635833Y-49297619D01*
X73588214Y-49392857D01*
X73540595Y-49583333D01*
X73540595Y-49821428D01*
X73588214Y-50011904D01*
X73635833Y-50107142D01*
X73683452Y-50154761D01*
X73778690Y-50202380D01*
X73873928Y-50202380D01*
X73969166Y-50154761D01*
X74016785Y-50107142D01*
X74064404Y-50011904D01*
X74112023Y-49821428D01*
X74112023Y-49583333D01*
X74064404Y-49392857D01*
X74016785Y-49297619D01*
X73969166Y-49250000D01*
X73873928Y-49202380D01*
%TO.C,C23*%
X80107142Y-134607142D02*
X80154761Y-134559523D01*
X80202380Y-134416666D01*
X80202380Y-134321428D01*
X80154761Y-134178571D01*
X80059523Y-134083333D01*
X79964285Y-134035714D01*
X79773809Y-133988095D01*
X79630952Y-133988095D01*
X79440476Y-134035714D01*
X79345238Y-134083333D01*
X79250000Y-134178571D01*
X79202380Y-134321428D01*
X79202380Y-134416666D01*
X79250000Y-134559523D01*
X79297619Y-134607142D01*
X79297619Y-134988095D02*
X79250000Y-135035714D01*
X79202380Y-135130952D01*
X79202380Y-135369047D01*
X79250000Y-135464285D01*
X79297619Y-135511904D01*
X79392857Y-135559523D01*
X79488095Y-135559523D01*
X79630952Y-135511904D01*
X80202380Y-134940476D01*
X80202380Y-135559523D01*
X79202380Y-135892857D02*
X79202380Y-136511904D01*
X79583333Y-136178571D01*
X79583333Y-136321428D01*
X79630952Y-136416666D01*
X79678571Y-136464285D01*
X79773809Y-136511904D01*
X80011904Y-136511904D01*
X80107142Y-136464285D01*
X80154761Y-136416666D01*
X80202380Y-136321428D01*
X80202380Y-136035714D01*
X80154761Y-135940476D01*
X80107142Y-135892857D01*
%TO.C,R44*%
X79202380Y-46107142D02*
X78726190Y-45773809D01*
X79202380Y-45535714D02*
X78202380Y-45535714D01*
X78202380Y-45916666D01*
X78250000Y-46011904D01*
X78297619Y-46059523D01*
X78392857Y-46107142D01*
X78535714Y-46107142D01*
X78630952Y-46059523D01*
X78678571Y-46011904D01*
X78726190Y-45916666D01*
X78726190Y-45535714D01*
X78535714Y-46964285D02*
X79202380Y-46964285D01*
X78154761Y-46726190D02*
X78869047Y-46488095D01*
X78869047Y-47107142D01*
X78535714Y-47916666D02*
X79202380Y-47916666D01*
X78154761Y-47678571D02*
X78869047Y-47440476D01*
X78869047Y-48059523D01*
%TO.C,U11*%
X75738095Y-71162380D02*
X75738095Y-71971904D01*
X75690476Y-72067142D01*
X75642857Y-72114761D01*
X75547619Y-72162380D01*
X75357142Y-72162380D01*
X75261904Y-72114761D01*
X75214285Y-72067142D01*
X75166666Y-71971904D01*
X75166666Y-71162380D01*
X74166666Y-72162380D02*
X74738095Y-72162380D01*
X74452380Y-72162380D02*
X74452380Y-71162380D01*
X74547619Y-71305238D01*
X74642857Y-71400476D01*
X74738095Y-71448095D01*
X73214285Y-72162380D02*
X73785714Y-72162380D01*
X73500000Y-72162380D02*
X73500000Y-71162380D01*
X73595238Y-71305238D01*
X73690476Y-71400476D01*
X73785714Y-71448095D01*
%TO.C,C16*%
X72427142Y-134307142D02*
X72474761Y-134259523D01*
X72522380Y-134116666D01*
X72522380Y-134021428D01*
X72474761Y-133878571D01*
X72379523Y-133783333D01*
X72284285Y-133735714D01*
X72093809Y-133688095D01*
X71950952Y-133688095D01*
X71760476Y-133735714D01*
X71665238Y-133783333D01*
X71570000Y-133878571D01*
X71522380Y-134021428D01*
X71522380Y-134116666D01*
X71570000Y-134259523D01*
X71617619Y-134307142D01*
X72522380Y-135259523D02*
X72522380Y-134688095D01*
X72522380Y-134973809D02*
X71522380Y-134973809D01*
X71665238Y-134878571D01*
X71760476Y-134783333D01*
X71808095Y-134688095D01*
X71522380Y-136116666D02*
X71522380Y-135926190D01*
X71570000Y-135830952D01*
X71617619Y-135783333D01*
X71760476Y-135688095D01*
X71950952Y-135640476D01*
X72331904Y-135640476D01*
X72427142Y-135688095D01*
X72474761Y-135735714D01*
X72522380Y-135830952D01*
X72522380Y-136021428D01*
X72474761Y-136116666D01*
X72427142Y-136164285D01*
X72331904Y-136211904D01*
X72093809Y-136211904D01*
X71998571Y-136164285D01*
X71950952Y-136116666D01*
X71903333Y-136021428D01*
X71903333Y-135830952D01*
X71950952Y-135735714D01*
X71998571Y-135688095D01*
X72093809Y-135640476D01*
%TO.C,U10*%
X75738095Y-43332380D02*
X75738095Y-44141904D01*
X75690476Y-44237142D01*
X75642857Y-44284761D01*
X75547619Y-44332380D01*
X75357142Y-44332380D01*
X75261904Y-44284761D01*
X75214285Y-44237142D01*
X75166666Y-44141904D01*
X75166666Y-43332380D01*
X74166666Y-44332380D02*
X74738095Y-44332380D01*
X74452380Y-44332380D02*
X74452380Y-43332380D01*
X74547619Y-43475238D01*
X74642857Y-43570476D01*
X74738095Y-43618095D01*
X73547619Y-43332380D02*
X73452380Y-43332380D01*
X73357142Y-43380000D01*
X73309523Y-43427619D01*
X73261904Y-43522857D01*
X73214285Y-43713333D01*
X73214285Y-43951428D01*
X73261904Y-44141904D01*
X73309523Y-44237142D01*
X73357142Y-44284761D01*
X73452380Y-44332380D01*
X73547619Y-44332380D01*
X73642857Y-44284761D01*
X73690476Y-44237142D01*
X73738095Y-44141904D01*
X73785714Y-43951428D01*
X73785714Y-43713333D01*
X73738095Y-43522857D01*
X73690476Y-43427619D01*
X73642857Y-43380000D01*
X73547619Y-43332380D01*
%TO.C,R46*%
X79452380Y-146357142D02*
X78976190Y-146023809D01*
X79452380Y-145785714D02*
X78452380Y-145785714D01*
X78452380Y-146166666D01*
X78500000Y-146261904D01*
X78547619Y-146309523D01*
X78642857Y-146357142D01*
X78785714Y-146357142D01*
X78880952Y-146309523D01*
X78928571Y-146261904D01*
X78976190Y-146166666D01*
X78976190Y-145785714D01*
X78785714Y-147214285D02*
X79452380Y-147214285D01*
X78404761Y-146976190D02*
X79119047Y-146738095D01*
X79119047Y-147357142D01*
X78452380Y-148166666D02*
X78452380Y-147976190D01*
X78500000Y-147880952D01*
X78547619Y-147833333D01*
X78690476Y-147738095D01*
X78880952Y-147690476D01*
X79261904Y-147690476D01*
X79357142Y-147738095D01*
X79404761Y-147785714D01*
X79452380Y-147880952D01*
X79452380Y-148071428D01*
X79404761Y-148166666D01*
X79357142Y-148214285D01*
X79261904Y-148261904D01*
X79023809Y-148261904D01*
X78928571Y-148214285D01*
X78880952Y-148166666D01*
X78833333Y-148071428D01*
X78833333Y-147880952D01*
X78880952Y-147785714D01*
X78928571Y-147738095D01*
X79023809Y-147690476D01*
D14*
%TO.C,C18*%
X72592500Y-46660580D02*
X72592500Y-46379420D01*
X71572500Y-46660580D02*
X71572500Y-46379420D01*
%TO.C,R45*%
X77900000Y-74282742D02*
X77900000Y-74757258D01*
X76855000Y-74282742D02*
X76855000Y-74757258D01*
%TO.C,R42*%
X75171008Y-148742500D02*
X74696492Y-148742500D01*
X75171008Y-147697500D02*
X74696492Y-147697500D01*
%TO.C,C17*%
X71478750Y-154220580D02*
X71478750Y-153939420D01*
X72498750Y-154220580D02*
X72498750Y-153939420D01*
%TO.C,C27*%
X76990000Y-143890580D02*
X76990000Y-143609420D01*
X78010000Y-143890580D02*
X78010000Y-143609420D01*
%TO.C,C28*%
X76960000Y-159865580D02*
X76960000Y-159584420D01*
X77980000Y-159865580D02*
X77980000Y-159584420D01*
%TO.C,R35*%
X74996008Y-156302500D02*
X74521492Y-156302500D01*
X74996008Y-155257500D02*
X74521492Y-155257500D01*
%TO.C,U7*%
X75832500Y-65980000D02*
X73832500Y-65980000D01*
X74832500Y-63760000D02*
X73832500Y-63760000D01*
%TO.C,C25*%
X78990000Y-37609420D02*
X78990000Y-37890580D01*
X80010000Y-37609420D02*
X80010000Y-37890580D01*
%TO.C,R32*%
X75172258Y-39722500D02*
X74697742Y-39722500D01*
X75172258Y-38677500D02*
X74697742Y-38677500D01*
%TO.C,U9*%
X75658750Y-154500000D02*
X73658750Y-154500000D01*
X74658750Y-152280000D02*
X73658750Y-152280000D01*
%TO.C,U13*%
X74982500Y-161190000D02*
X73982500Y-161190000D01*
X75982500Y-163410000D02*
X73982500Y-163410000D01*
%TO.C,C21*%
X72792500Y-163160580D02*
X72792500Y-162879420D01*
X71772500Y-163160580D02*
X71772500Y-162879420D01*
%TO.C,U6*%
X74905000Y-35780000D02*
X73905000Y-35780000D01*
X75905000Y-38000000D02*
X73905000Y-38000000D01*
%TO.C,R43*%
X75279758Y-165112500D02*
X74805242Y-165112500D01*
X75279758Y-164067500D02*
X74805242Y-164067500D01*
%TO.C,R38*%
X76821250Y-137847742D02*
X76821250Y-138322258D01*
X77866250Y-137847742D02*
X77866250Y-138322258D01*
%TO.C,R34*%
X75011008Y-138922500D02*
X74536492Y-138922500D01*
X75011008Y-139967500D02*
X74536492Y-139967500D01*
%TO.C,R41*%
X75084758Y-75447500D02*
X74610242Y-75447500D01*
X75084758Y-76492500D02*
X74610242Y-76492500D01*
%TO.C,R33*%
X75179758Y-66677500D02*
X74705242Y-66677500D01*
X75179758Y-67722500D02*
X74705242Y-67722500D01*
%TO.C,C24*%
X76960000Y-151340580D02*
X76960000Y-151059420D01*
X77980000Y-151340580D02*
X77980000Y-151059420D01*
%TO.C,R37*%
X76900000Y-65592742D02*
X76900000Y-66067258D01*
X77945000Y-65592742D02*
X77945000Y-66067258D01*
%TO.C,C26*%
X76990000Y-71390580D02*
X76990000Y-71109420D01*
X78010000Y-71390580D02*
X78010000Y-71109420D01*
%TO.C,C22*%
X78010000Y-62890580D02*
X78010000Y-62609420D01*
X76990000Y-62890580D02*
X76990000Y-62609420D01*
%TO.C,U8*%
X75693750Y-138235000D02*
X73693750Y-138235000D01*
X74693750Y-136015000D02*
X73693750Y-136015000D01*
%TO.C,C15*%
X72672500Y-65680580D02*
X72672500Y-65399420D01*
X71652500Y-65680580D02*
X71652500Y-65399420D01*
%TO.C,C20*%
X71803750Y-146700580D02*
X71803750Y-146419420D01*
X72823750Y-146700580D02*
X72823750Y-146419420D01*
%TO.C,R39*%
X76796250Y-154122742D02*
X76796250Y-154597258D01*
X77841250Y-154122742D02*
X77841250Y-154597258D01*
%TO.C,U12*%
X75903750Y-146970000D02*
X73903750Y-146970000D01*
X74903750Y-144750000D02*
X73903750Y-144750000D01*
%TO.C,R36*%
X77937500Y-37582742D02*
X77937500Y-38057258D01*
X76892500Y-37582742D02*
X76892500Y-38057258D01*
%TO.C,C14*%
X72865000Y-37710580D02*
X72865000Y-37429420D01*
X71845000Y-37710580D02*
X71845000Y-37429420D01*
%TO.C,C29*%
X77760000Y-43540580D02*
X77760000Y-43259420D01*
X76740000Y-43540580D02*
X76740000Y-43259420D01*
%TO.C,R47*%
X76830000Y-162852742D02*
X76830000Y-163327258D01*
X77875000Y-162852742D02*
X77875000Y-163327258D01*
%TO.C,C19*%
X72547500Y-74490580D02*
X72547500Y-74209420D01*
X71527500Y-74490580D02*
X71527500Y-74209420D01*
%TO.C,R40*%
X75039758Y-48672500D02*
X74565242Y-48672500D01*
X75039758Y-47627500D02*
X74565242Y-47627500D01*
%TO.C,C23*%
X80260000Y-138109420D02*
X80260000Y-138390580D01*
X79240000Y-138109420D02*
X79240000Y-138390580D01*
%TO.C,R44*%
X76840000Y-46472742D02*
X76840000Y-46947258D01*
X77885000Y-46472742D02*
X77885000Y-46947258D01*
%TO.C,U11*%
X74827500Y-72550000D02*
X73827500Y-72550000D01*
X75827500Y-74770000D02*
X73827500Y-74770000D01*
%TO.C,C16*%
X71533750Y-137985580D02*
X71533750Y-137704420D01*
X72553750Y-137985580D02*
X72553750Y-137704420D01*
%TO.C,U10*%
X74752500Y-44720000D02*
X73752500Y-44720000D01*
X75752500Y-46940000D02*
X73752500Y-46940000D01*
%TO.C,R46*%
X76831250Y-146532742D02*
X76831250Y-147007258D01*
X77876250Y-146532742D02*
X77876250Y-147007258D01*
%TD*%
M02*
